<svg id="레이어_1" data-name="레이어 1" xmlns="http://www.w3.org/2000/svg" viewBox="0 0 837.58 571.27"><defs><style>.cls-1,.cls-7{fill:none;}.cls-2{fill:#c1c1c1;}.cls-3{fill:#231815;}.cls-4{fill:#c1c2c2;}.cls-5{fill:#b60005;}.cls-6{fill:#9b0005;}.cls-7{stroke:#5b5b5b;stroke-miterlimit:10;stroke-width:0.5px;}.cls-8{fill:#5b5b5b;}.cls-9{fill:#fff;}</style></defs><title>K관 약도-outlined</title><rect class="cls-1" width="837.58" height="571.27"/><polygon class="cls-2" points="550.31 225.46 542.67 198.29 503.66 209.26 496.76 184.72 668.93 136.32 676.07 160.8 632.16 173.14 639.8 200.31 634.94 201.67 625.94 169.65 669.8 157.32 665.49 142.53 502.98 188.21 507.15 203.04 546.16 192.07 555.17 224.1 550.31 225.46"/><path class="cls-3" d="M1472.76,399.71s-.38-.09-.25-.37a2.88,2.88,0,0,0,.36-1.6,1.25,1.25,0,0,0-.34-.87c-.22-.16-.3-.05-.33,0s0,.11-.15.31-.22.45-1.34,1.44-.84.8-1.18,1.06-1.15,1-1.12,1.68.34.94.92.84a2.13,2.13,0,0,0,1.05-.67,2.83,2.83,0,0,1,.67-.48,1.2,1.2,0,0,1,1.35.35c.36.43.31.77-.17,1.41a1.44,1.44,0,0,1-.17.36,3.83,3.83,0,0,1-1.33.78c-.53.15-.49,0-.71,0a2.2,2.2,0,0,0-1.07.74c-.15.29-.15.49.3.85s.65.25,1.39,0a6.53,6.53,0,0,0,2.46-1.74,3.65,3.65,0,0,0,.76-2.61A1.62,1.62,0,0,0,1472.76,399.71Z" transform="translate(-734.9 -365.78)"/><path class="cls-3" d="M1478.35,399.34a3.55,3.55,0,0,0-.88-2.47.62.62,0,0,0-.66.11c-.35.28-.3.83-.3,1.1a1.75,1.75,0,0,1,0,.56,3.73,3.73,0,0,0,0,1.27c0,.21-.24.41-.61.41s-1.32.07-1.32.07l-.17,0c-.28.06-.1.33,0,.5a.81.81,0,0,0,.43.49,2.39,2.39,0,0,0,.78.29c.33,0,.85,0,.85,0,.2.06.27,0,.3.22s.1,2.95.24,3.32a.56.56,0,0,0,.54.41c.17,0,.27.26.71-.17s.31-1.08.24-2.17S1478.35,399.34,1478.35,399.34Z" transform="translate(-734.9 -365.78)"/><path class="cls-3" d="M1484.47,400.91a2.08,2.08,0,0,0,1.5-1.41c.25-.61.59-2.13.08-2.61s-.6-.32-.67-.32-.45.11-.58.1a5.39,5.39,0,0,0-1.09-.05,9.09,9.09,0,0,1-1.71-.11c-.21-.05-.43-.19-.61-.25s-.44.18-.44.18-.58.6-.58,1,.18.68,1,.73a2.21,2.21,0,0,0,1.27-.27c.31-.12,1.38-.62,1.78-.35s-.11,1.83-1.12,3.44a3.15,3.15,0,0,1,.69-.13C1484.23,400.84,1484.3,400.93,1484.47,400.91Z" transform="translate(-734.9 -365.78)"/><path class="cls-3" d="M1492.5,398.29a1.88,1.88,0,0,0-.09-.27c-.11-.25-.66-.2-.84-.22a3,3,0,0,0-.75,0,2.55,2.55,0,0,1-.8.06c-.28,0-.56,0-.81-.05l-.35,0c0-.27-.07-.53-.1-.66s-.07-1.44-.81-1.44c-.22,0-.32.22-.41.29a2.73,2.73,0,0,0-.4,1.31,22.74,22.74,0,0,0,.09,2.61.7.7,0,0,0,.38.58,4,4,0,0,0,.54.11.55.55,0,0,0,.52-.16c.26-.26.22-.3.25-.6s0-1,0-1.16l.36,0a2.6,2.6,0,0,1,1,.54,3,3,0,0,0,1.19.17c.23,0,.4-.19.62-.25.61-.16.52-.41.48-.5A1.12,1.12,0,0,1,1492.5,398.29Z" transform="translate(-734.9 -365.78)"/><path class="cls-3" d="M1488.29,401.25l-.84-.14a.49.49,0,0,0-.16-.32.45.45,0,0,0-.43,0,9.22,9.22,0,0,0-1.08.26,2.63,2.63,0,0,0-1.91,3.28,2.56,2.56,0,0,0,2.21,2,4.76,4.76,0,0,0,3.05-.56,2.57,2.57,0,0,0,.89-2.52A2.51,2.51,0,0,0,1488.29,401.25Zm.11,3.24a2.06,2.06,0,0,1-2.33.28,1.4,1.4,0,0,1-.5-2,1.31,1.31,0,0,1,1-.74c.77,0,.78,0,.78,0,.84.18.92.47,1.07.66A1.48,1.48,0,0,1,1488.4,404.49Z" transform="translate(-734.9 -365.78)"/><path class="cls-3" d="M1499.21,403.47c-.41.16-.42.23-.78.23a1.06,1.06,0,0,1-.48,0l-.44-.11a1.11,1.11,0,0,1-1-1.19,7.26,7.26,0,0,1,.09-2.34c.18-.21.1-.4.12-.56a.31.31,0,0,1,.34-.2,2.42,2.42,0,0,0,.62.1,2.76,2.76,0,0,1,.48-.1.85.85,0,0,0,.68-.2s.54-.42.56-.73-.07-.72-.77-.72a11,11,0,0,1-1.58-.1l-.76-.09a.87.87,0,0,0-.88.21c-.29.29-.24.48-.13.64s.7.47.67.61-.3.3-.37.4-.21.27-.14.44a.51.51,0,0,1-.16.54,1.12,1.12,0,0,0-.17.71l0,2.36s-.27,1.7,2.5,1.73a10.43,10.43,0,0,0,1.85-.16c.2-.06.26-.24.4-.38a1,1,0,0,0,.07-.61A.57.57,0,0,0,1499.21,403.47Z" transform="translate(-734.9 -365.78)"/><path class="cls-3" d="M1505.15,397.85c0-.05,0-.83-.3-.88a1.34,1.34,0,0,0-.54,0,.38.38,0,0,0-.4.45c0,.47-.14.93-.14,1.29,0,.19.08,2.29.13,3.07l-1,0c0-1.6-.13-3.94-.6-4.26s-.46-.38-.77-.31c-.16,0-.27.09-.3.19a.84.84,0,0,0,0,.65c.1.37,0,3.71.08,4.42a11.17,11.17,0,0,0,.16,2.42.48.48,0,0,0,.61-.05c.24-.2.68,0,.88-.24a5,5,0,0,0,0-1.32s0-.1,0-.19l.27-.11a1.48,1.48,0,0,1,.78-.05c0,.69.06,1.42.07,1.46a.66.66,0,0,0,.66.64c.74,0,.85-.21,1-.88a27.58,27.58,0,0,0-.26-3.45A25.47,25.47,0,0,0,1505.15,397.85Z" transform="translate(-734.9 -365.78)"/><path class="cls-3" d="M1511.9,396.57a.66.66,0,0,0,.88-.41,1,1,0,0,0-.34-1.05,1.17,1.17,0,0,0-1.22-.1s-.47.33-.17.75A3,3,0,0,0,1511.9,396.57Z" transform="translate(-734.9 -365.78)"/><path class="cls-3" d="M1512,403.48a3.29,3.29,0,0,0,.84-.29,2.15,2.15,0,0,1,.6-.31,1.53,1.53,0,0,0,.84-1.08,2.9,2.9,0,0,0-1.11-2.75,5.54,5.54,0,0,0-.92-.48c-.36-.11.38-.18.52-.18s.61.07.76-.29.08-.27.22-.45.08-.33-.19-.54a1.57,1.57,0,0,0-.86-.32c-.38,0-1.35,0-1.69,0l-1.44-.07s-.9-.07-.88.59.09,1,.7,1.19a4.53,4.53,0,0,0,1,.2,3.19,3.19,0,0,0-1.29,1.47,2.29,2.29,0,0,0,.45,2.7A3.2,3.2,0,0,0,1512,403.48Zm-1.44-2.65a1,1,0,0,1,1-1.05,1.41,1.41,0,0,1,1.66,1.12c.09.58-.1.8-.21.84a4.55,4.55,0,0,0-.55.19c-.15.09-.09.2-.34.25a1,1,0,0,1-.81-.16A1.2,1.2,0,0,1,1510.59,400.83Z" transform="translate(-734.9 -365.78)"/><path class="cls-3" d="M1519.58,399.75c-.56-.34-1-.25-2-.34a2.39,2.39,0,0,1-1.3-.43c0-.55,0-1,0-1.26a4.68,4.68,0,0,0-.43-2.32c-.43-.62-.71-.14-.72-.12a2.57,2.57,0,0,1-.2.59c-.09.14-.24.44-.19.57s0,2.76.12,4.23c.11,1.85.15,2.23.49,2.21a1,1,0,0,0,.68-.37,1.12,1.12,0,0,0,.34-1c0-.22,0-.82,0-1.5.37,0,.42.07.77.4a2.39,2.39,0,0,0,1.64.71c.91,0,1.13-.3,1.17-.49A.66.66,0,0,0,1519.58,399.75Z" transform="translate(-734.9 -365.78)"/><path class="cls-3" d="M1517.31,403.58l-.41,0a2.14,2.14,0,0,1-.74-.07,12.21,12.21,0,0,0-2.17-.07,11.34,11.34,0,0,0-2.43.35c-.59.14-.54.43-.56.52s-.12.57.69.52c.64,0,.75-.39,1.63-.39s2.16-.27,2.68-.2.67.18.7.66,0,1.46,0,1.46.07.53.47.48a1,1,0,0,0,.77-.41c.25-.28.2-1.19.2-1.42S1518.21,403.85,1517.31,403.58Z" transform="translate(-734.9 -365.78)"/><path class="cls-3" d="M1525.83,398.12c.34,0,.33.08.52.09a5.91,5.91,0,0,0,1.12-.09,3.45,3.45,0,0,1,1.64.13c.16.18.46.44.53,1.86.07,1.6.09,1.8.31,2.05s.21.22.45.27.52,0,.65-.61c0,0,.1-.81.21-1.26a3.42,3.42,0,0,0,0-1.67,2.16,2.16,0,0,0-1.89-1.72,9.71,9.71,0,0,0-1.08-.13c-.34-.07-1.49,0-1.94,0s-1-.14-1.25-.14-.25.2-.27.36a.48.48,0,0,0,.14.54A1.21,1.21,0,0,0,1525.83,398.12Z" transform="translate(-734.9 -365.78)"/><path class="cls-3" d="M1523.19,402a.72.72,0,0,0,.43.16c.2,0,.34-.27.45-.34a1.94,1.94,0,0,0,.46-.41.19.19,0,0,0,0-.29,3.38,3.38,0,0,1-.24-.74.93.93,0,0,0-.63-.49c-.18,0-.31.1-.36.46a1,1,0,0,1-.22.54.84.84,0,0,0-.11.84A.59.59,0,0,0,1523.19,402Z" transform="translate(-734.9 -365.78)"/><path class="cls-3" d="M1534.33,403.15c0-.14-.25-.18-.48-.23s-.31-.13-.54-.18-2.12,0-2.59,0c-.27,0-1.68-.1-3.47-.11a.82.82,0,0,0,.22-.2,2.2,2.2,0,0,1,.5-.45c.09-.07.31-1.09,0-1.42a4.23,4.23,0,0,0-.76-.74.48.48,0,0,0-.7.4.89.89,0,0,1-.23.45,1.47,1.47,0,0,0-.11.88,6.36,6.36,0,0,1,.18.77,3,3,0,0,0,.07.32,32.66,32.66,0,0,0-3.38.22,2,2,0,0,1-.72,0c-.3-.06-.41-.37-.81-.18a2.22,2.22,0,0,0-.32.34c-.14.18-.07.27-.11.36s-.21.36.11.5a2.2,2.2,0,0,0,.7.25,4.87,4.87,0,0,0,.72.09c.25,0,.86-.21,1.26-.25s4.13-.33,4.91-.28,3.86.14,4.37.23a.81.81,0,0,0,.82-.18A.82.82,0,0,0,1534.33,403.15Z" transform="translate(-734.9 -365.78)"/><path class="cls-3" d="M1471.56,413.77c0-.53-.29-.9-.93-1.18l-.14-.07c-.78-.37-1.58-.87-1.58-1.86a1.93,1.93,0,0,1,2.15-1.94,2.78,2.78,0,0,1,.83.12l.11,0,.36.11h0c0,.11.18,1.46.18,1.46l-.37,0c-.16-.6-.49-1.31-1.24-1.31a.82.82,0,0,0-.82.86c0,.45.28.76,1,1.07l.2.09c.92.44,1.54.94,1.54,2a2.05,2.05,0,0,1-2.29,2,3.36,3.36,0,0,1-1-.16l-.57-.23h0c0-.05-.11-.65-.11-.65l-.18-.92s.28-.06.36-.09c.11.32.63,1.62,1.64,1.62A.87.87,0,0,0,1471.56,413.77Z" transform="translate(-734.9 -365.78)"/><path class="cls-3" d="M1475.85,409.86a2.57,2.57,0,0,0-2.57,2.72,2.43,2.43,0,0,0,2.46,2.58,2.5,2.5,0,0,0,2.5-2.71A2.42,2.42,0,0,0,1475.85,409.86Zm0,4.95c-.75,0-1.27-1-1.27-2.5,0-1.28.43-2.1,1.09-2.1s1.21.77,1.21,2.49C1476.91,414.1,1476.57,414.81,1475.88,414.81Z" transform="translate(-734.9 -365.78)"/><path class="cls-3" d="M1478.82,412.57a2.69,2.69,0,0,1,2.93-2.71,5.89,5.89,0,0,1,1.42.2l.1,1.38-.28,0c-.23-1-.86-1.25-1.35-1.25-.86,0-1.49.93-1.49,2.21s.49,2.39,1.56,2.39c.21,0,.34-.08.34-.46v-.76c0-.56,0-.61-.83-.68v-.31h2.48v.34c-.39.05-.44.09-.44.65v.57l0,.72a7.57,7.57,0,0,1-1.66.28A2.52,2.52,0,0,1,1478.82,412.57Z" transform="translate(-734.9 -365.78)"/><path class="cls-3" d="M1494.1,412.57a2.69,2.69,0,0,1,2.93-2.71,5.89,5.89,0,0,1,1.42.2l.1,1.38-.28,0c-.23-1-.86-1.25-1.35-1.25-.86,0-1.49.93-1.49,2.21s.49,2.39,1.56,2.39c.21,0,.34-.08.34-.46v-.76c0-.56,0-.61-.83-.68v-.31H1499v.34c-.39.05-.44.09-.44.65v.57l0,.72a7.57,7.57,0,0,1-1.66.28A2.52,2.52,0,0,1,1494.1,412.57Z" transform="translate(-734.9 -365.78)"/><path class="cls-3" d="M1487.85,414l-.93-2.67s-.48-1.39-.48-1.47h0l-.5.09-1.5,4.08c-.25.67-.38.71-.75.74v.3h1.71v-.27l-.2,0c-.16,0-.26,0-.31-.11s0-.21,0-.38c0,0,.23-.76.26-.78l1.26,0,.27.8c0,.16.07.26,0,.33s-.11.09-.25.11-.2,0-.2,0v.3h2.3v-.27C1488.22,414.75,1488.09,414.7,1487.85,414Zm-2.56-1,.51-1.59s.5,1.59.47,1.63Z" transform="translate(-734.9 -365.78)"/><path class="cls-3" d="M1492.87,412.16l-.06-1.51c0-.28-.24-.4-.75-.43V410h1.88v.28c-.38,0-.59.12-.63.4l-.06,1.51v2.91h-.61s-2.82-3.76-2.82-3.76v1.55l.06,1.51c0,.28.23.4.75.43v.27h-1.83v-.3c.33,0,.54-.13.57-.4l.06-1.51v-1.45c0-.57,0-.7-.17-.93a.71.71,0,0,0-.57-.26V410h1.63l2.54,3.35Z" transform="translate(-734.9 -365.78)"/><path class="cls-3" d="M1510.91,412.16l-.06-1.51c0-.28-.24-.4-.75-.43V410H1512v.27c-.37,0-.58.13-.62.41l-.06,1.51v2.91h-.61s-2.82-3.76-2.82-3.76v1.55l.06,1.51c0,.28.23.4.75.43v.27h-1.83v-.3c.33,0,.54-.13.57-.4l.06-1.51v-1.45c0-.57,0-.7-.17-.93a.71.71,0,0,0-.57-.26V410h1.63l2.54,3.35Z" transform="translate(-734.9 -365.78)"/><path class="cls-3" d="M1505.64,412v-.57c0-.79,0-1.39-.07-1.78s-.28-.47-.91-.5v-.34h2.27v.36c-.44,0-.68.15-.73.48a16,16,0,0,0-.07,1.78v.73a3.45,3.45,0,0,1-.65,2.28,2.36,2.36,0,0,1-1.71.71,2.53,2.53,0,0,1-1.71-.51,2.76,2.76,0,0,1-.68-2.21v-2.1c0-1-.05-1.12-.72-1.18v-.34h2.89v.36c-.61,0-.68.14-.68,1.16v2c0,1.38.48,2.17,1.3,2.17S1505.64,413.63,1505.64,412Z" transform="translate(-734.9 -365.78)"/><path class="cls-3" d="M1512.33,415.07v-.3c.52,0,.59-.12.59-1v-2.6c0-.84-.05-.94-.59-1V410h2.39v.27c-.52,0-.59.13-.59,1v2.6c0,.84,0,.94.59,1v.27Z" transform="translate(-734.9 -365.78)"/><path class="cls-3" d="M1518,413.44l.76-2.32.07-.23c.08-.25.12-.42.05-.52s-.15-.1-.3-.12h-.21V410h1.78v.27c-.41,0-.54.08-.84.81l-1.52,4h-.53s-1.48-4.06-1.48-4.06c-.25-.69-.4-.72-.77-.77V410h2.39v.28a1,1,0,0,0-.25,0,.3.3,0,0,0-.24.1c-.05.06,0,.16,0,.31l.62,1.71.42,1.15Z" transform="translate(-734.9 -365.78)"/><path class="cls-3" d="M1520.3,415.07v-.3c.58,0,.65-.11.65-1v-2.6c0-.84,0-.92-.57-1V410H1524l.06,1.28h-.3a1.24,1.24,0,0,0-.25-.72c-.12-.14-.36-.19-.79-.19h-.13c-.29,0-.39,0-.39.3v1.52l.47,0c.66,0,.7-.06.77-.66h.29v1.82h-.32c0-.67-.07-.75-.74-.75h-.47v1.31c0,.43,0,.63.16.71a1.57,1.57,0,0,0,.61.07,1.1,1.1,0,0,0,.82-.24,2.55,2.55,0,0,0,.37-.82l.29.07s-.22,1.17-.28,1.37Z" transform="translate(-734.9 -365.78)"/><path class="cls-3" d="M1529.06,414.55l-.54-.84s-.58-1.1-.58-1.17h0a1.35,1.35,0,0,0,1-1.31,1.17,1.17,0,0,0-.52-1,2.17,2.17,0,0,0-1.24-.27h-2.31v.25c.53,0,.57.15.57,1v2.6c0,.84-.07.94-.6,1v.3h2.32v-.27c-.55-.05-.59-.15-.59-1v-1h.13c.14,0,.26.11.34.31a7.79,7.79,0,0,0,.62,1.26c.3.46.56.68,1.58.71h.29l0-.21A.8.8,0,0,1,1529.06,414.55Zm-1.83-2.17a.88.88,0,0,1-.58.14l-.13,0v-1.81c0-.33,0-.37.37-.37s.78.28.78,1A1.25,1.25,0,0,1,1527.23,412.38Z" transform="translate(-734.9 -365.78)"/><path class="cls-3" d="M1531,413c-.64-.3-1.29-.71-1.29-1.52a1.57,1.57,0,0,1,1.76-1.59s.42,0,.68.09a3.23,3.23,0,0,1,.39.11h0c0,.11.14,1.19.14,1.19l-.3,0c-.13-.49-.4-1.08-1-1.08a.68.68,0,0,0-.68.71c0,.38.23.63.79.88l.16.08c.76.36,1.27.77,1.27,1.63a1.67,1.67,0,0,1-1.87,1.65,2.72,2.72,0,0,1-.8-.13l-.47-.19h0s-.09-.54-.09-.54l-.14-.75a1.29,1.29,0,0,0,.28-.06c.09.25.52,1.32,1.35,1.32a.72.72,0,0,0,.72-.81c0-.44-.24-.74-.77-1Z" transform="translate(-734.9 -365.78)"/><path class="cls-3" d="M1533.19,415.07v-.3c.52,0,.59-.12.59-1v-2.6c0-.84,0-.94-.59-1V410h2.4v.28c-.53,0-.6.12-.6,1v2.6c0,.84,0,.94.59,1v.27Z" transform="translate(-734.9 -365.78)"/><path class="cls-3" d="M1536,409.76h.21a.34.34,0,0,0,.38.22h2.94c.21,0,.25-.05.38-.21h.2l.05,1.57h-.3a1.68,1.68,0,0,0-.28-.81c-.12-.14-.32-.2-.73-.2h-.19v3.48c0,.85,0,.94.69,1v.27h-2.6v-.3c.6,0,.68-.11.68-1v-3.45l-.16,0c-.45,0-.67.07-.82.24a2.28,2.28,0,0,0-.23.77h-.28S1536,409.76,1536,409.76Z" transform="translate(-734.9 -365.78)"/><path class="cls-3" d="M1543.71,410.64c0-.11.08-.21,0-.28s-.11-.09-.24-.1l-.3,0V410H1545v.27c-.4,0-.55.13-.81.61l-.79,1.51a1.13,1.13,0,0,0-.15.66v.79c0,.85,0,.94.69,1v.27h-2.56v-.28c.59,0,.66-.13.66-1v-.68a2.12,2.12,0,0,0-.09-.51l-.93-1.78c-.27-.51-.36-.55-.72-.6V410h2.29v.27a1.45,1.45,0,0,0-.3,0,.24.24,0,0,0-.16.08c0,.06,0,.14.05.25l.83,1.72Z" transform="translate(-734.9 -365.78)"/><path class="cls-4" d="M1462.61,407.52a18.87,18.87,0,0,1-.19-13.4l-3.27-3.57h-13.7l-3.28,3.57a18.8,18.8,0,0,1-.19,13.4c-.48,1.25-1.51,4.83.38,7.91,2.17,3.53,7.39,5.78,9.93,7.12v0c2.55-1.34,7.76-3.59,9.93-7.12C1464.12,412.35,1463.1,408.77,1462.61,407.52Z" transform="translate(-734.9 -365.78)"/><path class="cls-5" d="M1442.6,409.83l9.69-9.42,9.91,9.63a2.4,2.4,0,0,0-.06-.3c-.14-.54-.31-1.1-.49-1.69a24.8,24.8,0,0,1-1.46-7.87,27,27,0,0,1,.9-5.87c-.55-.6-2-2.16-2.53-2.67H1446c-.48.51-2,2.07-2.54,2.67a26.39,26.39,0,0,1,.9,5.87,24.52,24.52,0,0,1-1.46,7.87c-.18.59-.34,1.15-.48,1.69a2.52,2.52,0,0,0-.06.28Z" transform="translate(-734.9 -365.78)"/><path class="cls-5" d="M1452.29,405.39l-9.31,8.8a6.32,6.32,0,0,0,.81,1.33c1.52,2,4.21,3.59,6.37,4.72.87.45,1.57.69,2.13,1.05h0c.56-.36,1.26-.6,2.13-1.05,2.15-1.13,4.85-2.69,6.37-4.72a7,7,0,0,0,.81-1.33Z" transform="translate(-734.9 -365.78)"/><path class="cls-4" d="M1446,394.73c0-.24,0-.32-.25-.34v-.08h1.12v.09c-.22,0-.25.1-.25.34v3c0,.25,0,.33.24.35v.09h-1.11v-.09c.22,0,.25-.1.25-.34Z" transform="translate(-734.9 -365.78)"/><path class="cls-4" d="M1450,396v-1.27c0-.24,0-.32-.19-.34v-.1h1.05v.1c-.23,0-.26.1-.26.34v3c0,.24,0,.32.25.35v.09h-1.1v-.09c.23,0,.25-.1.25-.34v-1.5h-1.49v1.5c0,.24,0,.32.23.34v.09h-1.09v-.08c.23,0,.26-.1.26-.34v-3.06c0-.24,0-.32-.26-.34v-.09h1v.08c-.2,0-.18.1-.18.34V396Z" transform="translate(-734.9 -365.78)"/><path class="cls-4" d="M1451.39,397.49a1.18,1.18,0,0,0,1.07.58.64.64,0,0,0,.66-.7c0-.4-.28-.66-.72-.88s-1-.57-1-1.17a1.16,1.16,0,0,1,1.31-1.08,2.46,2.46,0,0,1,.78.13c0,.23,0,.36.07.54h-.1c-.07-.18-.28-.45-.86-.45a.58.58,0,0,0-.59.62c0,.36.27.58.71.79s1.06.58,1.06,1.24a1.25,1.25,0,0,1-1.4,1.18,1.87,1.87,0,0,1-.55-.08,2,2,0,0,1-.41-.13c-.05-.17-.06-.39-.1-.57Z" transform="translate(-734.9 -365.78)"/><path class="cls-4" d="M1455.19,412.37l-.28.83a4.73,4.73,0,0,1,.57.12l-.48,1.31s-1-.16-1.87-.21l0-1.42s.21,0,.48,0l.1-.83c-.48,0-1-.06-1.45-.06s-1,0-1.45.06l.09.83c.28,0,.48,0,.48,0l.06,1.42c-.92.05-1.87.21-1.87.21l-.49-1.32.58-.11-.28-.83a18.9,18.9,0,0,0-3,.74,34.5,34.5,0,0,1,2.41,4,18.13,18.13,0,0,1,7,0,32.1,32.1,0,0,1,2.41-4A18.78,18.78,0,0,0,1455.19,412.37Z" transform="translate(-734.9 -365.78)"/><path class="cls-6" d="M1355.15,400.79c0-6.35-4.69-10.24-9.53-10.24s-9.53,3.89-9.53,10.24c0,5.57,5.27,11.14,8.21,12.71l-.47.47a1,1,0,0,0,.73,1.78h.23c.1,1.58,1.18,5.4,3.6,6.7a.87.87,0,0,0,.39.1.83.83,0,0,0,.39-1.55c-1.69-.91-2.62-4-2.72-5.25h.21a1,1,0,0,0,.74-1.78l-.47-.47C1349.87,411.94,1355.15,406.37,1355.15,400.79Zm-6.72-6.63a.82.82,0,1,1,.71-1.48,8.81,8.81,0,0,1,3.68,3.7.83.83,0,0,1-.47,1.07.8.8,0,0,1-.3.06.83.83,0,0,1-.77-.53A7.35,7.35,0,0,0,1348.43,394.16Z" transform="translate(-734.9 -365.78)"/><rect class="cls-1" x="594.72" y="24.77" width="32" height="32"/><path d="M1362.25,402.69l.58-.69a3.94,3.94,0,0,0,2.84,1.17c1.12,0,1.85-.59,1.85-1.41v0c0-.77-.41-1.21-2.16-1.58s-2.78-1-2.78-2.39v0a2.45,2.45,0,0,1,2.72-2.26,4.36,4.36,0,0,1,2.92,1l-.55.73a3.63,3.63,0,0,0-2.39-.9c-1.08,0-1.76.59-1.76,1.34v0c0,.78.42,1.22,2.25,1.61s2.7,1.08,2.7,2.35v0c0,1.42-1.19,2.34-2.83,2.34A4.83,4.83,0,0,1,1362.25,402.69Z" transform="translate(-734.9 -365.78)"/><path d="M1369.37,400.86v0a3.19,3.19,0,0,1,6.38,0v0a3.18,3.18,0,0,1-3.21,3.2A3.14,3.14,0,0,1,1369.37,400.86Zm5.45,0v0a2.32,2.32,0,0,0-2.28-2.39,2.27,2.27,0,0,0-2.24,2.37v0a2.3,2.3,0,0,0,2.27,2.38A2.27,2.27,0,0,0,1374.82,400.86Z" transform="translate(-734.9 -365.78)"/><path d="M1376.85,405l.42-.71a3.9,3.9,0,0,0,2.35.78,2,2,0,0,0,2.23-2.18v-.72a2.9,2.9,0,0,1-2.4,1.29,2.83,2.83,0,0,1-2.88-2.86v0a2.84,2.84,0,0,1,2.88-2.89,2.88,2.88,0,0,1,2.39,1.23v-1.1h.91v5.06A3,3,0,0,1,1382,405a3.24,3.24,0,0,1-2.33.81A4.81,4.81,0,0,1,1376.85,405Zm5-4.42v0a2.13,2.13,0,0,0-2.25-2.07,2,2,0,0,0-2.12,2.06v0a2.08,2.08,0,0,0,2.12,2.09A2.16,2.16,0,0,0,1381.87,400.54Z" transform="translate(-734.9 -365.78)"/><path d="M1383.85,402.12v0c0-1.3,1.07-2,2.62-2a6.26,6.26,0,0,1,1.88.26v-.22c0-1.1-.67-1.67-1.82-1.67a4.29,4.29,0,0,0-1.86.45l-.27-.74a5,5,0,0,1,2.22-.51,2.68,2.68,0,0,1,2,.67,2.41,2.41,0,0,1,.63,1.79v3.75h-.88V403a2.66,2.66,0,0,1-2.21,1.06A2.07,2.07,0,0,1,1383.85,402.12Zm4.52-.47v-.6a6.45,6.45,0,0,0-1.81-.26c-1.14,0-1.78.5-1.78,1.27v0c0,.77.71,1.22,1.54,1.22A1.85,1.85,0,0,0,1388.37,401.65Z" transform="translate(-734.9 -365.78)"/><path d="M1390.7,397.77h.91v1.07a2.32,2.32,0,0,1,2.1-1.2,2.24,2.24,0,0,1,2.34,2.45v3.81h-.91v-3.58a1.63,1.63,0,0,0-1.69-1.85,1.8,1.8,0,0,0-1.84,1.92v3.51h-.91Z" transform="translate(-734.9 -365.78)"/><path d="M1397.45,405l.41-.71a3.91,3.91,0,0,0,2.36.78,2,2,0,0,0,2.23-2.18v-.72a2.92,2.92,0,0,1-2.41,1.29,2.83,2.83,0,0,1-2.88-2.86v0a2.85,2.85,0,0,1,2.88-2.89,2.89,2.89,0,0,1,2.4,1.23v-1.1h.91v5.06a3,3,0,0,1-.78,2.17,3.26,3.26,0,0,1-2.34.81A4.78,4.78,0,0,1,1397.45,405Zm5-4.42v0a2.14,2.14,0,0,0-2.25-2.07,2,2,0,0,0-2.12,2.06v0a2.08,2.08,0,0,0,2.12,2.09A2.16,2.16,0,0,0,1402.47,400.54Z" transform="translate(-734.9 -365.78)"/><path d="M1362.7,409.75h1.82V418h-1.82Z" transform="translate(-734.9 -365.78)"/><path d="M1365.75,413.92v0a4.22,4.22,0,0,1,4.33-4.29,4.28,4.28,0,0,1,3.27,1.28l-1.16,1.34a3.06,3.06,0,0,0-2.12-.94,2.46,2.46,0,0,0-2.41,2.58v0a2.46,2.46,0,0,0,2.41,2.6,3,3,0,0,0,2.18-1l1.16,1.17a4.37,4.37,0,0,1-7.66-2.78Z" transform="translate(-734.9 -365.78)"/><path d="M1374.39,409.75h3.39c2,0,3.17,1.17,3.17,2.87v0c0,1.92-1.49,2.92-3.35,2.92h-1.39V418h-1.82Zm3.27,4.18a1.28,1.28,0,0,0,1.44-1.25v0c0-.81-.57-1.25-1.48-1.25h-1.41v2.53Z" transform="translate(-734.9 -365.78)"/><path d="M1381.46,413.92v0a4.22,4.22,0,0,1,4.32-4.29,4.26,4.26,0,0,1,3.27,1.28l-1.16,1.34a3.06,3.06,0,0,0-2.12-.94,2.45,2.45,0,0,0-2.4,2.58v0a2.46,2.46,0,0,0,2.4,2.6,3,3,0,0,0,2.18-1l1.16,1.17a4.37,4.37,0,0,1-7.65-2.78Z" transform="translate(-734.9 -365.78)"/><path d="M1395.51,410.62h-2.8v-.87h6.53v.87h-2.8V418h-.93Z" transform="translate(-734.9 -365.78)"/><path d="M1398.48,415v0a3,3,0,0,1,2.94-3.19c1.81,0,2.85,1.44,2.85,3.23a2.91,2.91,0,0,1,0,.3h-4.86a2.14,2.14,0,0,0,2.16,2.07,2.54,2.54,0,0,0,1.93-.86l.57.51a3.18,3.18,0,0,1-2.52,1.15A3,3,0,0,1,1398.48,415Zm4.87-.36a2,2,0,0,0-2-2.08,2.12,2.12,0,0,0-2,2.08Z" transform="translate(-734.9 -365.78)"/><path d="M1404.93,416.27v0c0-1.29,1.07-2,2.62-2a6.36,6.36,0,0,1,1.89.27v-.22c0-1.1-.68-1.67-1.83-1.67a4.29,4.29,0,0,0-1.86.45l-.27-.74a5,5,0,0,1,2.23-.51,2.67,2.67,0,0,1,2,.67,2.41,2.41,0,0,1,.63,1.79V418h-.87v-.92a2.68,2.68,0,0,1-2.22,1.05A2.06,2.06,0,0,1,1404.93,416.27Zm4.52-.48v-.59a6.43,6.43,0,0,0-1.8-.26c-1.15,0-1.79.5-1.79,1.27v0c0,.77.71,1.22,1.54,1.22A1.86,1.86,0,0,0,1409.45,415.79Z" transform="translate(-734.9 -365.78)"/><path d="M1411.78,411.92h.91v1a2.26,2.26,0,0,1,2-1.16,2.07,2.07,0,0,1,2,1.22,2.43,2.43,0,0,1,2.15-1.22,2.2,2.2,0,0,1,2.28,2.46V418h-.92v-3.57c0-1.19-.59-1.85-1.58-1.85a1.72,1.72,0,0,0-1.7,1.89V418h-.9v-3.6c0-1.15-.6-1.82-1.57-1.82a1.78,1.78,0,0,0-1.71,1.93V418h-.91Z" transform="translate(-734.9 -365.78)"/><path d="M766.3,400.5h13.86V428l25.38-27.54h17l-25.74,26.73,26.82,36.27H807l-19.53-26.82-7.29,7.56V463.5H766.3Z" transform="translate(-734.9 -365.78)"/><rect x="1166.61" y="515.16" width="2" height="82.06" transform="translate(-841.85 -29.06) rotate(-15.7)"/><polygon points="434.14 225.75 435.18 224.04 443.6 229.17 448.11 220.4 449.89 221.32 444.39 232 434.14 225.75"/><path d="M1128.3,510.48l.73-1.22a2.76,2.76,0,0,0,2.43.47,1.32,1.32,0,0,0,1-1.62v0c-.22-.8-1.08-1-2.21-.72l-.65.18-.49-.82,1.53-2.94-3.5,1-.34-1.24,5.34-1.5.3,1.06-1.6,2.94c1.27-.19,2.6.11,3,1.6v0a2.69,2.69,0,0,1-2.11,3.36A4,4,0,0,1,1128.3,510.48Z" transform="translate(-734.9 -365.78)"/><path d="M1134.05,504c2.07-.74,3.16-1.86,3-2.83L1134,502l-.26-.94,3.17-.89-.28-1,1.19-.34.28,1,3.18-.9.26.94-3.09.87c.4.89,1.91,1.28,4.07.83l-.12,1a5.38,5.38,0,0,1-4.33-.58c-.39,1.11-1.62,2.09-3.4,2.75Zm9.36-1,.26.94-9.43,2.65-.26-.94Zm-.18,3.76c.32,1.13-.83,2.13-3.09,2.76s-3.77.39-4.09-.74.85-2.12,3.1-2.76S1142.92,505.59,1143.23,506.72Zm-1.2.34c-.16-.57-1.08-.63-2.63-.2s-2.29,1-2.14,1.54,1.09.61,2.62.18S1142.19,507.62,1142,507.06Z" transform="translate(-734.9 -365.78)"/><path d="M1146.35,500c2-.69,3.14-1.63,3.14-2.51l-3.07.86-.25-.89,3.18-.89-.26-.91,1.19-.34.26.91,3.18-.89.25.89-3.08.86c.46.76,1.92,1,4,.52l-.07,1c-1.88.39-3.46.28-4.36-.41-.41,1.06-1.68,2-3.49,2.61Zm5.47.79.23.81,2.94-.83.68,2.43-5.93,1.67.22.78,6.23-1.75.25.89-7.41,2.08-.7-2.49,6-1.67-.21-.73-6,1.68-.25-.88,3-.84-.23-.81-4.1,1.15-.25-.89,9.41-2.64.25.89Z" transform="translate(-734.9 -365.78)"/><path d="M1161.47,495.36a2.9,2.9,0,0,1-5.53,1.56,2.9,2.9,0,0,1,5.53-1.56Zm-4.36,1.23a1.49,1.49,0,0,0,2,1,1.5,1.5,0,1,0-.81-2.88A1.5,1.5,0,0,0,1157.11,496.59Zm2.48,2.74.33,1.15,4.46-1.25-.33-1.15,1.18-.34,1.19,4.22-6.82,1.91-1.18-4.21Zm.92,3.25,4.46-1.25-.33-1.18-4.46,1.26Zm3-10.92,1.57,5.6-1.18.33-1.58-5.6Z" transform="translate(-734.9 -365.78)"/><path d="M1176,494.7l-4.15,1.17,1.22,4.35-1.2.34-1.22-4.35-4.08,1.14-.27-1,6.77-1.9a16.4,16.4,0,0,0-.68-3.58l-6,1.67-.27-1,7.12-2,.25.91a18.76,18.76,0,0,1,.73,3.62l1.46-.41Z" transform="translate(-734.9 -365.78)"/><path d="M1433,534.25l.73-1.22a2.74,2.74,0,0,0,2.42.47,1.32,1.32,0,0,0,1-1.62v0c-.23-.8-1.08-1.05-2.21-.73l-.66.19-.48-.83,1.53-2.93-3.5,1-.35-1.23,5.35-1.51.3,1.07-1.61,2.94c1.27-.19,2.6.1,3,1.59v0a2.69,2.69,0,0,1-2.1,3.36A4.05,4.05,0,0,1,1433,534.25Z" transform="translate(-734.9 -365.78)"/><path d="M1438.78,527.76c2.07-.74,3.16-1.86,3-2.83l-3.09.86-.27-.93,3.18-.89-.28-1,1.19-.33.28,1,3.17-.89.26.94-3.09.87c.4.89,1.92,1.28,4.07.83l-.11,1c-1.86.36-3.42.16-4.34-.58-.39,1.11-1.62,2.09-3.4,2.75Zm9.36-1,.27.95-9.43,2.65-.27-.94Zm-.17,3.77c.32,1.13-.84,2.12-3.1,2.76s-3.77.39-4.08-.75.84-2.12,3.1-2.75S1447.65,529.35,1448,530.49Zm-1.2.33c-.16-.56-1.09-.63-2.64-.19s-2.29,1-2.13,1.53,1.08.62,2.62.19S1446.93,531.39,1446.77,530.82Z" transform="translate(-734.9 -365.78)"/><path d="M1451.08,523.78c2-.69,3.15-1.63,3.15-2.52l-3.07.87-.25-.89,3.17-.9-.26-.91,1.19-.33.26.91,3.19-.89.25.88-3.08.87c.46.76,1.91,1,4,.51l-.08,1c-1.88.4-3.45.29-4.36-.4-.41,1.06-1.68,2-3.49,2.61Zm5.47.79.23.81,2.94-.83.69,2.43-5.94,1.66.22.79,6.24-1.75.25.89-7.42,2.08-.7-2.49,6-1.68-.21-.72-6,1.67-.24-.87,3-.85-.23-.8-4.09,1.15-.25-.89,9.4-2.65.25.89Z" transform="translate(-734.9 -365.78)"/><path d="M1466.2,519.13a2.9,2.9,0,1,1-3.44-1.65A2.6,2.6,0,0,1,1466.2,519.13Zm-4.36,1.23a1.68,1.68,0,1,0,1.2-1.9A1.51,1.51,0,0,0,1461.84,520.36Zm2.49,2.74.32,1.15,4.46-1.25-.32-1.16,1.17-.33,1.19,4.22-6.81,1.91-1.19-4.21Zm.91,3.25,4.46-1.25-.33-1.18-4.46,1.25Zm3-10.92,1.58,5.6-1.19.33-1.58-5.6Z" transform="translate(-734.9 -365.78)"/><path d="M1480.74,518.47l-4.16,1.17,1.23,4.35-1.21.34-1.22-4.35-4.08,1.14-.27-1,6.78-1.9a16.56,16.56,0,0,0-.69-3.59l-5.94,1.67-.27-1,7.11-2,.26.91a19.55,19.55,0,0,1,.73,3.62l1.45-.41Z" transform="translate(-734.9 -365.78)"/><rect x="1444.14" y="563.23" width="39.95" height="2" transform="translate(-832.94 51.24) rotate(-15.69)"/><polygon points="714.14 194.19 715.86 195.23 710.72 203.64 719.49 208.15 718.57 209.93 707.89 204.44 714.14 194.19"/><rect x="1467.6" y="646.7" width="39.95" height="2" transform="translate(-854.64 60.69) rotate(-15.69)"/><polygon points="737.61 277.65 739.32 278.7 734.18 287.11 742.95 291.62 742.04 293.4 731.35 287.91 737.61 277.65"/><path d="M774.57,719l2.12-3.15c.83-1.25,1.1-1.88.89-2.61a1.26,1.26,0,0,0-1.65-.89c-.74.21-1.14.76-1.52,1.74l-1.24-.51a3.45,3.45,0,0,1,2.5-2.53,2.52,2.52,0,0,1,3.35,1.67v0c.36,1.28-.11,2.15-1.22,3.72l-1.27,1.85,3.84-1.08.35,1.25-5.84,1.64Z" transform="translate(-734.9 -365.78)"/><path d="M780.14,712.44c2.07-.74,3.17-1.86,3-2.83l-3.09.86-.27-.93,3.18-.89-.28-1,1.19-.33.28,1,3.17-.89.27.94-3.1.87c.4.89,1.92,1.27,4.07.83l-.11,1c-1.86.36-3.42.16-4.34-.58-.38,1.11-1.62,2.09-3.4,2.75Zm9.36-1,.27,1L780.34,715l-.27-1Zm-.17,3.77c.32,1.13-.84,2.12-3.1,2.76s-3.77.39-4.08-.75.85-2.12,3.1-2.75S789,714,789.33,715.17Zm-1.2.33c-.16-.56-1.09-.63-2.64-.19s-2.29,1-2.13,1.53,1.08.62,2.62.19S788.29,716.07,788.13,715.5Z" transform="translate(-734.9 -365.78)"/><path d="M792.45,708.46c2-.7,3.14-1.63,3.14-2.52l-3.07.87-.25-.89,3.17-.9-.25-.91,1.19-.33.25.91,3.19-.9.25.89-3.08.87c.46.75,1.91,1,4,.51l-.08,1c-1.88.4-3.45.29-4.36-.4-.41,1.06-1.68,2-3.49,2.61Zm5.46.79.23.81,3-.83.68,2.43-5.94,1.66.22.79,6.24-1.75.25.89-7.42,2.08-.7-2.49,6-1.68-.2-.72-6,1.67-.25-.87,3-.85-.23-.81-4.09,1.16-.25-.89,9.41-2.65.25.89Z" transform="translate(-734.9 -365.78)"/><path d="M807.57,703.81a2.9,2.9,0,1,1-3.45-1.65A2.61,2.61,0,0,1,807.57,703.81ZM803.2,705a1.68,1.68,0,1,0,1.2-1.9A1.51,1.51,0,0,0,803.2,705Zm2.49,2.74.32,1.15,4.46-1.25-.32-1.16,1.18-.33,1.18,4.22-6.81,1.91-1.19-4.21Zm.91,3.25,4.46-1.25-.33-1.18-4.46,1.25Zm3-10.92,1.58,5.6L810,706l-1.57-5.6Z" transform="translate(-734.9 -365.78)"/><path d="M822.1,703.15l-4.16,1.17,1.23,4.35L818,709l-1.23-4.35-4.07,1.14-.28-1,6.78-1.9a16.56,16.56,0,0,0-.69-3.59L812.54,701l-.27-1,7.11-2,.26.91a19.55,19.55,0,0,1,.73,3.62l1.45-.41Z" transform="translate(-734.9 -365.78)"/><rect x="792.9" y="746.4" width="39.95" height="2" transform="translate(-906.75 -118.07) rotate(-15.69)"/><polygon points="93.03 385.88 91.33 384.84 96.46 376.42 87.69 371.91 88.61 370.13 99.29 375.63 93.03 385.88"/><rect x="813.78" y="819.93" width="39.95" height="2" transform="translate(-925.86 -109.68) rotate(-15.69)"/><polygon points="113.91 459.42 112.2 458.38 117.34 449.96 108.57 445.45 109.49 443.67 120.17 449.16 113.91 459.42"/><path class="cls-7" d="M1240.31,571.93" transform="translate(-734.9 -365.78)"/><polygon class="cls-8" points="604.51 361.45 589.11 306.68 589.35 306.61 661.61 286.3 661.68 286.54 669.57 314.61 669.09 314.75 661.27 286.92 589.73 307.02 604.99 361.32 604.51 361.45"/><polygon class="cls-8" points="518.75 361.01 509.75 328.99 509.99 328.92 589.35 306.61 589.49 307.09 510.36 329.33 519.23 360.88 518.75 361.01"/><polygon class="cls-8" points="589.25 261.42 589.18 261.18 577.03 217.95 577.51 217.82 589.59 260.81 649.22 244.05 637.13 201.06 637.61 200.92 649.83 244.39 649.59 244.46 589.25 261.42"/><polygon class="cls-8" points="525.7 279.29 525.63 279.05 513.48 235.82 513.96 235.68 526.05 278.67 589.35 260.88 589.49 261.36 525.7 279.29"/><polygon class="cls-8" points="438.29 383.63 425.9 339.58 426.14 339.51 506.85 316.83 510.29 329.09 509.81 329.23 506.5 317.44 426.52 339.93 438.77 383.5 438.29 383.63"/><polygon points="330.61 334.39 330.47 333.91 318.32 290.68 319.28 290.4 331.3 333.15 386.95 317.51 375.34 274.64 376.3 274.38 388.17 318.21 330.61 334.39"/><polygon class="cls-8" points="442.66 302.63 442.59 302.39 430.44 259.16 430.92 259.02 443.01 302.01 482.59 290.89 482.72 291.37 442.66 302.63"/><polygon class="cls-8" points="482.48 291.44 482.41 291.2 470.24 248.17 470.72 248.03 482.83 290.82 525.81 278.74 525.94 279.22 482.48 291.44"/><polygon class="cls-8" points="347.84 394.75 339.18 363.96 339.42 363.89 383.92 351.38 384.05 351.87 339.8 364.31 348.32 394.62 347.84 394.75"/><polygon class="cls-8" points="396.06 395.5 383.67 351.45 383.92 351.38 426.14 339.51 426.28 339.99 384.29 351.8 396.54 395.37 396.06 395.5"/><polygon class="cls-8" points="124.08 374.99 123.94 374.51 306.67 323.15 299.06 296.09 299.54 295.96 307.28 323.49 307.04 323.56 124.08 374.99"/><polygon class="cls-8" points="141.9 437.76 141.76 437.28 324.8 385.82 328.82 400.1 328.34 400.24 324.46 386.44 141.9 437.76"/><rect class="cls-8" x="1041.5" y="686.11" width="20.26" height="0.5" transform="translate(-881.19 -56.27) rotate(-15.67)"/><rect class="cls-8" x="1059.16" y="748.92" width="20.26" height="0.5" transform="translate(-897.5 -49.16) rotate(-15.67)"/><rect class="cls-8" x="873.03" y="707.59" width="0.5" height="28.35" transform="translate(-898.69 -100.14) rotate(-15.83)"/><rect class="cls-8" x="891.33" y="702.44" width="0.5" height="28.35" transform="translate(-896.6 -95.34) rotate(-15.83)"/><rect class="cls-8" x="909.63" y="697.3" width="0.5" height="28.35" transform="translate(-894.5 -90.53) rotate(-15.83)"/><rect class="cls-8" x="927.94" y="692.15" width="0.5" height="28.35" transform="translate(-892.41 -85.72) rotate(-15.83)"/><rect class="cls-8" x="946.24" y="687.01" width="0.5" height="28.35" transform="translate(-890.31 -80.92) rotate(-15.83)"/><rect class="cls-8" x="964.54" y="681.86" width="0.5" height="28.35" transform="translate(-888.23 -76.08) rotate(-15.84)"/><rect class="cls-8" x="982.93" y="676.7" width="0.5" height="28.35" transform="translate(-886.1 -71.31) rotate(-15.83)"/><rect class="cls-8" x="1001.23" y="671.55" width="0.5" height="28.35" transform="translate(-883.99 -66.54) rotate(-15.83)"/><rect class="cls-8" x="1019.53" y="666.4" width="0.5" height="28.35" transform="translate(-881.9 -61.71) rotate(-15.83)"/><rect class="cls-8" x="898.36" y="797.7" width="0.5" height="28.35" transform="translate(-922.33 -89.79) rotate(-15.83)"/><rect class="cls-8" x="916.66" y="792.55" width="0.5" height="28.35" transform="translate(-920.23 -84.99) rotate(-15.83)"/><rect class="cls-8" x="934.96" y="787.41" width="0.5" height="28.35" transform="translate(-918.13 -80.2) rotate(-15.83)"/><rect class="cls-8" x="971.57" y="777.12" width="0.5" height="28.35" transform="translate(-913.94 -70.59) rotate(-15.83)"/><rect class="cls-8" x="989.87" y="771.97" width="0.5" height="28.35" transform="translate(-911.84 -65.79) rotate(-15.83)"/><rect class="cls-8" x="1008.26" y="766.8" width="0.5" height="28.35" transform="translate(-909.73 -60.98) rotate(-15.83)"/><rect class="cls-8" x="1026.56" y="761.66" width="0.5" height="28.35" transform="translate(-907.63 -56.17) rotate(-15.83)"/><rect class="cls-8" x="1044.86" y="756.51" width="0.5" height="28.35" transform="translate(-905.53 -51.38) rotate(-15.83)"/><path class="cls-8" d="M963.2,761.43l-.07-.24-8.6-30.6.24-.07,91.76-25.8.07.25,8.6,30.6-.24.06Zm-8.05-30.5,8.4,29.88,91-25.59-8.4-29.88Z" transform="translate(-734.9 -365.78)"/><polygon class="cls-8" points="137.21 421.25 137.08 420.77 209.86 400.31 201.46 370.43 128.6 390.92 128.46 390.44 201.81 369.82 210.47 400.66 210.23 400.73 137.21 421.25"/><polygon class="cls-8" points="191.62 405.7 183.09 375.34 183.57 375.2 192.1 405.56 191.62 405.7"/><rect class="cls-8" x="977.16" y="725.03" width="0.5" height="31.54" transform="translate(-898.92 -73.61) rotate(-15.7)"/><rect class="cls-8" x="958.73" y="743.04" width="19.03" height="0.5" transform="translate(-900.52 -74.54) rotate(-15.78)"/><rect class="cls-8" x="903.88" y="745.63" width="0.5" height="31.65" transform="translate(-904.57 -98.51) rotate(-15.39)"/><rect class="cls-8" x="1380.94" y="593.76" width="45.35" height="0.5" transform="translate(-843.17 35.36) rotate(-15.67)"/><path d="M882.74,833.68l-12.47-43.91a15.79,15.79,0,0,1-2.53.21,18.31,18.31,0,0,1-7.37-35.1l-12.32-43.37,259.58-73-5-18.24a30.94,30.94,0,1,1,59.63-16.51l5.11,18,250.47-70.41,9.42,33.5a34.9,34.9,0,0,1,18.84,67l7.14,25.39L1418,687.16l-2.07-7.36-8.56,2.41,7.44,26.46-156.24,43.91-6.39-22.75-167.19,47-3.72-13.25-14.65,4.11,3.75,13.33Zm-9-50,12.44,43.78,177.9-49.93-3.75-13.33,24.36-6.84,3.72,13.25,167.19-47,6.39,22.75,146.53-41.2-7.43-26.46,18.26-5.13,2.07,7.36,25.52-7.18-7.12-25.3,2.43-.68a29.85,29.85,0,1,0-16.16-57.48l-2.42.68-9.4-33.41L1163.85,628l-6.49-22.87a25.91,25.91,0,1,0-49.93,13.8l6.39,23.13-2.41.68L854.29,715l12.26,43.19-2.43.69a13.28,13.28,0,0,0,3.62,26.06,13,13,0,0,0,3.62-.57Z" transform="translate(-734.9 -365.78)"/><rect class="cls-8" x="1398.47" y="656.09" width="45.35" height="0.5" transform="translate(-859.35 42.41) rotate(-15.67)"/><path d="M1362.54,691.06l.36-.4a2,2,0,0,0,1.39.68,1.11,1.11,0,0,0,1.19-1.09h0a1.09,1.09,0,0,0-1.22-1,2,2,0,0,0-1,.28l-.37-.25.14-2.39h2.82v.51h-2.34l-.1,1.57a2.27,2.27,0,0,1,1-.21,1.53,1.53,0,0,1,1.7,1.49v0a1.61,1.61,0,0,1-1.75,1.61A2.5,2.5,0,0,1,1362.54,691.06Z" transform="translate(-734.9 -365.78)"/><path d="M1366.46,689.32v0a2.28,2.28,0,0,1,2.08-2.53,2.26,2.26,0,0,1,2.06,2.52h0a2.11,2.11,0,1,1-4.14,0Zm3.57,0v0c0-1.07-.59-2-1.5-2s-1.49.94-1.49,2h0c0,1.08.59,2,1.5,2S1370,690.39,1370,689.32Z" transform="translate(-734.9 -365.78)"/><path d="M1371.83,687.39l-.92.29-.14-.45,1.2-.41h.41v4.94h-.55Z" transform="translate(-734.9 -365.78)"/><path d="M1286.81,710.35l.37-.4a2,2,0,0,0,1.39.67,1.09,1.09,0,0,0,1.18-1.08v0a1.08,1.08,0,0,0-1.21-1,2.12,2.12,0,0,0-1,.28l-.38-.24.14-2.39h2.83v.51h-2.34l-.11,1.57a2.17,2.17,0,0,1,1-.22,1.53,1.53,0,0,1,1.69,1.5v0a1.6,1.6,0,0,1-1.75,1.61A2.5,2.5,0,0,1,1286.81,710.35Z" transform="translate(-734.9 -365.78)"/><path d="M1290.74,708.61v0a2.28,2.28,0,0,1,2.08-2.53,2.26,2.26,0,0,1,2.06,2.52h0a2.28,2.28,0,0,1-2.07,2.54A2.26,2.26,0,0,1,1290.74,708.61Zm3.56,0v0c0-1.07-.58-2-1.49-2s-1.5.94-1.5,2h0c0,1.07.59,2,1.51,2S1294.3,709.68,1294.3,708.61Z" transform="translate(-734.9 -365.78)"/><path d="M1295.17,710.25l.4-.36a1.76,1.76,0,0,0,1.44.73,1,1,0,0,0,1.07-1h0c0-.61-.57-.95-1.38-.95h-.31l-.11-.33,1.55-1.74h-2.4v-.5h3.13v.41l-1.54,1.71c.85.07,1.62.48,1.62,1.37v0a1.53,1.53,0,0,1-1.64,1.48A2.23,2.23,0,0,1,1295.17,710.25Z" transform="translate(-734.9 -365.78)"/><path d="M1342.38,597.83l.37-.4a2,2,0,0,0,1.39.68,1.11,1.11,0,0,0,1.19-1.09h0a1.09,1.09,0,0,0-1.22-1,2,2,0,0,0-1,.28l-.37-.25.14-2.38h2.82v.5h-2.34l-.11,1.58a2.17,2.17,0,0,1,1-.22,1.53,1.53,0,0,1,1.7,1.5h0a1.61,1.61,0,0,1-1.76,1.61A2.48,2.48,0,0,1,1342.38,597.83Z" transform="translate(-734.9 -365.78)"/><path d="M1346.31,596.09h0a2.28,2.28,0,0,1,2.08-2.54,2.26,2.26,0,0,1,2.06,2.52v0a2.11,2.11,0,1,1-4.14,0Zm3.57,0h0c0-1.08-.59-2-1.5-2s-1.49.94-1.49,2v0c0,1.07.58,2,1.5,2S1349.88,597.16,1349.88,596.09Z" transform="translate(-734.9 -365.78)"/><path d="M1350.73,598.1l1.78-1.57c.75-.67,1-1,1-1.54a.94.94,0,0,0-1-.94,1.6,1.6,0,0,0-1.32.84l-.4-.29a1.94,1.94,0,0,1,1.76-1.05,1.41,1.41,0,0,1,1.52,1.39v0c0,.71-.37,1.15-1.24,1.9l-1.31,1.16h2.6v.51h-3.42Z" transform="translate(-734.9 -365.78)"/><path d="M1280.53,616.57l.36-.4a2.08,2.08,0,0,0,1.4.67,1.09,1.09,0,0,0,1.18-1.08v0a1.09,1.09,0,0,0-1.22-1,2.18,2.18,0,0,0-1,.28l-.37-.24.14-2.39h2.82v.51h-2.34l-.1,1.57a2.3,2.3,0,0,1,1-.22,1.53,1.53,0,0,1,1.7,1.5v0a1.61,1.61,0,0,1-1.75,1.61A2.5,2.5,0,0,1,1280.53,616.57Z" transform="translate(-734.9 -365.78)"/><path d="M1284.46,614.83v0a2.27,2.27,0,0,1,2.08-2.53,2.25,2.25,0,0,1,2,2.52h0a2.28,2.28,0,0,1-2.07,2.54A2.25,2.25,0,0,1,1284.46,614.83Zm3.56,0v0c0-1.07-.59-2-1.5-2s-1.49.94-1.49,2h0c0,1.07.59,2,1.51,2S1288,615.9,1288,614.83Z" transform="translate(-734.9 -365.78)"/><path d="M1291.63,616.1h-2.58l-.14-.4,2.77-3.37h.48v3.31h.77v.46h-.77v1.16h-.53Zm0-.46v-2.53l-2.06,2.53Z" transform="translate(-734.9 -365.78)"/><path d="M1227,630.7l.37-.4a2,2,0,0,0,1.39.67,1.09,1.09,0,0,0,1.18-1.08h0a1.09,1.09,0,0,0-1.21-1,2,2,0,0,0-1,.29l-.37-.25.13-2.39h2.83V627h-2.34l-.11,1.57a2.31,2.31,0,0,1,1-.22,1.53,1.53,0,0,1,1.69,1.5v0a1.6,1.6,0,0,1-1.75,1.61A2.5,2.5,0,0,1,1227,630.7Z" transform="translate(-734.9 -365.78)"/><path d="M1230.89,629v0a2.28,2.28,0,0,1,2.08-2.53,2.26,2.26,0,0,1,2.06,2.52h0a2.11,2.11,0,1,1-4.14,0Zm3.57,0v0c0-1.07-.59-2-1.5-2s-1.5.94-1.5,2h0c0,1.07.59,2,1.51,2S1234.46,630,1234.46,629Z" transform="translate(-734.9 -365.78)"/><path d="M1236.08,631a2.42,2.42,0,0,1-.61-1.9h0c0-1.49.75-2.66,2-2.66a2.19,2.19,0,0,1,1.45.56l-.33.43a1.68,1.68,0,0,0-1.15-.49c-1,0-1.44,1-1.44,2.1v.07a1.59,1.59,0,0,1,1.4-.75,1.57,1.57,0,0,1,1.69,1.5v0a1.66,1.66,0,0,1-1.76,1.63A1.78,1.78,0,0,1,1236.08,631Zm2.48-1.11v0a1.09,1.09,0,0,0-1.19-1.05,1.15,1.15,0,0,0-1.23,1.08h0a1.15,1.15,0,0,0,1.24,1.1A1.11,1.11,0,0,0,1238.56,629.87Z" transform="translate(-734.9 -365.78)"/><path d="M1185.51,642.79l.37-.4a2,2,0,0,0,1.39.68,1.11,1.11,0,0,0,1.19-1.09h0a1.09,1.09,0,0,0-1.22-1,2,2,0,0,0-1,.28l-.37-.25.14-2.39h2.82v.51h-2.34l-.11,1.57a2.32,2.32,0,0,1,1-.21,1.53,1.53,0,0,1,1.7,1.49v0a1.61,1.61,0,0,1-1.76,1.61A2.52,2.52,0,0,1,1185.51,642.79Z" transform="translate(-734.9 -365.78)"/><path d="M1189.44,641.05v0a2.28,2.28,0,0,1,2.08-2.53,2.26,2.26,0,0,1,2.06,2.52h0a2.11,2.11,0,1,1-4.14,0Zm3.57,0v0c0-1.07-.59-2-1.5-2s-1.49.94-1.49,2h0c0,1.08.58,2,1.5,2S1193,642.12,1193,641.05Z" transform="translate(-734.9 -365.78)"/><path d="M1194,642.17v0a1.32,1.32,0,0,1,1-1.2,1.26,1.26,0,0,1-.84-1.13h0a1.73,1.73,0,0,1,3.35,0h0a1.24,1.24,0,0,1-.84,1.13,1.34,1.34,0,0,1,1,1.2h0c0,.84-.8,1.4-1.84,1.4S1194,643,1194,642.17Zm3.12,0h0c0-.55-.57-.93-1.28-.93s-1.28.38-1.28.93h0c0,.5.47.92,1.28.92S1197.08,642.65,1197.08,642.15Zm-.16-2.29v0c0-.48-.48-.84-1.12-.84s-1.12.35-1.12.84v0c0,.53.49.89,1.12.89S1196.92,640.39,1196.92,639.86Z" transform="translate(-734.9 -365.78)"/><path d="M1079.27,674.65l1.12-1.33a2.91,2.91,0,0,0,2,.91c.86,0,1.4-.42,1.4-1.16v0c0-.72-.61-1.14-1.49-1.14a3.6,3.6,0,0,0-1.4.31l-1.07-.71.24-4.14h5.16V669h-3.57l-.1,1.45a4.35,4.35,0,0,1,1.11-.14c1.63,0,2.93.79,2.93,2.69v0c0,1.78-1.26,2.9-3.19,2.9A4.32,4.32,0,0,1,1079.27,674.65Z" transform="translate(-734.9 -365.78)"/><path d="M1087.73,669.18l-1.46.36-.39-1.51,2.41-.72h1.26v8.46h-1.82Z" transform="translate(-734.9 -365.78)"/><path d="M1090.53,674.31l2.79-2.3c1-.86,1.45-1.31,1.45-2a1,1,0,0,0-1.13-1.09c-.64,0-1.09.36-1.71,1.13l-1.3-1a3.53,3.53,0,0,1,3.13-1.74,2.59,2.59,0,0,1,2.89,2.59v0c0,1.4-.71,2.1-2.2,3.25l-1.37,1h3.66v1.6h-6.21Z" transform="translate(-734.9 -365.78)"/><path d="M1201.48,716.28l.37-.4a2.05,2.05,0,0,0,1.39.67,1.09,1.09,0,0,0,1.18-1.09h0a1.08,1.08,0,0,0-1.21-1,2.12,2.12,0,0,0-1,.28l-.37-.24.14-2.39h2.82v.51h-2.34l-.11,1.57a2.17,2.17,0,0,1,1-.22,1.54,1.54,0,0,1,1.7,1.5h0a1.61,1.61,0,0,1-1.76,1.61A2.5,2.5,0,0,1,1201.48,716.28Z" transform="translate(-734.9 -365.78)"/><path d="M1205.41,714.53h0a2.29,2.29,0,0,1,2.08-2.54,2.26,2.26,0,0,1,2.06,2.52v0a2.11,2.11,0,1,1-4.14,0Zm3.57,0h0c0-1.07-.59-2-1.5-2s-1.49.94-1.49,2v0c0,1.07.58,2,1.5,2S1209,715.6,1209,714.53Z" transform="translate(-734.9 -365.78)"/><path d="M1209.93,716.28l.37-.4a2,2,0,0,0,1.39.67,1.09,1.09,0,0,0,1.18-1.09h0a1.08,1.08,0,0,0-1.21-1,2.12,2.12,0,0,0-1,.28l-.38-.24.14-2.39h2.83v.51h-2.34l-.11,1.57a2.17,2.17,0,0,1,1-.22,1.53,1.53,0,0,1,1.69,1.5h0a1.6,1.6,0,0,1-1.75,1.61A2.5,2.5,0,0,1,1209.93,716.28Z" transform="translate(-734.9 -365.78)"/><path d="M1139.12,733.66l.37-.4a2.05,2.05,0,0,0,1.39.67,1.09,1.09,0,0,0,1.18-1.09h0a1.08,1.08,0,0,0-1.21-1,2.12,2.12,0,0,0-1,.28l-.37-.25.13-2.38h2.83V730h-2.34l-.11,1.57a2.17,2.17,0,0,1,1-.22,1.54,1.54,0,0,1,1.7,1.5h0a1.61,1.61,0,0,1-1.76,1.61A2.5,2.5,0,0,1,1139.12,733.66Z" transform="translate(-734.9 -365.78)"/><path d="M1143.05,731.91h0a2.29,2.29,0,0,1,2.08-2.54,2.26,2.26,0,0,1,2.06,2.52v0a2.11,2.11,0,1,1-4.14,0Zm3.57,0h0c0-1.07-.59-2-1.5-2s-1.49.94-1.49,2v0c0,1.07.58,2,1.5,2S1146.62,733,1146.62,731.91Z" transform="translate(-734.9 -365.78)"/><path d="M1150.17,730h-2.7v-.5h3.33v.41l-2.23,4.49H1148Z" transform="translate(-734.9 -365.78)"/><path d="M1095.46,745.65l.36-.4a2,2,0,0,0,1.39.67,1.1,1.1,0,0,0,1.19-1.08h0a1.1,1.1,0,0,0-1.22-1,2,2,0,0,0-1,.29l-.37-.25.14-2.39h2.82V742h-2.34l-.1,1.57a2.27,2.27,0,0,1,1-.22,1.54,1.54,0,0,1,1.7,1.5v0a1.61,1.61,0,0,1-1.75,1.61A2.5,2.5,0,0,1,1095.46,745.65Z" transform="translate(-734.9 -365.78)"/><path d="M1099.38,743.91v0a2.28,2.28,0,0,1,2.08-2.53,2.26,2.26,0,0,1,2.06,2.52h0a2.11,2.11,0,1,1-4.14,0Zm3.57,0v0c0-1.07-.59-2-1.5-2s-1.49.94-1.49,2h0c0,1.07.58,2,1.5,2S1103,745,1103,743.91Z" transform="translate(-734.9 -365.78)"/><path d="M1107.07,743.88v-.1a1.58,1.58,0,0,1-1.39.78A1.56,1.56,0,0,1,1104,743h0a1.67,1.67,0,0,1,1.77-1.67,1.76,1.76,0,0,1,1.29.5,2.49,2.49,0,0,1,.61,1.9h0c0,1.56-.83,2.66-2,2.66a2.27,2.27,0,0,1-1.51-.6l.32-.43a1.77,1.77,0,0,0,1.2.52C1106.56,745.92,1107.07,744.94,1107.07,743.88Zm-.11-.9v0a1.15,1.15,0,0,0-1.24-1.11,1.13,1.13,0,0,0-1.18,1.15h0a1.1,1.1,0,0,0,1.21,1.07A1.14,1.14,0,0,0,1107,743Z" transform="translate(-734.9 -365.78)"/><path d="M859.19,727.37l.37-.4a2.07,2.07,0,0,0,1.39.67,1.1,1.1,0,0,0,1.19-1.09h0a1.09,1.09,0,0,0-1.22-1,2.15,2.15,0,0,0-1,.28l-.37-.24.14-2.39h2.82v.51h-2.34l-.1,1.57a2.13,2.13,0,0,1,1-.22,1.54,1.54,0,0,1,1.7,1.5h0a1.61,1.61,0,0,1-1.75,1.61A2.54,2.54,0,0,1,859.19,727.37Z" transform="translate(-734.9 -365.78)"/><path d="M865.71,726.9h-2.58l-.14-.4,2.77-3.38h.49v3.32H867v.46h-.76v1.16h-.54Zm0-.46v-2.53l-2.06,2.53Z" transform="translate(-734.9 -365.78)"/><path d="M867.4,725.62h0a2.29,2.29,0,0,1,2.08-2.54,2.26,2.26,0,0,1,2.06,2.53h0a2.27,2.27,0,0,1-2.08,2.53A2.25,2.25,0,0,1,867.4,725.62Zm3.56,0h0c0-1.07-.58-2-1.5-2s-1.49.94-1.49,2h0c0,1.07.59,2,1.51,2S871,726.69,871,725.62Z" transform="translate(-734.9 -365.78)"/><path d="M877.93,722.24l.36-.4a2.08,2.08,0,0,0,1.4.67,1.09,1.09,0,0,0,1.18-1.08v0a1.08,1.08,0,0,0-1.22-1,2.18,2.18,0,0,0-1,.28l-.37-.24.14-2.39h2.82v.51h-2.34l-.1,1.57a2.16,2.16,0,0,1,1-.22,1.53,1.53,0,0,1,1.7,1.5v0a1.62,1.62,0,0,1-1.75,1.61A2.5,2.5,0,0,1,877.93,722.24Z" transform="translate(-734.9 -365.78)"/><path d="M881.74,722.14l.4-.36a1.74,1.74,0,0,0,1.43.73,1,1,0,0,0,1.07-1v0c0-.6-.56-.94-1.37-.94H883l-.11-.33,1.55-1.74H882V718h3.13v.41l-1.54,1.7c.85.07,1.61.49,1.61,1.38v0a1.52,1.52,0,0,1-1.64,1.48A2.21,2.21,0,0,1,881.74,722.14Z" transform="translate(-734.9 -365.78)"/><path d="M885.62,721.62v0a1.32,1.32,0,0,1,1-1.2,1.26,1.26,0,0,1-.84-1.13v0a1.73,1.73,0,0,1,3.35,0v0a1.26,1.26,0,0,1-.84,1.13,1.32,1.32,0,0,1,1,1.19v0c0,.83-.8,1.39-1.85,1.39S885.62,722.43,885.62,721.62Zm3.13,0h0c0-.55-.57-.93-1.29-.93s-1.28.38-1.28.93h0c0,.5.48.92,1.28.92S888.75,722.1,888.75,721.6Zm-.17-2.3h0c0-.48-.48-.85-1.12-.85s-1.12.36-1.12.85h0c0,.54.5.9,1.12.9S888.58,719.84,888.58,719.3Z" transform="translate(-734.9 -365.78)"/><path d="M896.08,717.11l.37-.4a2.05,2.05,0,0,0,1.39.67A1.1,1.1,0,0,0,899,716.3v0a1.09,1.09,0,0,0-1.22-1,2.12,2.12,0,0,0-1,.28l-.37-.24.14-2.39h2.82v.51H897l-.11,1.57a2.17,2.17,0,0,1,1-.22,1.54,1.54,0,0,1,1.7,1.5v0a1.61,1.61,0,0,1-1.76,1.61A2.52,2.52,0,0,1,896.08,717.11Z" transform="translate(-734.9 -365.78)"/><path d="M899.89,717l.4-.36a1.77,1.77,0,0,0,1.44.73,1,1,0,0,0,1.07-1h0c0-.61-.57-.95-1.37-.95h-.32l-.11-.33,1.55-1.74h-2.4v-.5h3.13v.41L901.74,715c.86.06,1.62.48,1.62,1.37v0a1.53,1.53,0,0,1-1.64,1.48A2.23,2.23,0,0,1,899.89,717Z" transform="translate(-734.9 -365.78)"/><path d="M904.46,717.39a2.38,2.38,0,0,1-.62-1.9h0c0-1.49.76-2.66,2-2.66a2.17,2.17,0,0,1,1.45.56l-.32.42a1.76,1.76,0,0,0-1.16-.48c-.94,0-1.44,1-1.44,2.1v.07a1.59,1.59,0,0,1,1.4-.75,1.56,1.56,0,0,1,1.69,1.5h0a1.66,1.66,0,0,1-1.75,1.64A1.76,1.76,0,0,1,904.46,717.39Zm2.48-1.11v0a1.09,1.09,0,0,0-1.2-1,1.15,1.15,0,0,0-1.23,1.07v0a1.15,1.15,0,0,0,1.24,1.1A1.12,1.12,0,0,0,906.94,716.28Z" transform="translate(-734.9 -365.78)"/><path d="M914.22,712l.36-.4a2.07,2.07,0,0,0,1.39.67,1.1,1.1,0,0,0,1.19-1.08v0a1.09,1.09,0,0,0-1.22-1,2.15,2.15,0,0,0-1,.28l-.37-.24.14-2.39h2.82v.51h-2.34l-.1,1.57a2.13,2.13,0,0,1,1-.22,1.53,1.53,0,0,1,1.7,1.5v0a1.61,1.61,0,0,1-1.75,1.61A2.5,2.5,0,0,1,914.22,712Z" transform="translate(-734.9 -365.78)"/><path d="M918,711.88l.4-.36a1.77,1.77,0,0,0,1.44.73,1,1,0,0,0,1.07-1h0c0-.61-.57-.95-1.37-.95h-.32l-.11-.33,1.55-1.74h-2.4v-.5h3.13v.41l-1.54,1.71c.86.07,1.62.48,1.62,1.37v0a1.53,1.53,0,0,1-1.64,1.48A2.23,2.23,0,0,1,918,711.88Z" transform="translate(-734.9 -365.78)"/><path d="M924.57,711.51H922l-.14-.4,2.77-3.37h.48v3.31h.77v.46h-.77v1.16h-.53Zm0-.46v-2.53l-2.06,2.53Z" transform="translate(-734.9 -365.78)"/><path d="M932.68,706.85l.37-.4a2,2,0,0,0,1.39.67,1.09,1.09,0,0,0,1.18-1.08v0a1.08,1.08,0,0,0-1.21-1,2.12,2.12,0,0,0-1,.28L933,705l.14-2.39H936v.51h-2.34l-.11,1.57a2.17,2.17,0,0,1,1-.22,1.53,1.53,0,0,1,1.69,1.5v0a1.6,1.6,0,0,1-1.75,1.61A2.5,2.5,0,0,1,932.68,706.85Z" transform="translate(-734.9 -365.78)"/><path d="M936.49,706.75l.4-.36a1.76,1.76,0,0,0,1.44.73,1,1,0,0,0,1.07-1h0c0-.61-.57-.95-1.38-.95h-.31l-.11-.33,1.55-1.74h-2.4v-.5h3.13v.41l-1.54,1.71c.85.07,1.62.48,1.62,1.37v0a1.53,1.53,0,0,1-1.64,1.48A2.23,2.23,0,0,1,936.49,706.75Z" transform="translate(-734.9 -365.78)"/><path d="M940.35,707.12l1.78-1.57c.75-.67,1-1,1-1.54a.94.94,0,0,0-1-.94,1.58,1.58,0,0,0-1.32.84l-.4-.3a2,2,0,0,1,1.76-1,1.41,1.41,0,0,1,1.52,1.39h0c0,.72-.37,1.16-1.24,1.91L941.17,707h2.6v.5h-3.42Z" transform="translate(-734.9 -365.78)"/><path d="M950.49,701.72l.37-.4a2,2,0,0,0,1.39.67,1.09,1.09,0,0,0,1.18-1.08v0a1.09,1.09,0,0,0-1.22-1,2.11,2.11,0,0,0-1,.28l-.38-.24.14-2.39h2.83V698h-2.34l-.11,1.57a2.31,2.31,0,0,1,1-.22,1.53,1.53,0,0,1,1.69,1.5v0a1.6,1.6,0,0,1-1.75,1.61A2.5,2.5,0,0,1,950.49,701.72Z" transform="translate(-734.9 -365.78)"/><path d="M954.3,701.62l.4-.35a1.78,1.78,0,0,0,1.44.72,1,1,0,0,0,1.07-1h0c0-.61-.57-.95-1.38-.95h-.31l-.11-.33L957,698h-2.39v-.5h3.13v.41l-1.54,1.71c.85.07,1.62.48,1.62,1.38h0a1.52,1.52,0,0,1-1.64,1.48A2.23,2.23,0,0,1,954.3,701.62Z" transform="translate(-734.9 -365.78)"/><path d="M958.26,700v0a2.27,2.27,0,0,1,2.08-2.53,2.25,2.25,0,0,1,2,2.52h0a2.28,2.28,0,0,1-2.07,2.54A2.25,2.25,0,0,1,958.26,700Zm3.56,0v0c0-1.07-.59-2-1.5-2s-1.49.94-1.49,2h0c0,1.07.59,2,1.51,2S961.82,701.05,961.82,700Z" transform="translate(-734.9 -365.78)"/><path d="M969.07,696.59l.36-.4a2,2,0,0,0,1.4.68,1.1,1.1,0,0,0,1.18-1.09h0a1.08,1.08,0,0,0-1.22-1,2.07,2.07,0,0,0-1,.28l-.37-.25.14-2.39h2.83v.51H970l-.11,1.57a2.32,2.32,0,0,1,1-.21,1.52,1.52,0,0,1,1.69,1.49v0a1.61,1.61,0,0,1-1.75,1.61A2.5,2.5,0,0,1,969.07,696.59Z" transform="translate(-734.9 -365.78)"/><path d="M972.83,696.86l1.78-1.57c.75-.67,1-1,1-1.54a.93.93,0,0,0-1-.94,1.55,1.55,0,0,0-1.31.84l-.41-.29a1.94,1.94,0,0,1,1.77-1.05,1.41,1.41,0,0,1,1.52,1.39h0c0,.72-.38,1.16-1.24,1.91l-1.31,1.16h2.59v.51h-3.42Z" transform="translate(-734.9 -365.78)"/><path d="M976.63,696v0a1.32,1.32,0,0,1,1-1.2,1.24,1.24,0,0,1-.84-1.13h0a1.73,1.73,0,0,1,3.35,0h0a1.26,1.26,0,0,1-.84,1.13,1.33,1.33,0,0,1,1,1.2h0c0,.83-.79,1.4-1.84,1.4S976.63,696.79,976.63,696Zm3.12,0h0c0-.55-.56-.93-1.28-.93s-1.28.38-1.28.93h0c0,.5.48.92,1.28.92S979.75,696.45,979.75,696Zm-.16-2.29v0c0-.48-.48-.84-1.12-.84s-1.12.35-1.12.84v0c0,.53.5.89,1.12.89S979.59,694.19,979.59,693.66Z" transform="translate(-734.9 -365.78)"/><path d="M987.23,691.46l.36-.4a2,2,0,0,0,1.39.68,1.11,1.11,0,0,0,1.19-1.09h0a1.09,1.09,0,0,0-1.22-1,2.07,2.07,0,0,0-1,.28l-.37-.25.14-2.39h2.82v.51h-2.34l-.1,1.57a2.27,2.27,0,0,1,1-.21,1.53,1.53,0,0,1,1.7,1.5h0a1.61,1.61,0,0,1-1.75,1.61A2.5,2.5,0,0,1,987.23,691.46Z" transform="translate(-734.9 -365.78)"/><path d="M991,691.73l1.77-1.57c.75-.67,1-1,1-1.54a.94.94,0,0,0-1-.94,1.58,1.58,0,0,0-1.32.84l-.4-.29a1.94,1.94,0,0,1,1.76-1.05,1.41,1.41,0,0,1,1.52,1.39h0c0,.72-.38,1.16-1.24,1.91l-1.31,1.16h2.6v.51H991Z" transform="translate(-734.9 -365.78)"/><path d="M995.47,691.74a2.37,2.37,0,0,1-.62-1.9h0c0-1.49.76-2.66,2-2.66a2.17,2.17,0,0,1,1.45.56l-.32.43a1.73,1.73,0,0,0-1.16-.49c-.94,0-1.44,1-1.44,2.11v.06a1.61,1.61,0,0,1,1.4-.75,1.57,1.57,0,0,1,1.69,1.5v0a1.66,1.66,0,0,1-1.76,1.63A1.76,1.76,0,0,1,995.47,691.74Zm2.48-1.11h0a1.09,1.09,0,0,0-1.2-1.06,1.15,1.15,0,0,0-1.23,1.08h0a1.15,1.15,0,0,0,1.24,1.1A1.12,1.12,0,0,0,998,690.63Z" transform="translate(-734.9 -365.78)"/><path d="M1005.45,686.33l.36-.4a2,2,0,0,0,1.4.68,1.1,1.1,0,0,0,1.18-1.09h0a1.08,1.08,0,0,0-1.22-1,2.07,2.07,0,0,0-1,.28l-.37-.25.14-2.38h2.82v.51h-2.34l-.1,1.57a2.16,2.16,0,0,1,1-.22,1.53,1.53,0,0,1,1.7,1.5h0a1.61,1.61,0,0,1-1.75,1.61A2.46,2.46,0,0,1,1005.45,686.33Z" transform="translate(-734.9 -365.78)"/><path d="M1009.21,686.6,1011,685c.75-.67,1-1,1-1.54a.94.94,0,0,0-1-.94,1.6,1.6,0,0,0-1.32.84l-.4-.29a1.94,1.94,0,0,1,1.76-1.05,1.41,1.41,0,0,1,1.52,1.39v0c0,.71-.37,1.15-1.24,1.9l-1.31,1.16h2.6V687h-3.42Z" transform="translate(-734.9 -365.78)"/><path d="M1015.49,685.86h-2.59l-.14-.39,2.78-3.38h.48v3.31h.76v.46H1016V687h-.53Zm0-.46v-2.53l-2.06,2.53Z" transform="translate(-734.9 -365.78)"/><path d="M1023.83,681.2l.36-.4a2,2,0,0,0,1.39.68,1.11,1.11,0,0,0,1.19-1.09h0a1.09,1.09,0,0,0-1.22-1,2,2,0,0,0-1,.28l-.37-.25.14-2.38h2.82v.51h-2.34l-.1,1.57a2.13,2.13,0,0,1,1-.22,1.53,1.53,0,0,1,1.7,1.5h0a1.61,1.61,0,0,1-1.75,1.61A2.46,2.46,0,0,1,1023.83,681.2Z" transform="translate(-734.9 -365.78)"/><path d="M1027.58,681.47l1.78-1.57c.75-.67,1-1,1-1.54a.94.94,0,0,0-1-.94,1.59,1.59,0,0,0-1.32.84l-.41-.29a2,2,0,0,1,1.77-1.05,1.41,1.41,0,0,1,1.52,1.39v0c0,.71-.38,1.15-1.24,1.9l-1.31,1.16h2.6v.51h-3.43Z" transform="translate(-734.9 -365.78)"/><path d="M1031.36,681.47l1.78-1.57c.75-.67,1-1,1-1.54a.94.94,0,0,0-1-.94,1.6,1.6,0,0,0-1.32.84l-.4-.29a1.94,1.94,0,0,1,1.76-1.05,1.41,1.41,0,0,1,1.52,1.39v0c0,.71-.37,1.15-1.24,1.9l-1.31,1.16h2.6v.51h-3.42Z" transform="translate(-734.9 -365.78)"/><path d="M884.88,815.45l.36-.4a2.07,2.07,0,0,0,1.39.67,1.1,1.1,0,0,0,1.19-1.09h0a1.09,1.09,0,0,0-1.22-1,2.15,2.15,0,0,0-1,.28l-.37-.24.14-2.39h2.82v.51h-2.34l-.1,1.57a2.13,2.13,0,0,1,1-.22,1.54,1.54,0,0,1,1.7,1.5h0a1.61,1.61,0,0,1-1.75,1.61A2.5,2.5,0,0,1,884.88,815.45Z" transform="translate(-734.9 -365.78)"/><path d="M888.68,815.35l.4-.36a1.8,1.8,0,0,0,1.44.73,1,1,0,0,0,1.07-1v0c0-.61-.57-.94-1.37-.94h-.32l-.11-.33,1.55-1.74h-2.4v-.5h3.13v.4l-1.54,1.71c.86.07,1.62.49,1.62,1.38v0a1.52,1.52,0,0,1-1.64,1.47A2.22,2.22,0,0,1,888.68,815.35Z" transform="translate(-734.9 -365.78)"/><path d="M895.71,813.68v-.1a1.59,1.59,0,0,1-1.39.77,1.55,1.55,0,0,1-1.71-1.52h0a1.67,1.67,0,0,1,1.77-1.67,1.69,1.69,0,0,1,1.28.51,2.46,2.46,0,0,1,.61,1.9h0c0,1.56-.82,2.65-2,2.65a2.26,2.26,0,0,1-1.52-.6l.32-.42a1.82,1.82,0,0,0,1.21.52C895.19,815.72,895.71,814.73,895.71,813.68Zm-.11-.91h0a1.15,1.15,0,0,0-1.25-1.12,1.12,1.12,0,0,0-1.17,1.15v0a1.09,1.09,0,0,0,1.2,1.07A1.15,1.15,0,0,0,895.6,812.77Z" transform="translate(-734.9 -365.78)"/><path d="M903.33,810.32l.37-.4a2.07,2.07,0,0,0,1.39.67,1.1,1.1,0,0,0,1.19-1.08v0a1.09,1.09,0,0,0-1.22-1,2.15,2.15,0,0,0-1,.28l-.37-.24.14-2.39h2.82v.51h-2.34l-.1,1.57a2.13,2.13,0,0,1,1-.22,1.54,1.54,0,0,1,1.7,1.5v0a1.62,1.62,0,0,1-1.75,1.61A2.55,2.55,0,0,1,903.33,810.32Z" transform="translate(-734.9 -365.78)"/><path d="M907.14,810.22l.4-.36a1.77,1.77,0,0,0,1.44.73,1,1,0,0,0,1.07-1h0c0-.61-.57-1-1.37-1h-.32l-.11-.33,1.55-1.74h-2.4v-.5h3.13v.41l-1.54,1.7c.86.07,1.62.49,1.62,1.38v0A1.53,1.53,0,0,1,909,811.1,2.23,2.23,0,0,1,907.14,810.22Z" transform="translate(-734.9 -365.78)"/><path d="M913.67,806.61H911v-.5h3.33v.41L912.07,811h-.61Z" transform="translate(-734.9 -365.78)"/><path d="M921.43,805.19l.36-.4a2.08,2.08,0,0,0,1.4.67,1.09,1.09,0,0,0,1.18-1.08v0a1.09,1.09,0,0,0-1.22-1,2.18,2.18,0,0,0-1,.28l-.37-.24.14-2.39h2.82v.51h-2.34l-.1,1.57a2.16,2.16,0,0,1,1-.22,1.53,1.53,0,0,1,1.7,1.5v0a1.61,1.61,0,0,1-1.75,1.61A2.5,2.5,0,0,1,921.43,805.19Z" transform="translate(-734.9 -365.78)"/><path d="M925.24,805.09l.39-.36a1.77,1.77,0,0,0,1.44.73,1,1,0,0,0,1.07-1h0c0-.61-.57-1-1.37-1h-.32l-.11-.33,1.55-1.74h-2.4V801h3.14v.41l-1.55,1.71c.86.07,1.62.48,1.62,1.37v0a1.53,1.53,0,0,1-1.64,1.48A2.2,2.2,0,0,1,925.24,805.09Z" transform="translate(-734.9 -365.78)"/><path d="M929.09,805.19l.37-.4a2,2,0,0,0,1.39.67,1.09,1.09,0,0,0,1.18-1.08v0a1.08,1.08,0,0,0-1.22-1,2.11,2.11,0,0,0-1,.28l-.38-.24.14-2.39h2.83v.51H930l-.11,1.57a2.17,2.17,0,0,1,1-.22,1.53,1.53,0,0,1,1.69,1.5v0a1.6,1.6,0,0,1-1.75,1.61A2.5,2.5,0,0,1,929.09,805.19Z" transform="translate(-734.9 -365.78)"/><path d="M949.62,797.5l.37-.4a2.05,2.05,0,0,0,1.39.67,1.09,1.09,0,0,0,1.18-1.09h0a1.08,1.08,0,0,0-1.21-1,2.12,2.12,0,0,0-1,.28l-.37-.25.14-2.38h2.82v.51h-2.34l-.11,1.57a2.17,2.17,0,0,1,1-.22,1.54,1.54,0,0,1,1.7,1.5h0a1.61,1.61,0,0,1-1.76,1.61A2.5,2.5,0,0,1,949.62,797.5Z" transform="translate(-734.9 -365.78)"/><path d="M953.43,797.4l.4-.36a1.79,1.79,0,0,0,1.44.73,1,1,0,0,0,1.07-.95v0c0-.61-.57-.94-1.37-.94h-.32l-.11-.33,1.55-1.75h-2.4v-.49h3.13v.4l-1.54,1.71c.86.07,1.62.48,1.62,1.38h0a1.52,1.52,0,0,1-1.64,1.48A2.22,2.22,0,0,1,953.43,797.4Z" transform="translate(-734.9 -365.78)"/><path d="M958.21,793.83l-.93.28-.13-.45,1.2-.41h.4v4.94h-.54Z" transform="translate(-734.9 -365.78)"/><path d="M976,789.8l.36-.4a2.08,2.08,0,0,0,1.4.67,1.09,1.09,0,0,0,1.18-1.08v0a1.09,1.09,0,0,0-1.22-1,2.18,2.18,0,0,0-1,.28l-.37-.24.14-2.39h2.83v.51H977l-.11,1.57a2.31,2.31,0,0,1,1-.22,1.53,1.53,0,0,1,1.69,1.5v0a1.61,1.61,0,0,1-1.75,1.61A2.5,2.5,0,0,1,976,789.8Z" transform="translate(-734.9 -365.78)"/><path d="M979.76,790.07l1.78-1.57c.75-.67,1-1,1-1.54a.93.93,0,0,0-1-.94,1.55,1.55,0,0,0-1.31.84l-.41-.29a1.94,1.94,0,0,1,1.77-1.05,1.41,1.41,0,0,1,1.51,1.39h0c0,.72-.37,1.16-1.23,1.91L980.59,790h2.59v.5h-3.42Z" transform="translate(-734.9 -365.78)"/><path d="M986.73,788v-.1a1.68,1.68,0,0,1-3.09-.74v0a1.66,1.66,0,0,1,1.76-1.66,1.75,1.75,0,0,1,1.29.5,2.49,2.49,0,0,1,.61,1.9h0c0,1.56-.83,2.66-2,2.66a2.29,2.29,0,0,1-1.51-.6l.32-.43a1.77,1.77,0,0,0,1.21.52C986.22,790.07,986.73,789.09,986.73,788Zm-.1-.9v0a1.15,1.15,0,0,0-1.25-1.11,1.12,1.12,0,0,0-1.17,1.15h0a1.09,1.09,0,0,0,1.2,1.07A1.15,1.15,0,0,0,986.63,787.13Z" transform="translate(-734.9 -365.78)"/><path d="M994.44,784.67l.36-.4a2,2,0,0,0,1.39.68,1.11,1.11,0,0,0,1.19-1.09h0a1.09,1.09,0,0,0-1.22-1,2.07,2.07,0,0,0-1,.28l-.37-.25.14-2.39h2.82V781h-2.34l-.1,1.57a2.27,2.27,0,0,1,1-.21,1.53,1.53,0,0,1,1.7,1.49v0a1.61,1.61,0,0,1-1.75,1.61A2.5,2.5,0,0,1,994.44,784.67Z" transform="translate(-734.9 -365.78)"/><path d="M998.19,784.94l1.78-1.57c.75-.67,1-1,1-1.54a.94.94,0,0,0-1-.94,1.57,1.57,0,0,0-1.32.84l-.4-.29a1.94,1.94,0,0,1,1.76-1.05,1.41,1.41,0,0,1,1.52,1.39h0c0,.72-.38,1.16-1.24,1.91L999,784.86h2.6v.51h-3.43Z" transform="translate(-734.9 -365.78)"/><path d="M1004.72,781H1002v-.51h3.33v.42l-2.23,4.49h-.61Z" transform="translate(-734.9 -365.78)"/><path d="M1012.55,779.54l.37-.4a2,2,0,0,0,1.39.68,1.1,1.1,0,0,0,1.18-1.09h0a1.08,1.08,0,0,0-1.22-1,2,2,0,0,0-1,.28l-.38-.25.14-2.39h2.83v.51h-2.34l-.11,1.57a2.32,2.32,0,0,1,1-.21,1.53,1.53,0,0,1,1.69,1.5h0a1.6,1.6,0,0,1-1.75,1.61A2.5,2.5,0,0,1,1012.55,779.54Z" transform="translate(-734.9 -365.78)"/><path d="M1016.31,779.81l1.78-1.57c.75-.67,1-1,1-1.54a.94.94,0,0,0-1-.94,1.55,1.55,0,0,0-1.32.84l-.41-.29a2,2,0,0,1,1.77-1,1.41,1.41,0,0,1,1.52,1.39h0c0,.72-.38,1.16-1.24,1.91l-1.31,1.16h2.6v.51h-3.43Z" transform="translate(-734.9 -365.78)"/><path d="M1020.12,779.54l.36-.4a2,2,0,0,0,1.4.68,1.1,1.1,0,0,0,1.18-1.09h0a1.08,1.08,0,0,0-1.22-1,2.07,2.07,0,0,0-1,.28l-.37-.25.14-2.39h2.82v.51h-2.34l-.1,1.57a2.32,2.32,0,0,1,1-.21,1.53,1.53,0,0,1,1.69,1.5h0a1.61,1.61,0,0,1-1.75,1.61A2.5,2.5,0,0,1,1020.12,779.54Z" transform="translate(-734.9 -365.78)"/><path d="M1030.76,774.41l.37-.4a2,2,0,0,0,1.39.68,1.11,1.11,0,0,0,1.19-1.09h0a1.09,1.09,0,0,0-1.22-1,2,2,0,0,0-1,.28l-.37-.25.14-2.38h2.82v.51h-2.34l-.11,1.57a2.17,2.17,0,0,1,1-.22,1.53,1.53,0,0,1,1.7,1.5h0a1.61,1.61,0,0,1-1.76,1.61A2.48,2.48,0,0,1,1030.76,774.41Z" transform="translate(-734.9 -365.78)"/><path d="M1034.52,774.68l1.78-1.57c.75-.67,1-1.05,1-1.54a.94.94,0,0,0-1-.94,1.59,1.59,0,0,0-1.32.84l-.41-.29a2,2,0,0,1,1.77-1,1.41,1.41,0,0,1,1.52,1.39v0c0,.71-.38,1.15-1.24,1.9l-1.31,1.16h2.6v.51h-3.43Z" transform="translate(-734.9 -365.78)"/><path d="M1038.31,774.32l.4-.36a1.79,1.79,0,0,0,1.44.73,1,1,0,0,0,1.07-1h0c0-.61-.57-.94-1.38-.94h-.31l-.11-.33,1.54-1.75h-2.39v-.49h3.13v.4l-1.54,1.71c.85.07,1.62.48,1.62,1.38h0a1.52,1.52,0,0,1-1.64,1.48A2.25,2.25,0,0,1,1038.31,774.32Z" transform="translate(-734.9 -365.78)"/><path d="M1049.87,769.28l.37-.4a2,2,0,0,0,1.39.68,1.1,1.1,0,0,0,1.18-1.09h0a1.08,1.08,0,0,0-1.22-1,2,2,0,0,0-1,.28l-.38-.25.14-2.38h2.83v.51h-2.34l-.11,1.57a2.17,2.17,0,0,1,1-.22,1.53,1.53,0,0,1,1.69,1.5h0a1.6,1.6,0,0,1-1.75,1.61A2.46,2.46,0,0,1,1049.87,769.28Z" transform="translate(-734.9 -365.78)"/><path d="M1053.63,769.55l1.78-1.57c.75-.67,1-1.05,1-1.54a.94.94,0,0,0-1-.94,1.58,1.58,0,0,0-1.32.84l-.41-.29a2,2,0,0,1,1.77-1,1.41,1.41,0,0,1,1.52,1.39v0c0,.71-.38,1.15-1.24,1.9l-1.31,1.16h2.6V770h-3.43Z" transform="translate(-734.9 -365.78)"/><path d="M1058.32,765.61l-.92.29-.14-.45,1.2-.41h.41V770h-.55Z" transform="translate(-734.9 -365.78)"/><path d="M961.49,737.55l.36-.4a2.07,2.07,0,0,0,1.39.67,1.1,1.1,0,0,0,1.19-1.08v0a1.09,1.09,0,0,0-1.22-1,2.15,2.15,0,0,0-1,.28l-.37-.24.14-2.39h2.82v.51h-2.34l-.1,1.57a2.13,2.13,0,0,1,1-.22,1.53,1.53,0,0,1,1.7,1.5h0a1.62,1.62,0,0,1-1.75,1.62A2.5,2.5,0,0,1,961.49,737.55Z" transform="translate(-734.9 -365.78)"/><path d="M966.23,733.88l-.92.29-.14-.45,1.2-.42h.41v4.94h-.55Z" transform="translate(-734.9 -365.78)"/><path d="M968.11,737.83a2.42,2.42,0,0,1-.62-1.9h0c0-1.5.76-2.67,2-2.67a2.17,2.17,0,0,1,1.45.56l-.32.43a1.72,1.72,0,0,0-1.16-.48c-.94,0-1.44,1-1.44,2.1v.07a1.6,1.6,0,0,1,1.4-.76,1.57,1.57,0,0,1,1.69,1.51h0a1.66,1.66,0,0,1-1.75,1.64A1.78,1.78,0,0,1,968.11,737.83Zm2.48-1.12h0a1.09,1.09,0,0,0-1.2-1.05,1.15,1.15,0,0,0-1.23,1.07v0a1.14,1.14,0,0,0,1.24,1.09A1.11,1.11,0,0,0,970.59,736.71Z" transform="translate(-734.9 -365.78)"/><path d="M965.36,752.52l.37-.4a2,2,0,0,0,1.39.67,1.09,1.09,0,0,0,1.18-1.08v0a1.08,1.08,0,0,0-1.22-1,2.18,2.18,0,0,0-1,.28l-.37-.24.14-2.39h2.83v.51h-2.34l-.11,1.57a2.31,2.31,0,0,1,1-.22,1.53,1.53,0,0,1,1.69,1.5v0a1.61,1.61,0,0,1-1.75,1.61A2.5,2.5,0,0,1,965.36,752.52Z" transform="translate(-734.9 -365.78)"/><path d="M970.11,748.85l-.93.29-.13-.45,1.2-.41h.4v4.93h-.54Z" transform="translate(-734.9 -365.78)"/><path d="M971.31,752.52l.37-.4a2,2,0,0,0,1.39.67,1.09,1.09,0,0,0,1.18-1.08v0a1.08,1.08,0,0,0-1.22-1,2.18,2.18,0,0,0-1,.28l-.37-.24.14-2.39h2.83v.51h-2.34l-.11,1.57a2.31,2.31,0,0,1,1-.22,1.53,1.53,0,0,1,1.69,1.5v0a1.61,1.61,0,0,1-1.75,1.61A2.5,2.5,0,0,1,971.31,752.52Z" transform="translate(-734.9 -365.78)"/><path d="M1008.51,733l.37-.4a2,2,0,0,0,1.39.67,1.09,1.09,0,0,0,1.18-1.08v0a1.08,1.08,0,0,0-1.22-1,2.18,2.18,0,0,0-1,.28l-.37-.24.14-2.39h2.83v.51h-2.34l-.11,1.57a2.31,2.31,0,0,1,1-.22,1.53,1.53,0,0,1,1.69,1.5v0a1.61,1.61,0,0,1-1.75,1.61A2.5,2.5,0,0,1,1008.51,733Z" transform="translate(-734.9 -365.78)"/><path d="M1013.26,729.32l-.93.29-.13-.45,1.2-.41h.4v4.93h-.54Z" transform="translate(-734.9 -365.78)"/><path d="M1014.44,732.89l.4-.35a1.78,1.78,0,0,0,1.44.72,1,1,0,0,0,1.07-1h0c0-.61-.57-.95-1.38-.95h-.31l-.11-.33,1.54-1.74h-2.39v-.5h3.13v.41l-1.54,1.71c.85.07,1.62.48,1.62,1.38h0a1.52,1.52,0,0,1-1.64,1.48A2.23,2.23,0,0,1,1014.44,732.89Z" transform="translate(-734.9 -365.78)"/><path d="M878.8,768.77l.37-.4a2.05,2.05,0,0,0,1.39.67,1.09,1.09,0,0,0,1.18-1.08v0a1.08,1.08,0,0,0-1.21-1,2.12,2.12,0,0,0-1,.28l-.37-.24.14-2.39h2.82v.51h-2.34l-.11,1.57a2.31,2.31,0,0,1,1-.22,1.54,1.54,0,0,1,1.7,1.5v0a1.61,1.61,0,0,1-1.76,1.61A2.5,2.5,0,0,1,878.8,768.77Z" transform="translate(-734.9 -365.78)"/><path d="M883.55,765.1l-.92.29-.14-.45,1.2-.41h.41v4.93h-.55Z" transform="translate(-734.9 -365.78)"/><path d="M884.75,768.15v0a1.32,1.32,0,0,1,1-1.2,1.25,1.25,0,0,1-.85-1.13h0a1.73,1.73,0,0,1,3.35,0h0a1.24,1.24,0,0,1-.84,1.13,1.33,1.33,0,0,1,1,1.2h0c0,.83-.8,1.39-1.84,1.39S884.75,769,884.75,768.15Zm3.12,0h0c0-.55-.57-.93-1.28-.93s-1.28.38-1.28.93h0c0,.5.47.92,1.28.92S887.87,768.63,887.87,768.13Zm-.16-2.29v0c0-.48-.48-.85-1.12-.85s-1.12.36-1.12.85v0c0,.53.5.89,1.12.89S887.71,766.37,887.71,765.84Z" transform="translate(-734.9 -365.78)"/><rect x="387.08" y="229.16" width="16" height="16"/><polygon class="cls-9" points="388.8 241.2 391.09 241.2 391.09 238.87 393.36 238.87 393.36 236.53 395.67 236.53 395.67 234.23 397.96 234.23 397.96 231.94 401.37 231.94 401.37 233.11 399.1 233.11 399.1 235.4 396.81 235.4 396.81 237.73 394.52 237.73 394.52 240.04 392.22 240.04 392.22 242.37 388.8 242.37 388.8 241.2"/><rect x="188.68" y="379.43" width="16" height="16"/><polygon class="cls-9" points="190.4 391.47 192.69 391.47 192.69 389.14 194.96 389.14 194.96 386.8 197.27 386.8 197.27 384.5 199.56 384.5 199.56 382.21 202.96 382.21 202.96 383.38 200.7 383.38 200.7 385.67 198.41 385.67 198.41 388 196.12 388 196.12 390.31 193.81 390.31 193.81 392.64 190.4 392.64 190.4 391.47"/><rect x="704.78" y="241.36" width="16" height="16"/><polygon class="cls-9" points="706.5 253.39 708.78 253.39 708.78 251.06 711.06 251.06 711.06 248.72 713.36 248.72 713.36 246.42 715.66 246.42 715.66 244.13 719.06 244.13 719.06 245.3 716.8 245.3 716.8 247.59 714.5 247.59 714.5 249.92 712.21 249.92 712.21 252.23 709.91 252.23 709.91 254.57 706.5 254.57 706.5 253.39"/><rect x="655.08" y="204.93" width="16" height="16"/><path class="cls-9" d="M1398,574a1.17,1.17,0,1,0-1.17-1.17A1.17,1.17,0,0,0,1398,574Z" transform="translate(-734.9 -365.78)"/><path class="cls-9" d="M1398,572.84" transform="translate(-734.9 -365.78)"/><path class="cls-9" d="M1396.74,574.27a1.49,1.49,0,0,0-1.49,1.51v3.58a.51.51,0,1,0,1,0v-3.27h.24v9a.68.68,0,1,0,1.36,0v-5.2h.23v5.2a.69.69,0,1,0,1.37,0v-9h.23v3.27a.51.51,0,1,0,1,0V575.8a1.52,1.52,0,0,0-1.5-1.53Z" transform="translate(-734.9 -365.78)"/><rect x="328.12" y="382.2" width="16" height="16"/><path class="cls-9" d="M1071,751.27a1.17,1.17,0,1,0-1.17-1.16A1.17,1.17,0,0,0,1071,751.27Z" transform="translate(-734.9 -365.78)"/><path class="cls-9" d="M1071,750.11" transform="translate(-734.9 -365.78)"/><path class="cls-9" d="M1069.78,751.53a1.5,1.5,0,0,0-1.49,1.52v3.58a.51.51,0,1,0,1,0v-3.28h.24v9a.68.68,0,1,0,1.36,0v-5.21h.23v5.21a.69.69,0,1,0,1.37,0v-9h.23v3.28a.51.51,0,1,0,1,0v-3.56a1.52,1.52,0,0,0-1.51-1.54Z" transform="translate(-734.9 -365.78)"/><rect x="305.07" y="300.58" width="16" height="16"/><path class="cls-9" d="M1048,669.62a1.15,1.15,0,1,0-1.15-1.14A1.14,1.14,0,0,0,1048,669.62Z" transform="translate(-734.9 -365.78)"/><path class="cls-9" d="M1048,668.48" transform="translate(-734.9 -365.78)"/><path class="cls-9" d="M1047.82,676.88v4a.54.54,0,0,1-1.08,0V676.9h-1.45l1.55-5.37h-.24l-.9,3a.49.49,0,1,1-.92-.32l1-3.29a1.53,1.53,0,0,1,1.41-1h1.57a1.55,1.55,0,0,1,1.41,1l1,3.29c.2.71-.7,1-.91.31l-.9-3h-.26l1.56,5.37h-1.45v3.94a.54.54,0,0,1-1.07,0v-4Z" transform="translate(-734.9 -365.78)"/><rect x="688.48" y="292.58" width="16" height="16"/><path class="cls-9" d="M1431.39,661.62a1.15,1.15,0,1,0-1.14-1.14A1.14,1.14,0,0,0,1431.39,661.62Z" transform="translate(-734.9 -365.78)"/><path class="cls-9" d="M1431.39,660.48" transform="translate(-734.9 -365.78)"/><path class="cls-9" d="M1431.22,668.88v4a.54.54,0,0,1-1.08,0V668.9h-1.45l1.55-5.37H1430l-.9,3a.49.49,0,1,1-.91-.32l1-3.29a1.51,1.51,0,0,1,1.4-1h1.57a1.56,1.56,0,0,1,1.42,1l1,3.29c.2.71-.7,1-.92.31l-.9-3h-.26l1.56,5.37h-1.45v3.94a.54.54,0,0,1-1.07,0v-4Z" transform="translate(-734.9 -365.78)"/><rect x="393.24" y="251.09" width="16" height="16"/><path class="cls-9" d="M1131.89,630.71v-6.23h0a1.13,1.13,0,0,1,1.14-1.14h6.24a1.13,1.13,0,0,1,1.14,1.14v6.23h0a1.11,1.11,0,0,1-1.13,1.13H1133A1.14,1.14,0,0,1,1131.89,630.71Z" transform="translate(-734.9 -365.78)"/><rect x="398.16" y="258.75" width="6.16" height="6.12"/><path class="cls-9" d="M1137.69,618.52a.59.59,0,1,1,1.18,0l0,2.47.63-.78c.44-.48,1.21.19.74.74l-1.54,1.83a.53.53,0,0,1-.8,0l-1.53-1.84c-.48-.54.3-1.22.73-.73l.63.78Z" transform="translate(-734.9 -365.78)"/><path class="cls-9" d="M1133.41,622.35a.59.59,0,1,0,1.18,0l0-2.47.64.77c.43.48,1.2-.19.73-.73l-1.54-1.83a.53.53,0,0,0-.8,0l-1.53,1.84c-.48.54.3,1.22.73.73l.63-.78Z" transform="translate(-734.9 -365.78)"/><path class="cls-9" d="M1138.94,628a.21.21,0,0,1-.21.21h-1.38a.21.21,0,0,1-.21-.21v-1.5a.29.29,0,0,1,.29-.29h1.22a.29.29,0,0,1,.29.29Z" transform="translate(-734.9 -365.78)"/><path class="cls-9" d="M1138.6,628.19h-.53v2a.27.27,0,1,0,.53,0Z" transform="translate(-734.9 -365.78)"/><path class="cls-9" d="M1138,628.19h-.53v2a.27.27,0,1,0,.53,0Z" transform="translate(-734.9 -365.78)"/><circle class="cls-9" cx="403.14" cy="259.96" r="0.39"/><path class="cls-9" d="M1138,625.73" transform="translate(-734.9 -365.78)"/><path class="cls-9" d="M1137.05,628a.21.21,0,0,1-.21.21h-1.38a.21.21,0,0,1-.21-.21v-1.5a.29.29,0,0,1,.29-.29h1.22a.28.28,0,0,1,.29.29Z" transform="translate(-734.9 -365.78)"/><path class="cls-9" d="M1136.71,628.19h-.52v2a.26.26,0,1,0,.52,0Z" transform="translate(-734.9 -365.78)"/><path class="cls-9" d="M1136.11,628.19h-.53v2a.27.27,0,1,0,.53,0Z" transform="translate(-734.9 -365.78)"/><circle class="cls-9" cx="401.25" cy="259.96" r="0.39"/><path class="cls-9" d="M1136.16,625.73" transform="translate(-734.9 -365.78)"/><path class="cls-9" d="M1135.17,628a.21.21,0,0,1-.21.21h-1.38a.21.21,0,0,1-.21-.21v-1.5a.28.28,0,0,1,.29-.29h1.22a.29.29,0,0,1,.29.29Z" transform="translate(-734.9 -365.78)"/><path class="cls-9" d="M1134.83,628.19h-.53v2a.27.27,0,1,0,.53,0Z" transform="translate(-734.9 -365.78)"/><path class="cls-9" d="M1134.22,628.19h-.52v2a.26.26,0,1,0,.52,0Z" transform="translate(-734.9 -365.78)"/><circle class="cls-9" cx="399.37" cy="259.96" r="0.39"/><path class="cls-9" d="M1134.27,625.73" transform="translate(-734.9 -365.78)"/><path d="M836.35,423.08l3.34-4c1.91,1.73,3.78,2.74,6,2.74,2.59,0,4.21-1.26,4.21-3.5v-.07c0-2.16-1.84-3.42-4.47-3.42a10.73,10.73,0,0,0-4.21.94l-3.2-2.13.72-12.41h15.48v4.85H843.51l-.29,4.36a12.43,12.43,0,0,1,3.31-.43c4.9,0,8.82,2.37,8.82,8.06v.07c0,5.33-3.78,8.71-9.57,8.71A12.94,12.94,0,0,1,836.35,423.08Z" transform="translate(-734.9 -365.78)"/><path d="M859.06,401.23h19.19v5H864.61v5.36h12v5h-12v9.75h-5.55Z" transform="translate(-734.9 -365.78)"/><rect x="1185.53" y="774.54" width="2" height="82.06" transform="translate(-911.34 -14.24) rotate(-15.7)"/><polygon points="450.19 414.46 449.15 416.17 440.73 411.03 436.22 419.8 434.44 418.88 439.94 408.2 450.19 414.46"/><path d="M1175.71,876.33l3.63-1a3,3,0,0,1,2.31.12,1.89,1.89,0,0,1,.92,1.19v0a2,2,0,0,1-.65,2.12,2.07,2.07,0,0,1,2.16,1.52v0c.41,1.44-.56,2.55-2.37,3.06l-3.74,1Zm5.51.92c-.18-.63-.8-.88-1.71-.62l-2,.57.61,2.15,1.94-.55c.91-.25,1.42-.78,1.21-1.52Zm-.56,2.67-2.26.63.63,2.22,2.35-.67c1-.27,1.45-.81,1.25-1.54v0C1182.43,879.85,1181.78,879.6,1180.66,879.92Z" transform="translate(-734.9 -365.78)"/><path d="M1184.76,875.29l-1.34.81-.62-1.07,2-1.31,1-.27,2.29,8.14-1.41.39Z" transform="translate(-734.9 -365.78)"/><path d="M1187.91,875.39c2.07-.75,3.16-1.87,3-2.84l-3.09.87-.27-.94,3.18-.89-.28-1,1.19-.33.28,1,3.17-.89.27.93-3.1.87c.4.9,1.92,1.28,4.07.84l-.11,1a5.44,5.44,0,0,1-4.34-.57c-.38,1.1-1.62,2.08-3.4,2.75Zm9.36-1,.27.94-9.43,2.66-.27-1Zm-.17,3.76c.32,1.13-.84,2.13-3.1,2.76s-3.77.39-4.08-.74.85-2.12,3.1-2.75S1196.78,877,1197.1,878.11Zm-1.2.34c-.16-.57-1.09-.63-2.64-.2s-2.29,1-2.13,1.54,1.08.62,2.62.18S1196.06,879,1195.9,878.45Z" transform="translate(-734.9 -365.78)"/><path d="M1200.22,871.4c2-.69,3.14-1.63,3.14-2.51l-3.07.86-.25-.89,3.17-.89-.25-.91,1.18-.34.26.92,3.19-.9.25.89-3.09.87c.47.75,1.92,1,4,.51l-.08,1c-1.88.39-3.45.28-4.36-.41-.41,1.06-1.68,2-3.49,2.62Zm5.46.8.23.8,2.94-.82.69,2.42-5.94,1.67.22.78,6.24-1.75.25.89-7.42,2.09-.7-2.5,6-1.67-.2-.73-6,1.68-.25-.88,3-.84-.23-.81-4.09,1.15-.25-.89,9.41-2.64.25.89Z" transform="translate(-734.9 -365.78)"/><path d="M1215.33,866.75a2.61,2.61,0,0,1-2.07,3.21,2.54,2.54,0,1,1-1.37-4.85A2.6,2.6,0,0,1,1215.33,866.75ZM1211,868a1.68,1.68,0,1,0,1.2-1.89A1.5,1.5,0,0,0,1211,868Zm2.49,2.74.32,1.16,4.46-1.26-.32-1.15,1.17-.33,1.19,4.21-6.81,1.92-1.19-4.22Zm.92,3.26,4.45-1.26-.33-1.17L1214,872.8Zm3-10.93,1.58,5.6-1.19.34-1.57-5.6Z" transform="translate(-734.9 -365.78)"/><path d="M1229.87,866.1l-4.16,1.16,1.23,4.36-1.2.33-1.23-4.35-4.07,1.15-.28-1,6.78-1.91a16.45,16.45,0,0,0-.69-3.58l-5.94,1.67-.27-1,7.11-2,.26.91a19.55,19.55,0,0,1,.73,3.62l1.45-.41Z" transform="translate(-734.9 -365.78)"/><path d="M1361.68,815v.7h2.26v2.71h-1.19v-1.77h-4.57v-.94h2.31V815h-3.14v-1h7.5v1Zm2.22-1.48h-5.59v-3.19h1.17v.73h3.24v-.73h1.18Zm-1.18-1.57h-3.24v.65h3.24Z" transform="translate(-734.9 -365.78)"/><path d="M1372.6,814.08V815h-7.52v-.95h3.16v-.67h1.19v.67Zm-.64-.57a2.26,2.26,0,0,1-1.58-1.15,2.32,2.32,0,0,1-1.54,1,1.66,1.66,0,0,0-3.13.1l-.47-.86c1-.23,1.43-.8,1.43-1.32h-1.07v-.94h3.07v.94h-.82c0,.4.34.83,1,1.09a1.33,1.33,0,0,0,1-1.09H1369v-.94h3.08v.94H1371c0,.55.46,1.1,1.43,1.32Zm-6.06,2.16h5.78v2.73h-1.19v-1.79h-4.59Z" transform="translate(-734.9 -365.78)"/><path d="M1374.29,816.64l1-.91a1.94,1.94,0,0,0,1.52.75c.53,0,.9-.29.9-.76v0c0-.51-.46-.8-1.24-.8h-.57l-.22-.88,1.5-1.51h-2.47v-1.19h4.26v1l-1.6,1.52a1.75,1.75,0,0,1,1.69,1.77v0a2.05,2.05,0,0,1-2.26,2.06A3.05,3.05,0,0,1,1374.29,816.64Z" transform="translate(-734.9 -365.78)"/><path d="M1386.87,814.19v.94h-7.49v-.94ZM1379.7,813c1.77-.1,2.58-.62,2.74-1.18h-2.35v-.93h2.44v-.73h1.18v.73h2.44v.93h-2.34c.16.56,1,1.08,2.74,1.18l-.35.89a4.17,4.17,0,0,1-3.07-1.19,4.22,4.22,0,0,1-3.08,1.19Zm6.29,4c0,.91-1.07,1.4-2.88,1.4s-2.87-.49-2.87-1.4,1.06-1.41,2.87-1.41S1386,816.08,1386,817Zm-1.2,0c0-.38-.55-.53-1.68-.53s-1.67.15-1.67.53.55.53,1.67.53S1384.79,817.36,1384.79,817Z" transform="translate(-734.9 -365.78)"/><path d="M1393.44,814.5V815h2.24v2h-4.53v.43h4.75v.86H1390v-2.09h4.54v-.39H1390V815h2.29v-.49h-3.13v-.88h7.46v.88Zm-4-2c1.66-.07,2.47-.47,2.7-.93h-2.29v-.86h2.43v-.66h1.18v.66h2.44v.86h-2.3c.23.46,1,.86,2.71.93l-.33.88a5,5,0,0,0-6.22,0Z" transform="translate(-734.9 -365.78)"/><path d="M1401.47,812.4a2.28,2.28,0,1,1-2.25-2A2.06,2.06,0,0,1,1401.47,812.4Zm-3.35,0a1.1,1.1,0,0,0,2.19,0,1.1,1.1,0,0,0-2.19,0Zm1.28,2.52v.77h3.15v-.77h1.18v3.37h-5.51v-3.37Zm0,2.44h3.15v-.76h-3.15Zm4.33-7.26v4.46h-1.2V810.1Z" transform="translate(-734.9 -365.78)"/><path d="M1412.08,815.06h-3.19v3.33h-1.2v-3.33h-3.1v-.95h5.22a12.45,12.45,0,0,0,.23-2.58h-4.59v-.95h5.75v.75a14.26,14.26,0,0,1-.21,2.78h1.09Z" transform="translate(-734.9 -365.78)"/><path d="M1364.86,834v1h-7.5v-1h3.15v-.68h-2.24v-2.87H1364v.95h-4.51v1H1364v1h-2.3V834Zm-.9,2.88c0,1-1.09,1.52-2.88,1.52s-2.87-.55-2.87-1.52,1.08-1.53,2.87-1.53S1364,835.9,1364,836.88Zm-1.21,0c0-.43-.56-.63-1.67-.63s-1.68.2-1.68.63.57.62,1.68.62S1362.75,837.31,1362.75,836.88Z" transform="translate(-734.9 -365.78)"/><path d="M1372.6,834.08V835h-7.52v-.95h3.16v-.67h1.19v.67Zm-.64-.57a2.26,2.26,0,0,1-1.58-1.15,2.32,2.32,0,0,1-1.54,1,1.66,1.66,0,0,0-3.13.1l-.47-.86c1-.23,1.43-.8,1.43-1.32h-1.07v-.94h3.07v.94h-.82c0,.4.34.83,1,1.09a1.33,1.33,0,0,0,1-1.09H1369v-.94h3.08v.94H1371c0,.55.46,1.1,1.43,1.32Zm-6.06,2.16h5.78v2.73h-1.19v-1.79h-4.59Z" transform="translate(-734.9 -365.78)"/><path d="M1374.29,836.64l1-.91a1.94,1.94,0,0,0,1.52.75c.53,0,.9-.29.9-.76v0c0-.51-.46-.8-1.24-.8h-.57l-.22-.88,1.5-1.51h-2.47v-1.19h4.26v1l-1.6,1.52a1.75,1.75,0,0,1,1.69,1.77v0a2.05,2.05,0,0,1-2.26,2.06A3.05,3.05,0,0,1,1374.29,836.64Z" transform="translate(-734.9 -365.78)"/><path d="M1386.87,834.19v.94h-7.49v-.94ZM1379.7,833c1.77-.1,2.58-.62,2.74-1.18h-2.35v-.93h2.44v-.73h1.18v.73h2.44v.93h-2.34c.16.56,1,1.08,2.74,1.18l-.35.89a4.17,4.17,0,0,1-3.07-1.19,4.22,4.22,0,0,1-3.08,1.19Zm6.29,4c0,.91-1.07,1.4-2.88,1.4s-2.87-.49-2.87-1.4,1.06-1.41,2.87-1.41S1386,836.08,1386,837Zm-1.2,0c0-.38-.55-.53-1.68-.53s-1.67.15-1.67.53.55.53,1.67.53S1384.79,837.36,1384.79,837Z" transform="translate(-734.9 -365.78)"/><path d="M1393.44,834.5V835h2.24v2h-4.53v.43h4.75v.86H1390v-2.09h4.54v-.39H1390V835h2.29v-.49h-3.13v-.88h7.46v.88Zm-4-2c1.66-.07,2.47-.47,2.7-.93h-2.29v-.86h2.43v-.66h1.18v.66h2.44v.86h-2.3c.23.46,1,.86,2.71.93l-.33.88a5,5,0,0,0-6.22,0Z" transform="translate(-734.9 -365.78)"/><path d="M1401.47,832.4a2.28,2.28,0,1,1-2.25-2A2.06,2.06,0,0,1,1401.47,832.4Zm-3.35,0a1.1,1.1,0,0,0,2.19,0,1.1,1.1,0,0,0-2.19,0Zm1.28,2.52v.77h3.15v-.77h1.18v3.37h-5.51v-3.37Zm0,2.44h3.15v-.76h-3.15Zm4.33-7.26v4.46h-1.2V830.1Z" transform="translate(-734.9 -365.78)"/><path d="M1412.08,835.06h-3.19v3.33h-1.2v-3.33h-3.1v-.95h5.22a12.45,12.45,0,0,0,.23-2.58h-4.59v-.95h5.75v.75a14.26,14.26,0,0,1-.21,2.78h1.09Z" transform="translate(-734.9 -365.78)"/><path d="M1360.47,861.94a3.84,3.84,0,0,0,2,3.7l-.7.94a3.72,3.72,0,0,1-1.86-2.25,4,4,0,0,1-1.91,2.4l-.74-1a4,4,0,0,0,2-3.83v-1.2h1.2Zm3.84-1.85v8.32h-1.19v-4.76h-1.59v-1h1.59v-2.6Z" transform="translate(-734.9 -365.78)"/><path d="M1372.6,864.08V865h-7.52v-.95h3.16v-.67h1.19v.67Zm-.64-.57a2.26,2.26,0,0,1-1.58-1.15,2.32,2.32,0,0,1-1.54,1,1.66,1.66,0,0,0-3.13.1l-.47-.86c1-.23,1.43-.8,1.43-1.32h-1.07v-.94h3.07v.94h-.82c0,.4.34.83,1,1.09a1.33,1.33,0,0,0,1-1.09H1369v-.94h3.08v.94H1371c0,.55.46,1.1,1.43,1.32Zm-6.06,2.16h5.78v2.73h-1.19v-1.79h-4.59Z" transform="translate(-734.9 -365.78)"/><path d="M1374.39,866.52l2.1-1.72c.78-.65,1.08-1,1.08-1.51a.77.77,0,0,0-.84-.82c-.49,0-.82.27-1.29.85l-1-.79a2.63,2.63,0,0,1,2.35-1.3,1.94,1.94,0,0,1,2.17,1.94v0c0,1-.54,1.58-1.66,2.44l-1,.79h2.75v1.2h-4.66Z" transform="translate(-734.9 -365.78)"/><path d="M1386.89,864.19v.94h-7.49v-.94Zm-7.17-1.23c1.77-.1,2.58-.62,2.73-1.18h-2.34v-.93h2.43v-.73h1.19v.73h2.44v.93h-2.34c.15.56,1,1.08,2.74,1.18l-.35.89a4.15,4.15,0,0,1-3.07-1.19,4.24,4.24,0,0,1-3.08,1.19Zm6.29,4c0,.91-1.07,1.4-2.88,1.4s-2.87-.49-2.87-1.4,1.06-1.41,2.87-1.41S1386,866.08,1386,867Zm-1.21,0c0-.38-.55-.53-1.67-.53s-1.68.15-1.68.53.55.53,1.68.53S1384.8,867.36,1384.8,867Z" transform="translate(-734.9 -365.78)"/><path d="M1393.46,864.5V865h2.24v2h-4.54v.43h4.76v.86H1390v-2.09h4.55v-.39H1390V865h2.29v-.49h-3.13v-.88h7.46v.88Zm-4-2c1.66-.07,2.47-.47,2.7-.93h-2.29v-.86h2.42v-.66h1.19v.66h2.44v.86h-2.3c.23.46,1,.86,2.71.93l-.34.88a5,5,0,0,0-6.21,0Z" transform="translate(-734.9 -365.78)"/><path d="M1401.49,862.4a2.28,2.28,0,1,1-2.25-2A2.06,2.06,0,0,1,1401.49,862.4Zm-3.35,0a1.1,1.1,0,0,0,2.19,0,1.1,1.1,0,0,0-2.19,0Zm1.28,2.52v.77h3.15v-.77h1.18v3.37h-5.51v-3.37Zm0,2.44h3.15v-.76h-3.15Zm4.33-7.26v4.46h-1.2V860.1Z" transform="translate(-734.9 -365.78)"/><path d="M1412.1,865.06h-3.19v3.33h-1.2v-3.33h-3.1v-.95h5.22a12.45,12.45,0,0,0,.23-2.58h-4.6v-.95h5.76v.75a14.26,14.26,0,0,1-.21,2.78h1.09Z" transform="translate(-734.9 -365.78)"/><path d="M1362.18,894a19.16,19.16,0,0,1-3.79.35h-.71v-3.87h1.19v2.88a18.21,18.21,0,0,0,3.17-.32Zm-3.7,1.14h5.4v3.14h-5.4Zm1.17,2.22h3.07v-1.29h-3.07Zm5.33-4.55h-1.1v1.95h-1.19V890.1h1.19v1.75h1.1Z" transform="translate(-734.9 -365.78)"/><path d="M1372.6,894.08V895h-7.52v-.95h3.16v-.67h1.19v.67Zm-.64-.57a2.26,2.26,0,0,1-1.58-1.15,2.32,2.32,0,0,1-1.54,1,1.66,1.66,0,0,0-3.13.1l-.47-.86c1-.23,1.43-.8,1.43-1.32h-1.07v-.94h3.07v.94h-.82c0,.4.34.83,1,1.09a1.33,1.33,0,0,0,1-1.09H1369v-.94h3.08v.94H1371c0,.55.46,1.1,1.43,1.32Zm-6.06,2.16h5.78v2.73h-1.19v-1.79h-4.59Z" transform="translate(-734.9 -365.78)"/><path d="M1374.7,891.32h2.93a2.28,2.28,0,0,1,1.65.56,1.45,1.45,0,0,1,.43,1.07h0a1.46,1.46,0,0,1-.83,1.36,1.55,1.55,0,0,1,1.18,1.55v0c0,1.15-.94,1.73-2.36,1.73h-3Zm3.63,1.86c0-.41-.32-.65-.91-.65h-1.37v1.34h1.28c.61,0,1-.2,1-.67Zm-.67,1.84h-1.61v1.38h1.65c.61,0,1-.21,1-.68v0C1378.68,895.28,1378.37,895,1377.66,895Z" transform="translate(-734.9 -365.78)"/><path d="M1381.51,892.68l-1.1.27-.29-1.14,1.81-.54h1v6.35h-1.37Z" transform="translate(-734.9 -365.78)"/><path d="M1391,894.19v.94h-7.49v-.94Zm-7.18-1.23c1.78-.1,2.59-.62,2.74-1.18h-2.34v-.93h2.43v-.73h1.19v.73h2.44v.93H1388c.15.56,1,1.08,2.74,1.18l-.36.89a4.56,4.56,0,0,0-6.14,0Zm6.3,4c0,.91-1.07,1.4-2.88,1.4s-2.88-.49-2.88-1.4,1.07-1.41,2.88-1.41S1390.16,896.08,1390.16,897Zm-1.21,0c0-.38-.55-.53-1.67-.53s-1.68.15-1.68.53.55.53,1.68.53S1389,897.36,1389,897Z" transform="translate(-734.9 -365.78)"/><path d="M1397.61,894.5V895h2.24v2h-4.54v.43h4.76v.86h-5.94v-2.09h4.55v-.39h-4.55V895h2.29v-.49h-3.13v-.88h7.46v.88Zm-4-2c1.66-.07,2.47-.47,2.7-.93H1394v-.86h2.42v-.66h1.19v.66H1400v.86h-2.3c.23.46,1,.86,2.71.93l-.34.88a5,5,0,0,0-6.21,0Z" transform="translate(-734.9 -365.78)"/><path d="M1405.64,892.4a2.28,2.28,0,1,1-2.25-2A2.06,2.06,0,0,1,1405.64,892.4Zm-3.35,0a1.1,1.1,0,0,0,2.19,0,1.1,1.1,0,0,0-2.19,0Zm1.28,2.52v.77h3.15v-.77h1.18v3.37h-5.51v-3.37Zm0,2.44h3.15v-.76h-3.15Zm4.33-7.26v4.46h-1.2V890.1Z" transform="translate(-734.9 -365.78)"/><path d="M1416.25,895.06h-3.19v3.33h-1.2v-3.33h-3.1v-.95H1414a12.45,12.45,0,0,0,.23-2.58h-4.6v-.95h5.76v.75a14.26,14.26,0,0,1-.21,2.78h1.09Z" transform="translate(-734.9 -365.78)"/><path d="M1455.8,816.56v.75h-7.36v-.75h3.2V815c-1.48-.14-2.52-1-2.52-2.16s1.26-2.18,3-2.18,3,.86,3,2.18-1,2-2.53,2.17v1.55Zm-3.69-2.28c1.21,0,2.08-.56,2.08-1.44s-.87-1.44-2.08-1.44-2.09.56-2.09,1.44S1450.9,814.28,1452.11,814.28Z" transform="translate(-734.9 -365.78)"/><path d="M1460.55,815a3.14,3.14,0,0,1-1.9-1.75,3.29,3.29,0,0,1-2,1.93l-.48-.73a2.83,2.83,0,0,0,2-2.61v-.28h-1.72v-.75h4.35v.75h-1.7v.28a2.68,2.68,0,0,0,1.91,2.44Zm2.57,2.42v.76h-5.47v-2.54h.92v1.78Zm-1.13-5v-2.17h.92v5.94H1462v-3h-1.48v-.77Z" transform="translate(-734.9 -365.78)"/><path d="M1466.22,817.06a3.11,3.11,0,0,1-.76-2.4v0c0-1.93.92-3.43,2.7-3.43a2.82,2.82,0,0,1,1.92.7l-.59.87a2,2,0,0,0-1.37-.56c-1.1,0-1.49,1.14-1.51,2a2,2,0,0,1,1.51-.64,2,2,0,0,1,2.2,2h0a2.19,2.19,0,0,1-2.34,2.15A2.37,2.37,0,0,1,1466.22,817.06Zm3-1.43v0a1.15,1.15,0,0,0-1.29-1.1,1.16,1.16,0,0,0-1.27,1.11v0a1.17,1.17,0,0,0,1.3,1.12A1.14,1.14,0,0,0,1469.21,815.63Z" transform="translate(-734.9 -365.78)"/><path d="M1473.77,812.19a4,4,0,0,0,2.1,3.57l-.54.73a4,4,0,0,1-2-2.44,4.21,4.21,0,0,1-2.07,2.62l-.55-.77a4.1,4.1,0,0,0,2.14-3.71v-1.33h.93Zm3.69-2v8.16h-.94v-8.16Z" transform="translate(-734.9 -365.78)"/><path d="M1487.28,813.85v.74h-6.49v-.74Z" transform="translate(-734.9 -365.78)"/><path d="M1494.4,812.6a2.17,2.17,0,1,1-2.15-2A2,2,0,0,1,1494.4,812.6Zm-3.4,0a1.25,1.25,0,1,0,1.25-1.17A1.15,1.15,0,0,0,1491,812.6Zm5.64,2.8v2.92h-.93v-2.16h-4.56v-.76Zm0-5.22V815h-.93v-4.81Z" transform="translate(-734.9 -365.78)"/><path d="M1500,814.11a1.85,1.85,0,1,1,0-3.67,1.86,1.86,0,1,1,0,3.67Zm0-.76a1.08,1.08,0,1,0,0-2.14,1.08,1.08,0,1,0,0,2.14Zm4.67,4.13v.73h-5.56v-2.13h4.4v-.68H1499v-.73h5.34v2.09H1500v.72Zm-.24-3.17h-.93v-4.14h.93Z" transform="translate(-734.9 -365.78)"/><path d="M1514.76,816.56v.75h-7.36v-.75h3.2V815c-1.48-.14-2.52-1-2.52-2.16s1.26-2.18,3-2.18,3,.86,3,2.18-1,2-2.53,2.17v1.55Zm-3.69-2.28c1.21,0,2.08-.56,2.08-1.44s-.87-1.44-2.08-1.44-2.09.56-2.09,1.44S1509.86,814.28,1511.07,814.28Z" transform="translate(-734.9 -365.78)"/><path d="M1519.51,815a3.14,3.14,0,0,1-1.9-1.75,3.29,3.29,0,0,1-2,1.93l-.48-.73a2.83,2.83,0,0,0,2-2.61v-.28h-1.72v-.75h4.34v.75h-1.69v.28a2.68,2.68,0,0,0,1.91,2.44Zm2.57,2.42v.76h-5.48v-2.54h.93v1.78Zm-1.14-5v-2.17h.93v5.94h-.93v-3h-1.47v-.77Z" transform="translate(-734.9 -365.78)"/><path d="M1525.51,812.4l-1.14.31-.23-.9,1.7-.54h.76v6.35h-1.09Z" transform="translate(-734.9 -365.78)"/><path d="M1527.37,816.75l2.17-1.85c.85-.74,1.18-1.13,1.18-1.7a1,1,0,0,0-1-1c-.58,0-1,.31-1.45.94l-.79-.62a2.58,2.58,0,0,1,2.32-1.31,1.89,1.89,0,0,1,2.08,1.88v0c0,1-.52,1.53-1.64,2.44l-1.29,1.08h3v1h-4.55Z" transform="translate(-734.9 -365.78)"/><path d="M1535.36,812.19a4,4,0,0,0,2.11,3.57l-.54.73a4,4,0,0,1-2-2.44,4.21,4.21,0,0,1-2.07,2.62l-.55-.77a4.08,4.08,0,0,0,2.14-3.71v-1.33h.93Zm3.69-2v8.16h-.93v-8.16Z" transform="translate(-734.9 -365.78)"/><path d="M1455.8,836.56v.75h-7.36v-.75h3.2V835c-1.48-.14-2.52-1-2.52-2.16s1.26-2.18,3-2.18,3,.86,3,2.18-1,2-2.53,2.17v1.55Zm-3.69-2.28c1.21,0,2.08-.56,2.08-1.44s-.87-1.44-2.08-1.44-2.09.56-2.09,1.44S1450.9,834.28,1452.11,834.28Z" transform="translate(-734.9 -365.78)"/><path d="M1460.55,835a3.14,3.14,0,0,1-1.9-1.75,3.29,3.29,0,0,1-2,1.93l-.48-.73a2.83,2.83,0,0,0,2-2.61v-.28h-1.72v-.75h4.35v.75h-1.7v.28a2.68,2.68,0,0,0,1.91,2.44Zm2.57,2.42v.76h-5.47v-2.54h.92v1.78Zm-1.13-5v-2.17h.92v5.94H1462v-3h-1.48v-.77Z" transform="translate(-734.9 -365.78)"/><path d="M1466.22,837.06a3.11,3.11,0,0,1-.76-2.4v0c0-1.93.92-3.43,2.7-3.43a2.82,2.82,0,0,1,1.92.7l-.59.87a2,2,0,0,0-1.37-.56c-1.1,0-1.49,1.14-1.51,2a2,2,0,0,1,1.51-.64,2,2,0,0,1,2.2,2h0a2.19,2.19,0,0,1-2.34,2.15A2.37,2.37,0,0,1,1466.22,837.06Zm3-1.43v0a1.15,1.15,0,0,0-1.29-1.1,1.16,1.16,0,0,0-1.27,1.11v0a1.17,1.17,0,0,0,1.3,1.12A1.14,1.14,0,0,0,1469.21,835.63Z" transform="translate(-734.9 -365.78)"/><path d="M1473.77,832.19a4,4,0,0,0,2.1,3.57l-.54.73a4,4,0,0,1-2-2.44,4.21,4.21,0,0,1-2.07,2.62l-.55-.77a4.1,4.1,0,0,0,2.14-3.71v-1.33h.93Zm3.69-2v8.16h-.94v-8.16Z" transform="translate(-734.9 -365.78)"/><path d="M1487.28,833.85v.74h-6.49v-.74Z" transform="translate(-734.9 -365.78)"/><path d="M1494.4,832.6a2.17,2.17,0,1,1-2.15-2A2,2,0,0,1,1494.4,832.6Zm-3.4,0a1.25,1.25,0,1,0,1.25-1.17A1.15,1.15,0,0,0,1491,832.6Zm5.64,2.8v2.92h-.93v-2.16h-4.56v-.76Zm0-5.22V835h-.93v-4.81Z" transform="translate(-734.9 -365.78)"/><path d="M1500,834.11a1.85,1.85,0,1,1,0-3.67,1.86,1.86,0,1,1,0,3.67Zm0-.76a1.08,1.08,0,1,0,0-2.14,1.08,1.08,0,1,0,0,2.14Zm4.67,4.13v.73h-5.56v-2.13h4.4v-.68H1499v-.73h5.34v2.09H1500v.72Zm-.24-3.17h-.93v-4.14h.93Z" transform="translate(-734.9 -365.78)"/><path d="M1514.76,836.56v.75h-7.36v-.75h3.2V835c-1.48-.14-2.52-1-2.52-2.16s1.26-2.18,3-2.18,3,.86,3,2.18-1,2-2.53,2.17v1.55Zm-3.69-2.28c1.21,0,2.08-.56,2.08-1.44s-.87-1.44-2.08-1.44-2.09.56-2.09,1.44S1509.86,834.28,1511.07,834.28Z" transform="translate(-734.9 -365.78)"/><path d="M1519.51,835a3.14,3.14,0,0,1-1.9-1.75,3.29,3.29,0,0,1-2,1.93l-.48-.73a2.83,2.83,0,0,0,2-2.61v-.28h-1.72v-.75h4.34v.75h-1.69v.28a2.68,2.68,0,0,0,1.91,2.44Zm2.57,2.42v.76h-5.48v-2.54h.93v1.78Zm-1.14-5v-2.17h.93v5.94h-.93v-3h-1.47v-.77Z" transform="translate(-734.9 -365.78)"/><path d="M1525.51,832.4l-1.14.31-.23-.9,1.7-.54h.76v6.35h-1.09Z" transform="translate(-734.9 -365.78)"/><path d="M1527.37,836.75l2.17-1.85c.85-.74,1.18-1.13,1.18-1.7a1,1,0,0,0-1-1c-.58,0-1,.31-1.45.94l-.79-.62a2.58,2.58,0,0,1,2.32-1.31,1.89,1.89,0,0,1,2.08,1.88v0c0,1-.52,1.53-1.64,2.44l-1.29,1.08h3v1h-4.55Z" transform="translate(-734.9 -365.78)"/><path d="M1535.36,832.19a4,4,0,0,0,2.11,3.57l-.54.73a4,4,0,0,1-2-2.44,4.21,4.21,0,0,1-2.07,2.62l-.55-.77a4.08,4.08,0,0,0,2.14-3.71v-1.33h.93Zm3.69-2v8.16h-.93v-8.16Z" transform="translate(-734.9 -365.78)"/><path d="M1455.79,845.5h-3.24v2.82h-.92V845.5h-3.19v-.74h7.35Zm-7-2.07c1.55-.2,2.7-1.1,2.75-2h-2.48v-.75h6v.75h-2.46c.06.94,1.2,1.84,2.75,2l-.33.73a4,4,0,0,1-3-1.76,3.93,3.93,0,0,1-2.93,1.76Z" transform="translate(-734.9 -365.78)"/><path d="M1460.27,843.92h-3.81v-3.31h3.81Zm-2.07,3.55h4.6v.74h-5.51v-2.15h4.32v-.69h-4.33v-.73h5.25v2.1h-4.33Zm1.16-6.13h-2v1.84h2Zm4.31.51v.76h-1.14v1.68h-.93v-4.11h.93v1.67Z" transform="translate(-734.9 -365.78)"/><path d="M1470.15,841v5.37h-3.82V841Zm-2.91.74v3.89h2v-3.89Zm5.35-1.52v8.16h-.94v-8.16Z" transform="translate(-734.9 -365.78)"/><path d="M1477.13,841.21a5.7,5.7,0,0,1-3,5.4l-.54-.66a4.73,4.73,0,0,0,2.62-4h-2.27v-.76Zm3.42-1v8.13h-.88v-4.19h-.93v3.81h-.87V840.4h.87v3h.93v-3.18Z" transform="translate(-734.9 -365.78)"/><path d="M1485.49,844.48h-3.83V840.7h.92v1.12h2V840.7h.92Zm2.33,2.29c0,1-1,1.55-2.71,1.55s-2.71-.57-2.71-1.55,1-1.55,2.71-1.55S1487.82,845.81,1487.82,846.77Zm-3.25-4.22h-2v1.19h2Zm2.33,4.22c0-.52-.66-.81-1.79-.81s-1.8.29-1.8.81.66.82,1.8.82S1486.9,847.3,1486.9,846.77Zm2-4.61v.77h-1.16V845h-.92v-4.86h.92v2Z" transform="translate(-734.9 -365.78)"/><path d="M1455.8,866.56v.75h-7.36v-.75h3.2V865c-1.48-.14-2.52-1-2.52-2.16s1.26-2.18,3-2.18,3,.86,3,2.18-1,2-2.53,2.17v1.55Zm-3.69-2.28c1.21,0,2.08-.56,2.08-1.44s-.87-1.44-2.08-1.44-2.09.56-2.09,1.44S1450.9,864.28,1452.11,864.28Z" transform="translate(-734.9 -365.78)"/><path d="M1460.55,865a3.14,3.14,0,0,1-1.9-1.75,3.29,3.29,0,0,1-2,1.93l-.48-.73a2.83,2.83,0,0,0,2-2.61v-.28h-1.72v-.75h4.35v.75h-1.7v.28a2.68,2.68,0,0,0,1.91,2.44Zm2.57,2.42v.76h-5.47v-2.54h.92v1.78Zm-1.13-5v-2.17h.92v5.94H1462v-3h-1.48v-.77Z" transform="translate(-734.9 -365.78)"/><path d="M1466.22,867.06a3.11,3.11,0,0,1-.76-2.4v0c0-1.93.92-3.43,2.7-3.43a2.82,2.82,0,0,1,1.92.7l-.59.87a2,2,0,0,0-1.37-.56c-1.1,0-1.49,1.14-1.51,2a2,2,0,0,1,1.51-.64,2,2,0,0,1,2.2,2h0a2.19,2.19,0,0,1-2.34,2.15A2.37,2.37,0,0,1,1466.22,867.06Zm3-1.43v0a1.15,1.15,0,0,0-1.29-1.1,1.16,1.16,0,0,0-1.27,1.11v0a1.17,1.17,0,0,0,1.3,1.12A1.14,1.14,0,0,0,1469.21,865.63Z" transform="translate(-734.9 -365.78)"/><path d="M1473.77,862.19a4,4,0,0,0,2.1,3.57l-.54.73a4,4,0,0,1-2-2.44,4.21,4.21,0,0,1-2.07,2.62l-.55-.77a4.1,4.1,0,0,0,2.14-3.71v-1.33h.93Zm3.69-2v8.16h-.94v-8.16Z" transform="translate(-734.9 -365.78)"/><path d="M1487.28,863.85v.74h-6.49v-.74Z" transform="translate(-734.9 -365.78)"/><path d="M1494.4,862.6a2.17,2.17,0,1,1-2.15-2A2,2,0,0,1,1494.4,862.6Zm-3.4,0a1.25,1.25,0,1,0,1.25-1.17A1.15,1.15,0,0,0,1491,862.6Zm5.64,2.8v2.92h-.93v-2.16h-4.56v-.76Zm0-5.22V865h-.93v-4.81Z" transform="translate(-734.9 -365.78)"/><path d="M1500,864.11a1.85,1.85,0,1,1,0-3.67,1.86,1.86,0,1,1,0,3.67Zm0-.76a1.08,1.08,0,1,0,0-2.14,1.08,1.08,0,1,0,0,2.14Zm4.67,4.13v.73h-5.56v-2.13h4.4v-.68H1499v-.73h5.34v2.09H1500v.72Zm-.24-3.17h-.93v-4.14h.93Z" transform="translate(-734.9 -365.78)"/><path d="M1514.76,866.56v.75h-7.36v-.75h3.2V865c-1.48-.14-2.52-1-2.52-2.16s1.26-2.18,3-2.18,3,.86,3,2.18-1,2-2.53,2.17v1.55Zm-3.69-2.28c1.21,0,2.08-.56,2.08-1.44s-.87-1.44-2.08-1.44-2.09.56-2.09,1.44S1509.86,864.28,1511.07,864.28Z" transform="translate(-734.9 -365.78)"/><path d="M1519.51,865a3.14,3.14,0,0,1-1.9-1.75,3.29,3.29,0,0,1-2,1.93l-.48-.73a2.83,2.83,0,0,0,2-2.61v-.28h-1.72v-.75h4.34v.75h-1.69v.28a2.68,2.68,0,0,0,1.91,2.44Zm2.57,2.42v.76h-5.48v-2.54h.93v1.78Zm-1.14-5v-2.17h.93v5.94h-.93v-3h-1.47v-.77Z" transform="translate(-734.9 -365.78)"/><path d="M1525.51,862.4l-1.14.31-.23-.9,1.7-.54h.76v6.35h-1.09Z" transform="translate(-734.9 -365.78)"/><path d="M1527.37,866.75l2.17-1.85c.85-.74,1.18-1.13,1.18-1.7a1,1,0,0,0-1-1c-.58,0-1,.31-1.45.94l-.79-.62a2.58,2.58,0,0,1,2.32-1.31,1.89,1.89,0,0,1,2.08,1.88v0c0,1-.52,1.53-1.64,2.44l-1.29,1.08h3v1h-4.55Z" transform="translate(-734.9 -365.78)"/><path d="M1535.36,862.19a4,4,0,0,0,2.11,3.57l-.54.73a4,4,0,0,1-2-2.44,4.21,4.21,0,0,1-2.07,2.62l-.55-.77a4.08,4.08,0,0,0,2.14-3.71v-1.33h.93Zm3.69-2v8.16h-.93v-8.16Z" transform="translate(-734.9 -365.78)"/><path d="M1455.79,875.5h-3.24v2.82h-.92V875.5h-3.19v-.74h7.35Zm-7-2.07c1.55-.2,2.7-1.1,2.75-2h-2.48v-.75h6v.75h-2.46c.06.94,1.2,1.84,2.75,2l-.33.73a4,4,0,0,1-3-1.76,3.93,3.93,0,0,1-2.93,1.76Z" transform="translate(-734.9 -365.78)"/><path d="M1460.27,873.92h-3.81v-3.31h3.81Zm-2.07,3.55h4.6v.74h-5.51v-2.15h4.32v-.69h-4.33v-.73h5.25v2.1h-4.33Zm1.16-6.13h-2v1.84h2Zm4.31.51v.76h-1.14v1.68h-.93v-4.11h.93v1.67Z" transform="translate(-734.9 -365.78)"/><path d="M1470.15,871v5.37h-3.82V871Zm-2.91.74v3.89h2v-3.89Zm5.35-1.52v8.16h-.94v-8.16Z" transform="translate(-734.9 -365.78)"/><path d="M1477.13,871.21a5.7,5.7,0,0,1-3,5.4l-.54-.66a4.73,4.73,0,0,0,2.62-4h-2.27v-.76Zm3.42-1v8.13h-.88v-4.19h-.93v3.81h-.87V870.4h.87v3h.93v-3.18Z" transform="translate(-734.9 -365.78)"/><path d="M1485.49,874.48h-3.83V870.7h.92v1.12h2V870.7h.92Zm2.33,2.29c0,1-1,1.55-2.71,1.55s-2.71-.57-2.71-1.55,1-1.55,2.71-1.55S1487.82,875.81,1487.82,876.77Zm-3.25-4.22h-2v1.19h2Zm2.33,4.22c0-.52-.66-.81-1.79-.81s-1.8.29-1.8.81.66.82,1.8.82S1486.9,877.3,1486.9,876.77Zm2-4.61v.77h-1.16V875h-.92v-4.86h.92v2Z" transform="translate(-734.9 -365.78)"/><path d="M1455.8,896.56v.75h-7.36v-.75h3.2V895c-1.48-.14-2.52-1-2.52-2.16s1.26-2.18,3-2.18,3,.86,3,2.18-1,2-2.53,2.17v1.55Zm-3.69-2.28c1.21,0,2.08-.56,2.08-1.44s-.87-1.44-2.08-1.44-2.09.56-2.09,1.44S1450.9,894.28,1452.11,894.28Z" transform="translate(-734.9 -365.78)"/><path d="M1460.55,895a3.14,3.14,0,0,1-1.9-1.75,3.29,3.29,0,0,1-2,1.93l-.48-.73a2.83,2.83,0,0,0,2-2.61v-.28h-1.72v-.75h4.35v.75h-1.7v.28a2.68,2.68,0,0,0,1.91,2.44Zm2.57,2.42v.76h-5.47v-2.54h.92v1.78Zm-1.13-5v-2.17h.92v5.94H1462v-3h-1.48v-.77Z" transform="translate(-734.9 -365.78)"/><path d="M1466.22,897.06a3.11,3.11,0,0,1-.76-2.4v0c0-1.93.92-3.43,2.7-3.43a2.82,2.82,0,0,1,1.92.7l-.59.87a2,2,0,0,0-1.37-.56c-1.1,0-1.49,1.14-1.51,2a2,2,0,0,1,1.51-.64,2,2,0,0,1,2.2,2h0a2.19,2.19,0,0,1-2.34,2.15A2.37,2.37,0,0,1,1466.22,897.06Zm3-1.43v0a1.15,1.15,0,0,0-1.29-1.1,1.16,1.16,0,0,0-1.27,1.11v0a1.17,1.17,0,0,0,1.3,1.12A1.14,1.14,0,0,0,1469.21,895.63Z" transform="translate(-734.9 -365.78)"/><path d="M1473.77,892.19a4,4,0,0,0,2.1,3.57l-.54.73a4,4,0,0,1-2-2.44,4.21,4.21,0,0,1-2.07,2.62l-.55-.77a4.1,4.1,0,0,0,2.14-3.71v-1.33h.93Zm3.69-2v8.16h-.94v-8.16Z" transform="translate(-734.9 -365.78)"/><path d="M1487.28,893.85v.74h-6.49v-.74Z" transform="translate(-734.9 -365.78)"/><path d="M1494.4,892.6a2.17,2.17,0,1,1-2.15-2A2,2,0,0,1,1494.4,892.6Zm-3.4,0a1.25,1.25,0,1,0,1.25-1.17A1.15,1.15,0,0,0,1491,892.6Zm5.64,2.8v2.92h-.93v-2.16h-4.56v-.76Zm0-5.22V895h-.93v-4.81Z" transform="translate(-734.9 -365.78)"/><path d="M1500,894.11a1.85,1.85,0,1,1,0-3.67,1.86,1.86,0,1,1,0,3.67Zm0-.76a1.08,1.08,0,1,0,0-2.14,1.08,1.08,0,1,0,0,2.14Zm4.67,4.13v.73h-5.56v-2.13h4.4v-.68H1499v-.73h5.34v2.09H1500v.72Zm-.24-3.17h-.93v-4.14h.93Z" transform="translate(-734.9 -365.78)"/><path d="M1514.76,896.56v.75h-7.36v-.75h3.2V895c-1.48-.14-2.52-1-2.52-2.16s1.26-2.18,3-2.18,3,.86,3,2.18-1,2-2.53,2.17v1.55Zm-3.69-2.28c1.21,0,2.08-.56,2.08-1.44s-.87-1.44-2.08-1.44-2.09.56-2.09,1.44S1509.86,894.28,1511.07,894.28Z" transform="translate(-734.9 -365.78)"/><path d="M1519.51,895a3.14,3.14,0,0,1-1.9-1.75,3.29,3.29,0,0,1-2,1.93l-.48-.73a2.83,2.83,0,0,0,2-2.61v-.28h-1.72v-.75h4.34v.75h-1.69v.28a2.68,2.68,0,0,0,1.91,2.44Zm2.57,2.42v.76h-5.48v-2.54h.93v1.78Zm-1.14-5v-2.17h.93v5.94h-.93v-3h-1.47v-.77Z" transform="translate(-734.9 -365.78)"/><path d="M1525.51,892.4l-1.14.31-.23-.9,1.7-.54h.76v6.35h-1.09Z" transform="translate(-734.9 -365.78)"/><path d="M1527.37,896.75l2.17-1.85c.85-.74,1.18-1.13,1.18-1.7a1,1,0,0,0-1-1c-.58,0-1,.31-1.45.94l-.79-.62a2.58,2.58,0,0,1,2.32-1.31,1.89,1.89,0,0,1,2.08,1.88v0c0,1-.52,1.53-1.64,2.44l-1.29,1.08h3v1h-4.55Z" transform="translate(-734.9 -365.78)"/><path d="M1535.36,892.19a4,4,0,0,0,2.11,3.57l-.54.73a4,4,0,0,1-2-2.44,4.21,4.21,0,0,1-2.07,2.62l-.55-.77a4.08,4.08,0,0,0,2.14-3.71v-1.33h.93Zm3.69-2v8.16h-.93v-8.16Z" transform="translate(-734.9 -365.78)"/><path d="M1455.79,905.5h-3.24v2.82h-.92V905.5h-3.19v-.74h7.35Zm-7-2.07c1.55-.2,2.7-1.1,2.75-2h-2.48v-.75h6v.75h-2.46c.06.94,1.2,1.84,2.75,2l-.33.73a4,4,0,0,1-3-1.76,3.93,3.93,0,0,1-2.93,1.76Z" transform="translate(-734.9 -365.78)"/><path d="M1460.27,903.92h-3.81v-3.31h3.81Zm-2.07,3.55h4.6v.74h-5.51v-2.15h4.32v-.69h-4.33v-.73h5.25v2.1h-4.33Zm1.16-6.13h-2v1.84h2Zm4.31.51v.76h-1.14v1.68h-.93v-4.11h.93v1.67Z" transform="translate(-734.9 -365.78)"/><path d="M1470.15,901v5.37h-3.82V901Zm-2.91.74v3.89h2v-3.89Zm5.35-1.52v8.16h-.94v-8.16Z" transform="translate(-734.9 -365.78)"/><path d="M1477.13,901.21a5.7,5.7,0,0,1-3,5.4l-.54-.66a4.73,4.73,0,0,0,2.62-4h-2.27v-.76Zm3.42-1v8.13h-.88v-4.19h-.93v3.81h-.87V900.4h.87v3h.93v-3.18Z" transform="translate(-734.9 -365.78)"/><path d="M1485.49,904.48h-3.83V900.7h.92v1.12h2V900.7h.92Zm2.33,2.29c0,1-1,1.55-2.71,1.55s-2.71-.57-2.71-1.55,1-1.55,2.71-1.55S1487.82,905.81,1487.82,906.77Zm-3.25-4.22h-2v1.19h2Zm2.33,4.22c0-.52-.66-.81-1.79-.81s-1.8.29-1.8.81.66.82,1.8.82S1486.9,907.3,1486.9,906.77Zm2-4.61v.77h-1.16V905h-.92v-4.86h.92v2Z" transform="translate(-734.9 -365.78)"/><rect x="29.13" y="125.25" width="16" height="16"/><polygon class="cls-9" points="30.85 137.28 33.14 137.28 33.14 134.96 35.41 134.96 35.41 132.61 37.72 132.61 37.72 130.31 40.01 130.31 40.01 128.03 43.41 128.03 43.41 129.19 41.15 129.19 41.15 131.49 38.86 131.49 38.86 133.81 36.57 133.81 36.57 136.13 34.27 136.13 34.27 138.46 30.85 138.46 30.85 137.28"/><rect x="29.13" y="179.32" width="16" height="16"/><path class="cls-9" d="M772,548.39a1.17,1.17,0,1,0-1.16-1.16A1.16,1.16,0,0,0,772,548.39Z" transform="translate(-734.9 -365.78)"/><path class="cls-9" d="M772,547.23" transform="translate(-734.9 -365.78)"/><path class="cls-9" d="M770.8,548.65a1.5,1.5,0,0,0-1.49,1.52v3.58a.51.51,0,1,0,1,0v-3.28h.25v9a.68.68,0,1,0,1.35,0v-5.2h.24v5.2a.68.68,0,1,0,1.36,0v-9h.24v3.28a.51.51,0,1,0,1,0v-3.56a1.52,1.52,0,0,0-1.51-1.54Z" transform="translate(-734.9 -365.78)"/><rect x="48.43" y="179.32" width="16" height="16"/><path class="cls-9" d="M791.34,548.36a1.14,1.14,0,1,0-1.15-1.14A1.14,1.14,0,0,0,791.34,548.36Z" transform="translate(-734.9 -365.78)"/><path class="cls-9" d="M791.34,547.22" transform="translate(-734.9 -365.78)"/><path class="cls-9" d="M791.17,555.62v4a.54.54,0,0,1-1.08,0v-3.94h-1.45l1.55-5.37H790l-.9,3a.49.49,0,1,1-.91-.32l1-3.29a1.53,1.53,0,0,1,1.41-1h1.57a1.57,1.57,0,0,1,1.42,1l1,3.29c.2.71-.7,1-.92.31l-.9-3h-.26l1.56,5.37h-1.45v3.94a.54.54,0,1,1-1.07,0v-4Z" transform="translate(-734.9 -365.78)"/><rect x="29.13" y="152.28" width="16" height="16"/><path class="cls-9" d="M767.78,531.9v-6.23h0a1.13,1.13,0,0,1,1.14-1.14h6.24a1.12,1.12,0,0,1,1.13,1.14v6.23h0a1.1,1.1,0,0,1-1.12,1.13h-6.25A1.14,1.14,0,0,1,767.78,531.9Z" transform="translate(-734.9 -365.78)"/><rect x="34.05" y="159.94" width="6.16" height="6.12"/><path class="cls-9" d="M773.58,519.71a.59.59,0,1,1,1.18,0l0,2.47.63-.77c.44-.48,1.21.19.73.73L774.57,524a.53.53,0,0,1-.8,0l-1.53-1.84c-.48-.54.3-1.22.73-.73l.63.78Z" transform="translate(-734.9 -365.78)"/><path class="cls-9" d="M769.3,523.54a.59.59,0,1,0,1.18,0l0-2.47.63.78c.44.48,1.21-.19.74-.74l-1.54-1.83a.53.53,0,0,0-.8,0L768,521.12c-.48.54.3,1.22.73.73l.63-.78Z" transform="translate(-734.9 -365.78)"/><path class="cls-9" d="M774.83,529.23a.21.21,0,0,1-.21.21h-1.38a.21.21,0,0,1-.21-.21v-1.5a.28.28,0,0,1,.29-.29h1.22a.29.29,0,0,1,.29.29Z" transform="translate(-734.9 -365.78)"/><path class="cls-9" d="M774.49,529.39H774v2a.27.27,0,1,0,.53,0Z" transform="translate(-734.9 -365.78)"/><path class="cls-9" d="M773.88,529.39h-.52v2a.26.26,0,1,0,.52,0Z" transform="translate(-734.9 -365.78)"/><circle class="cls-9" cx="39.03" cy="161.15" r="0.39"/><path class="cls-9" d="M773.93,526.93" transform="translate(-734.9 -365.78)"/><path class="cls-9" d="M772.94,529.23a.21.21,0,0,1-.21.21h-1.38a.21.21,0,0,1-.21-.21v-1.5a.29.29,0,0,1,.29-.29h1.22a.28.28,0,0,1,.29.29Z" transform="translate(-734.9 -365.78)"/><path class="cls-9" d="M772.6,529.39h-.52v2a.26.26,0,1,0,.52,0Z" transform="translate(-734.9 -365.78)"/><path class="cls-9" d="M772,529.39h-.53v2a.27.27,0,1,0,.53,0Z" transform="translate(-734.9 -365.78)"/><circle class="cls-9" cx="37.14" cy="161.15" r="0.39"/><path class="cls-9" d="M772.05,526.93" transform="translate(-734.9 -365.78)"/><path class="cls-9" d="M771.05,529.23a.21.21,0,0,1-.21.21h-1.37a.21.21,0,0,1-.21-.21v-1.5a.28.28,0,0,1,.28-.29h1.23a.28.28,0,0,1,.28.29Z" transform="translate(-734.9 -365.78)"/><path class="cls-9" d="M770.72,529.39h-.53v2a.27.27,0,1,0,.53,0Z" transform="translate(-734.9 -365.78)"/><path class="cls-9" d="M770.11,529.39h-.52v2a.26.26,0,1,0,.52,0Z" transform="translate(-734.9 -365.78)"/><circle class="cls-9" cx="35.26" cy="161.15" r="0.39"/><path class="cls-9" d="M770.16,526.93" transform="translate(-734.9 -365.78)"/><path d="M815.2,495.55h.87v7.53h-.87v-2.73h-1.33v-.76h1.33V498.3H814a5.69,5.69,0,0,1-2.75,3.46l-.53-.66a5,5,0,0,0,2.62-4h-2.23v-.75h3.15a7.69,7.69,0,0,1-.09,1.2h1Zm2.53-.2v8.13h-.89v-8.13Z" transform="translate(-734.9 -365.78)"/><path d="M823.27,499.57a17.36,17.36,0,0,1-3.76.27h-.65V496h3.61v.75h-2.69v2.31a15.83,15.83,0,0,0,3.4-.26Zm-2.61,3h4.53v.76h-5.47v-2.69h.94Zm5.36-4.9v.77h-1.15v2.79h-.93v-5.89h.93v2.33Z" transform="translate(-734.9 -365.78)"/><path d="M814.51,524.53a1.86,1.86,0,0,1-3.67-.37,1.74,1.74,0,0,1,1.84-1.79,1.75,1.75,0,0,1,1.83,1.41h.71v-1.61h.86v4h-.86v-1.62Zm-1.83.71a1.07,1.07,0,1,0-1-1.08A1,1,0,0,0,812.68,525.24ZM818,529.3V530h-5.71v-2.12h4.48v-.64h-4.5v-.73h5.43v2.05h-4.48v.71Zm-.3-3.1h-.88V522h.88Z" transform="translate(-734.9 -365.78)"/><path d="M819.92,527.45a23.05,23.05,0,0,0,3.7-.28l.1.76a22.73,22.73,0,0,1-4.05.29H819V525h2.84v-1.51H819v-.75h3.79v3h-2.83Zm5.31-5.46v8.16h-.94V522Z" transform="translate(-734.9 -365.78)"/><path d="M830.69,522.17h.87v7.59h-.87v-4h-1v2.34h-3.15v-5.36h.88v1.93h1.42v-1.93h.85V525h1Zm-1.86,3.27h-1.42v2h1.42ZM833.2,522v8.13h-.88V522Z" transform="translate(-734.9 -365.78)"/><path d="M838.46,525.46c0,1.77-.88,2.87-2.1,2.87s-2.09-1.1-2.09-2.87.88-2.86,2.09-2.86S838.46,523.72,838.46,525.46Zm-3.3,0c0,1.28.5,2,1.2,2s1.21-.77,1.21-2-.5-2-1.21-2S835.16,524.2,835.16,525.46Zm5.53-3.46v8.15h-.94V522Z" transform="translate(-734.9 -365.78)"/><path d="M843,527.49a19.46,19.46,0,0,0,3.29-.24l.08.75a19.42,19.42,0,0,1-3.66.24h-.64v-5.53h3.78v.76H843V525h2.51v.74H843Zm5.46-5.5v8.15h-.93v-4.4H846V525h1.56v-3Z" transform="translate(-734.9 -365.78)"/><path d="M813.72,555.56c.69,0,1.38-.08,2-.18l.07.68a29.19,29.19,0,0,1-5,.33l-.13-.77c.62,0,1.35,0,2.11,0v-.79a1.56,1.56,0,0,1-1.49-1.47c0-.92.8-1.53,2-1.53s1.94.61,1.94,1.53a1.54,1.54,0,0,1-1.48,1.47Zm1.94-4.16h-4.83v-.75h2v-.92h.93v.92h1.94Zm-2.4,2.73c.64,0,1.07-.31,1.07-.8s-.43-.81-1.07-.81-1.08.3-1.08.81S812.62,554.13,813.26,554.13Zm5-.25h-1.16v4h-.93v-8.14h.93v3.4h1.16Z" transform="translate(-734.9 -365.78)"/><path d="M822.84,554.26a3,3,0,0,1-1.9-1.63,3.3,3.3,0,0,1-2,1.89l-.47-.73a2.76,2.76,0,0,0,2-2.59V551h-1.73v-.75h4.37V551h-1.7v.15a2.5,2.5,0,0,0,1.91,2.35Zm2.12,2c0,1-1,1.54-2.71,1.54s-2.71-.58-2.71-1.54,1-1.54,2.71-1.54S825,555.33,825,556.31Zm-.92,0c0-.53-.66-.81-1.79-.81s-1.79.28-1.79.81.66.81,1.79.81S824,556.83,824,556.31Zm2-4.61v.76h-1.15v2.12h-.93v-4.86h.93v2Z" transform="translate(-734.9 -365.78)"/><path d="M830.75,553.7a3.24,3.24,0,0,1-2-1.72,3.32,3.32,0,0,1-2,1.88l-.46-.74a2.76,2.76,0,0,0,2-2.58v-.61h.94v.61a2.6,2.6,0,0,0,2,2.43ZM833.2,557v.73h-5.55v-2.11H832V555h-4.41v-.72H833v2.06h-4.4V557Zm-.24-3.16H832v-4.16H833Z" transform="translate(-734.9 -365.78)"/></svg>