<svg id="레이어_1" data-name="레이어 1" xmlns="http://www.w3.org/2000/svg" viewBox="0 0 837.82 571.52"><defs><style>.cls-1,.cls-11{fill:none;}.cls-1{stroke:#5b5b5b;stroke-miterlimit:10;stroke-width:0.5px;}.cls-2{fill:#bababa;}.cls-3{fill:#c77539;}.cls-4{fill:#fff;}.cls-5{fill:#00a44a;}.cls-6{fill:#72c7a7;}.cls-7{fill:#231815;}.cls-8{fill:#c1c2c2;}.cls-9{fill:#b60005;}.cls-10{fill:#9b0005;}</style></defs><title>서강대약도-outlined</title><polygon class="cls-1" points="751.14 202.95 766.96 208.72 753.4 250.41 751.88 270.96 749.22 270.96 748.51 287.88 758.98 287.88 758.35 304.38 722.91 302.3 724.09 285.76 734.44 285.76 736.36 248.78 751.14 202.95"/><path d="M1473.72,616.54v0a2.85,2.85,0,0,1,2.88-2.89,3,3,0,0,1,2.15.76l-.62.74a2.23,2.23,0,0,0-1.57-.59,1.89,1.89,0,0,0-1.81,2h0a1.87,1.87,0,0,0,1.9,2,2.24,2.24,0,0,0,1.35-.42v-1h-1.43v-.86H1479v2.35a3.56,3.56,0,0,1-2.33.87A2.78,2.78,0,0,1,1473.72,616.54Z" transform="translate(-734.78 -365.66)"/><path d="M1480.24,613.73h1v2.32h2.67v-2.32h1v5.59h-1V617h-2.67v2.36h-1Z" transform="translate(-734.78 -365.66)"/><path class="cls-2" d="M1068.72,664.4a20.62,20.62,0,0,1-5.93-1.06c-9.35-2.83-44.4-17.57-60.35-27.8-15.5-9.95-67.2-48.12-67.72-48.5l-.26-.19.32,0c6.05-.57,148.3-13.84,158.85-8s14,10.5,13.67,18.44c-.29,7.34-8,48-20.46,56.87-2,1.41-3.68,2.68-5.19,3.8C1076,662.18,1073,664.4,1068.72,664.4ZM935.13,587c4,3,52.53,38.73,67.44,48.29,15.94,10.23,50.95,24.95,60.29,27.78,8.14,2.47,10.58.66,18.64-5.34,1.51-1.12,3.22-2.39,5.2-3.8,12.41-8.87,20.07-49.36,20.35-56.68.3-7.83-3.12-12.42-13.54-18.21-5.47-3-48.32-.71-83.31,1.79C974.17,583.42,938.89,586.68,935.13,587Z" transform="translate(-734.78 -365.66)"/><path class="cls-2" d="M1202.9,759.17l-.05-.1c-.09-.22-9.2-22.26-12.41-29.57-3.83-8.78-10.81-17-19.66-23.16a60.84,60.84,0,0,0-28.73-10.77c-24.27-2.14-43.93-9.79-60.09-23.38l-.13-.11.14-.09c14.43-9,18.79-11.74,27.46-39.44.87-2.76,1.85-5.89,3-9.28,9.24-28.61,5.95-38.32-8-51.32-13.41-12.53-198.21,8.1-200.07,8.31l-.1,0,0-.1c-1.22-3.49-15.9-51.5-20.2-70.28s-10.59-52.11-10.65-52.44l0-.14h.13c.34,0,33.56-2.76,37.85-3.15s5.41-1.5,5.8-5.41.39-8.61.39-8.66V440h.11l52.83-7.89c.23-.06,24.87-7.11,29.92-9.45,4.83-2.23,5-5.1,5.4-9.85l.05-.69c.39-5.06.78-43.36.79-43.75v-.1l.1,0,14.25-2.56,0,.24-14.15,2.55c0,2.23-.41,38.72-.79,43.66l-.05.69c-.35,4.68-.58,7.77-5.54,10.06s-29.73,9.4-30,9.47l-52.74,7.87c0,.73,0,5-.39,8.58-.4,4-1.7,5.23-6,5.63-4.14.37-35.35,2.95-37.71,3.14.45,2.36,6.47,34.2,10.62,52.29,4.27,18.62,18.74,66,20.17,70.16,2.45-.27,48.16-5.36,94.89-8.89,64.19-4.86,99.61-4.64,105.28.66,14,13.08,17.3,22.84,8,51.57-1.09,3.39-2.07,6.52-2.94,9.29-3.34,10.66-5.55,17.71-9.24,23.44s-8.71,10.11-18.18,16c16.1,13.49,35.67,21.09,59.82,23.22a60.87,60.87,0,0,1,28.85,10.81c8.89,6.18,15.9,14.44,19.75,23.26,3.1,7.06,11.69,27.83,12.37,29.47l80.32-21.56c.39-.18,41.31-19,62.07-29,8.36-4,16.7-9,24.77-13.89,12.07-7.27,23.47-14.14,32.91-16.28,1.56-.35,3.16-.75,4.85-1.18,15.46-3.87,36.62-9.17,93.25,4.11a375.85,375.85,0,0,1,13.62-39.47c8.46-20.94,22.77-51.37,42.94-77.44,4.37-5.65,9.15-11.26,14.62-17.16l.19.17c-5.47,5.89-10.25,11.5-14.61,17.14-11.12,14.38-27.59,39.48-42.9,77.38a369.66,369.66,0,0,0-13.65,39.56l0,.12-.12,0c-56.65-13.3-77.81-8-93.25-4.13-1.69.42-3.29.82-4.86,1.17-9.4,2.13-20.78,9-32.83,16.25-8.07,4.86-16.42,9.89-24.79,13.9-20.76,9.94-61.69,28.79-62.1,29Z" transform="translate(-734.78 -365.66)"/><path class="cls-2" d="M1038.24,862.05l0,0c-.31-.3-31.23-30.52-46.44-60.35S938,684,937.64,683.08l-30.8-91.8,12.32-2.4,0,0c.76.57,76.47,57.16,92.82,65.92s58.4,22,58.82,22.17l0,0,18.61,14.77c1,.35,32.84,11.83,34.57,12.41a36.52,36.52,0,0,0,3.9.35c8.59.56,28.69,1.89,36.06,8.55,1.06.95,2.1,1.83,3.1,2.69,7.78,6.61,14.5,12.33,26.8,47.92a13.37,13.37,0,0,1,.67,1.5c1.06,2.69,2.39,6,10.42,4.33,9.64-2,80-21.09,80.71-21.29,2.66-1.27,65.65-31.34,66.83-31.63.26-.07,2.76-1.54,6.21-3.58,11.4-6.72,35.11-20.7,45.23-23.62l2.18-.64a115.14,115.14,0,0,1,31.18-5.43c17.45-.67,38.47,2.07,62.5,8.14l.11,0,0,.11c-.06.45-6.57,45.13-12.42,59.76l0,.06h-.06ZM907.17,591.47,937.87,683c.38.88,38.9,88.74,54.1,118.55,14.91,29.23,44.93,58.85,46.35,60.23l449-110.54c5.69-14.31,12-57,12.37-59.53-24-6-44.92-8.76-62.32-8.1a115.16,115.16,0,0,0-31.12,5.42l-2.18.64c-10.09,2.91-33.78,16.88-45.17,23.6-4,2.38-6,3.53-6.28,3.6-1.16.29-66.14,31.31-66.8,31.63s-71.1,19.25-80.75,21.3c-8.24,1.74-9.6-1.71-10.71-4.49a11.49,11.49,0,0,0-.66-1.49c-12.28-35.55-19-41.24-26.73-47.83-1-.86-2-1.74-3.1-2.7-7.31-6.6-27.36-7.92-35.92-8.48a32.38,32.38,0,0,1-4-.36c-1.76-.59-34.27-12.3-34.6-12.42l0,0-18.6-14.77c-1.17-.37-42.61-13.48-58.84-22.18s-90.6-64.26-92.81-65.91Z" transform="translate(-734.78 -365.66)"/><polygon class="cls-2" points="429.06 571.5 385.55 546.58 385.57 546.49 400.38 483.73 400.45 483.72 744.94 399.07 744.74 399.35 620.34 571.47 620.14 571.32 744.34 399.48 400.59 483.94 385.84 546.46 429.18 571.29 429.06 571.5"/><path class="cls-2" d="M1111.1,905.86l-60.73-35.12.3-.08,74.12-19,0,.2Zm-60.07-35,59.9,34.65L1124.44,852Z" transform="translate(-734.78 -365.66)"/><path class="cls-2" d="M1505.83,747.32h-.08l-2.8-7.62c0-.12,0-12.09,4.63-33.63,4.23-19.88,13.29-52.21,32.44-93.36,6.62-15.67,17.21-31.94,32.37-49.75l.19.17c-15.14,17.78-25.72,34-32.33,49.68-19.14,41.12-28.19,73.44-32.42,93.3-4.48,21.08-4.63,33-4.63,33.57l2.72,7.39c4.95-.16,65.92-12.49,66.54-12.61l0,.24C1570,735.21,1510.13,747.32,1505.83,747.32Z" transform="translate(-734.78 -365.66)"/><path class="cls-2" d="M1572.45,790.51c-6.32-1.67-13.79-1.71-20.89-1.6-12.52.19-14-.57-23.64-5.49l-1.25-.64c-10.79-5.49-9-26.52-8.94-26.73V756l.09,0,54.63-10.7,0,.24L1518,756.17c-.12,1.52-1.46,21.16,8.81,26.39l1.26.64c9.59,4.89,11.06,5.65,23.52,5.46,7.12-.11,14.6-.07,21,1.61Z" transform="translate(-734.78 -365.66)"/><path class="cls-2" d="M1554,873.68h-.08L1439,857.1l-9.8-4.4.09-.12,65.67-91.7h0l12.16-2V759c0,.15.81,14.62,2.75,19.08,2.54,5.84,12,16.55,31.25,19.64,5.18.83,9.7,1.27,13.69,1.66,7.23.71,13,1.27,17.71,3.75l-.11.22c-4.72-2.45-10.42-3-17.62-3.72-4-.39-8.52-.83-13.71-1.67-9.08-1.45-16.76-4.63-22.83-9.43-5.82-4.61-8.06-9.09-8.61-10.35-1.85-4.27-2.67-17.52-2.76-19l-11.84,1.94-65.52,91.49,9.51,4.26,114.82,16.55,18.51-28.23.21.13Z" transform="translate(-734.78 -365.66)"/><polygon class="cls-2" points="634.36 571.47 634.16 571.32 689.2 495.84 689.18 496.26 685.24 571.4 684.99 571.39 688.91 496.67 634.36 571.47"/><polygon class="cls-2" points="800.74 571.43 800.5 571.36 817.41 516.47 700.21 500.73 696.27 571.4 696.02 571.39 699.98 500.45 700.11 500.47 817.74 516.26 817.69 516.4 800.74 571.43"/><polygon class="cls-2" points="837.66 568.12 815.85 559.8 815.88 559.69 826.73 519.88 837.59 496.2 837.82 496.31 826.96 519.96 816.15 559.65 837.75 567.89 837.66 568.12"/><path class="cls-2" d="M1561.59,937.17l-13.89-4.54c-.24.68-1.45,4.07-1.53,4.45l-.25-.06c.1-.43,1.52-4.41,1.58-4.58l0-.12.12,0,14,4.57Z" transform="translate(-734.78 -365.66)"/><path class="cls-2" d="M866,397.26l-.09,0c-1.25-.6-3.66-28.29-3.93-31.45l.25,0c1,12.18,2.9,30.44,3.77,31.23.45-.29,3.84-2.33,8.5-5.12,12.64-7.59,36.1-21.68,36.95-22.59v-3.51h.25v3.55c0,.38-9,5.91-37.07,22.76l-8.52,5.13A.15.15,0,0,1,866,397.26Z" transform="translate(-734.78 -365.66)"/><path class="cls-2" d="M936.15,388.83c-15.17,0-20.72-9.49-20.78-9.59l-.06-.1.11-.07,22.86-13.4.13.22-22.76,13.34c.69,1.09,6.94,10.21,22.69,9.29,15.25-.89,21-4.78,27.11-8.89l2-1.34c6.82-4.48,20-12.54,20.11-12.62l.13.22c-.13.08-13.29,8.13-20.1,12.61-.68.44-1.34.89-2,1.34-6.13,4.13-11.92,8-27.24,8.93C937.6,388.81,936.86,388.83,936.15,388.83Z" transform="translate(-734.78 -365.66)"/><path class="cls-2" d="M872,445.74v-.11l-4.54-36.94.06,0c1.56-1.17,36.56-22,38-22.87l.09-.06.07.08c.12.15,13,14.33,31,13.36,18.35-1,28.74-5.85,39.56-13.38s20-13.35,20.11-13.4l.2-.13v.24l-1.38,40.29-.08,0c-.2.07-19.37,6.94-35.13,10.25-17.54,3.69-44.39,6.4-45.52,6.51a8.29,8.29,0,0,0-5.7,3c-2,2.52-2.93,6.37-2.47,10.84v.13h-.13Zm-4.29-36.93,4.51,36.67,33.86-2.16c-.44-4.48.46-8.34,2.54-10.89a8.53,8.53,0,0,1,5.86-3.11c1.14-.11,28-2.82,45.49-6.5,15.23-3.2,33.65-9.73,35-10.22l1.37-39.89c-1.39.89-9.89,6.3-19.9,13.28-10.85,7.55-21.27,12.43-39.69,13.42-17.49.93-30.12-12.23-31.17-13.37C903.63,387.22,869.89,407.29,867.71,408.81Z" transform="translate(-734.78 -365.66)"/><path class="cls-2" d="M808.56,433.79l0-.18c-.79-4-7.69-38.88-7.49-39.67s-2.37-20.55-3.35-28.14l.25,0c.36,2.81,3.54,27.45,3.34,28.24s4.81,26,7.46,39.38l43.54-27.45-4.52-40.14.24,0,4.55,40.28-.07.05Z" transform="translate(-734.78 -365.66)"/><rect class="cls-2" x="730.27" y="379.75" width="47.52" height="0.25" transform="translate(-813.03 156.24) rotate(-36.42)"/><path class="cls-2" d="M746.41,418.16l-7.31-14.57,48-35.08,0,.21,3.36,22.55-.07,0Zm-7-14.5,7.09,14.15,43.67-26.67L786.87,369Z" transform="translate(-734.78 -365.66)"/><path class="cls-2" d="M757.05,439.37l-.06-.11-6.65-13,.1-.06c14.09-8.17,40.86-23.74,41.36-24.17l.05-.07.07,0c.11,0,.33.07,3.15,17.45v.09l-.08,0Zm-6.38-13L757.15,439l37.66-19.61c-1-6.43-2.64-15.92-3-17.09C789.44,403.88,760.08,420.93,750.67,426.39Z" transform="translate(-734.78 -365.66)"/><path class="cls-2" d="M771.46,464.21,760,447.53l37.95-19,.8,11.79-.06,0c-.12.09-12.14,8.8-15,12-.56.65-1.11,1.32-1.69,2a43.24,43.24,0,0,1-10.45,9.72Zm-11.12-16.58,11.18,16.24a42.86,42.86,0,0,0,10.29-9.61c.59-.71,1.14-1.38,1.71-2,2.73-3.11,14-11.35,14.94-12L797.69,429Z" transform="translate(-734.78 -365.66)"/><polygon class="cls-2" points="28.34 166.05 28.15 165.89 0.04 142.04 0.21 141.85 28.13 165.54 31.85 113 0.01 52.39 0.24 52.27 32.11 112.94 32.1 112.98 28.34 166.05"/><path class="cls-2" d="M875.77,621.85c-1.07,0-25.1-2.93-32.55-3.84h0l0,0L773,540.56l.71-5.14,0,0c.14-.1,14.13-9.88,17.25-11.93,3.28-2.15,4.31-5,2.82-7.92A4.69,4.69,0,0,0,791,513a6.33,6.33,0,0,0-4.89,1c-3.31,1.94-11.24,8.11-11.32,8.17l-.23.18,3.08-30.06-.3-20.44,30.8-25.57,46-29.09,0,.2,5.63,45.5-.05,0c-.24.2-23.81,20-29.16,25.72a115.39,115.39,0,0,0-10.91,14.82c-4.5,7.1-7.58,13.23-8.68,17.25a75.28,75.28,0,0,1-3,9.16A21.39,21.39,0,0,0,806.7,534c-.78,3.8.54,6,4.14,6.85,3.27.8,5.6-.64,6.55-4,.1-.34.24-.87.42-1.55,1.54-5.88,5.64-21.5,10.84-27.67l.89-1.05c5.57-6.62,12.5-14.85,17.66-19,5.36-4.29,15-12.89,15.07-13l.17-.15,0,.21c.06.29,5.73,28.9,6.6,33.78s6.64,25,6.7,25.22l0,.1-.09,0c-.5.23-49.32,23-52.34,24.44a5.59,5.59,0,0,0-3.06,3.25,4.32,4.32,0,0,0,.46,3.48c1.54,2.67,3,3.21,6,2.11,3.12-1.17,51.55-22.64,52-22.86l.13-.06,0,.14,18.36,66.23-.09.05c-2.16,1.14-21.11,11.14-21.41,11.24Zm-32.47-4.08c10.93,1.34,31.6,3.84,32.43,3.84h0c.31-.13,14-7.34,21.26-11.18l-18.27-65.89c-2.83,1.25-48.87,21.67-51.91,22.81s-4.66.55-6.26-2.23a4.53,4.53,0,0,1-.48-3.67,5.83,5.83,0,0,1,3.19-3.4c3-1.43,49.78-23.25,52.24-24.4-.45-1.57-5.83-20.44-6.67-25.14s-6-30.9-6.56-33.55c-1.3,1.15-9.95,8.85-14.92,12.83-5.14,4.11-12.07,12.33-17.63,18.94l-.88,1c-5.17,6.13-9.41,22.27-10.8,27.57-.18.68-.32,1.21-.42,1.56-1,3.55-3.43,5.06-6.85,4.22-3.71-.9-5.13-3.24-4.33-7.14a23,23,0,0,1,1.33-4.18,71.31,71.31,0,0,0,3-9.13c1.49-5.47,6.1-13.2,8.71-17.32a116.33,116.33,0,0,1,10.93-14.86c5.24-5.63,27.88-24.65,29.13-25.69L854,417.63,808.32,446.5,777.63,472l.29,20.34-3,29.49c1.33-1,8.11-6.24,11.11-8a6.6,6.6,0,0,1,5.09-1,4.94,4.94,0,0,1,3,2.65c1.53,3,.45,6.05-2.9,8.24-3,2-16.32,11.28-17.2,11.89l-.67,4.92Z" transform="translate(-734.78 -365.66)"/><path class="cls-2" d="M929.8,801.92l0-.06-10.25-17.55L835.07,698c-2.93-2.63-5.77-2.83-8.21-.58-1.94,1.79-2.9,4.75-1,6.92l85.76,86.95,4.24,9.3-.24-.05L890,795.21l0,0-91.36-81.69.09-.09,82.42-82.22L901,620.71l0,.14,23.46,67.36,45.58,103.21-.12,0-25.67,9.67ZM830.43,695.64a7.36,7.36,0,0,1,4.81,2.18l84.47,86.34,10.23,17.5,14.29-.78,25.48-9.6-45.47-103-23.42-67.24-19.56,10.32L799,713.48,890.11,795l25.35,5.26-4-8.82L825.7,704.51c-1.54-1.74-1.7-4.8,1-7.28A5.49,5.49,0,0,1,830.43,695.64Z" transform="translate(-734.78 -365.66)"/><path class="cls-2" d="M797,699.86l-.09-.08-62.11-55.32.17-.19,62,55.25,67.74-67.94-22.25-2.52-13.76,14a5.32,5.32,0,0,1-3.92,1.7h0a5.33,5.33,0,0,1-3.94-1.71c-2.47-2.72-2.37-5.62.3-8.64l11.35-11.55-68.71-76.19-29-24.43.16-.2,29,24.45,68.88,76.38-11.51,11.71c-2.57,2.9-2.67,5.69-.29,8.31a5,5,0,0,0,3.75,1.62h0a5.07,5.07,0,0,0,3.74-1.62l13.84-14.05,22.89,2.6-.18.19Z" transform="translate(-734.78 -365.66)"/><polygon class="cls-2" points="44.3 353.92 44.21 353.83 0.04 312.05 0.21 311.86 44.29 353.56 54.77 342.12 0.04 292.34 0.21 292.15 55.12 342.11 55.03 342.2 44.3 353.92"/><polygon class="cls-2" points="22.82 377.78 22.73 377.68 0.04 355.41 0.21 355.23 22.8 377.41 36.64 361.24 0.04 326.04 0.21 325.86 36.98 361.23 36.9 361.31 22.82 377.78"/><polygon class="cls-2" points="2.51 400.45 0.03 397.78 0.22 397.61 2.51 400.07 15.55 384.89 0.04 368.61 0.21 368.44 15.88 384.88 15.81 384.97 2.51 400.45"/><path class="cls-2" d="M867.52,793.68,736.23,783.17l.18-.19,20-21.18.09.08c.08.07,8.56,7,13.34,7.86,2.7.45,6.14,1.12,9.78,1.82,8.42,1.63,18.9,3.66,27.27,4.48,10.31,1,29.48,2.9,39.26,6.32,5.52,1.93,20.76,11,20.91,11ZM736.77,783l129.69,10.39c-2.61-1.54-15.45-9-20.41-10.76-9.74-3.4-28.9-5.29-39.19-6.3-8.38-.82-18.87-2.85-27.29-4.48-3.64-.71-7.08-1.37-9.78-1.83-4.64-.78-12.39-7-13.37-7.83Z" transform="translate(-734.78 -365.66)"/><path class="cls-2" d="M790.05,763.69h-.33c-.05,0-5.24-.22-14.41-1.58a24.82,24.82,0,0,1-14.07-6.74l-.07-.08.07-.09L770,745l.1.09Zm-28.55-8.42a24.76,24.76,0,0,0,13.85,6.58c7.83,1.17,12.74,1.49,14,1.56L770,745.4Z" transform="translate(-734.78 -365.66)"/><path class="cls-2" d="M852.83,777.88a.17.17,0,0,1-.11,0h0c-.56-.57-5.66-4-14.72-5.89-3.74-.76-7.93-1.24-12-1.7-5.46-.62-10.61-1.2-14.65-2.44-7-2.15-33.24-29.61-34.35-30.78l-.08-.09.07-.08L791.49,721l.09.08c.59.55,57.2,52.84,61.09,56.39l.22.19.08.08-.07.1S852.85,777.88,852.83,777.88Zm-75.55-40.94c1.64,1.72,27.37,28.56,34.16,30.63,4,1.23,9.16,1.82,14.61,2.43,4.05.47,8.24.94,12,1.71a44.44,44.44,0,0,1,13.24,4.82l-1.2-1.11-7-6.4-21.08-19.45L791.5,721.35Z" transform="translate(-734.78 -365.66)"/><path class="cls-2" d="M1134,937.16l-105.7-65.29c-.21,1.09-1.28,7.1,0,11.59,1.44,4.91,21.15,34.45,21.7,35.28L1072.36,937l-.16.2-22.34-18.25c-.83-1.24-20.29-30.38-21.75-35.37s0-11.82,0-11.89l0-.17.15.09,105.85,65.38Z" transform="translate(-734.78 -365.66)"/><path class="cls-2" d="M1057.28,937.15l-15.55-11.74c-1-1.31-24.87-32.07-25.45-41.46-.56-9,2.62-19.91,2.93-21-1-.81-12.78-10.57-18.14-18.75S975.71,803.87,974.51,802c-1.94.74-25.06,9.53-25.64,9.67s-8.59.88-10.13,1c2.09,2.48,24.43,29.07,31.25,39.15,7.11,10.52,58.12,84.44,58.64,85.19l-.21.14c-.51-.74-51.53-74.67-58.64-85.19s-31.14-39-31.38-39.31l-.16-.19.24,0c3.37-.31,9.87-.92,10.33-1s25.46-9.61,25.71-9.7l.1,0,0,.09c.21.34,21.06,33.9,26.61,42.37s18,18.65,18.16,18.75l.06,0,0,.08c0,.12-3.54,11.62-3,20.95.24,3.85,4.7,12.21,12.91,24.18,6.09,8.89,12.19,16.76,12.48,17.13L1057.43,937Z" transform="translate(-734.78 -365.66)"/><polygon class="cls-2" points="281.51 571.46 261.92 538.87 239.21 551.45 248.77 571.34 248.54 571.45 238.88 551.35 238.99 551.29 262 538.54 262.07 538.64 281.73 571.33 281.51 571.46"/><path class="cls-2" d="M971.52,937.14c-1.56-1.6-6.63-14-7.22-15.48l-32.85,14.88-.11-.23,33.09-15,.05.12c.06.14,5.63,13.89,7.22,15.52Z" transform="translate(-734.78 -365.66)"/><path class="cls-2" d="M908.57,838.87l-.05-.11c-4.41-9.16-11.21-22.89-12-23.43-.87.25-13.83,6.07-20.65,9.15l-.1,0-.06-.1-11.1-20.56.24,0c.5.06,23.61,2.14,23.84,2.16l35.84,6.82,0,0L934.7,825l-.14.07Zm-12.05-23.8c.22,0,.87.6,6.44,11.77,2.68,5.37,5.31,10.83,5.73,11.69l25.62-13.61-9.93-11.83-35.73-6.79c-.9-.08-21.14-1.9-23.61-2.14l10.83,20c1.73-.78,19.89-9,20.61-9.13Z" transform="translate(-734.78 -365.66)"/><path class="cls-2" d="M888.76,852l0-.12-10.26-21.55,11.76-5.12,10.46,20.91Zm-10-21.54,10.09,21.2L900.33,846l-10.24-20.48Z" transform="translate(-734.78 -365.66)"/><path class="cls-2" d="M925.72,927.87l-.05-.12-34.51-69.89.12-.05,50.8-24.14,47.61,62.73-.14.07ZM891.5,858l34.33,69.55,63.47-31.22L942,834Z" transform="translate(-734.78 -365.66)"/><path class="cls-2" d="M905.67,937.18v-.25c.45,0,7.09-3.25,11.51-5.44l-34.33-66.9c-1,.51-8.93,4.41-16.79,8.23-17,8.27-17.23,8.13-17.36,8.06l-.06,0v-.08c-.08-.57-6.86-14.74-9.54-20.3L824.52,868l0,0c-.12,0-12.34-3.77-22.67.89s-43.39,41-43.72,41.36l0,0h0l-6.31.73c-.38.4-4.06,4.21-5.59,5.74s-3.59,1.56-6.51-.28-4.73-2.94-4.75-3l.13-.21s2,1.21,4.75,3,4.65,1.86,6.2.31,5.58-5.72,5.62-5.76l0,0h0l6.32-.73c1.19-1.32,33.51-36.77,43.76-41.39,10.08-4.54,21.94-1.17,22.81-.91l14.7-7.57.06.11c1.55,3.21,9,18.77,9.59,20.4,1.67-.44,25-11.87,34-16.32l.11,0,.06.11,34.5,67.23-.11,0C916.27,932.22,906.27,937.18,905.67,937.18Z" transform="translate(-734.78 -365.66)"/><path class="cls-2" d="M753,899.49l-.09-.07c-3-2.26-18.11-13.54-18.11-14.45H735c.18.74,10.77,8.85,17.91,14.17,1.49-1.78,24-28.57,33.36-35,9.85-6.71,14.27-7.69,22.55-7.26a94.7,94.7,0,0,1,14.76,1.92l11.81-5.11c-.55-1-4.34-7.87-5.7-11.27a8.19,8.19,0,0,1,.35-6.3,9.33,9.33,0,0,1,5.49-5c4.9-1.68,24.22-9.35,26-10.07l-10.4-18L734.9,794.48v-.25l116.44,8.67,0,.06L862,821.25l-.14,0c-.21.08-21,8.37-26.17,10.13a9,9,0,0,0-5.34,4.83,7.93,7.93,0,0,0-.35,6.09c1.46,3.65,5.72,11.29,5.76,11.37l.07.12-12.14,5.25h0a94.81,94.81,0,0,0-14.77-1.92c-8.35-.45-12.53.5-22.39,7.22-9.63,6.57-33.15,34.73-33.38,35Z" transform="translate(-734.78 -365.66)"/><path class="cls-2" d="M852,867.4l-.05-.11-12.08-26.93.12-.05,25.93-11.08,0,.11,11.88,25.73-.11.06Zm-11.8-26.91,11.92,26.58L877.47,855l-11.73-25.4Z" transform="translate(-734.78 -365.66)"/><circle class="cls-3" cx="331.55" cy="495.17" r="8.98"/><path class="cls-4" d="M1070.56,859.1a6.32,6.32,0,0,0-.91-.47,3.75,3.75,0,0,0-4.64.88l0,0a3.09,3.09,0,0,1,2.58.33,3.19,3.19,0,0,1,1.08,4.62,3.69,3.69,0,0,1-5.15,1.39c-2.23-1.3-2.48-3.71-1.16-6a6.49,6.49,0,0,1,4-3.18,6,6,0,0,1,4,.55,7,7,0,0,1,.9.47Zm-3.68,4.45a1.86,1.86,0,0,0-.53-2.75,2,2,0,0,0-2.06.08,1.21,1.21,0,0,0-.43.48c-.68,1.23-.68,2.55.44,3.2C1065.2,865.09,1066.24,864.65,1066.88,863.55Z" transform="translate(-734.78 -365.66)"/><path d="M1078.35,870.38a17,17,0,0,0,3,1.43l-.42.93a19.64,19.64,0,0,1-3.56-1.73l-.62-.36,3.51-6,3.46,2-.5.87-2.42-1.41Zm10.27-2.4-5.45,9.36-1-.59,2.79-4.79-1.11-.65-2.52,4.33-1-.58,5.08-8.7,1,.58-2,3.5,1.11.65,2.16-3.7Z" transform="translate(-734.78 -365.66)"/><path d="M1093,881.14c-.55,1-2,.78-4.07-.42s-2.93-2.38-2.37-3.34,2-.76,4.07.43S1093.54,880.2,1093,881.14Zm2.67-2.22-.49.84-8.46-4.94.49-.84Zm-3.75,1.59c.26-.45-.34-1.09-1.75-1.91s-2.25-1-2.51-.58.33,1.1,1.73,1.92S1091.64,881,1091.91,880.51Zm1.4-7.27c2,1.15,2.79,2.26,2.27,3.15s-1.88.72-3.85-.43-2.81-2.26-2.29-3.15S1091.33,872.09,1093.31,873.24Zm3.94,1.89-7.57-4.42.48-.82,3.27,1.91.51-.87,1.07.63-.5.87,3.22,1.88Zm-4.37-1.15c-1.27-.74-2.06-.92-2.3-.51s.3,1,1.57,1.75,2.06.92,2.31.51S1094.14,874.72,1092.88,874Z" transform="translate(-734.78 -365.66)"/><rect x="1136.77" y="860.85" width="1" height="82.68" transform="translate(-949.77 1064.49) rotate(-59.75)"/><polygon points="433.28 559.22 433.06 558.25 437.87 557.17 436.44 552.45 437.4 552.16 439.13 557.9 433.28 559.22"/><circle class="cls-3" cx="672.38" cy="473.92" r="8.98"/><path class="cls-4" d="M1405.87,835.19a7.17,7.17,0,0,0-.56.86,3.74,3.74,0,0,0,.41,4.7l0,0a3.08,3.08,0,0,1,.58-2.54,3.19,3.19,0,0,1,4.7-.61,3.7,3.7,0,0,1,.87,5.27c-1.51,2.08-3.93,2.09-6.06.55a6.53,6.53,0,0,1-2.77-4.29,6.09,6.09,0,0,1,1-4,5.56,5.56,0,0,1,.57-.85Zm4.05,4.1a1.85,1.85,0,0,0-2.78.27,1.93,1.93,0,0,0-.13,2.05,1.4,1.4,0,0,0,.43.48c1.16.79,2.47.93,3.24-.12C1411.29,841.12,1411,840,1409.92,839.29Z" transform="translate(-734.78 -365.66)"/><path d="M1417.87,828.57a16.78,16.78,0,0,0,1.72-2.89l.89.51a19.29,19.29,0,0,1-2.07,3.37l-.43.58-5.64-4.09,2.36-3.24.81.59-1.64,2.26Zm-1.36-10.46,8.76,6.36-.69.95-4.48-3.25-.76,1,4.06,2.94-.68.94-8.15-5.92.68-.94,3.28,2.38.75-1-3.46-2.51Z" transform="translate(-734.78 -365.66)"/><path d="M1424.48,810.24l-5.15,7.09-.77-.56,2.23-3.06-.82-.6.73-1,.82.6,2.19-3Zm-2.27,3.73c1.34-1.84,2.52-2.56,3.36-2s.52,2-.82,3.8-2.53,2.56-3.36,1.95S1420.86,815.82,1422.21,814Zm.69.5c-.87,1.19-1.12,2-.74,2.24s1-.2,1.9-1.4,1.13-1.95.74-2.23S1423.76,813.29,1422.9,814.47Zm5.19-2.28.79.57-5.76,7.93-.78-.57Zm2,2.88c.89.65.57,2.09-.83,4s-2.66,2.68-3.56,2-.55-2.09.84-4S1429.15,814.43,1430,815.07Zm-.74,1c-.42-.3-1.12.23-2.08,1.55s-1.24,2.14-.82,2.44,1.13-.22,2.08-1.53S1429.72,816.4,1429.3,816.09Z" transform="translate(-734.78 -365.66)"/><rect x="1331.2" y="886.76" width="82.67" height="1" transform="translate(-887.01 1109.98) rotate(-53.98)"/><polygon points="612.11 549.98 613.11 549.85 613.7 554.75 618.54 553.8 618.73 554.78 612.84 555.94 612.11 549.98"/><circle class="cls-5" cx="753.4" cy="295.4" r="8.98"/><path class="cls-4" d="M1491.43,666.89l-1.09-.56-.45-1.66c-.9-3.28-1.48-4.92-2.72-5.58a1.68,1.68,0,0,0-2.46.86,3.83,3.83,0,0,0-.27,2.42l-1.54-.14a5.32,5.32,0,0,1,.55-3.39c1.09-2.09,2.93-2.43,4.47-1.63s2.37,2.75,3,5.19l.29,1.19h0l2-3.86,1.47.77Z" transform="translate(-734.78 -365.66)"/><path d="M1496.85,643.51c2.09,1.09,2.85,2.82,2.1,4.25s-2.59,1.78-4.68.7-2.84-2.81-2.09-4.23S1494.79,642.44,1496.85,643.51Zm-2,3.9c1.51.78,2.72.67,3.15-.16s-.16-1.9-1.67-2.68-2.7-.67-3.13.17S1493.33,646.63,1494.82,647.41Zm-.69-8.67,9.64,5-.58,1.1-9.64-5Z" transform="translate(-734.78 -365.66)"/><path d="M1502.27,638.81a17.53,17.53,0,0,0,1.28-3.1l1,.37a19,19,0,0,1-1.56,3.64l-.33.64-6.18-3.23,1.86-3.55.89.47-1.3,2.48Zm-2.88-10.14,9.6,5-.54,1.05-4.92-2.57-.59,1.14,4.44,2.32-.53,1-8.94-4.66.54-1,3.6,1.88.59-1.14-3.8-2Z" transform="translate(-734.78 -365.66)"/><rect x="1484.82" y="587.75" width="82.68" height="1" transform="translate(-436.35 1303.28) rotate(-62.43)"/><polygon points="812.59 190.77 811.62 191.04 810.32 186.28 805.67 187.93 805.34 186.99 811 184.98 812.59 190.77"/><circle class="cls-5" cx="159.5" cy="116.73" r="8.98"/><path class="cls-4" d="M888.09,479.86l1.2-.24,1.4,1c2.75,2,4.22,2.91,5.6,2.66a1.67,1.67,0,0,0,1.39-2.21,3.76,3.76,0,0,0-1.31-2.05l1.29-.86a5.29,5.29,0,0,1,1.7,3c.46,2.31-.77,3.73-2.48,4.06s-3.56-.66-5.6-2.15l-1-.75h0l.84,4.27-1.63.32Z" transform="translate(-734.78 -365.66)"/><path d="M894.2,505.7l-1,.2-1.43-7.25,3.38-.67.24,1.23-2.39.47Zm1.6-.63-.24-1.21,7.77-1.53.24,1.21Zm1.09-3.27a4.42,4.42,0,0,1,1.92-3,4.65,4.65,0,0,1-3.14-2.1l.86-.81a4,4,0,0,0,4.19,1.87l1.06-.21.25,1.24L901,499a3.75,3.75,0,0,0-3,3.25Z" transform="translate(-734.78 -365.66)"/><path d="M895,509.9l1.2,6.1-1,.2-1.45-7.33,2.92-.58.24,1.23Zm5.05,6.46-1,.19-1.89-9.61,1-.19L899,511l1.27-.26.24,1.22-1.27.25Zm-.09-9.45c.61,2.11,1.69,3.29,2.75,3.22l-.62-3.16,1-.19.64,3.24,1.09-.22L905,511l-1.09.21.64,3.25-1,.19L903,511.5c-1,.34-1.55,1.85-1.33,4l-1-.2a5.29,5.29,0,0,1,1-4.26,5.27,5.27,0,0,1-2.58-3.55Z" transform="translate(-734.78 -365.66)"/><rect x="882.37" y="383.23" width="1" height="82.67" transform="translate(-800.25 -186.8) rotate(-11.16)"/><polygon points="144.75 20.81 144.16 21.62 140.17 18.73 137.58 22.92 136.72 22.39 139.89 17.29 144.75 20.81"/><circle class="cls-6" cx="86.46" cy="262.58" r="8.98"/><path class="cls-4" d="M821.47,627.19c-.5.47-1.32.22-2.08-.6s-.95-1.66-.45-2.13,1.32-.22,2.09.61S822,626.72,821.47,627.19Zm.76-3.4a3.17,3.17,0,0,1-2.91-.48l.25-.64c1.11.69,1.95.73,2.57.29L821,621.74l.46-.43,1.72,1.85a2.37,2.37,0,0,1-.39.32l.67.73.65-.6.53.58-2.33,2.16-.53-.58.38-.36-.83-.89.47-.43.83.89.37-.35Zm-1.29,2.83c.25-.23.1-.64-.36-1.14s-.86-.68-1.11-.45-.1.64.37,1.15S820.7,626.85,820.94,626.62Z" transform="translate(-734.78 -365.66)"/><path class="cls-4" d="M822.52,627.44a24.42,24.42,0,0,0,2.51,2.43l-.39.42a18.14,18.14,0,0,1-2.52-2.34Zm3.73,1a1.53,1.53,0,1,1,0-2A1.4,1.4,0,0,1,826.25,628.44Zm2.16-.22L824.34,632l-.53-.58,4.06-3.77Zm-3.71-1.44a.75.75,0,0,0,1,1.1.68.68,0,0,0,0-1A.67.67,0,0,0,824.7,626.78Z" transform="translate(-734.78 -365.66)"/><path class="cls-4" d="M816.78,629.14l-.3.28c.59.75.72,1.39.31,1.78s-1.23.14-2-.73-1-1.65-.57-2.08,1.06-.21,1.77.44l.29-.27L814.82,627l.46-.43,3.39,3.66-.46.43Zm-1,.37c-.5-.54-.85-.73-1-.54s0,.55.47,1.09.84.73,1,.55S816.28,630.05,815.78,629.51Zm.25-3.32c.76.69,1.4.84,1.76.69l-1-1.07.46-.43,2.78,3-.47.43-1-1.08c-.18.36-.08,1,.56,1.81l-.64.22a2.41,2.41,0,0,1-.63-2.16,2.44,2.44,0,0,1-2.11-.79Z" transform="translate(-734.78 -365.66)"/><path class="cls-4" d="M820.62,635.18c-.51.47-1.3.21-2.07-.62s-1-1.65-.47-2.12,1.29-.21,2.07.63S821.12,634.71,820.62,635.18Zm-.53-.58c.23-.21.09-.6-.39-1.11s-.85-.69-1.09-.47-.09.6.39,1.11S819.85,634.82,820.09,634.6Zm-.36-2.51a1.35,1.35,0,1,1,2,.19A1.4,1.4,0,0,1,819.73,632.09Zm.49-.45a.68.68,0,1,0,1-.92.68.68,0,1,0-1,.92Zm3.19,1.87-.47.44-.5-.54-1,.9-.54-.58,2.35-2.19.54.59-.91.84Z" transform="translate(-734.78 -365.66)"/><path d="M834.92,639.49a5.19,5.19,0,0,0-1.65,5.2l-1.23.14a5.33,5.33,0,0,1,.63-4.09,5.61,5.61,0,0,1-4.28.43l.19-1.24a5.57,5.57,0,0,0,5.49-1.35l1.31-1.22.85.91Zm5.42,1.89-8,7.39-.84-.91,4.61-4.28-1.57-1.7.73-.69,1.58,1.7,2.61-2.42Z" transform="translate(-734.78 -365.66)"/><path d="M841.18,655.09c-1,.9-2.53.43-4-1.16s-1.84-3.17-.86-4.08,2.55-.44,4,1.14S842.17,654.17,841.18,655.09Zm-.83-.9c.55-.51.26-1.47-.73-2.53s-1.92-1.43-2.47-.91-.24,1.46.74,2.52S839.8,654.7,840.35,654.19Zm4.55-6.74c-2.07,1.92-4.82,1.92-7.64.22l.38-1c2.23,1.35,4.23,1.5,5.61.52l-2.53-2.73.74-.68Zm1.65,4.59-.75.69-1-1.12-2,1.82-.84-.91,4.66-4.33.84.9-2,1.82Z" transform="translate(-734.78 -365.66)"/><path d="M845,657.06a16.78,16.78,0,0,0,2.5,2.25l-.68.77a19.9,19.9,0,0,1-2.9-2.69l-.49-.52,5.11-4.74,2.72,2.93-.74.69-1.9-2Zm10.52.69-7.93,7.37-.8-.87,4.06-3.77-.88-.94L846.29,663l-.79-.86,7.38-6.85.79.85-3,2.76.88.94,3.13-2.91Z" transform="translate(-734.78 -365.66)"/><rect x="780.65" y="543.71" width="1" height="82.67" transform="translate(-924.17 322) rotate(-42.87)"/><polygon points="23.5 188.74 23.43 189.74 18.51 189.37 18.51 194.3 17.51 194.3 17.51 188.29 23.5 188.74"/><polygon class="cls-1" points="522.69 409.13 567.83 398.09 567.83 396.02 570.69 395.43 571.58 400.95 566.25 402.28 568.42 410.02 588.72 404.8 592.67 417.51 536.69 431.7 531.76 416.33 524.76 418.3 522.69 409.13"/><path d="M1283.87,778.27h.91l2.46,5.64h-1l-.57-1.36H1283l-.58,1.36h-1Zm1.4,3.41-1-2.24-1,2.24Z" transform="translate(-734.78 -365.66)"/><path d="M1287.74,783.09l.59-.7a2.61,2.61,0,0,0,1.77.72c.61,0,1-.28,1-.7v0c0-.4-.22-.61-1.26-.85s-1.87-.64-1.87-1.67v0a1.71,1.71,0,0,1,1.92-1.62,3.14,3.14,0,0,1,2,.7l-.53.75a2.52,2.52,0,0,0-1.52-.58c-.58,0-.91.3-.91.66v0c0,.43.25.62,1.33.88s1.79.71,1.79,1.64h0c0,1.05-.82,1.68-2,1.68A3.45,3.45,0,0,1,1287.74,783.09Z" transform="translate(-734.78 -365.66)"/><polygon class="cls-1" points="446.9 419.97 511.95 403.71 512.98 408.44 519.93 406.96 525.4 432.54 457.1 450.28 456.07 445.84 451.48 446.73 447.49 427 446.9 419.97"/><path d="M1218.76,789.58h2.49a2.22,2.22,0,0,1,1.62.56,1.7,1.7,0,0,1,.46,1.2v0a1.67,1.67,0,0,1-1.33,1.69l1.52,2.12h-1.17l-1.38-1.95h-1.23v1.95h-1Zm2.42,2.77c.7,0,1.15-.37,1.15-.93v0c0-.6-.43-.93-1.16-.93h-1.43v1.88Z" transform="translate(-734.78 -365.66)"/><polygon class="cls-1" points="569.41 384.69 572.66 404.6 616.42 397.8 615.83 391.88 617.4 391.69 615.33 377.4 569.41 384.69"/><path d="M1322.85,753.8h2.5a2.26,2.26,0,0,1,1.61.56,1.67,1.67,0,0,1,.47,1.21h0a1.7,1.7,0,0,1-1.33,1.7l1.51,2.12h-1.17l-1.37-1.95h-1.23v1.95h-1Zm2.43,2.78c.7,0,1.15-.37,1.15-.94v0c0-.6-.43-.92-1.16-.92h-1.43v1.88Z" transform="translate(-734.78 -365.66)"/><path d="M1330.62,753.76h.91l2.46,5.64h-1l-.56-1.35h-2.65l-.58,1.35h-1Zm1.41,3.41-1-2.23-1,2.23Z" transform="translate(-734.78 -365.66)"/><path class="cls-1" d="M1365.49,746.11s-3.55-16.07-3.25-16.16,18.33-3.75,18.33-3.75l9.06,36.76L1371,766.71l-1.58-6.61-7.69,1.38-3.15-14.19Z" transform="translate(-734.78 -365.66)"/><path d="M1373.44,745.44h4.17v.89h-3.19v1.53h2.83v.9h-2.83V751h-1Z" transform="translate(-734.78 -365.66)"/><path class="cls-1" d="M1429.85,733.44a4,4,0,0,0-4-4,3.84,3.84,0,0,0-.76.08l-2.77-14.2-35.29,7.88,8.67,35.78,33.61-7.89-2.7-13.82A4,4,0,0,0,1429.85,733.44Z" transform="translate(-734.78 -365.66)"/><path d="M1406.39,739l.64-.67a1.4,1.4,0,0,0,1.13.66c.53,0,.89-.35.89-1.1v-3.66h1v3.69a2.08,2.08,0,0,1-.52,1.49,1.9,1.9,0,0,1-1.36.49A2.09,2.09,0,0,1,1406.39,739Z" transform="translate(-734.78 -365.66)"/><path class="cls-1" d="M1473.7,687.17,1463,686l-27.6,6.21,7.49,29.57,2.07-.5,2.86,13.9-20.58,5,2.57,12.17,40.88-9.27-1-4.39L1468,739l-2.91-14.15.65-1.06a16.45,16.45,0,0,0,12.49-16,16.88,16.88,0,0,0-.4-3.59Z" transform="translate(-734.78 -365.66)"/><path d="M1454.51,710.67h-1.78v-.91h4.55v.91h-1.78v4.69h-1Z" transform="translate(-734.78 -365.66)"/><path d="M1458.31,709.76h4.15v.88h-3.17v1.46h2.81V713h-2.81v1.5h3.21v.88h-4.19Z" transform="translate(-734.78 -365.66)"/><polygon class="cls-1" points="621.54 236.17 633.37 231.04 636.42 239.22 692.4 215.27 695.36 222.76 719.41 225.32 719.71 222.86 723.45 223.35 721.43 238.58 693.59 235.53 692.9 241.63 683.14 243.31 680.68 237 631.4 258.93 630.46 256.9 626.94 258.42 623.22 249.77 626.72 248.14 621.54 236.17"/><path d="M1403.31,598.49l-2,2.74,2,2.86h-1.16l-1.48-2.14-1.47,2.14h-1.13l2-2.85-1.94-2.75h1.16l1.38,2,1.41-2Z" transform="translate(-734.78 -365.66)"/><path class="cls-1" d="M1421.54,501.12l-1.7,1-2.51-3.77,14.34-9.38,23.58,37.32,3-1.7,1.68,2.59-5.55,3.4,3.33,4.81-15.45,10.27,7.91,10.79-18,11.68-13.67-20.57-12,7.41-5.25-7.41,5.55-3.6-4.66-6.87-20.55,13.15-4-5.91-2.66,1.7-3.18-5.32s-2.73,1.77-2.81,1.55-2.81-4-2.81-4l45.09-30.16,5.92,8.57,10.27-6.43Z" transform="translate(-734.78 -365.66)"/><path d="M1424.8,528.42h2.08a2.8,2.8,0,0,1,3,2.78v0a2.81,2.81,0,0,1-3,2.8h-2.08Zm1,.89v3.81h1.1a1.83,1.83,0,0,0,1.95-1.89h0a1.84,1.84,0,0,0-1.95-1.91Z" transform="translate(-734.78 -365.66)"/><polygon class="cls-1" points="588.43 191.81 615.33 175.46 611.79 170.33 621.54 164.51 625.88 165.21 629.43 163.13 627.16 160.18 632.29 157.03 628.05 156.43 628.64 152.59 622.04 151.31 616.89 154.26 592.96 149.04 585.08 185.61 589.71 186.49 588.43 191.81"/><path d="M1333.67,530.49h1v4.7h2.94v.89h-3.92Z" transform="translate(-734.78 -365.66)"/><path d="M1338.24,535.21l.68-.65a1.83,1.83,0,0,0,1.48.73.87.87,0,0,0,1-.84v0c0-.55-.5-.86-1.28-.86h-.46l-.16-.62,1.51-1.61h-2.42v-.85h3.7v.73l-1.56,1.6c.85.11,1.65.54,1.65,1.57v0a1.79,1.79,0,0,1-2,1.77A2.68,2.68,0,0,1,1338.24,535.21Z" transform="translate(-734.78 -365.66)"/><polygon class="cls-1" points="518.95 203.74 539.45 214.38 558.96 213.89 579.07 200.88 597.59 231.04 567.73 250.16 533.93 251.54 502.58 235.57 518.95 203.74"/><path d="M1281.53,595.54h1v4.7h2.94v.89h-3.93Z" transform="translate(-734.78 -365.66)"/><path d="M1287.18,596.49l-1,.28-.2-.8,1.51-.47h.68v5.63h-1Z" transform="translate(-734.78 -365.66)"/><polygon class="cls-1" points="583.7 199.4 612.08 181.86 621.05 195.96 623.22 194.77 626.87 200.19 624.79 201.57 629.43 208.96 600.85 227 583.7 199.4"/><path d="M1337.14,568.42h1v4.7h2.94V574h-3.92Z" transform="translate(-734.78 -365.66)"/><path d="M1341.75,573.24l1.93-1.64c.76-.66,1-1,1-1.51a.84.84,0,0,0-.9-.87c-.52,0-.87.28-1.29.83l-.71-.55a2.32,2.32,0,0,1,2.07-1.16,1.67,1.67,0,0,1,1.84,1.67h0c0,.89-.46,1.36-1.45,2.17l-1.15,1h2.66V574h-4Z" transform="translate(-734.78 -365.66)"/><path class="cls-1" d="M1235.1,625.77l3.45-4.24-.17-4.3,1.38-.34-1.29-4.81-5.85,1.63-1.2-3.53-2.71.81-1.15-3.4-3.43,1-.61-1.66-20.87,5.22v1.38l-5.3,1.26.74,3-9.49,2.17,1.83,9.07,1.67-.4,3,3.6,6.43,3.3-33.82,41.56,5,4.1,2.27-3,5,3.95,22.87-27.82h0a36,36,0,0,1,43.41-9.71h0l0,0h0l31.73,15.13,2.86-5.52,3,1.48,2.86-6.11Z" transform="translate(-734.78 -365.66)"/><path d="M1215.28,624.59h4.15v.88h-3.17v1.46h2.81v.88h-2.81v1.5h3.21v.88h-4.19Z" transform="translate(-734.78 -365.66)"/><polygon class="cls-1" points="583.01 282.39 613.86 269.68 616.42 275.44 621.25 273.32 623.22 278.25 618.09 280.42 619.87 284.26 589.23 297.06 583.01 282.39"/><path d="M1332.58,648.63h0a2.84,2.84,0,0,1,2.88-2.9,2.92,2.92,0,0,1,2.2.87l-.63.73a2.28,2.28,0,0,0-1.58-.69,1.88,1.88,0,0,0-1.84,2v0a1.89,1.89,0,0,0,1.85,2,2.18,2.18,0,0,0,1.61-.72l.63.64a2.87,2.87,0,0,1-2.27,1A2.81,2.81,0,0,1,1332.58,648.63Z" transform="translate(-734.78 -365.66)"/><path d="M1340.31,649.21l-2.22-3.39h1.16l1.56,2.47,1.59-2.47h1.12l-2.22,3.36v2.24h-1Z" transform="translate(-734.78 -365.66)"/><polygon class="cls-1" points="393.83 246.27 409.8 248.04 409.15 255.23 415.56 255.88 414.97 261.05 408.02 260.31 400.92 312.79 390.87 312.05 389.04 326.94 373.13 324.77 373.48 321.22 371.41 320.92 374.76 297.22 382.05 298.26 386.78 270.76 390.38 271.3 393.83 246.27"/><path d="M1130.07,649.48h.91l2.47,5.64h-1l-.57-1.35h-2.65l-.57,1.35h-1Zm1.41,3.42-1-2.24-1,2.24Z" transform="translate(-734.78 -365.66)"/><polygon class="cls-1" points="286.21 312.74 300.94 369.12 320.85 363.65 305.87 308.21 286.21 312.74"/><path d="M1031.74,702.06h2.51a2,2,0,0,1,1.46.49,1.27,1.27,0,0,1,.38.93v0a1.38,1.38,0,0,0,.31,2.6v0c0,1-.82,1.54-2.07,1.54h-2.59Zm3.36,1.58c0-.44-.35-.71-1-.71h-1.41v1.49h1.34c.63,0,1-.25,1-.76Zm-.84,1.61h-1.55v1.53h1.63c.66,0,1.08-.26,1.08-.76v0C1035.42,705.53,1035,705.25,1034.26,705.25Z" transform="translate(-734.78 -365.66)"/><path d="M1037,702.06H1038l1.33,4.15,1.38-4.17h.83l1.37,4.17,1.34-4.15h1l-1.94,5.64h-.86l-1.37-4-1.38,4h-.85Z" transform="translate(-734.78 -365.66)"/><polygon class="cls-1" points="334.69 359.81 340.53 383.75 409.15 365.18 406.25 355.47 408.42 354.88 407.13 350.69 404.96 351.23 402.99 344.28 395.16 346.15 394.42 343.54 334.69 359.81"/><path d="M1099.79,728.63v0a2.85,2.85,0,0,1,2.88-2.9,3.08,3.08,0,0,1,2.16.76l-.63.75a2.21,2.21,0,0,0-1.57-.59,1.88,1.88,0,0,0-1.81,2v0a1.87,1.87,0,0,0,1.9,2,2.24,2.24,0,0,0,1.35-.43v-1h-1.43v-.86H1105v2.35a3.61,3.61,0,0,1-2.34.87A2.77,2.77,0,0,1,1099.79,728.63Z" transform="translate(-734.78 -365.66)"/><path d="M1106.31,725.81h.91l3,3.87v-3.87h1v5.6h-.82l-3.08-4v4h-1Z" transform="translate(-734.78 -365.66)"/><polygon class="cls-1" points="258.26 391.88 273.34 388.73 287.83 446.58 281.62 447.77 268.91 433.28 258.26 391.88"/><path d="M1004.48,781h.91l2.46,5.64h-1l-.57-1.35h-2.64l-.58,1.35h-1Zm1.4,3.42-1-2.24-1,2.24Z" transform="translate(-734.78 -365.66)"/><path d="M1008.81,781h2.5a2.26,2.26,0,0,1,1.61.56,1.69,1.69,0,0,1,.47,1.21v0a1.68,1.68,0,0,1-1.33,1.69l1.51,2.12h-1.17l-1.37-2h-1.23v2h-1Zm2.43,2.78c.7,0,1.15-.37,1.15-.94h0c0-.61-.43-.93-1.16-.93h-1.43v1.88Z" transform="translate(-734.78 -365.66)"/><path class="cls-1" d="M1091.3,502.38l5.42-9.66,9.66-2.17,14.2,8.28,8-2.73s28.78,9.24,28.78,9.53v29l3.05,1.87L1152,550.67l1.69,6.11-5.73,1.28-3.64,5.13s-3.55-3.06-4.83-3-10.25,2.17-10.25,2.17l-3.4-1.28-3-11.73,13.21-21.88,9.85,5.62.6-20.21-17.45-5.42-2.46.3.19,2.86,2.57,8-27.2,7-5.62-2.86Z" transform="translate(-734.78 -365.66)"/><path d="M1139.79,543.2h1v5.6h-1Z" transform="translate(-734.78 -365.66)"/><polygon class="cls-1" points="289.16 95.48 305.42 68.72 354.21 98.58 352.73 100.8 358.05 104.49 350.51 116.47 338.83 108.93 335.43 114.1 325.97 108.19 321.1 115.42 289.16 95.48"/><path d="M1041.24,455.29h1l1.7,2.65,1.7-2.65h1v5.6h-1v-4l-1.77,2.64h0l-1.75-2.62v4h-1Z" transform="translate(-734.78 -365.66)"/><path d="M1050.17,455.25h.91l2.46,5.64h-1l-.57-1.36h-2.64l-.58,1.36h-1Zm1.4,3.41-1-2.24-1,2.24Z" transform="translate(-734.78 -365.66)"/><polygon class="cls-1" points="322.23 130.91 347.26 124.3 350.81 137.41 346.87 138.4 358.05 180.97 340.14 185.41 339.38 182.06 337.8 182.45 328.74 142.83 325.48 143.62 322.23 130.91"/><path d="M1074,518.86h1l1.7,2.64,1.71-2.64h1v5.6h-1v-4l-1.77,2.64h0l-1.75-2.62v4h-1Z" transform="translate(-734.78 -365.66)"/><path class="cls-1" d="M1009.9,528.1s8.13,34.59,8.09,34.71,15.67-4,15.67-4l-6.91-28,2.66-.68,8.34,35,9.88-2.77,1.26,3.25,5.08-1.57-.83-2.09,3-1-3.35-7.19,2.66-.59L1048.19,526l-11.31,2.74-1.41-6.62Z" transform="translate(-734.78 -365.66)"/><path d="M1036.13,542.85v0a2.85,2.85,0,0,1,2.88-2.89,3,3,0,0,1,2.15.75l-.62.75a2.23,2.23,0,0,0-1.57-.59,1.88,1.88,0,0,0-1.81,2v0a1.87,1.87,0,0,0,1.9,2,2.31,2.31,0,0,0,1.35-.42v-1H1039v-.87h2.38v2.35a3.51,3.51,0,0,1-2.33.87A2.77,2.77,0,0,1,1036.13,542.85Z" transform="translate(-734.78 -365.66)"/><path d="M1044.63,540h.91l2.46,5.64h-1l-.56-1.35h-2.65l-.58,1.35h-1Zm1.41,3.42-1-2.24-1,2.24Z" transform="translate(-734.78 -365.66)"/><path class="cls-1" d="M994.82,516.77l4.93,3.25,1.08,6.85,46.32-9.12-4.93-23.65-43.85,8.28s1.57,9.66,1,10S994.82,516.77,994.82,516.77Z" transform="translate(-734.78 -365.66)"/><path d="M1016.15,508h2.21a1.88,1.88,0,0,1,2.13,1.87h0a2,2,0,0,1-2.24,1.92h-1.11v1.79h-1Zm2.13,2.91c.74,0,1.21-.42,1.21-1v0c0-.65-.48-1-1.21-1h-1.14v2Z" transform="translate(-734.78 -365.66)"/><path d="M1022.92,508h.91l2.46,5.63h-1l-.56-1.35H1022l-.58,1.35h-1Zm1.41,3.41-1-2.24-1,2.24Z" transform="translate(-734.78 -365.66)"/><polygon class="cls-1" points="278.67 392.77 322.57 381.68 336.32 434.46 292.27 445.84 278.67 392.77"/><path d="M1034.29,777.77a3.15,3.15,0,0,0,1.48,2.81l-.46.62a3.15,3.15,0,0,1-1.41-1.82,3.28,3.28,0,0,1-1.4,2l-.47-.63a3.41,3.41,0,0,0,1.47-3v-.26h-1.24v-.68h1.24v-1h.79v1h1.24v.68h-1.24Zm1.75-2.07h.77v6.73H1036V779h-1v-.67h1Zm2.24-.14v7.22h-.79v-7.22Z" transform="translate(-734.78 -365.66)"/><path d="M1043.88,779.65v.8h.85v2.33h-.83V781.1h-4.18v-.65h.91v-.8H1039V779h6.55v.66Zm-4.19-2.53c0-.87,1-1.4,2.57-1.4s2.58.53,2.58,1.4-1,1.4-2.58,1.4S1039.69,778,1039.69,777.12Zm.85,0c0,.48.64.75,1.72.75s1.72-.27,1.72-.75-.65-.76-1.72-.76S1040.54,776.63,1040.54,777.12Zm2.51,2.53h-1.59v.8h1.59Z" transform="translate(-734.78 -365.66)"/><path d="M1050.35,779.61a26.43,26.43,0,0,1-4.46.31l-.09-.67c.43,0,.93,0,1.44,0v-1.48h.82v1.46a20.08,20.08,0,0,0,2.23-.2Zm-1.46-1a10.86,10.86,0,0,0,.17-1.79h-2.82v-.68h3.63v.42a10.46,10.46,0,0,1-.18,2.13Zm-1.17,3.4h4.08v.67h-4.91V780.5h.83Zm4.8-4.12v.68h-1V781h-.84v-5.42h.84v2.29Z" transform="translate(-734.78 -365.66)"/><polygon class="cls-1" points="402.65 214.88 415.95 213.6 416.55 222.76 414.77 223.01 415.12 227.25 448.68 222.66 449.51 236.22 407.97 241.44 407.18 232.37 404.08 232.81 402.65 214.88"/><path d="M1154.08,596.31a3.51,3.51,0,0,0,1.76,3.13l-.51.65a3.6,3.6,0,0,1-1.66-2.12,3.77,3.77,0,0,1-1.74,2.26l-.51-.67a3.63,3.63,0,0,0,1.83-3.25v-1.18h.83Zm4.19,1.76h-1.13v3.68h-.82v-7.22h.82v2.86h1.13Z" transform="translate(-734.78 -365.66)"/><path d="M1160.62,596.51a3.44,3.44,0,0,0,1.47,3.06l-.48.6a3.29,3.29,0,0,1-1.38-1.95,3.6,3.6,0,0,1-1.42,2.13l-.49-.61a3.75,3.75,0,0,0,1.5-3.23V596h-1.27v-.68h3.26V596h-1.19Zm1.73-1.85h.77v6.74h-.77v-3.67h-1.06v-.67h1.06Zm2.24-.14v7.22h-.79v-7.22Z" transform="translate(-734.78 -365.66)"/><path d="M1169.78,598.58a27.44,27.44,0,0,1-4.46.3l-.09-.67h1.44v-1.48h.82v1.45a20.1,20.1,0,0,0,2.23-.19Zm-1.46-1.05a10.68,10.68,0,0,0,.17-1.79h-2.82v-.67h3.63v.42a10.51,10.51,0,0,1-.18,2.13Zm-1.17,3.41h4.08v.67h-4.91v-2.14h.83Zm4.8-4.13v.68h-1V600h-.84v-5.42h.84v2.28Z" transform="translate(-734.78 -365.66)"/><path class="cls-2" d="M1223.44,429.79a2.75,2.75,0,0,1-1.74-1.36,2.8,2.8,0,0,1-1.77,1.54l-.39-.65a2.21,2.21,0,0,0,1.73-2.08v-.07h-1.52v-.65h1.52v-.86h.83v.86h1.52v.65h-1.52v.07a2.1,2.1,0,0,0,1.72,1.91Zm1.83,1.79c0,.84-.91,1.34-2.41,1.34s-2.4-.5-2.4-1.34.91-1.33,2.4-1.33S1225.27,430.75,1225.27,431.58Zm-.82,0c0-.44-.58-.69-1.59-.69s-1.59.25-1.59.69.59.7,1.59.7S1224.45,432,1224.45,431.58Zm1.76-4.09v.68h-1v1.92h-.82v-4.4h.82v1.8Z" transform="translate(-734.78 -365.66)"/><path class="cls-2" d="M1230.33,430.13a2.81,2.81,0,0,1-1.75-1.46,2.88,2.88,0,0,1-1.75,1.59l-.41-.64a2.37,2.37,0,0,0,1.73-2.21v-.13h-1.52v-.67h1.52v-.87h.83v.87h1.52v.67H1229v.13a2.25,2.25,0,0,0,1.75,2.07Zm2.27,2v.67h-4.86v-2.17h.82v1.5Zm-1-4.24v-2.16h.82v5.36h-.82v-2.52h-1.33v-.68Z" transform="translate(-734.78 -365.66)"/><path class="cls-2" d="M1239.85,429v.67h-6.55V429H1238a10.36,10.36,0,0,0,.19-2.19h-4.1v-.66h4.92v.59a11,11,0,0,1-.18,2.26Zm-4.88,3.15h4.28v.67h-5.1v-2.43h.82Z" transform="translate(-734.78 -365.66)"/><path class="cls-2" d="M1244.66,429.81a18.14,18.14,0,0,1-3.49.24h-.61v-2.29H1243v-.9h-2.5v-.66h3.31v2.19h-2.47v1a17.79,17.79,0,0,0,3.19-.23Zm1.67,2.3v.67h-4.95V430.6h.83v1.51Zm-.19-1.08h-.83v-5.32h.83Z" transform="translate(-734.78 -365.66)"/><path class="cls-2" d="M1253.59,429v.67h-6.51V429h2.56v-1.32h.83V429Zm-.75,2.57c0,.84-1,1.35-2.53,1.35s-2.54-.51-2.54-1.35,1-1.34,2.54-1.34S1252.84,430.74,1252.84,431.57Zm-1.06-3.09a6.18,6.18,0,0,0,.19-1.77h-4.14V426h5v.61a6.81,6.81,0,0,1-.2,1.92Zm.23,3.09c0-.45-.64-.71-1.7-.71s-1.73.26-1.73.71.66.72,1.73.72S1252,432,1252,431.57Z" transform="translate(-734.78 -365.66)"/><path class="cls-2" d="M1255.93,429.61c-.69,0-1.35,0-1.91,0l-.11-.67a41.92,41.92,0,0,0,4.63-.22l.07.59a14.5,14.5,0,0,1-1.86.21V431h-.82Zm-1.46-2.37c0-.76.72-1.27,1.79-1.27s1.78.51,1.78,1.27-.73,1.27-1.78,1.27S1254.47,428,1254.47,427.24Zm5.63,4.87v.67h-5.21v-2.13h.82v1.46Zm-4.85-4.87c0,.41.41.67,1,.67s1-.26,1-.67-.41-.66-1-.66S1255.25,426.84,1255.25,427.24Zm3.86,2.7v-4.25h.82v5.5h-.82v-.68h-1.41v-.57Z" transform="translate(-734.78 -365.66)"/><path class="cls-2" d="M1527.85,697.05v.68c1.3.08,2.07.53,2.07,1.28s-.93,1.3-2.49,1.3-2.48-.47-2.48-1.3.76-1.2,2.07-1.28v-.68h-2.84v-.66h6.53v.66Zm2.21-1.12a3.07,3.07,0,0,0-5.23,0l-.3-.64c1.44-.18,2.5-1,2.5-1.82v-.27h.84v.27c0,.83,1.07,1.65,2.49,1.82Zm-2.63,2.42c-1,0-1.64.23-1.64.66s.59.66,1.64.66,1.66-.22,1.66-.66S1528.49,698.35,1527.43,698.35Z" transform="translate(-734.78 -365.66)"/><path class="cls-2" d="M1537.61,696.72v.67h-2.8v1.35H1534v-1.35h-2.93v-.67Zm-4.93,2.78h4.2v.67h-5v-2.09h.82Zm4.08-3.49h-4.87V693.4h4.87Zm-.81-2h-3.25v1.3H1536Z" transform="translate(-734.78 -365.66)"/><path class="cls-2" d="M1544.47,698.68v.68H1538v-.68h2.43v-2.54h.83v2.54Zm-1.53-4.25h-4.31v-.67h5.14v.71a16.57,16.57,0,0,1-.28,3.39l-.83-.09a15.55,15.55,0,0,0,.28-3.3Z" transform="translate(-734.78 -365.66)"/><path class="cls-2" d="M1551.35,698.68v.68h-6.52v-.68h1.5v-2.33h.82v2.33h1v-2.33h.82v2.33Zm-1.5-4.25h-4.38v-.67h5.2v.76a16.78,16.78,0,0,1-.25,3.27l-.83-.1a15,15,0,0,0,.26-3.17Z" transform="translate(-734.78 -365.66)"/><path class="cls-2" d="M1256.89,872.86h3.39v4.72h-3.39Zm.82,4.07h1.75v-3.41h-1.75Zm5.65-1.27h-1.12v3.73h-.83v-7.23h.83V875h1.12Z" transform="translate(-734.78 -365.66)"/><path class="cls-2" d="M1270.08,877.85v.68h-6.56v-.68h2.85v-1.49h-2.28v-.66h1v-2.23h-1.07v-.66h5.43v.66h-1.06v2.23h1v.66h-2.29v1.49ZM1266,875.7h1.66v-2.23H1266Z" transform="translate(-734.78 -365.66)"/><path class="cls-2" d="M1272.93,874.26a3.38,3.38,0,0,0,1.81,2.91l-.46.65a3.66,3.66,0,0,1-1.75-2.09,3.8,3.8,0,0,1-1.79,2.28l-.47-.66a3.59,3.59,0,0,0,1.84-3.09v-.7h-1.57v-.68h3.92v.68h-1.53Zm4.19,1.43H1276v3.69h-.83v-7.22h.83V875h1.12Z" transform="translate(-734.78 -365.66)"/><path class="cls-2" d="M1281.24,875.23c0,1.57-.78,2.55-1.86,2.55s-1.85-1-1.85-2.55.78-2.54,1.85-2.54S1281.24,873.68,1281.24,875.23Zm-2.92,0c0,1.14.44,1.82,1.06,1.82s1.07-.68,1.07-1.82-.44-1.8-1.07-1.8S1278.32,874.11,1278.32,875.23Zm4.91-3.08v7.25h-.83v-7.25Z" transform="translate(-734.78 -365.66)"/><path class="cls-2" d="M1284.15,878l1.93-1.64c.76-.65,1.05-1,1.05-1.51a.85.85,0,0,0-.91-.87c-.51,0-.86.28-1.29.84l-.7-.55a2.29,2.29,0,0,1,2.06-1.17,1.68,1.68,0,0,1,1.85,1.67v0c0,.88-.46,1.35-1.45,2.16l-1.16,1h2.67v.87h-4Z" transform="translate(-734.78 -365.66)"/><path class="cls-2" d="M1291.57,874.46a3.15,3.15,0,0,0,1.7,2.79l-.46.64a3.38,3.38,0,0,1-1.64-2,3.48,3.48,0,0,1-1.75,2.11l-.45-.63a3.28,3.28,0,0,0,1.77-2.92V874h-1.55v-.66h1.55V872.3h.83v1.08h1.52V874h-1.52Zm4.22,1.28h-1.13v3.64h-.82v-7.23h.82v2.91h1.13Z" transform="translate(-734.78 -365.66)"/><path class="cls-2" d="M1477.55,911.67v.65H1471v-.65h1.55v-1a1.19,1.19,0,0,1-.86-1.07c0-.85,1-1.36,2.58-1.36s2.57.51,2.57,1.36a1.2,1.2,0,0,1-.87,1.07v1Zm-.79,2.41c0,.83-.93,1.3-2.49,1.3s-2.49-.47-2.49-1.3.94-1.29,2.49-1.29S1476.76,913.26,1476.76,914.08Zm-4.2-4.44c0,.46.65.72,1.73.72s1.71-.26,1.71-.72-.64-.72-1.71-.72S1472.56,909.17,1472.56,909.64Zm3.37,4.44c0-.43-.6-.66-1.66-.66s-1.65.23-1.65.66.59.67,1.65.67S1475.93,914.52,1475.93,914.08Zm-2.54-2.41h1.78v-.74a5.92,5.92,0,0,1-.88.07,6.09,6.09,0,0,1-.9-.07Z" transform="translate(-734.78 -365.66)"/><path class="cls-2" d="M1481.57,908.66c0,1.89-1.24,3.23-3.35,3.84l-.34-.66c1.67-.48,2.65-1.39,2.8-2.51h-2.48v-.67Zm2,5.29c0,.88-.93,1.43-2.38,1.43s-2.38-.55-2.38-1.43.94-1.45,2.38-1.45S1483.62,913.05,1483.62,914Zm-.82,0c0-.51-.59-.8-1.56-.8s-1.57.29-1.57.8.61.78,1.57.78S1482.8,914.44,1482.8,914Zm1.76-4v.68h-1v1.78h-.82v-4.24h.82v1.78Z" transform="translate(-734.78 -365.66)"/><path class="cls-2" d="M1491.32,913.83v.67h-6.54v-.67h2.86V912.3h.82v1.53Zm-6.25-1.94c1.52-.21,2.51-1,2.56-2h-2.26v-.67h2.27v-.94h.82v.94h2.26v.67h-2.25c0,1,1,1.79,2.56,2l-.31.66a3.06,3.06,0,0,0-5.34,0Z" transform="translate(-734.78 -365.66)"/><path class="cls-2" d="M1498.19,913.75v.68h-6.53v-.68h1.51v-2.33h.81v2.33h1v-2.33h.82v2.33Zm-1.51-4.25h-4.37v-.67h5.2v.76a16.15,16.15,0,0,1-.26,3.27l-.82-.1a15.56,15.56,0,0,0,.25-3.17Z" transform="translate(-734.78 -365.66)"/><path class="cls-2" d="M789.21,911.92a28.24,28.24,0,0,1-4.46.29l-.09-.67h1.44v-1.37h.82v1.35c.75,0,1.52-.08,2.24-.18Zm-1.46-1a8.73,8.73,0,0,0,.17-1.64H785.1v-.67h3.63V909a8.59,8.59,0,0,1-.18,2Zm2.73,3.15c0,.84-.93,1.34-2.44,1.34s-2.43-.5-2.43-1.34.93-1.33,2.43-1.33S790.48,913.19,790.48,914Zm-.83,0c0-.44-.6-.68-1.61-.68s-1.59.24-1.59.68.59.69,1.59.69S789.65,914.48,789.65,914Zm1.74-4v.68h-1v1.9h-.83v-4.47h.83V910Z" transform="translate(-734.78 -365.66)"/><path class="cls-2" d="M795.47,912.12a2.79,2.79,0,0,1-1.65-1.52,3,3,0,0,1-1.8,1.74l-.43-.67a2.52,2.52,0,0,0,1.79-2.42v-.71h.83v.67a2.34,2.34,0,0,0,1.7,2.26Zm2.17,1.87c0,.88-.93,1.39-2.44,1.39s-2.43-.51-2.43-1.39.92-1.38,2.43-1.38S797.64,913.12,797.64,914Zm-.83,0c0-.47-.59-.73-1.61-.73s-1.61.26-1.61.73.58.74,1.61.74S796.81,914.46,796.81,914Zm0-3.72h-1.46v-.67h1.46v-1.45h.82v4.26h-.82Z" transform="translate(-734.78 -365.66)"/><path class="cls-2" d="M805,913.75v.68H798.5v-.68h2.43v-2.54h.84v2.54Zm-1.54-4.25h-4.31v-.67h5.14v.71a16.52,16.52,0,0,1-.28,3.39l-.83-.09a15.51,15.51,0,0,0,.28-3.3Z" transform="translate(-734.78 -365.66)"/><path class="cls-2" d="M811.91,913.75v.68h-6.53v-.68h1.51v-2.33h.81v2.33h1v-2.33h.81v2.33Zm-1.51-4.25H806v-.67h5.2v.76a16.15,16.15,0,0,1-.26,3.27l-.82-.1a15.56,15.56,0,0,0,.25-3.17Z" transform="translate(-734.78 -365.66)"/><path class="cls-2" d="M1248.23,814.06a3.47,3.47,0,0,0,2.47,2.67l-.33.76a3.59,3.59,0,0,1-2.16-1.72,3.75,3.75,0,0,1-1.16,2.63l-.66-.52a3.71,3.71,0,0,0,1-3.63l-.28-1.16.82-.19Zm2.88-2.52,1.66,7.05-.81.19-1-4.08-1.5.35-.16-.65,1.5-.36-.54-2.31Z" transform="translate(-734.78 -365.66)"/><path class="cls-2" d="M1255.66,811c.43,1.84-.47,3.43-2.39,4.51l-.48-.56c1.52-.85,2.27-2,2.15-3.09l-2.41.57-.15-.65Zm3.21,4.68c.2.86-.59,1.61-2,1.94s-2.44,0-2.64-.85.58-1.62,2-1.95S1258.66,814.81,1258.87,815.68Zm-.8.19c-.12-.49-.77-.64-1.71-.42s-1.46.64-1.34,1.13.77.63,1.71.41S1258.18,816.35,1258.07,815.87Zm.79-4.31.16.66-1,.24.41,1.73-.8.19-1-4.13.8-.19.41,1.74Z" transform="translate(-734.78 -365.66)"/><path class="cls-2" d="M1260.79,814.23a11.09,11.09,0,0,0,2.13-.71l.23.65a13.81,13.81,0,0,1-2.52.8l-.47.11-1.06-4.53,2.6-.61.15.66L1260,811Zm3.87-5.87,1.66,7-.77.18-.84-3.59-.84.2.77,3.25-.76.18-1.54-6.54.76-.18.62,2.63.83-.19-.65-2.78Z" transform="translate(-734.78 -365.66)"/><path class="cls-2" d="M1269.13,807.63c.43,1.85-.48,3.21-2.5,4.18l-.44-.58c1.66-.77,2.34-1.72,2.21-2.74l-2.34.56-.16-.66Zm3.73,5.48.15.64-4.8,1.13-.45-1.87,3.79-.9-.14-.59-3.8.9-.15-.62,4.61-1.09.42,1.8-3.79.89.16.65Zm-.86-2.71-.81.19-.84-3.57.81-.19Z" transform="translate(-734.78 -365.66)"/><path class="cls-2" d="M955,742l1.79,4.56-2.32.91-.3-.76,1.71-.68-1.49-3.79Zm1.48,1.46-1-2.63,3.18-1.25.29.72-1,.39.47,1.2,1-.4.28.71Zm4.72,1.37-4,1.58-.28-.73,1.7-.67-.28-.7-1.68.66-.28-.72,3.88-1.53.28.72-1.57.62.27.71,1.7-.67Zm-3.42-2.71-.47-1.19-1,.38.47,1.19Z" transform="translate(-734.78 -365.66)"/><path class="cls-2" d="M957.75,748.38l1.73,4.41-2.43,1-1.73-4.41Zm-1.53,1.47,1.15,2.91,1.21-.48-1.15-2.91Zm7.48,1.29-3.9,1.53-.3-.77,1.62-.63-.55-1.4-1.29.5-1.22-3.09,3.18-1.25.3.76-1,.38.62,1.59,1-.39.29.75-1.27.5.55,1.4,1.65-.65ZM960.58,749l-.63-1.58-1,.38.62,1.59Z" transform="translate(-734.78 -365.66)"/><path class="cls-2" d="M961.12,760.15l-.64.24-2.39-6.08.63-.25,1,2.65,1.15-.45-.75-1.92,2.16-.85,1.52,3.87.9-.35-1.53-3.89.62-.24,1.83,4.64-2.13.84L962,754.48l-.94.37,1.58,4-.61.24-.83-2.1-1.15.45Z" transform="translate(-734.78 -365.66)"/><path class="cls-2" d="M1072.13,891.79l-2.41-1.47,1.79-2.92.66.41-.56.92,1.09.66.56-.92.66.4Zm-2.07-.27,4.19,2.56-1.31,2.13-.7-.43,1-1.57-3.48-2.13Zm2.3-1.57-1.09-.67-.54.88,1.09.67Zm4.36.09-2.27,3.7-.66-.41,1-1.56-.65-.4-.94,1.54-.66-.4,2.18-3.56.66.4-.88,1.45.64.4,1-1.56Z" transform="translate(-734.78 -365.66)"/><path class="cls-2" d="M1076.07,895l4,2.47-1.37,2.23-4-2.47Zm6.41-1.39-2.19,3.57-.7-.43.91-1.48-1.28-.79-.72,1.18-2.84-1.73,1.78-2.92.7.43-.56.91,1.45.89.56-.92.69.42-.71,1.17,1.28.78.92-1.5Zm-6.74,3.48,2.67,1.63.68-1.11-2.67-1.63Zm3-3.31-1.45-.89-.55.9,1.45.88Z" transform="translate(-734.78 -365.66)"/><path class="cls-2" d="M1085.85,902.31l-.35.58-5.58-3.42.35-.58,2.43,1.49.64-1-1.75-1.07,1.21-2,3.55,2.17.51-.82-3.57-2.18.35-.57,4.26,2.61-1.2,1.95-3.55-2.18-.53.86,3.69,2.26-.34.56-1.93-1.17-.64,1Z" transform="translate(-734.78 -365.66)"/><path class="cls-2" d="M879.5,525l1.37,4.7-2.4.7-.23-.79,1.77-.51-1.13-3.92Zm1.35,1.59-.79-2.71,3.29-1,.22.75-1,.3.35,1.23,1-.3.22.74Zm4.57,1.8-4.17,1.2-.21-.75,1.75-.51-.21-.73-1.73.5-.22-.74,4-1.16.22.74-1.63.47.21.73,1.75-.5Zm-3.16-3-.35-1.23-1,.29.35,1.23Z" transform="translate(-734.78 -365.66)"/><path class="cls-2" d="M881.64,531.55,883,536.1l-2.51.73-1.32-4.56ZM880,532.87l.87,3,1.25-.36-.87-3Zm7.32,2-4,1.17-.23-.8,1.67-.48-.41-1.44-1.33.38-.93-3.19,3.28-1,.23.78-1,.29.47,1.64,1-.3.22.78-1.31.38.42,1.44,1.7-.49Zm-2.9-2.42-.48-1.64-1,.29.47,1.64Z" transform="translate(-734.78 -365.66)"/><path class="cls-2" d="M883.9,543.57l-.65.19-1.82-6.28.65-.19.79,2.73,1.18-.34-.57-2,2.24-.65,1.15,4,.93-.27-1.16-4,.64-.19,1.39,4.79-2.2.64-1.16-4-1,.28,1.21,4.15-.64.19-.63-2.17-1.18.35Z" transform="translate(-734.78 -365.66)"/><path class="cls-2" d="M1511.12,676.29a11.24,11.24,0,0,0,.43-2.2l.68.12a13.73,13.73,0,0,1-.55,2.58l-.14.46-4.46-1.3.76-2.57.64.19-.52,1.79Zm-3.2-6.27,6.93,2-.22.75-3.55-1-.24.82,3.21.94-.22.74-6.44-1.89.22-.74,2.59.76.24-.82-2.74-.8Z" transform="translate(-734.78 -365.66)"/><path class="cls-2" d="M1511,663.76l-1.65,5.61-.6-.18.71-2.43-.65-.18.24-.8.64.19.7-2.39Zm-.59,2.85c.43-1.46,1-2.17,1.67-2s.77,1.11.34,2.57-1,2.18-1.67,2S1510,668.08,1510.44,666.61Zm.54.16c-.27.94-.26,1.48,0,1.57s.61-.36.89-1.3.26-1.48,0-1.57S1511.26,665.83,1511,666.77Zm2.76-2.59.62.18-1.84,6.27-.62-.18Zm1.86,1.37c.71.21.83,1.18.38,2.7s-1.07,2.28-1.78,2.07-.82-1.19-.37-2.7S1514.9,665.34,1515.6,665.55Zm-.24.8c-.33-.09-.65.4-.95,1.44s-.3,1.62,0,1.72.66-.39,1-1.43S1515.7,666.45,1515.36,666.35Z" transform="translate(-734.78 -365.66)"/><path class="cls-2" d="M1517.37,658.06l.65.19-1.84,6.27-.65-.19.8-2.73-1.18-.34-.58,2-2.23-.66,1.17-4-.93-.27-1.17,4-.64-.19,1.4-4.79,2.2.64-1.17,4,1,.29,1.22-4.15.64.18-.64,2.16,1.18.35Z" transform="translate(-734.78 -365.66)"/><path class="cls-2" d="M1414.79,866.88a10.82,10.82,0,0,0,1.07-2l.61.31a13.39,13.39,0,0,1-1.29,2.3l-.27.4-3.87-2.57,1.48-2.22.56.37-1,1.55ZM1413.6,860l6,4-.43.65-3.08-2-.47.71,2.78,1.85-.43.65-5.59-3.72.43-.65,2.25,1.5.47-.71-2.38-1.58Z" transform="translate(-734.78 -365.66)"/><path class="cls-2" d="M1418.42,854.89l-3.23,4.87-.53-.35,1.4-2.11-.56-.37.46-.69.56.37,1.37-2.07Zm-1.41,2.55c.84-1.26,1.61-1.77,2.19-1.39s.4,1.28-.44,2.55-1.62,1.78-2.19,1.4S1416.17,858.71,1417,857.44Zm.48.32c-.55.81-.7,1.33-.43,1.51s.68-.16,1.23-1,.69-1.34.42-1.51S1418,856.94,1417.49,857.76Zm3.39-1.67.54.36-3.61,5.45-.54-.36Zm1.38,1.87c.61.4.44,1.37-.44,2.69s-1.7,1.86-2.32,1.45-.42-1.38.45-2.69S1421.65,857.55,1422.26,858Zm-.47.7c-.28-.19-.73.18-1.34,1.09s-.76,1.45-.48,1.64.75-.17,1.34-1.07S1422.08,858.85,1421.79,858.66Z" transform="translate(-734.78 -365.66)"/><path class="cls-2" d="M1426.17,851.33l.57.38-3.62,5.44-.57-.37,1.58-2.37-1-.69-1.14,1.72-1.93-1.29,2.3-3.46-.81-.54-2.31,3.48-.55-.37,2.76-4.16,1.9,1.27-2.3,3.47.84.56,2.39-3.61.55.37-1.24,1.88,1,.68Z" transform="translate(-734.78 -365.66)"/><path class="cls-2" d="M834.53,796.48a28.26,28.26,0,0,1-4.47-.11l0-.67,1.44.11.11-1.36.82.07-.12,1.34a21.18,21.18,0,0,0,2.25,0Zm-1.37-1.17a8.18,8.18,0,0,0,.31-1.61l-2.8-.25.06-.67,3.61.32,0,.43a8.76,8.76,0,0,1-.35,1.92Zm2.45,3.38c-.07.84-1.05,1.25-2.55,1.12s-2.38-.71-2.31-1.55,1-1.24,2.54-1.11S835.68,797.85,835.61,798.69Zm-.84-.07c0-.45-.52-.74-1.54-.83s-1.6.1-1.64.55.53.73,1.52.82S834.74,799.06,834.77,798.62Zm2.09-3.82-.06.67-.95-.08-.17,1.89-.83-.08.39-4.45.83.07-.16,1.89Z" transform="translate(-734.78 -365.66)"/><path class="cls-2" d="M840.74,797.22a2.79,2.79,0,0,1-1.5-1.66,3,3,0,0,1-2,1.58l-.37-.7a2.54,2.54,0,0,0,2-2.26l.06-.71.83.08-.06.66a2.35,2.35,0,0,0,1.49,2.41Zm2,2.06c-.08.87-1,1.29-2.55,1.16s-2.38-.72-2.3-1.59,1-1.3,2.54-1.16S842.82,798.41,842.74,799.28Zm-.82-.07c0-.47-.53-.79-1.55-.88s-1.62.12-1.66.59.52.79,1.53.88S841.88,799.68,841.92,799.21Zm.29-3.72-1.45-.13,0-.67,1.46.13.13-1.44.82.07-.37,4.25-.82-.07Z" transform="translate(-734.78 -365.66)"/><path class="cls-2" d="M850.13,799.78l-.06.68-6.51-.57.06-.68,2.83.25.11-1.23-2-.18.21-2.32,4.14.37.08-1-4.16-.37.06-.66,5,.44-.2,2.27-4.15-.36-.09,1,4.31.38,0,.66-2.25-.2-.11,1.23Z" transform="translate(-734.78 -365.66)"/><path class="cls-2" d="M801.68,703.92a2.92,2.92,0,0,1-2.38.1,3.15,3.15,0,0,1,.06,2.52l-.78-.16a2.64,2.64,0,0,0-.58-3l-.52-.5.58-.61.52.5a2.52,2.52,0,0,0,2.92.39Zm2.2-.66-.56.59-3.81-3.65.57-.59Zm1,.63.49.46-3.41,3.56-1.66-1.59.58-.6,1.17,1.12Z" transform="translate(-734.78 -365.66)"/><path class="cls-2" d="M807.22,697a3.65,3.65,0,0,1-3,.78,3.61,3.61,0,0,1-.66,3l-.7-.23c.86-1.2,1-2.59.28-3.25l-.28-.26.6-.63.28.26c.68.65,2.08.49,3.24-.41Zm1.39.5-2,2.07,1.84,1.76-.57.6-1.84-1.76-2,2-.48-.47,4.51-4.71Z" transform="translate(-734.78 -365.66)"/><path class="cls-2" d="M814.11,693.18l.49.47-4.52,4.73-.49-.48,2-2-.89-.85-1.42,1.48-1.68-1.61,2.87-3-.69-.67-2.89,3-.48-.46,3.45-3.6,1.65,1.58-2.88,3,.73.7,3-3.12.48.46-1.56,1.62.89.86Z" transform="translate(-734.78 -365.66)"/><circle cx="185.57" cy="186.6" r="15.47"/><path class="cls-4" d="M915.75,553.07a4.24,4.24,0,0,1-2.51-2.32,4.47,4.47,0,0,1-2.68,2.6l-.63-1a3.82,3.82,0,0,0,2.65-3.53v-.15h-2.29v-1h5.79v1h-2.26v.14a3.55,3.55,0,0,0,2.55,3.26Zm3.19,2.68c0,1.3-1.39,2-3.64,2s-3.66-.75-3.66-2,1.39-2,3.66-2S918.94,554.47,918.94,555.75Zm-1.23,0c0-.71-.89-1.09-2.41-1.09s-2.42.38-2.42,1.09.87,1.09,2.42,1.09S917.71,556.46,917.71,555.75Zm-.05-6.07V547h1.24v6.45h-1.24v-2.72h-1.92v-1Z" transform="translate(-734.78 -365.66)"/><path class="cls-4" d="M930.78,552.42v1h-4.2v2h-1.24v-2H921v-1Zm-7.39,4.16h6.3v1h-7.54v-3.13h1.24Zm6.12-5.23H922.2v-3.91h7.31Zm-1.22-2.93h-4.88v2h4.88Z" transform="translate(-734.78 -365.66)"/><circle cx="299.51" cy="475.21" r="15.47"/><path class="cls-4" d="M1030.24,840.51a25.17,25.17,0,0,1-5,.47h-.88V836.1h1.24V840a24.32,24.32,0,0,0,4.5-.45Zm-4.84,1.73h6.92v4h-6.92Zm1.21,3h4.49v-2h-4.49Zm7.24-6.28h-1.53v2.7h-1.24v-6.12h1.24V838h1.53Z" transform="translate(-734.78 -365.66)"/><path class="cls-4" d="M1044.71,841v1h-4.2v2h-1.23v-2h-4.39v-1Zm-7.39,4.16h6.3v1h-7.53v-3.13h1.23Zm6.12-5.23h-7.3v-3.91h7.3Zm-1.21-2.92h-4.88V839h4.88Z" transform="translate(-734.78 -365.66)"/><circle cx="762.38" cy="327.33" r="15.47"/><path class="cls-4" d="M1496.54,695.71h-4.31v2.83H1491v-2.83h-4.28v-1h9.82Zm-.57-5.85h-8.76v-1H1491v-1.22h1.23v1.22H1496Zm-4.35.53c2.26,0,3.61.66,3.61,1.84s-1.35,1.83-3.61,1.83-3.61-.66-3.61-1.83S1489.37,690.39,1491.62,690.39Zm0,.94c-1.51,0-2.33.31-2.33.9s.82.91,2.33.91,2.32-.33,2.32-.91S1493.13,691.33,1491.62,691.33Z" transform="translate(-734.78 -365.66)"/><path class="cls-4" d="M1507.58,693.15v1h-4.2v2h-1.23v-2h-4.39v-1Zm-7.39,4.16h6.3v1H1499v-3.13h1.23Zm6.12-5.23H1499v-3.91h7.31Zm-1.21-2.92h-4.89v1.94h4.89Z" transform="translate(-734.78 -365.66)"/><path class="cls-7" d="M1472.76,399.71s-.38-.09-.25-.37a2.88,2.88,0,0,0,.36-1.6,1.25,1.25,0,0,0-.34-.87c-.22-.16-.3-.05-.33,0s0,.11-.15.31-.22.45-1.34,1.44-.84.8-1.18,1.06-1.15,1-1.12,1.68.34.94.92.84a2.13,2.13,0,0,0,1.05-.67,2.83,2.83,0,0,1,.67-.48,1.2,1.2,0,0,1,1.35.35c.36.43.31.77-.17,1.41a1.44,1.44,0,0,1-.17.36,3.83,3.83,0,0,1-1.33.78c-.53.15-.49,0-.71,0a2.2,2.2,0,0,0-1.07.74c-.15.29-.15.49.3.85s.65.25,1.39,0a6.53,6.53,0,0,0,2.46-1.74,3.65,3.65,0,0,0,.76-2.61A1.62,1.62,0,0,0,1472.76,399.71Z" transform="translate(-734.78 -365.66)"/><path class="cls-7" d="M1478.35,399.34a3.55,3.55,0,0,0-.88-2.47.62.62,0,0,0-.66.11c-.35.28-.3.83-.3,1.1a1.75,1.75,0,0,1,0,.56,3.73,3.73,0,0,0,0,1.27c0,.21-.24.41-.61.41s-1.32.07-1.32.07l-.17,0c-.28.06-.1.33,0,.5a.81.81,0,0,0,.43.49,2.39,2.39,0,0,0,.78.29c.33,0,.85,0,.85,0,.2.06.27,0,.3.22s.1,2.95.24,3.32a.56.56,0,0,0,.54.41c.17,0,.27.26.71-.17s.31-1.08.24-2.17S1478.35,399.34,1478.35,399.34Z" transform="translate(-734.78 -365.66)"/><path class="cls-7" d="M1484.47,400.91a2.08,2.08,0,0,0,1.5-1.41c.25-.61.59-2.13.08-2.61s-.6-.32-.67-.32-.45.11-.58.1a5.39,5.39,0,0,0-1.09-.05,9.09,9.09,0,0,1-1.71-.11c-.21-.05-.43-.19-.61-.25s-.44.18-.44.18-.58.6-.58,1,.18.68,1,.73a2.21,2.21,0,0,0,1.27-.27c.31-.12,1.38-.62,1.78-.35s-.11,1.83-1.12,3.44a3.15,3.15,0,0,1,.69-.13C1484.23,400.84,1484.3,400.93,1484.47,400.91Z" transform="translate(-734.78 -365.66)"/><path class="cls-7" d="M1492.5,398.29a1.88,1.88,0,0,0-.09-.27c-.11-.25-.66-.2-.84-.22a3,3,0,0,0-.75,0,2.55,2.55,0,0,1-.8.06c-.28,0-.56,0-.81-.05l-.35,0c0-.27-.07-.53-.1-.66s-.07-1.44-.81-1.44c-.22,0-.32.22-.41.29a2.73,2.73,0,0,0-.4,1.31,22.74,22.74,0,0,0,.09,2.61.7.7,0,0,0,.38.58,4,4,0,0,0,.54.11.55.55,0,0,0,.52-.16c.26-.26.22-.3.25-.6s0-1,0-1.16l.36,0a2.6,2.6,0,0,1,1,.54,3,3,0,0,0,1.19.17c.23,0,.4-.19.62-.25.61-.16.52-.41.48-.5A1.12,1.12,0,0,1,1492.5,398.29Z" transform="translate(-734.78 -365.66)"/><path class="cls-7" d="M1488.29,401.25l-.84-.14a.49.49,0,0,0-.16-.32.45.45,0,0,0-.43,0,9.22,9.22,0,0,0-1.08.26,2.63,2.63,0,0,0-1.91,3.28,2.56,2.56,0,0,0,2.21,2,4.76,4.76,0,0,0,3.05-.56,2.57,2.57,0,0,0,.89-2.52A2.51,2.51,0,0,0,1488.29,401.25Zm.11,3.24a2.06,2.06,0,0,1-2.33.28,1.4,1.4,0,0,1-.5-2,1.31,1.31,0,0,1,1-.74c.77,0,.78,0,.78,0,.84.18.92.47,1.07.66A1.48,1.48,0,0,1,1488.4,404.49Z" transform="translate(-734.78 -365.66)"/><path class="cls-7" d="M1499.21,403.47c-.41.16-.42.23-.78.23a1.06,1.06,0,0,1-.48,0l-.44-.11a1.11,1.11,0,0,1-1-1.19,7.26,7.26,0,0,1,.09-2.34c.18-.21.1-.4.12-.56a.31.31,0,0,1,.34-.2,2.42,2.42,0,0,0,.62.1,2.76,2.76,0,0,1,.48-.1.85.85,0,0,0,.68-.2s.54-.42.56-.73-.07-.72-.77-.72a11,11,0,0,1-1.58-.1l-.76-.09a.87.87,0,0,0-.88.21c-.29.29-.24.48-.13.64s.7.47.67.61-.3.3-.37.4-.21.27-.14.44a.51.51,0,0,1-.16.54,1.12,1.12,0,0,0-.17.71l0,2.36s-.27,1.7,2.5,1.73a10.43,10.43,0,0,0,1.85-.16c.2-.06.26-.24.4-.38a1,1,0,0,0,.07-.61A.57.57,0,0,0,1499.21,403.47Z" transform="translate(-734.78 -365.66)"/><path class="cls-7" d="M1505.15,397.85c0-.05,0-.83-.3-.88a1.34,1.34,0,0,0-.54,0,.38.38,0,0,0-.4.45c0,.47-.14.93-.14,1.29,0,.19.08,2.29.13,3.07l-1,0c0-1.6-.13-3.94-.6-4.26s-.46-.38-.77-.31c-.16,0-.27.09-.3.19a.84.84,0,0,0,0,.65c.1.37,0,3.71.08,4.42a11.17,11.17,0,0,0,.16,2.42.48.48,0,0,0,.61-.05c.24-.2.68,0,.88-.24a5,5,0,0,0,0-1.32s0-.1,0-.19l.27-.11a1.48,1.48,0,0,1,.78-.05c0,.69.06,1.42.07,1.46a.66.66,0,0,0,.66.64c.74,0,.85-.21,1-.88a27.58,27.58,0,0,0-.26-3.45A25.47,25.47,0,0,0,1505.15,397.85Z" transform="translate(-734.78 -365.66)"/><path class="cls-7" d="M1511.9,396.57a.66.66,0,0,0,.88-.41,1,1,0,0,0-.34-1.05,1.17,1.17,0,0,0-1.22-.1s-.47.33-.17.75A3,3,0,0,0,1511.9,396.57Z" transform="translate(-734.78 -365.66)"/><path class="cls-7" d="M1512,403.48a3.29,3.29,0,0,0,.84-.29,2.15,2.15,0,0,1,.6-.31,1.53,1.53,0,0,0,.84-1.08,2.9,2.9,0,0,0-1.11-2.75,5.54,5.54,0,0,0-.92-.48c-.36-.11.38-.18.52-.18s.61.07.76-.29.08-.27.22-.45.08-.33-.19-.54a1.57,1.57,0,0,0-.86-.32c-.38,0-1.35,0-1.69,0l-1.44-.07s-.9-.07-.88.59.09,1,.7,1.19a4.53,4.53,0,0,0,1,.2,3.19,3.19,0,0,0-1.29,1.47,2.29,2.29,0,0,0,.45,2.7A3.2,3.2,0,0,0,1512,403.48Zm-1.44-2.65a1,1,0,0,1,1-1.05,1.41,1.41,0,0,1,1.66,1.12c.09.58-.1.8-.21.84a4.55,4.55,0,0,0-.55.19c-.15.09-.09.2-.34.25a1,1,0,0,1-.81-.16A1.2,1.2,0,0,1,1510.59,400.83Z" transform="translate(-734.78 -365.66)"/><path class="cls-7" d="M1519.58,399.75c-.56-.34-1-.25-2-.34a2.39,2.39,0,0,1-1.3-.43c0-.55,0-1,0-1.26a4.68,4.68,0,0,0-.43-2.32c-.43-.62-.71-.14-.72-.12a2.57,2.57,0,0,1-.2.59c-.09.14-.24.44-.19.57s0,2.76.12,4.23c.11,1.85.15,2.23.49,2.21a1,1,0,0,0,.68-.37,1.12,1.12,0,0,0,.34-1c0-.22,0-.82,0-1.5.37,0,.42.07.77.4a2.39,2.39,0,0,0,1.64.71c.91,0,1.13-.3,1.17-.49A.66.66,0,0,0,1519.58,399.75Z" transform="translate(-734.78 -365.66)"/><path class="cls-7" d="M1517.31,403.58l-.41,0a2.14,2.14,0,0,1-.74-.07,12.21,12.21,0,0,0-2.17-.07,11.34,11.34,0,0,0-2.43.35c-.59.14-.54.43-.56.52s-.12.57.69.52c.64,0,.75-.39,1.63-.39s2.16-.27,2.68-.2.67.18.7.66,0,1.46,0,1.46.07.53.47.48a1,1,0,0,0,.77-.41c.25-.28.2-1.19.2-1.42S1518.21,403.85,1517.31,403.58Z" transform="translate(-734.78 -365.66)"/><path class="cls-7" d="M1525.83,398.12c.34,0,.33.08.52.09a5.91,5.91,0,0,0,1.12-.09,3.45,3.45,0,0,1,1.64.13c.16.18.46.44.53,1.86.07,1.6.09,1.8.31,2.05s.21.22.45.27.52,0,.65-.61c0,0,.1-.81.21-1.26a3.42,3.42,0,0,0,0-1.67,2.16,2.16,0,0,0-1.89-1.72,9.71,9.71,0,0,0-1.08-.13c-.34-.07-1.49,0-1.94,0s-1-.14-1.25-.14-.25.2-.27.36a.48.48,0,0,0,.14.54A1.21,1.21,0,0,0,1525.83,398.12Z" transform="translate(-734.78 -365.66)"/><path class="cls-7" d="M1523.19,402a.72.72,0,0,0,.43.16c.2,0,.34-.27.45-.34a1.94,1.94,0,0,0,.46-.41.19.19,0,0,0,0-.29,3.38,3.38,0,0,1-.24-.74.93.93,0,0,0-.63-.49c-.18,0-.31.1-.36.46a1,1,0,0,1-.22.54.84.84,0,0,0-.11.84A.59.59,0,0,0,1523.19,402Z" transform="translate(-734.78 -365.66)"/><path class="cls-7" d="M1534.33,403.15c0-.14-.25-.18-.48-.23s-.31-.13-.54-.18-2.12,0-2.59,0c-.27,0-1.68-.1-3.47-.11a.82.82,0,0,0,.22-.2,2.2,2.2,0,0,1,.5-.45c.09-.07.31-1.09,0-1.42a4.23,4.23,0,0,0-.76-.74.48.48,0,0,0-.7.4.89.89,0,0,1-.23.45,1.47,1.47,0,0,0-.11.88,6.36,6.36,0,0,1,.18.77,3,3,0,0,0,.07.32,32.66,32.66,0,0,0-3.38.22,2,2,0,0,1-.72,0c-.3-.06-.41-.37-.81-.18a2.22,2.22,0,0,0-.32.34c-.14.18-.07.27-.11.36s-.21.36.11.5a2.2,2.2,0,0,0,.7.25,4.87,4.87,0,0,0,.72.09c.25,0,.86-.21,1.26-.25s4.13-.33,4.91-.28,3.86.14,4.37.23a.81.81,0,0,0,.82-.18A.82.82,0,0,0,1534.33,403.15Z" transform="translate(-734.78 -365.66)"/><path class="cls-7" d="M1471.56,413.77c0-.53-.29-.9-.93-1.18l-.14-.07c-.78-.37-1.58-.87-1.58-1.86a1.93,1.93,0,0,1,2.15-1.94,2.78,2.78,0,0,1,.83.12l.11,0,.36.11h0c0,.11.18,1.46.18,1.46l-.37,0c-.16-.6-.49-1.31-1.24-1.31a.82.82,0,0,0-.82.86c0,.45.28.76,1,1.07l.2.09c.92.44,1.54.94,1.54,2a2.05,2.05,0,0,1-2.29,2,3.36,3.36,0,0,1-1-.16l-.57-.23h0c0-.05-.11-.65-.11-.65l-.18-.92s.28-.06.36-.09c.11.32.63,1.62,1.64,1.62A.87.87,0,0,0,1471.56,413.77Z" transform="translate(-734.78 -365.66)"/><path class="cls-7" d="M1475.85,409.86a2.57,2.57,0,0,0-2.57,2.72,2.43,2.43,0,0,0,2.46,2.58,2.5,2.5,0,0,0,2.5-2.71A2.42,2.42,0,0,0,1475.85,409.86Zm0,4.95c-.75,0-1.27-1-1.27-2.5,0-1.28.43-2.1,1.09-2.1s1.21.77,1.21,2.49C1476.91,414.1,1476.57,414.81,1475.88,414.81Z" transform="translate(-734.78 -365.66)"/><path class="cls-7" d="M1478.82,412.57a2.69,2.69,0,0,1,2.93-2.71,5.89,5.89,0,0,1,1.42.2l.1,1.38-.28,0c-.23-1-.86-1.25-1.35-1.25-.86,0-1.49.93-1.49,2.21s.49,2.39,1.56,2.39c.21,0,.34-.08.34-.46v-.76c0-.56,0-.61-.83-.68v-.31h2.48v.34c-.39.05-.44.09-.44.65v.57l0,.72a7.57,7.57,0,0,1-1.66.28A2.52,2.52,0,0,1,1478.82,412.57Z" transform="translate(-734.78 -365.66)"/><path class="cls-7" d="M1494.1,412.57a2.69,2.69,0,0,1,2.93-2.71,5.89,5.89,0,0,1,1.42.2l.1,1.38-.28,0c-.23-1-.86-1.25-1.35-1.25-.86,0-1.49.93-1.49,2.21s.49,2.39,1.56,2.39c.21,0,.34-.08.34-.46v-.76c0-.56,0-.61-.83-.68v-.31H1499v.34c-.39.05-.44.09-.44.65v.57l0,.72a7.57,7.57,0,0,1-1.66.28A2.52,2.52,0,0,1,1494.1,412.57Z" transform="translate(-734.78 -365.66)"/><path class="cls-7" d="M1487.85,414l-.93-2.67s-.48-1.39-.48-1.47h0l-.5.09-1.5,4.08c-.25.67-.38.71-.75.74v.3h1.71v-.27l-.2,0c-.16,0-.26,0-.31-.11s0-.21,0-.38c0,0,.23-.76.26-.78l1.26,0,.27.8c0,.16.07.26,0,.33s-.11.09-.25.11-.2,0-.2,0v.3h2.3v-.27C1488.22,414.75,1488.09,414.7,1487.85,414Zm-2.56-1,.51-1.59s.5,1.59.47,1.63Z" transform="translate(-734.78 -365.66)"/><path class="cls-7" d="M1492.87,412.16l-.06-1.51c0-.28-.24-.4-.75-.43V410h1.88v.28c-.38,0-.59.12-.63.4l-.06,1.51v2.91h-.61s-2.82-3.76-2.82-3.76v1.55l.06,1.51c0,.28.23.4.75.43v.27h-1.83v-.3c.33,0,.54-.13.57-.4l.06-1.51v-1.45c0-.57,0-.7-.17-.93a.71.71,0,0,0-.57-.26V410h1.63l2.54,3.35Z" transform="translate(-734.78 -365.66)"/><path class="cls-7" d="M1510.91,412.16l-.06-1.51c0-.28-.24-.4-.75-.43V410H1512v.27c-.37,0-.58.13-.62.41l-.06,1.51v2.91h-.61s-2.82-3.76-2.82-3.76v1.55l.06,1.51c0,.28.23.4.75.43v.27h-1.83v-.3c.33,0,.54-.13.57-.4l.06-1.51v-1.45c0-.57,0-.7-.17-.93a.71.71,0,0,0-.57-.26V410h1.63l2.54,3.35Z" transform="translate(-734.78 -365.66)"/><path class="cls-7" d="M1505.64,412v-.57c0-.79,0-1.39-.07-1.78s-.28-.47-.91-.5v-.34h2.27v.36c-.44,0-.68.15-.73.48a16,16,0,0,0-.07,1.78v.73a3.45,3.45,0,0,1-.65,2.28,2.36,2.36,0,0,1-1.71.71,2.53,2.53,0,0,1-1.71-.51,2.76,2.76,0,0,1-.68-2.21v-2.1c0-1-.05-1.12-.72-1.18v-.34h2.89v.36c-.61,0-.68.14-.68,1.16v2c0,1.38.48,2.17,1.3,2.17S1505.64,413.63,1505.64,412Z" transform="translate(-734.78 -365.66)"/><path class="cls-7" d="M1512.33,415.07v-.3c.52,0,.59-.12.59-1v-2.6c0-.84-.05-.94-.59-1V410h2.39v.27c-.52,0-.59.13-.59,1v2.6c0,.84,0,.94.59,1v.27Z" transform="translate(-734.78 -365.66)"/><path class="cls-7" d="M1518,413.44l.76-2.32.07-.23c.08-.25.12-.42.05-.52s-.15-.1-.3-.12h-.21V410h1.78v.27c-.41,0-.54.08-.84.81l-1.52,4h-.53s-1.48-4.06-1.48-4.06c-.25-.69-.4-.72-.77-.77V410h2.39v.28a1,1,0,0,0-.25,0,.3.3,0,0,0-.24.1c-.05.06,0,.16,0,.31l.62,1.71.42,1.15Z" transform="translate(-734.78 -365.66)"/><path class="cls-7" d="M1520.3,415.07v-.3c.58,0,.65-.11.65-1v-2.6c0-.84,0-.92-.57-1V410H1524l.06,1.28h-.3a1.24,1.24,0,0,0-.25-.72c-.12-.14-.36-.19-.79-.19h-.13c-.29,0-.39,0-.39.3v1.52l.47,0c.66,0,.7-.06.77-.66h.29v1.82h-.32c0-.67-.07-.75-.74-.75h-.47v1.31c0,.43,0,.63.16.71a1.57,1.57,0,0,0,.61.07,1.1,1.1,0,0,0,.82-.24,2.55,2.55,0,0,0,.37-.82l.29.07s-.22,1.17-.28,1.37Z" transform="translate(-734.78 -365.66)"/><path class="cls-7" d="M1529.06,414.55l-.54-.84s-.58-1.1-.58-1.17h0a1.35,1.35,0,0,0,1-1.31,1.17,1.17,0,0,0-.52-1,2.17,2.17,0,0,0-1.24-.27h-2.31v.25c.53,0,.57.15.57,1v2.6c0,.84-.07.94-.6,1v.3h2.32v-.27c-.55-.05-.59-.15-.59-1v-1h.13c.14,0,.26.11.34.31a7.79,7.79,0,0,0,.62,1.26c.3.46.56.68,1.58.71h.29l0-.21A.8.8,0,0,1,1529.06,414.55Zm-1.83-2.17a.88.88,0,0,1-.58.14l-.13,0v-1.81c0-.33,0-.37.37-.37s.78.28.78,1A1.25,1.25,0,0,1,1527.23,412.38Z" transform="translate(-734.78 -365.66)"/><path class="cls-7" d="M1531,413c-.64-.3-1.29-.71-1.29-1.52a1.57,1.57,0,0,1,1.76-1.59s.42,0,.68.09a3.23,3.23,0,0,1,.39.11h0c0,.11.14,1.19.14,1.19l-.3,0c-.13-.49-.4-1.08-1-1.08a.68.68,0,0,0-.68.71c0,.38.23.63.79.88l.16.08c.76.36,1.27.77,1.27,1.63a1.67,1.67,0,0,1-1.87,1.65,2.72,2.72,0,0,1-.8-.13l-.47-.19h0s-.09-.54-.09-.54l-.14-.75a1.29,1.29,0,0,0,.28-.06c.09.25.52,1.32,1.35,1.32a.72.72,0,0,0,.72-.81c0-.44-.24-.74-.77-1Z" transform="translate(-734.78 -365.66)"/><path class="cls-7" d="M1533.19,415.07v-.3c.52,0,.59-.12.59-1v-2.6c0-.84,0-.94-.59-1V410h2.4v.28c-.53,0-.6.12-.6,1v2.6c0,.84,0,.94.59,1v.27Z" transform="translate(-734.78 -365.66)"/><path class="cls-7" d="M1536,409.76h.21a.34.34,0,0,0,.38.22h2.94c.21,0,.25-.05.38-.21h.2l.05,1.57h-.3a1.68,1.68,0,0,0-.28-.81c-.12-.14-.32-.2-.73-.2h-.19v3.48c0,.85,0,.94.69,1v.27h-2.6v-.3c.6,0,.68-.11.68-1v-3.45l-.16,0c-.45,0-.67.07-.82.24a2.28,2.28,0,0,0-.23.77h-.28S1536,409.76,1536,409.76Z" transform="translate(-734.78 -365.66)"/><path class="cls-7" d="M1543.71,410.64c0-.11.08-.21,0-.28s-.11-.09-.24-.1l-.3,0V410H1545v.27c-.4,0-.55.13-.81.61l-.79,1.51a1.13,1.13,0,0,0-.15.66v.79c0,.85,0,.94.69,1v.27h-2.56v-.28c.59,0,.66-.13.66-1v-.68a2.12,2.12,0,0,0-.09-.51l-.93-1.78c-.27-.51-.36-.55-.72-.6V410h2.29v.27a1.45,1.45,0,0,0-.3,0,.24.24,0,0,0-.16.08c0,.06,0,.14.05.25l.83,1.72Z" transform="translate(-734.78 -365.66)"/><path class="cls-8" d="M1462.61,407.52a18.87,18.87,0,0,1-.19-13.4l-3.27-3.57h-13.7l-3.28,3.57a18.8,18.8,0,0,1-.19,13.4c-.48,1.25-1.51,4.83.38,7.91,2.17,3.53,7.39,5.78,9.93,7.12v0c2.55-1.34,7.76-3.59,9.93-7.12C1464.12,412.35,1463.1,408.77,1462.61,407.52Z" transform="translate(-734.78 -365.66)"/><path class="cls-9" d="M1442.6,409.83l9.69-9.42,9.91,9.63a2.4,2.4,0,0,0-.06-.3c-.14-.54-.31-1.1-.49-1.69a24.8,24.8,0,0,1-1.46-7.87,27,27,0,0,1,.9-5.87c-.55-.6-2-2.16-2.53-2.67H1446c-.48.51-2,2.07-2.54,2.67a26.39,26.39,0,0,1,.9,5.87,24.52,24.52,0,0,1-1.46,7.87c-.18.59-.34,1.15-.48,1.69a2.52,2.52,0,0,0-.06.28Z" transform="translate(-734.78 -365.66)"/><path class="cls-9" d="M1452.29,405.39l-9.31,8.8a6.32,6.32,0,0,0,.81,1.33c1.52,2,4.21,3.59,6.37,4.72.87.45,1.57.69,2.13,1.05h0c.56-.36,1.26-.6,2.13-1.05,2.15-1.13,4.85-2.69,6.37-4.72a7,7,0,0,0,.81-1.33Z" transform="translate(-734.78 -365.66)"/><path class="cls-8" d="M1446,394.73c0-.24,0-.32-.25-.34v-.08h1.12v.09c-.22,0-.25.1-.25.34v3c0,.25,0,.33.24.35v.09h-1.11v-.09c.22,0,.25-.1.25-.34Z" transform="translate(-734.78 -365.66)"/><path class="cls-8" d="M1450,396v-1.27c0-.24,0-.32-.19-.34v-.1h1.05v.1c-.23,0-.26.1-.26.34v3c0,.24,0,.32.25.35v.09h-1.1v-.09c.23,0,.25-.1.25-.34v-1.5h-1.49v1.5c0,.24,0,.32.23.34v.09h-1.09v-.08c.23,0,.26-.1.26-.34v-3.06c0-.24,0-.32-.26-.34v-.09h1v.08c-.2,0-.18.1-.18.34V396Z" transform="translate(-734.78 -365.66)"/><path class="cls-8" d="M1451.39,397.49a1.18,1.18,0,0,0,1.07.58.64.64,0,0,0,.66-.7c0-.4-.28-.66-.72-.88s-1-.57-1-1.17a1.16,1.16,0,0,1,1.31-1.08,2.46,2.46,0,0,1,.78.13c0,.23,0,.36.07.54h-.1c-.07-.18-.28-.45-.86-.45a.58.58,0,0,0-.59.62c0,.36.27.58.71.79s1.06.58,1.06,1.24a1.25,1.25,0,0,1-1.4,1.18,1.87,1.87,0,0,1-.55-.08,2,2,0,0,1-.41-.13c-.05-.17-.06-.39-.1-.57Z" transform="translate(-734.78 -365.66)"/><path class="cls-8" d="M1455.19,412.37l-.28.83a4.73,4.73,0,0,1,.57.12l-.48,1.31s-1-.16-1.87-.21l0-1.42s.21,0,.48,0l.1-.83c-.48,0-1-.06-1.45-.06s-1,0-1.45.06l.09.83c.28,0,.48,0,.48,0l.06,1.42c-.92.05-1.87.21-1.87.21l-.49-1.32.58-.11-.28-.83a18.9,18.9,0,0,0-3,.74,34.5,34.5,0,0,1,2.41,4,18.13,18.13,0,0,1,7,0,32.1,32.1,0,0,1,2.41-4A18.78,18.78,0,0,0,1455.19,412.37Z" transform="translate(-734.78 -365.66)"/><path class="cls-10" d="M1355.15,400.79c0-6.35-4.69-10.24-9.53-10.24s-9.53,3.89-9.53,10.24c0,5.57,5.27,11.14,8.21,12.71l-.47.47a1,1,0,0,0,.73,1.78h.23c.1,1.58,1.18,5.4,3.6,6.7a.87.87,0,0,0,.39.1.83.83,0,0,0,.39-1.55c-1.69-.91-2.62-4-2.72-5.25h.21a1,1,0,0,0,.74-1.78l-.47-.47C1349.87,411.94,1355.15,406.37,1355.15,400.79Zm-6.72-6.63a.82.82,0,1,1,.71-1.48,8.81,8.81,0,0,1,3.68,3.7.83.83,0,0,1-.47,1.07.8.8,0,0,1-.3.06.83.83,0,0,1-.77-.53A7.35,7.35,0,0,0,1348.43,394.16Z" transform="translate(-734.78 -365.66)"/><rect class="cls-11" x="594.84" y="24.89" width="32" height="32"/><path d="M1362.25,402.69l.58-.69a3.94,3.94,0,0,0,2.84,1.17c1.12,0,1.85-.59,1.85-1.41v0c0-.77-.41-1.21-2.16-1.58s-2.78-1-2.78-2.39v0a2.45,2.45,0,0,1,2.72-2.26,4.36,4.36,0,0,1,2.92,1l-.55.73a3.63,3.63,0,0,0-2.39-.9c-1.08,0-1.76.59-1.76,1.34v0c0,.78.42,1.22,2.25,1.61s2.7,1.08,2.7,2.35v0c0,1.42-1.19,2.34-2.83,2.34A4.83,4.83,0,0,1,1362.25,402.69Z" transform="translate(-734.78 -365.66)"/><path d="M1369.37,400.86v0a3.19,3.19,0,0,1,6.38,0v0a3.18,3.18,0,0,1-3.21,3.2A3.14,3.14,0,0,1,1369.37,400.86Zm5.45,0v0a2.32,2.32,0,0,0-2.28-2.39,2.27,2.27,0,0,0-2.24,2.37v0a2.3,2.3,0,0,0,2.27,2.38A2.27,2.27,0,0,0,1374.82,400.86Z" transform="translate(-734.78 -365.66)"/><path d="M1376.85,405l.42-.71a3.9,3.9,0,0,0,2.35.78,2,2,0,0,0,2.23-2.18v-.72a2.9,2.9,0,0,1-2.4,1.29,2.83,2.83,0,0,1-2.88-2.86v0a2.84,2.84,0,0,1,2.88-2.89,2.88,2.88,0,0,1,2.39,1.23v-1.1h.91v5.06A3,3,0,0,1,1382,405a3.24,3.24,0,0,1-2.33.81A4.81,4.81,0,0,1,1376.85,405Zm5-4.42v0a2.13,2.13,0,0,0-2.25-2.07,2,2,0,0,0-2.12,2.06v0a2.08,2.08,0,0,0,2.12,2.09A2.16,2.16,0,0,0,1381.87,400.54Z" transform="translate(-734.78 -365.66)"/><path d="M1383.85,402.12v0c0-1.3,1.07-2,2.62-2a6.26,6.26,0,0,1,1.88.26v-.22c0-1.1-.67-1.67-1.82-1.67a4.29,4.29,0,0,0-1.86.45l-.27-.74a5,5,0,0,1,2.22-.51,2.68,2.68,0,0,1,2,.67,2.41,2.41,0,0,1,.63,1.79v3.75h-.88V403a2.66,2.66,0,0,1-2.21,1.06A2.07,2.07,0,0,1,1383.85,402.12Zm4.52-.47v-.6a6.45,6.45,0,0,0-1.81-.26c-1.14,0-1.78.5-1.78,1.27v0c0,.77.71,1.22,1.54,1.22A1.85,1.85,0,0,0,1388.37,401.65Z" transform="translate(-734.78 -365.66)"/><path d="M1390.7,397.77h.91v1.07a2.32,2.32,0,0,1,2.1-1.2,2.24,2.24,0,0,1,2.34,2.45v3.81h-.91v-3.58a1.63,1.63,0,0,0-1.69-1.85,1.8,1.8,0,0,0-1.84,1.92v3.51h-.91Z" transform="translate(-734.78 -365.66)"/><path d="M1397.45,405l.41-.71a3.91,3.91,0,0,0,2.36.78,2,2,0,0,0,2.23-2.18v-.72a2.92,2.92,0,0,1-2.41,1.29,2.83,2.83,0,0,1-2.88-2.86v0a2.85,2.85,0,0,1,2.88-2.89,2.89,2.89,0,0,1,2.4,1.23v-1.1h.91v5.06a3,3,0,0,1-.78,2.17,3.26,3.26,0,0,1-2.34.81A4.78,4.78,0,0,1,1397.45,405Zm5-4.42v0a2.14,2.14,0,0,0-2.25-2.07,2,2,0,0,0-2.12,2.06v0a2.08,2.08,0,0,0,2.12,2.09A2.16,2.16,0,0,0,1402.47,400.54Z" transform="translate(-734.78 -365.66)"/><path d="M1362.7,409.75h1.82V418h-1.82Z" transform="translate(-734.78 -365.66)"/><path d="M1365.75,413.92v0a4.22,4.22,0,0,1,4.33-4.29,4.28,4.28,0,0,1,3.27,1.28l-1.16,1.34a3.06,3.06,0,0,0-2.12-.94,2.46,2.46,0,0,0-2.41,2.58v0a2.46,2.46,0,0,0,2.41,2.6,3,3,0,0,0,2.18-1l1.16,1.17a4.37,4.37,0,0,1-7.66-2.78Z" transform="translate(-734.78 -365.66)"/><path d="M1374.39,409.75h3.39c2,0,3.17,1.17,3.17,2.87v0c0,1.92-1.49,2.92-3.35,2.92h-1.39V418h-1.82Zm3.27,4.18a1.28,1.28,0,0,0,1.44-1.25v0c0-.81-.57-1.25-1.48-1.25h-1.41v2.53Z" transform="translate(-734.78 -365.66)"/><path d="M1381.46,413.92v0a4.22,4.22,0,0,1,4.32-4.29,4.26,4.26,0,0,1,3.27,1.28l-1.16,1.34a3.06,3.06,0,0,0-2.12-.94,2.45,2.45,0,0,0-2.4,2.58v0a2.46,2.46,0,0,0,2.4,2.6,3,3,0,0,0,2.18-1l1.16,1.17a4.37,4.37,0,0,1-7.65-2.78Z" transform="translate(-734.78 -365.66)"/><path d="M1395.51,410.62h-2.8v-.87h6.53v.87h-2.8V418h-.93Z" transform="translate(-734.78 -365.66)"/><path d="M1398.48,415v0a3,3,0,0,1,2.94-3.19c1.81,0,2.85,1.44,2.85,3.23a2.91,2.91,0,0,1,0,.3h-4.86a2.14,2.14,0,0,0,2.16,2.07,2.54,2.54,0,0,0,1.93-.86l.57.51a3.18,3.18,0,0,1-2.52,1.15A3,3,0,0,1,1398.48,415Zm4.87-.36a2,2,0,0,0-2-2.08,2.12,2.12,0,0,0-2,2.08Z" transform="translate(-734.78 -365.66)"/><path d="M1404.93,416.27v0c0-1.29,1.07-2,2.62-2a6.36,6.36,0,0,1,1.89.27v-.22c0-1.1-.68-1.67-1.83-1.67a4.29,4.29,0,0,0-1.86.45l-.27-.74a5,5,0,0,1,2.23-.51,2.67,2.67,0,0,1,2,.67,2.41,2.41,0,0,1,.63,1.79V418h-.87v-.92a2.68,2.68,0,0,1-2.22,1.05A2.06,2.06,0,0,1,1404.93,416.27Zm4.52-.48v-.59a6.43,6.43,0,0,0-1.8-.26c-1.15,0-1.79.5-1.79,1.27v0c0,.77.71,1.22,1.54,1.22A1.86,1.86,0,0,0,1409.45,415.79Z" transform="translate(-734.78 -365.66)"/><path d="M1411.78,411.92h.91v1a2.26,2.26,0,0,1,2-1.16,2.07,2.07,0,0,1,2,1.22,2.43,2.43,0,0,1,2.15-1.22,2.2,2.2,0,0,1,2.28,2.46V418h-.92v-3.57c0-1.19-.59-1.85-1.58-1.85a1.72,1.72,0,0,0-1.7,1.89V418h-.9v-3.6c0-1.15-.6-1.82-1.57-1.82a1.78,1.78,0,0,0-1.71,1.93V418h-.91Z" transform="translate(-734.78 -365.66)"/><path d="M1079.2,791.44l-2.3-8.12a3.39,3.39,0,0,1-3.87-3.39,3.42,3.42,0,0,1,2-3.11l-2.28-8,48-13.48-.92-3.34a5.54,5.54,0,0,1-.24-1.63,5.75,5.75,0,0,1,11.32-1.44l.93,3.29,21.59-6.07-1.26-4.5-7.21,2-1.3-4.6,31.88-9,1.33,4.59-8.11,2.28,1.27,4.51,8.09-2.28,2.32,8.15a3.85,3.85,0,0,1,.74-.07,4.49,4.49,0,0,1,1.65,8.68l1.85,6.57-6.58,1.85-.38-1.36-1.52.42,1.38,4.89-28.93,8.13-1.18-4.2-30.89,8.68-.69-2.45-2.64.75.69,2.46Zm-1.61-9.33,2.3,8.09,32.8-9.2-.69-2.46,4.56-1.29.69,2.45,30.89-8.68,1.18,4.2,27-7.59-1.38-4.89,3.44-1,.38,1.36,4.65-1.3-1.84-6.55.48-.13a3.56,3.56,0,0,0,2.61-3.37,3.51,3.51,0,0,0-3.51-3.51,3.16,3.16,0,0,0-1,.15l-.48.13-2.32-8.12-8.09,2.27-1.81-6.43,8.1-2.28-.78-2.67-29.95,8.43.75,2.67,7.21-2,1.8,6.43-23.51,6.61-1.21-4.27a4.75,4.75,0,0,0-9.35,1.19,4.81,4.81,0,0,0,.2,1.36L1122,756l-48,13.48,2.26,8-.48.14a2.42,2.42,0,0,0,.66,4.75,2.45,2.45,0,0,0,.66-.11Z" transform="translate(-734.78 -365.66)"/><path d="M1127.44,759h1.69v3.37l3.11-3.37h2.07l-3.14,3.27,3.28,4.44h-2l-2.39-3.28-.89.92v2.36h-1.69Z" transform="translate(-734.78 -365.66)"/></svg>