<svg version="1.2" xmlns="http://www.w3.org/2000/svg" viewBox="578 864 2215 1802" width="1080" height="879">
    <style>
        .a {
            fill: #9c8577
        }

        .b {
            fill: #b32a1f
        }

        .c {
            fill: #e4e8ec
        }
    </style>
    <path fill-rule="evenodd" class="a"
        d="m2110.7 2510.1c-47.6 0.2-98.5 17.5-180.8 78.5 92.4 98.5 228.1 113.3 457.3-52.7-144.2 10.4-206.9-26-276.5-25.7zm-853.8 0c-69.6-0.3-132.2 36.1-276.4 25.7 229.2 166.2 364.8 151.2 457.3 52.7-82.4-61-133.3-78.3-180.9-78.5zm1338-190.7c-204.4 78.9-244.6-16.9-379.6 165.8 105.4 60.3 226 37.5 379.6-165.8zm-1822.2 0c153.6 203.3 274.2 226.1 379.7 165.8-135-182.7-175.3-86.9-379.7-165.8zm1412.1-91.5c-127.8 72.2-243.4 130.2-207.4 301.4 211.1-108.8 89.8-172 207.4-301.5zm-1002 0c117.6 129.5-3.6 192.7 207.4 301.5 36.1-171.3-79.7-229.3-207.4-301.5zm1156.8-120.3c-90.9 95.8-175.2 176.1-99.1 314.1 153-149.2 32-171.7 99.1-314.1zm-1311.8 0c67.2 142.4-53.8 164.9 99.4 314.1 75.9-138-8.4-218.3-99.4-314.1zm1697.8-31c-157.2 119-215.8 46.1-287.3 237.6 106.2 26.1 204.9-23.6 287.3-237.6zm-2083.7 0c82.4 214 181.2 263.7 287.4 237.6-71.5-191.5-130.1-118.6-287.4-237.6zm1810.4-119.8c-55 105.4-108 195.8-8 296.2 95.4-167-14.9-156.4 8-296.2zm-1537 0c22.8 139.8-87.5 129.2 7.9 296.2 100-100.4 47.1-190.8-7.9-296.2zm1868.9-125.5c-109 140.1-177 90.4-194.5 273.6 98.4-2.1 172.7-68.4 194.5-273.6zm-2200.8 0c21.8 205.2 96 271.6 194.5 273.6-17.6-183.2-85.5-133.5-194.5-273.6zm1935.3-40.8c-23.2 104.5-48.3 195.5 62.1 259.5 44-167.3-49.4-132.5-62.2-259.4zm-1669.7 0c-12.8 126.9-106.2 92.1-62.2 259.5 110.3-63.9 85.4-155 62.2-259.4zm1691.5-172.2c2.5 96.2 0.5 181.1 110.8 212.9 2-155.7-72-104.9-110.8-212.9zm-1713.3 0c-38.7 108-112.7 57.2-110.8 213 110.4-31.8 108.4-116.6 110.8-212.9zm1954-22.3c-64.7 145.9-134.8 117.4-110.2 281.2 85.5-23.2 135.9-97.3 110.2-281.2zm-2194.8 0c-25.7 183.9 24.8 258 110.3 281.2 24.6-163.8-45.6-135.2-110.3-281.2zm1941.4-128.3c20.3 84.3 34.3 159.4 137.4 166.8-27.4-137.5-83-79-137.4-166.8zm-1687.9 0c-54.3 87.8-110 29.3-137.4 166.8 103.1-7.4 117.2-82.5 137.4-166.8zm1895.7-64.7c-29.6 140.7-96.7 128.6-44.5 268.2 70.9-36.5 101.4-111 44.5-268.2zm-2103.5 0c-57 157.2-26.5 231.7 44.6 268.2 52.2-139.6-14.9-127.5-44.6-268.2zm1858.8-73.4c32.3 71 57.6 135.1 149.9 123.9-47.8-116.8-86.8-55.6-149.9-123.9zm-1614 0c-63.1 68.3-102.2 7.1-150 123.9 92.4 11.2 117.6-52.9 150-123.9zm1786.4-92.7c-2 129.3-63.3 130.3 6.8 244.6 56.4-44.3 70.5-115.6-6.9-244.6zm-1958.7 0c-77.3 129-63.2 200.3-6.8 244.6 70.1-114.3 8.9-115.3 6.8-244.6zm1730.2-26.7c39.7 57.9 72.1 110.6 152.2 86.3-22.7-36-40.5-50-57.3-56.1-28-10.2-53.3 1.5-94.9-30.2zm-1501.8 0c-41.6 31.7-66.9 20-95 30.2-16.8 6-34.4 20.1-57.3 56.1 80.2 24.3 112.6-28.4 152.3-86.3zm1435.4-99.1c43.4 45.8 79.6 88.1 147.4 55.2-13.2-17.4-30.6-31.1-50.7-39.8-30.3-10.4-51.1 9.1-96.7-15.4zm-1368.9 0c-45.5 24.5-66.3 5-96.8 15.4-20 8.7-37.5 22.4-50.6 39.8 67.8 32.9 104-9.4 147.4-55.2zm1573.6-10.1c18.4 114.9-35.8 125.3 44.2 215.7 43-48.2 44.4-113.5-44.2-215.7zm-1778.3 0c-88.7 102.2-87.3 167.5-44.2 215.7 80-90.4 25.8-100.8 44.2-215.7zm1681.1-106.6c32.6 99.5-14.2 116.4 69.7 185.5 31.6-48.9 23.5-107.1-69.7-185.5zm-1583.9 0c-93.2 78.4-101.2 136.6-69.6 185.5 83.8-69.1 37-85.9 69.6-185.5zm1343.8-91.4c99.8 84.5 119.9 197.1 219.7 184.6 39.6-86.9-145.6-128.8-219.7-184.6zm-1103.5 0c-74.1 55.8-259.4 97.7-219.6 184.6 99.6 12.4 119.7-100.1 219.6-184.6zm1093-8.5c2.9 2.7 6.4 5.4 9.9 8.1-3.2-2.8-6.6-5.5-10-8.1zm-1082.5 0c-3.4 2.6-6.7 5.3-10 8.1 3.6-2.7 7.1-5.4 10-8.1zm471.3 1427.4v95h-47.5v-95h-15.7v-39.7h15.7v-40.4h47.5v40.4h27.1v39.7zm50.9-122.9h47.5v100.3q9.7-11.8 19.7-15.9 10-4.1 23.4-4.1 25.5 0 38.5 14.1 13 14 13 37.9v85.6h-47.6v-68q0-10.2-1.5-16.5-1.6-6.3-5.3-9.7-6.3-5.5-15.2-5.5-12.1 0-18.5 7.2-6.5 7.2-6.5 20.6v71.9h-47.5z" />
    <path fill-rule="evenodd" class="b"
        d="m2043.1 2022.6h6.8c28.7 0 43-34.6 22.7-54.9l-14.4-14.5c90.9-48.4 254.2-220.7 254.2-393.1 0-196.5-145.1-317.1-294.8-317.1-149.7 0-294.8 120.6-294.8 317.1 0 172.2 162.9 344.3 253.9 393l-14.6 14.6c-20.2 20.3-5.9 54.9 22.8 54.9h7.1zm61.3-667.7c-12.7-6-18-21.3-12-34 6.1-12.7 21.3-18 34-12 39.2 18.8 97.4 72.9 113.8 114.7 5.1 13.1-1.4 27.9-14.5 33.1-3 1.2-6.2 1.7-9.3 1.7-10.1 0-19.8-6.1-23.7-16.2-10.3-26.4-56.5-72.1-88.3-87.3zm-431.7 653.8h-589.6l181.7-188.4q71.9-74.8 112.7-126.8 40.7-51.9 60.7-87.9 19.9-35.9 24.7-58.2 4.9-22.4 4.9-37.9 0-16.5-5.3-32.1-5.4-15.5-16.1-27.7-10.7-12.1-25.7-19.4-15.1-7.3-35.5-7.3-38.8 0-60.7 25.3-21.8 25.2-21.8 63.1 0 10.7 2.9 31.1h-207.9q0-64.1 20.9-116.6 20.9-52.4 58.8-90.3 37.8-37.9 89.8-58.3 52-20.4 114.1-20.4 61.2 0 113.2 19.5 52 19.4 89.9 54.4 37.8 34.9 59.2 83 21.4 48.1 21.4 104.4 0 60.3-25.8 111.2-25.7 51-82 104.5l-121.5 113.6h237zm331.5 220.7l-11.6-3.1c0.2-0.7 19-73.2 19-121.5v-209.9h12v209.9c0 49.9-18.6 121.5-19.4 124.6z" />
    <path fill-rule="evenodd" class="a" d="m1683.8 865.3l-232.3 129 232.3 129.1 232.2-129.1z" />
    <path fill-rule="evenodd" class="c"
        d="m1630 978.8q-2.4-3.1-6.3-4.9-3.8-1.8-7.4-1.8-1.8 0-3.7 0.4-1.9 0.3-3.4 1.2-1.6 0.9-2.6 2.4-1 1.5-1 3.7 0 2 0.8 3.3 0.8 1.3 2.4 2.3 1.6 0.9 3.7 1.8 2.2 0.8 4.9 1.6 3.9 1.3 8.1 2.9 4.3 1.6 7.7 4.2 3.5 2.6 5.8 6.4 2.2 3.9 2.2 9.6 0 6.6-2.4 11.5-2.4 4.8-6.6 7.9-4.1 3.2-9.4 4.7-5.3 1.5-10.9 1.5-8.3 0-16-2.9-7.7-2.8-12.8-8.2l12.2-12.3q2.8 3.5 7.4 5.8 4.6 2.3 9.2 2.3 2 0 4-0.4 1.9-0.4 3.4-1.4 1.5-1 2.3-2.6 0.9-1.6 0.9-3.9 0-2.2-1.1-3.7-1.1-1.5-3.1-2.8-2-1.2-5-2.3-3-1-6.7-2.2-3.7-1.2-7.3-2.8-3.5-1.6-6.2-4.2-2.8-2.5-4.5-6.1-1.7-3.7-1.7-8.9 0-6.4 2.6-10.9 2.6-4.6 6.9-7.5 4.2-2.9 9.5-4.3 5.3-1.3 10.7-1.3 6.5 0 13.3 2.4 6.8 2.3 11.9 7zm79.5 3.7q0 6.7-2.5 11.3-2.5 4.6-6.7 7.4-4.2 2.9-9.7 4.1-5.6 1.3-11.5 1.3h-9.2v29h-18.6v-76.7h28.2q6.3 0 11.8 1.2 5.4 1.2 9.5 4 4.1 2.8 6.4 7.3 2.3 4.5 2.3 11.1zm-18.5 0.1q0-2.7-1.1-4.5-1.1-1.7-2.9-2.7-1.9-0.9-4.2-1.3-2.3-0.3-4.8-0.3h-8.1v18.1h7.8q2.6 0 5-0.4 2.3-0.5 4.2-1.5 1.9-1.1 3-2.9 1.1-1.8 1.1-4.5zm82.5 51.6q-7.5 3.4-17.3 3.4-8.8 0-16.4-2.9-7.5-2.9-13-8.3-5.6-5.3-8.7-12.8-3.1-7.5-3.1-16.5 0-9.2 3.1-16.7 3.2-7.5 8.9-12.7 5.6-5.3 13.2-8.1 7.6-2.8 16.4-2.8 8.1 0 16 2.9 7.8 2.8 12.7 8.4l-12.6 12.5q-2.6-3.5-6.8-5.3-4.2-1.7-8.7-1.7-4.9 0-8.9 1.8-4.1 1.8-7 4.9-2.9 3.2-4.6 7.4-1.6 4.3-1.6 9.4 0 5.2 1.6 9.5 1.7 4.4 4.5 7.5 2.9 3.1 6.9 4.8 4 1.7 8.8 1.7 5.5 0 9.6-2.1 4.2-2.2 6.7-5.7l12.8 12.2q-5 5.8-12.5 9.2z" />
</svg>