<?xml version="1.0" encoding="UTF-8"?>
<svg id="Layer_2" data-name="Layer 2" xmlns="http://www.w3.org/2000/svg" viewBox="0 0 518.18 134.44">
  <defs>
    <style>
      .cls-1 {
        fill: #fff;
      }
    </style>
  </defs>
  <g id="_레이어_1" data-name="레이어 1">
    <g id="_후원" data-name="후원">
      <g>
        <path id="Symbol" class="cls-1" d="M517.76,76.33l-47.74,22.91v35.21h-6.67s-16.1-51.69-16.1-51.69l26.28-12.48h-50.8l-7.74-24.94L510.49,0l7.7,24.74-53.26,25.42,45.49,2.54,7.35,23.63Z"/>
        <path id="Wordmark" class="cls-1" d="M0,39.5H47.62v15.55H18.47v15.33h27.02v15.16H18.47v21.99H0V39.5Zm95.58,45.97c0,5.15-1.56,7-7.48,7h-3.21c-5.93,0-7.48-1.85-7.48-7V39.5h-18.46v46.74c0,15.94,9.04,22.25,24,22.25h7.09c14.97,0,24-6.32,24-22.25V39.5h-18.47v45.97Zm95.97,22.06h18.47V39.5h-18.47V107.53Zm85.4-45.77v23.52c0,16.91-9.04,23.23-24.98,23.23h-6.03c-15.94,0-24.98-6.32-24.98-23.23v-23.52c0-16.91,9.04-23.23,24.98-23.23h6.03c15.94,0,24.98,6.32,24.98,23.23Zm-18.46-.68c0-5.15-1.56-7-7.48-7h-4.08c-5.93,0-7.48,1.85-7.48,7v24.88c0,5.15,1.56,7,7.48,7h4.08c5.93,0,7.48-1.85,7.48-7v-24.88Zm48.22-6.03h24.36l4.08-15.55h-28.44c-1.64,0-3.18,.1-4.64,.26-11.91,1.32-17.72,7.92-17.72,18.4v2.72c0,9.04,3.21,14.97,12.93,18.17l15.35,5.05c2.23,.78,3.01,1.56,3.01,3.69v.87c0,1.85-1.17,3.3-3.89,3.3h-23.34l-4.12,15.55h27.46c14.77,0,22.35-7.29,22.35-19.14v-2.53c0-6.2-2.11-10.83-6.39-14.08-1.75-1.33-3.86-2.44-6.34-3.31l-10.3-3.61-4.96-1.74c-2.33-.78-3.3-1.65-3.3-3.89v-.87c0-1.85,1.17-3.3,3.89-3.3Zm-139.24,28.23l15.39,24.25h-20.94l-12.27-21.13h-5.94v21.13h-18.5V39.5h30.29c15.87,0,24.74,5.8,24.74,20.5v5.75c0,9.06-4.38,14.8-12.76,17.53Zm-5.75-23.28c0-3.21-1.56-5.06-6.53-5.06h-11.49v15.87h11.49c4.97,0,6.53-1.85,6.53-5.06v-5.75Zm203.23,19.15l6.78-24.56,4.41,15.69h18.14l-5.03-16.21h-17.38l4.02-14.58h-16.57l-21.19,68.03h19.05l3.65-13.32h21.86l3.65,13.32h19.43l-8.84-28.38h-31.98Z"/>
      </g>
    </g>
  </g>
</svg>