<svg width="174" height="292" viewBox="0 0 174 292" fill="none" xmlns="http://www.w3.org/2000/svg">
    <path
        d="M173.43 93.25C173.43 35.46 130.74 0 86.71 0C42.68 0 0 35.46 0 93.25C0 143.9 47.92 194.54 74.69 208.84L70.4 213.14C69.0741 214.464 68.171 216.152 67.805 217.99C67.4389 219.828 67.6265 221.734 68.3439 223.465C69.0612 225.196 70.2762 226.676 71.8349 227.716C73.3936 228.757 75.2259 229.311 77.1 229.31H79.19C80.05 243.69 89.92 278.51 111.88 290.31C112.748 290.776 113.699 291.066 114.679 291.163C115.659 291.261 116.649 291.165 117.592 290.881C118.535 290.596 119.413 290.129 120.175 289.505C120.938 288.881 121.569 288.113 122.035 287.245C122.501 286.377 122.791 285.426 122.888 284.446C122.986 283.466 122.89 282.476 122.606 281.533C122.321 280.59 121.853 279.712 121.23 278.95C120.606 278.187 119.838 277.556 118.97 277.09C103.65 268.87 95.19 240.48 94.21 229.32H96.21C98.0841 229.321 99.9164 228.767 101.475 227.726C103.034 226.686 104.249 225.206 104.966 223.475C105.683 221.744 105.871 219.838 105.505 218C105.139 216.162 104.236 214.474 102.91 213.15L98.66 208.9C125.4 194.65 173.43 144 173.43 93.25ZM112.25 32.91C110.493 32.0294 109.153 30.4947 108.516 28.6358C107.879 26.7769 107.997 24.7424 108.845 22.9698C109.693 21.1971 111.202 19.8279 113.049 19.1566C114.895 18.4853 116.932 18.5655 118.72 19.38C130.24 24.89 147.37 40.83 152.18 53.12C152.905 54.9765 152.864 57.0451 152.064 58.8708C151.264 60.6965 149.772 62.1296 147.915 62.855C146.058 63.5804 143.99 63.5385 142.164 62.7387C140.339 61.9388 138.905 60.4465 138.18 58.59C135.17 50.81 121.58 37.37 112.25 32.91Z"
        fill="#7F7F7F" />
</svg>