<svg id="eGVfU3b9D8H1" xmlns="http://www.w3.org/2000/svg" xmlns:xlink="http://www.w3.org/1999/xlink"
    viewBox="578 864 2230 1960" shape-rendering="geometricPrecision" text-rendering="geometricPrecision"
    project-id="dfa14953b896418ca365e4902703c36d" export-id="ab64d481121a4a9388452c1f11e22cdc" cached="false">
    <defs>
        <linearGradient id="eGVfU3b9D8H13-fill" x1="0.5" y1="0" x2="0.5" y2="1" spreadMethod="pad"
            gradientUnits="objectBoundingBox" gradientTransform="translate(0 0)">
            <stop id="eGVfU3b9D8H13-fill-0" offset="0%" stop-color="rgba(255,255,255,0)" />
            <stop id="eGVfU3b9D8H13-fill-1" offset="100%" stop-color="#010022" />
        </linearGradient>
    </defs>
    <path id="eGVfU3b9D8H3"
        d="M1256.9,2510.1c-69.6-.3-132.2,36.1-276.4,25.7c229.2,166.2,364.8,151.2,457.3,52.7-82.4-61-133.3-78.3-180.9-78.5v.1ZM772.7,2319.4c153.6,203.3,274.2,226.1,379.7,165.8-135-182.7-175.3-86.9-379.7-165.8Zm410.1-91.5c117.6,129.5-3.6,192.7,207.4,301.5c36.1-171.3-79.7-229.3-207.4-301.5Zm-155-120.3c67.2,142.4-53.8,164.9,99.4,314.1c75.9-138-8.4-218.3-99.4-314.1Zm-385.9-31c82.4,214,181.2,263.7,287.4,237.6-71.5-191.5-130.1-118.6-287.4-237.6Zm273.4-119.8c22.8,139.8-87.5,129.2,7.9,296.2c100-100.4,47.1-190.8-7.9-296.2ZM583.4,1831.3c21.8,205.2,96,271.6,194.5,273.6-17.6-183.2-85.5-133.5-194.5-273.6ZM849,1790.5c-12.8,126.9-106.2,92.1-62.2,259.5c110.3-63.9,85.4-155,62.2-259.4v-.1Zm-21.8-172.2c-38.7,108-112.7,57.2-110.8,213c110.4-31.8,108.4-116.6,110.8-212.9v-.1ZM586.4,1596c-25.7,183.9,24.8,258,110.3,281.2c24.6-163.8-45.6-135.2-110.3-281.2Zm253.5-128.3c-54.3,87.8-110,29.3-137.4,166.8c103.1-7.4,117.2-82.5,137.4-166.8ZM632.1,1403c-57,157.2-26.5,231.7,44.6,268.2c52.2-139.6-14.9-127.5-44.6-268.2Zm244.8-73.4c-63.1,68.3-102.2,7.1-150,123.9c92.4,11.2,117.6-52.9,150-123.9Zm-172.3-92.7c-77.3,129-63.2,200.3-6.8,244.6c70.1-114.3,8.9-115.3,6.8-244.6ZM933,1210.2c-41.6,31.7-66.9,20-95,30.2-16.8,6-34.4,20.1-57.3,56.1c80.2,24.3,112.6-28.4,152.3-86.3Zm66.5-99.1c-45.5,24.5-66.3,5-96.8,15.4-20,8.7-37.5,22.4-50.6,39.8c67.8,32.9,104-9.4,147.4-55.2ZM794.8,1101c-88.7,102.2-87.3,167.5-44.2,215.7c80-90.4,25.8-100.8,44.2-215.7ZM892,994.4c-93.2,78.4-101.2,136.6-69.6,185.5c83.8-69.1,37-85.9,69.6-185.5ZM1132.3,903c-74.1,55.8-259.4,97.7-219.6,184.6c99.6,12.4,119.7-100.1,219.6-184.6Zm10.5-8.5c-3.4,2.6-6.7,5.3-10,8.1c3.6-2.7,7.1-5.4,10-8.1Z"
        transform="matrix(0-1 1 0-96.932678 3471.49823)" opacity="0" fill="#9c8577" fill-rule="evenodd" />
    <path id="eGVfU3b9D8H4"
        d="M2110.7,2510.1c-47.6.2-98.5,17.5-180.8,78.5c92.4,98.5,228.1,113.3,457.3-52.7-144.2,10.4-206.9-26-276.5-25.7v-.1Zm484.2-190.7c-204.4,78.9-244.6-16.9-379.6,165.8c105.4,60.3,226,37.5,379.6-165.8Zm-410.1-91.5c-127.8,72.2-243.4,130.2-207.4,301.4c211.1-108.8,89.8-172,207.4-301.5v.1Zm154.8-120.3c-90.9,95.8-175.2,176.1-99.1,314.1c153-149.2,32-171.7,99.1-314.1Zm386-31c-157.2,119-215.8,46.1-287.3,237.6c106.2,26.1,204.9-23.6,287.3-237.6Zm-273.3-119.8c-55,105.4-108,195.8-8,296.2c95.4-167-14.9-156.4,8-296.2Zm331.9-125.5c-109,140.1-177,90.4-194.5,273.6c98.4-2.1,172.7-68.4,194.5-273.6Zm-265.5-40.8c-23.2,104.5-48.3,195.5,62.1,259.5c44-167.3-49.4-132.5-62.2-259.4l.1-.1Zm21.8-172.2c2.5,96.2.5,181.1,110.8,212.9c2-155.7-72-104.9-110.8-212.9Zm240.7-22.3c-64.7,145.9-134.8,117.4-110.2,281.2c85.5-23.2,135.9-97.3,110.2-281.2Zm-253.4-128.3c20.3,84.3,34.3,159.4,137.4,166.8-27.4-137.5-83-79-137.4-166.8Zm207.8-64.7c-29.6,140.7-96.7,128.6-44.5,268.2c70.9-36.5,101.4-111,44.5-268.2Zm-244.7-73.4c32.3,71,57.6,135.1,149.9,123.9-47.8-116.8-86.8-55.6-149.9-123.9Zm172.4-92.7c-2,129.3-63.3,130.3,6.8,244.6c56.4-44.3,70.5-115.6-6.9-244.6h.1Zm-228.5-26.7c39.7,57.9,72.1,110.6,152.2,86.3-22.7-36-40.5-50-57.3-56.1-28-10.2-53.3,1.5-94.9-30.2Zm-66.4-99.1c43.4,45.8,79.6,88.1,147.4,55.2-13.2-17.4-30.6-31.1-50.7-39.8-30.3-10.4-51.1,9.1-96.7-15.4Zm204.7-10.1c18.4,114.9-35.8,125.3,44.2,215.7c43-48.2,44.4-113.5-44.2-215.7Zm-97.2-106.6c32.6,99.5-14.2,116.4,69.7,185.5c31.6-48.9,23.5-107.1-69.7-185.5ZM2235.8,903c99.8,84.5,119.9,197.1,219.7,184.6c39.6-86.9-145.6-128.8-219.7-184.6Zm-10.5-8.5c2.9,2.7,6.4,5.4,9.9,8.1-3.2-2.8-6.6-5.5-10-8.1h.1Z"
        transform="matrix(0 1-1 0 3465.947367 92.041769)" opacity="0" fill="#9c8577" fill-rule="evenodd" />
    <path id="eGVfU3b9D8H5"
        d="M1614.1,2321.9v95h-47.5v-95h-15.7v-39.7h15.7v-40.4h47.5v40.4h27.1v39.7h-27.1ZM1665,2199h47.5v100.3q9.7-11.8,19.7-15.9t23.4-4.1q25.5,0,38.5,14.1q13,14,13,37.9v85.6h-47.6v-68q0-10.2-1.5-16.5-1.6-6.3-5.3-9.7-6.3-5.5-15.2-5.5-12.1,0-18.5,7.2-6.5,7.2-6.5,20.6v71.9h-47.5v-217.9Z"
        transform="translate(-2.510864-278.225647)" opacity="0" fill="#9c8577" fill-rule="evenodd" />
    <g id="eGVfU3b9D8H6" transform="matrix(0 0 0 0 2001.231132 2147.102849)">
        <path
            d="M2043.1,2022.6h6.8c28.7,0,43-34.6,22.7-54.9l-14.4-14.5c90.9-48.4,254.2-220.7,254.2-393.1c0-196.5-145.1-317.1-294.8-317.1s-294.8,120.6-294.8,317.1c0,172.2,162.9,344.3,253.9,393l-14.6,14.6c-20.2,20.3-5.9,54.9,22.8,54.9h7.1h51.1Zm61.3-667.7c-12.7-6-18-21.3-12-34c6.1-12.7,21.3-18,34-12c39.2,18.8,97.4,72.9,113.8,114.7c5.1,13.1-1.4,27.9-14.5,33.1-3,1.2-6.2,1.7-9.3,1.7-10.1,0-19.8-6.1-23.7-16.2-10.3-26.4-56.5-72.1-88.3-87.3ZM1665,1518.2"
            transform="translate(118.374467-33.063911)" fill="#b32a1f" fill-rule="evenodd" />
        <path d="M2004.2,2229.4l-11.6-3.1c.2-.7,19-73.2,19-121.5v-209.9h12v209.9c0,49.9-18.6,121.5-19.4,124.6Z"
            transform="translate(119.840369-113.246201)" fill="#b32a1f" fill-rule="evenodd" />
    </g>
    <path id="eGVfU3b9D8H9"
        d="M1672.7,2008.7h-589.6l181.7-188.4q71.9-74.8,112.7-126.8q40.7-51.9,60.7-87.9q19.9-35.9,24.7-58.2q4.9-22.4,4.9-37.9q0-16.5-5.3-32.1-5.4-15.5-16.1-27.7-10.7-12.1-25.7-19.4-15.1-7.3-35.5-7.3-38.8,0-60.7,25.3-21.8,25.2-21.8,63.1q0,10.7,2.9,31.1h-207.9q0-64.1,20.9-116.6q20.9-52.4,58.8-90.3q37.8-37.9,89.8-58.3t114.1-20.4q61.2,0,113.2,19.5q52,19.4,89.9,54.4q37.8,34.9,59.2,83t21.4,104.4q0,60.3-25.8,111.2-25.7,51-82,104.5l-121.5,113.6h237v161.2Z"
        transform="matrix(0 0 0 0 1660.728023 2020.625982)" fill="#b32a1f" fill-rule="evenodd" />
    <g id="eGVfU3b9D8H10" opacity="0">
        <path d="M1683.8,865.3l-232.3,129l232.3,129.1L1916,994.3l-232.2-129Z" fill="#9c8577" fill-rule="evenodd" />
        <path
            d="M1630,978.8q-2.4-3.1-6.3-4.9-3.8-1.8-7.4-1.8-1.8,0-3.7.4-1.9.3-3.4,1.2-1.6.9-2.6,2.4t-1,3.7q0,2,.8,3.3t2.4,2.3q1.6.9,3.7,1.8q2.2.8,4.9,1.6q3.9,1.3,8.1,2.9q4.3,1.6,7.7,4.2q3.5,2.6,5.8,6.4q2.2,3.9,2.2,9.6q0,6.6-2.4,11.5-2.4,4.8-6.6,7.9-4.1,3.2-9.4,4.7t-10.9,1.5q-8.3,0-16-2.9-7.7-2.8-12.8-8.2l12.2-12.3q2.8,3.5,7.4,5.8t9.2,2.3q2,0,4-.4q1.9-.4,3.4-1.4t2.3-2.6q.9-1.6.9-3.9q0-2.2-1.1-3.7t-3.1-2.8q-2-1.2-5-2.3-3-1-6.7-2.2t-7.3-2.8q-3.5-1.6-6.2-4.2-2.8-2.5-4.5-6.1-1.7-3.7-1.7-8.9q0-6.4,2.6-10.9q2.6-4.6,6.9-7.5q4.2-2.9,9.5-4.3q5.3-1.3,10.7-1.3q6.5,0,13.3,2.4q6.8,2.3,11.9,7L1630,978.8Zm79.5,3.7q0,6.7-2.5,11.3t-6.7,7.4q-4.2,2.9-9.7,4.1-5.6,1.3-11.5,1.3h-9.2v29h-18.6v-76.7h28.2q6.3,0,11.8,1.2q5.4,1.2,9.5,4t6.4,7.3t2.3,11.1Zm-18.5.1q0-2.7-1.1-4.5-1.1-1.7-2.9-2.7-1.9-.9-4.2-1.3-2.3-.3-4.8-.3h-8.1v18.1h7.8q2.6,0,5-.4q2.3-.5,4.2-1.5q1.9-1.1,3-2.9t1.1-4.5Zm82.5,51.6q-7.5,3.4-17.3,3.4-8.8,0-16.4-2.9-7.5-2.9-13-8.3-5.6-5.3-8.7-12.8t-3.1-16.5q0-9.2,3.1-16.7q3.2-7.5,8.9-12.7q5.6-5.3,13.2-8.1t16.4-2.8q8.1,0,16,2.9q7.8,2.8,12.7,8.4l-12.6,12.5q-2.6-3.5-6.8-5.3-4.2-1.7-8.7-1.7-4.9,0-8.9,1.8-4.1,1.8-7,4.9-2.9,3.2-4.6,7.4-1.6,4.3-1.6,9.4q0,5.2,1.6,9.5q1.7,4.4,4.5,7.5q2.9,3.1,6.9,4.8t8.8,1.7q5.5,0,9.6-2.1q4.2-2.2,6.7-5.7L1786,1025q-5,5.8-12.5,9.2Z"
            transform="translate(5.881742 0)" fill="#e4e8ec" fill-rule="evenodd" />
    </g>
</svg>