<?xml version="1.0" encoding="UTF-8"?>
<svg id="Layer_2" data-name="Layer 2" xmlns="http://www.w3.org/2000/svg" xmlns:xlink="http://www.w3.org/1999/xlink" viewBox="0 0 576.99 134.44">
  <defs>
    <style>
      .cls-1 {
        fill: none;
      }

      .cls-2 {
        clip-path: url(#clippath);
      }

      .cls-3 {
        fill: #fff;
      }
    </style>
    <clipPath id="clippath">
      <rect class="cls-1" width="576.99" height="134.44"/>
    </clipPath>
  </defs>
  <g id="_레이어_1" data-name="레이어 1">
    <g id="_후원" data-name="후원">
      <g class="cls-2">
        <g>
          <path class="cls-3" d="M225.16,16.58c7.41,0,13.36,5.89,13.36,13.22s-5.95,13.22-13.36,13.22-13.36-5.89-13.36-13.22,6.07-13.22,13.36-13.22Zm0-11.29c-13.6,0-24.65,10.93-24.65,24.39s11.05,24.39,24.65,24.39,24.65-10.93,24.65-24.39-10.93-24.39-24.65-24.39Z"/>
          <path class="cls-3" d="M453.24,16.58c7.41,0,13.36,5.89,13.36,13.22s-5.95,13.22-13.36,13.22-13.36-5.89-13.36-13.22,5.95-13.22,13.36-13.22Zm0-11.29c-13.6,0-24.65,10.93-24.65,24.39s11.05,24.39,24.65,24.39,24.65-10.93,24.65-24.39-11.05-24.39-24.65-24.39Z"/>
          <path class="cls-3" d="M225.16,82.66c7.41,0,13.36,5.89,13.36,13.22s-5.95,13.22-13.36,13.22-13.36-5.89-13.36-13.22,6.07-13.22,13.36-13.22Zm0-11.29c-13.6,0-24.65,10.93-24.65,24.39s11.05,24.39,24.65,24.39,24.65-10.93,24.65-24.39-10.93-24.39-24.65-24.39Z"/>
          <path class="cls-3" d="M109.91,30.28L57.69,.48c-1.09-.6-2.55-.6-3.64,0L1.82,30.28c-1.09,.72-1.82,1.92-1.82,3.12v59.71c0,1.32,.73,2.52,1.82,3.12l52.22,29.8c.61,.36,1.21,.48,1.82,.48s1.21-.12,1.82-.48l52.22-29.8c1.09-.6,1.82-1.8,1.82-3.12V33.4c0-1.2-.73-2.4-1.82-3.12Zm-55.14,50.7l-6.92-3.96v-9.01l-24.78-14.18v27.27l24.65,14.18v-8.41l1.21,.72,5.83,3.36v10.33c0,.24,0,.6-.12,.84q0,.12-.12,.24c-.12,.24-.12,.36-.24,.6,0,.12-.12,.12-.12,.24-.12,.24-.24,.48-.49,.6-.24,.24-.36,.36-.61,.48-.12,0-.12,.12-.24,.12s-.36,.12-.61,.12q-.12,0-.24,.12c-.24,.12-.49,.12-.85,.12-.24,0-.61,0-.85-.12q-.12,0-.24-.12c-.24-.12-.36-.12-.61-.24h-.12l-31.58-18.26c-1.09-.6-1.7-1.8-1.7-3V47.82c0-1.2,.61-2.4,1.7-3,1.09-.6,2.43-.6,3.52,0l31.58,18.26c1.09,.6,1.7,1.8,1.7,3v14.9h.24Z"/>
          <path class="cls-3" d="M328.88,12.01c3.28,3.24,4.86,8.05,4.86,14.54v25.95h-12.87V28.47c0-3.48-.73-6.01-2.18-7.81-1.46-1.68-3.52-2.52-6.2-2.52-3.04,0-5.34,.96-7.16,2.88-1.7,1.92-2.67,4.81-2.67,8.53v22.83h-12.87V28.35c0-6.85-2.79-10.33-8.38-10.33-2.91,0-5.34,.96-7.04,2.88-1.7,1.92-2.67,4.81-2.67,8.53v22.83h-12.87V7.81h12.27v5.05c1.7-1.8,3.64-3.24,6.07-4.21,2.43-.96,4.98-1.44,7.89-1.44,3.16,0,5.95,.6,8.5,1.8,2.55,1.2,4.5,3,6.07,5.29,1.82-2.28,4.13-4.09,6.92-5.29,2.79-1.2,5.83-1.92,9.11-1.92,5.59,0,9.96,1.68,13.24,4.93Z"/>
          <path class="cls-3" d="M388.38,29.56v22.83h-12.87V28.35c0-6.85-2.79-10.33-8.38-10.33-2.91,0-5.34,.96-7.04,2.88-1.7,1.92-2.67,4.81-2.67,8.53v22.83h-12.87V7.81h12.27v5.05c1.7-1.8,3.64-3.24,6.07-4.21,2.43-.96,4.98-1.44,7.89-1.44,3.16,0,5.95,.6,8.5,1.8,2.55,1.2,4.49,3,6.07,5.29,1.82-2.28,4.13-4.09,6.92-5.29,2.79-1.2,5.83-1.92,9.11-1.92,5.59,0,9.96,1.56,13.24,4.81,3.28,3.24,4.86,8.05,4.86,14.54v25.95h-12.87V28.35c0-3.48-.73-6.01-2.19-7.81-1.46-1.68-3.52-2.52-6.19-2.52-3.04,0-5.34,.96-7.16,2.88-1.82,2.04-2.67,4.93-2.67,8.65Z"/>
          <path class="cls-3" d="M527.56,12.13c3.4,3.36,5.1,8.29,5.1,14.78v25.59h-13.12V28.84c0-3.48-.73-6.13-2.31-7.93-1.58-1.68-3.88-2.64-6.8-2.64-3.28,0-5.95,.96-7.89,3-1.94,2.04-2.92,5.05-2.92,9.01v22.11h-13.12V7.81h12.63v5.17c1.7-1.92,3.88-3.36,6.44-4.33,2.55-1.08,5.34-1.56,8.5-1.56,5.59,0,10.08,1.68,13.48,5.05Z"/>
          <path class="cls-3" d="M407.94,114.74c-3.4-3.36-5.1-8.29-5.1-14.78v-26.31h13.12v24.27c0,3.48,.73,6.13,2.31,7.93,1.58,1.68,3.89,2.64,6.8,2.64,3.28,0,5.95-.96,7.89-3,1.94-2.04,2.91-5.05,2.91-9.01v-22.83h13.12v45.3h-12.51v-5.17c-1.7,1.92-3.88,3.36-6.44,4.33-2.55,1.08-5.34,1.56-8.5,1.56-5.59,0-10.08-1.56-13.6-4.93Z"/>
          <path class="cls-3" d="M171.97,43.01c-7.41,0-13.36-5.89-13.36-13.22s5.95-13.22,13.36-13.22c4.98,0,9.35,2.76,11.66,6.85l9.96-5.41c-4.13-7.57-12.27-12.62-21.62-12.62-13.6,0-24.65,10.93-24.65,24.39s11.05,24.39,24.65,24.39c9.35,0,17.49-5.17,21.62-12.62l-9.96-5.41c-2.19,4.09-6.56,6.85-11.66,6.85Z"/>
          <path class="cls-3" d="M328.88,77.49c3.28,3.24,4.86,8.05,4.86,14.54v25.95h-12.87v-24.03c0-3.48-.73-6.01-2.18-7.81-1.46-1.68-3.52-2.52-6.2-2.52-3.04,0-5.34,.96-7.16,2.88-1.7,1.92-2.67,4.81-2.67,8.53v22.83h-12.87v-24.03c0-6.85-2.79-10.33-8.38-10.33-2.91,0-5.34,.96-7.04,2.88-1.7,1.92-2.67,4.81-2.67,8.53v22.83h-12.87v-44.45h12.27v5.05c1.7-1.8,3.64-3.24,6.07-4.21,2.43-.96,4.98-1.44,7.89-1.44,3.16,0,5.95,.6,8.5,1.8,2.55,1.2,4.5,3,6.07,5.29,1.82-2.28,4.13-4.08,6.92-5.29,2.79-1.2,5.83-1.92,9.11-1.92,5.59,0,9.96,1.68,13.24,4.93Z"/>
          <path class="cls-3" d="M171.97,108.49c-7.41,0-13.36-5.89-13.36-13.22s5.95-13.22,13.36-13.22c4.98,0,9.35,2.76,11.66,6.85l9.96-5.41c-4.13-7.57-12.27-12.62-21.62-12.62-13.6,0-24.65,10.93-24.65,24.39s11.05,24.39,24.65,24.39c9.35,0,17.49-5.17,21.62-12.62l-9.96-5.41c-2.19,4.09-6.56,6.85-11.66,6.85Z"/>
          <path class="cls-3" d="M369.44,70.77c-4.98,0-9.59,1.44-13.36,3.96v-2.16h-11.29v61.88h11.29v-18.62c3.89,2.52,8.5,3.96,13.36,3.96,13.6,0,24.65-10.93,24.65-24.39s-11.05-24.63-24.65-24.63Zm0,37.73c-7.41,0-13.36-5.89-13.36-13.22s5.95-13.22,13.36-13.22,13.36,5.89,13.36,13.22c-.12,7.21-6.07,13.22-13.36,13.22Z"/>
          <path class="cls-3" d="M486.88,74.73h-10.2v-9.97h-11.9v9.97h-7.53v10.81h7.53v34.12h11.9v-34.12h10.2v-10.81Z"/>
          <path class="cls-3" d="M540.92,90.11c-2.43-10.93-12.14-19.1-23.93-19.1-13.48,0-24.53,10.81-24.53,24.27s10.93,24.27,24.53,24.27c9.48,0,17.98-5.05,22.23-12.14l-10.32-4.81c-2.43,3.36-6.92,5.77-11.78,5.77-5.95,0-11.05-3.96-12.63-9.37h36.92c.12-1.2,.24-2.4,.24-3.6-.12-1.92-.36-3.6-.73-5.29Zm-35.95,0c2.06-4.57,6.68-7.81,12.02-7.81s10.08,3.24,12.02,7.81h-24.05Z"/>
          <path class="cls-3" d="M568.13,75.33c2.55-1.08,5.59-1.56,8.86-1.56v11.53c-1.46-.12-2.31-.12-2.79-.12-3.64,0-6.44,1.2-8.5,3.24-2.06,2.04-3.04,5.05-3.04,9.01v20.06h-12.63v-43.13h12.14v5.77c1.34-2.16,3.4-3.72,5.95-4.81Z"/>
        </g>
      </g>
    </g>
  </g>
</svg>