<?xml version="1.0" encoding="UTF-8"?>
<svg id="Layer_2" data-name="Layer 2" xmlns="http://www.w3.org/2000/svg" xmlns:xlink="http://www.w3.org/1999/xlink" viewBox="0 0 2772.03 177.54">
  <defs>
    <style>
      .cls-1 {
        fill: none;
      }

      .cls-2 {
        clip-path: url(#clippath);
      }

      .cls-3 {
        fill: #00448d;
      }

      .cls-4 {
        fill: #00b0e0;
      }

      .cls-5 {
        fill: #009540;
      }

      .cls-6 {
        fill: #e60013;
      }

      .cls-7 {
        fill: #fff;
      }

      .cls-8 {
        fill: #fccc00;
      }

      .cls-9 {
        fill: #97a624;
      }

      .cls-10 {
        fill: #8dc322;
      }

      .cls-11 {
        fill: #8dc323;
      }
    </style>
    <clipPath id="clippath">
      <rect class="cls-1" x="1403.6" y="43.09" width="576.99" height="134.44"/>
    </clipPath>
  </defs>
  <g id="_레이어_1" data-name="레이어 1">
    <g id="_후원" data-name="후원">
      <g>
        <g>
          <path class="cls-7" d="M2193.1,161.02c-2.14-.7-2.96-1.68-3.03-3.81-.06-1.88-.07-3.77,0-5.65,.1-2.41,1.45-3.7,3.89-3.88,.66-.05,1.33-.06,2-.06,14.16,0,28.33,0,42.49-.01,2.16,0,4.33-.11,6.48-.26,2.13-.15,4.06-.78,5.78-2.22,4.14-3.48,3.98-8.87-.42-12-2.18-1.55-4.62-2.07-7.22-2.07-11.44-.01-22.88-.01-34.32-.04-9.02-.03-15.46-4.15-17.96-12.27-4.32-14.07,5.44-24.63,17.09-24.38,4.94,.11,9.89,.03,14.83,.02,12.27-.03,24.55-.1,36.82-.09,18.55,0,37.1,.06,55.65,.09,3.62,0,4.93,1.31,4.93,4.89,0,1.39,.02,2.77,0,4.16-.04,2.94-1.49,4.4-4.41,4.4-5.94,.01-11.89-.03-17.83,.02-2.04,.02-4.1,.05-6.11,.54-1.95,.47-3.02,1.65-3.39,3.61-.24,1.27-.29,2.53-.29,3.8,0,13.2-.05,26.4,.03,39.59,.02,2.74-.6,4.86-3.33,5.93h-.33c-2.3-.39-4.62-.07-6.93-.17-2.46-.36-3.48-1.43-3.54-3.97-.08-3.71-.02-7.43-.03-11.14,0-9.59-.01-19.18,0-28.77,0-1.67-.2-3.32-.51-4.95-.41-2.22-1.51-3.28-3.76-3.61-1.48-.22-3-.34-4.48-.27-5.88,.29-11.78,.35-17.64,.07-9.27-.44-18.53-.07-27.8-.27-3-.07-5.97,.46-8.97,.4-.94-.02-1.87,.24-2.77,.54-1.64,.54-2.64,1.83-2.69,3.43-.05,1.68,.93,2.72,2.35,3.3,2.03,.83,4.2,1,6.37,1.01,11.05,.02,22.1-.03,33.14,.02,9.88,.04,18.54,6.99,20.66,16.64,1.35,6.16,.83,12.19-2.54,17.65-2.85,4.61-6.83,8-12.16,9.52-1.61,.46-3.29,.44-4.96,.41-17.76,0-35.53,0-53.29,0-.6,0-1.22,.14-1.81-.14Z"/>
          <path class="cls-7" d="M2377.07,161.03c-1.86-.4-2.87-1.56-3.05-3.43-.06-.6-.13-1.21-.13-1.82,0-18.69,0-37.37,0-56.06,0-.83,.04-1.68,.24-2.47,.38-1.53,1.38-2.48,2.96-2.78,.27-.05,.55-.09,.83-.09,18.99,0,37.99-.14,56.98,.06,8.87,.09,15.6,6.38,16.69,15.31,1.05,8.68-1.57,15.68-10.9,19.89-2.59,1.17-5.4,1.14-8.16,1.36-2.54,.2-5.11-.1-7.63,.34-.64,.11-1.3,.31-1.88,.61-1.17,.58-1.54,1.51-1.01,2.76,.68,1.59,1.91,2.7,3.19,3.77,7.29,6.06,14.59,12.11,21.89,18.17,.21,.18,.43,.35,.64,.54,.79,.73,1.21,1.66,.91,2.69-.29,1.02-1.26,1.12-2.17,1.18-4.19,.26-8.39,.04-12.59,.12-.6,.01-1.22-.16-1.79,.16h-.33c-3.01-.35-5.27-2.09-7.5-3.96-8.19-6.89-16.48-13.67-24.7-20.53-1.02-.85-2.03-1.72-3.03-2.6-2.07-1.8-3.15-4.12-3.23-6.86-.05-1.72-.04-3.44,0-5.15,.07-3.68,1.62-5.26,5.33-5.28,9.33-.04,18.65-.03,27.98,0,1.9,0,3.76-.28,5.64-.46,1.19-.11,2.24-.59,3.07-1.5,1.43-1.58,1.26-3.81-.42-5.12-1.24-.97-2.71-1.2-4.23-1.28-10.87-.57-21.75-.27-32.62-.32-1.99,0-3.99,.21-5.96,.54-2.39,.4-3.31,1.45-3.72,3.84-.14,.82-.11,1.66-.11,2.49,0,13.25,0,26.49,0,39.74,0,1,.03,2-.21,2.98-.49,2.05-1.65,3.07-3.8,3.32-2.39-.08-4.78,.17-7.16-.13Z"/>
          <path class="cls-7" d="M2633.7,161.02c-2.38-.78-3.05-1.79-3.05-4.63,0-18.63,0-37.25,0-55.88,0-.83-.04-1.67,.03-2.49,.17-2.11,1.54-3.53,3.64-3.6,2.61-.08,5.22-.07,7.82,.03,2.51,.1,4.52,1.39,6.29,3.07,13.14,12.41,26.27,24.82,39.4,37.24,.89,.84,1.81,1.6,3,2.03,1.81,.64,2.86,.21,3.48-1.63,.53-1.59,.67-3.25,.67-4.91,0-10.2,0-20.4,0-30.6,0-4.06,1.2-5.26,5.22-5.26,1.44,0,2.89-.04,4.33,.02,2.33,.1,3.67,1.43,3.87,3.73,.04,.44,.05,.89,.05,1.33,0,18.85,0,37.69,0,56.54,0,3.07-.71,4.22-3.05,5.02-2.19,.31-4.38,.05-6.57,.15-.59,.03-1.21-.16-1.78,.17h-.33c-2.94-.41-5.16-2-7.21-4.05-7.13-7.12-14.62-13.88-21.92-20.84-5.45-5.2-11-10.29-16.44-15.5-.81-.78-1.68-1.45-2.74-1.83-1.54-.55-2.47-.13-3.01,1.39-.47,1.32-.58,2.69-.58,4.09,.01,10.14,0,20.27,0,30.41,0,.55,.01,1.11-.01,1.66-.11,2.69-1.21,4.05-3.76,4.67h-.33c-1.73-.37-3.49-.07-5.23-.17-.6-.04-1.21,.14-1.78-.14Z"/>
          <path class="cls-7" d="M2486.41,161.33c-2.6-1.32-2.94-3.57-2.92-6.23,.09-12.69,.05-25.39,.03-38.09,0-1.44-.03-2.89-.27-4.3-.58-3.39-1.78-4.41-5.22-4.65-6.43-.45-12.87-.14-19.31-.23-1.05-.01-2.11,.02-3.16,0-2.49-.06-4.03-1.57-4.1-4.05-.04-1.66-.02-3.33,0-4.99,.03-2.91,1.49-4.39,4.42-4.4,8.27-.02,16.55,0,24.82,0,14.49,0,28.99,0,43.48,0,3.84,0,5.1,1.25,5.1,5.05,0,1.33,.02,2.66,0,3.99-.04,2.92-1.52,4.4-4.41,4.41-5.94,.01-11.88-.03-17.82,.02-1.93,.02-3.88,.02-5.79,.48-2.52,.6-3.59,1.77-3.83,4.34-.16,1.65-.26,3.31-.26,4.97-.02,12.97,0,25.95-.01,38.92,0,2.61-.81,3.78-3.05,4.47-1.85,.31-3.72,.04-5.58,.14-.59,.03-1.21-.16-1.77,.17h-.33Z"/>
          <path class="cls-7" d="M2772.03,158.67c-2.02,2.09-2.44,2.26-5.5,.87-10.37-4.72-20.71-9.52-31.05-14.32-5.77-2.68-11.48-5.5-17.28-8.12-2.38-1.07-3.74-2.72-3.93-5.26-.21-2.71-.22-5.43,0-8.13,.21-2.55,1.64-4.25,3.95-5.31,13.36-6.16,26.71-12.35,40.07-18.52,2.96-1.37,5.94-2.71,8.93-4.03,2.49-1.1,3.59-.72,4.81,1.6,0,3.33,0,6.65,0,9.98-.66,2.39-2.4,3.82-4.56,4.69-4.21,1.71-8.35,3.57-12.52,5.39-5.33,2.33-10.65,4.68-15.9,7.18-.5,.24-1.01,.47-1.46,.79-1.79,1.28-1.88,3.02-.2,4.43,1.47,1.22,3.24,1.9,4.98,2.62,8.35,3.44,16.51,7.32,24.78,10.94,.56,.24,1.09,.54,1.64,.81,1.73,.85,2.98,2.06,3.23,4.07,0,3.44,0,6.88,0,10.32Z"/>
          <path class="cls-7" d="M2559.73,161.33c-1.77-.76-3.71-.76-5.54-1.26-13.84-3.76-23.78-16.62-23.79-30.89,0-10.03,0-20.06,0-30.09,0-3.36,1.35-4.7,4.75-4.72,1.44,0,2.89-.02,4.33,0,2.75,.03,4.21,1.31,4.51,4.05,.11,.99,.06,1.99,.08,2.99,.15,8.97-.03,17.94,.2,26.92,.21,8.55,8.58,18.67,19.41,19.07,10.49,.38,20.97,.08,31.46,.21,2.78,.03,5.55-.03,8.33,.02,3.27,.06,4.66,1.38,4.79,4.63,.07,1.82,.18,3.66-.13,5.47-.3,1.75-1.22,2.93-3.03,3.3-.59,.26-1.2,.13-1.81,.13-13.58,0-27.17,0-40.75,.01-.6,0-1.22-.16-1.79,.16-.33,0-.67,0-1,0Z"/>
          <path class="cls-7" d="M2248.48,161.04c-.03,.1-.04,.2-.04,.3-18.44,0-36.88,0-55.33,0,0-.11-.01-.21-.02-.32,18.46,0,36.92,.01,55.38,.02Z"/>
          <path class="cls-7" d="M2560.73,161.33c.29-.49,.79-.33,1.2-.33,14.38,0,28.77,0,43.15,.02-.07,.1-.08,.2-.03,.31-14.78,0-29.55,0-44.33,0Z"/>
          <path class="cls-7" d="M2352.1,161.33c-.05-.08-.07-.17-.06-.26,.53-.64,1.28-.59,1.99-.59,4.36-.03,8.73-.03,13.09,0,.71,0,1.46-.05,2.01,.56-.05,.1-.06,.2-.03,.3-5.67,0-11.33,0-17,0Z"/>
          <path class="cls-7" d="M2317.8,161.03c-.07,.1-.08,.2-.03,.31-5.55,0-11.11,0-16.66,0,0-.1,0-.2-.04-.29,.54-.61,1.29-.56,2-.57,4.24-.03,8.49-.02,12.73,0,.71,0,1.45-.04,2.01,.55Z"/>
          <path class="cls-7" d="M2432.09,161.33c.17-.39,.52-.33,.84-.33,4.51,.01,9.02,.03,13.53,.05-.01,.1-.03,.19-.05,.29-4.78,0-9.55,0-14.33,0Z"/>
          <path class="cls-7" d="M2697.05,161.33c1.12-.71,2.35-.24,3.53-.31,1.6-.09,3.21-.01,4.82,0,0,.1-.01,.21-.02,.31-2.78,0-5.55,0-8.33,0Z"/>
          <path class="cls-7" d="M2384.45,161.03c-.06,.1-.07,.2-.03,.3-2.44,0-4.89,0-7.33,0,.05-.11,.04-.21-.03-.3,2.46,0,4.92,0,7.38,0Z"/>
          <path class="cls-7" d="M2486.74,161.33c1.35-.71,2.8-.21,4.2-.31,1.05-.08,2.1,0,3.16,0-.07,.1-.08,.2-.03,.31-2.44,0-4.89,0-7.33,0Z"/>
          <path class="cls-7" d="M2277.44,161.33c0-.1-.01-.21-.02-.31,2.34,.16,4.71-.4,7.02,.31-2.33,0-4.67,0-7,0Z"/>
          <path class="cls-7" d="M2623.08,161.03c-.07,.1-.08,.2-.03,.31-2.33,0-4.67,0-7,0-.04-.09-.06-.18-.05-.27,2.35-.95,4.71-.9,7.08-.04Z"/>
          <path class="cls-7" d="M2633.7,161.02c2.34,.16,4.71-.4,7.02,.31-2.33,0-4.67,0-7,0,0-.1-.01-.21-.02-.31Z"/>
          <path class="cls-7" d="M2317.8,161.03c-5.58,0-11.15,.01-16.73,.02-1.44-.34-1.53-1.41-1.38-2.58,.35-2.78,1.44-5.34,2.53-7.86,7.41-17.08,14.94-34.11,22.35-51.19,1.56-3.59,3.94-5.44,7.98-5.08,2.09,.19,4.22,.06,6.33,.03,2.79-.04,4.92,1.19,6.01,3.67,8.37,19.06,17.2,37.92,24.82,57.31,.46,1.18,.82,2.41,.8,3.71-.02,.97-.29,1.75-1.37,1.97-5.7,.01-11.39,.02-17.09,.04-1.31-.17-1.87-1.12-2.22-2.2-1.38-4.31-2.74-8.63-4.05-12.97-.6-1.97-.02-3.58,1.63-4.82,3.28-2.46,6.59-4.88,9.86-7.35,.54-.41,1.52-.71,1.22-1.56-.25-.72-1.17-.44-1.81-.45-4.05-.05-8.1-.09-12.15-.13-2.43-.03-3.73-.99-4.53-3.35-1.3-3.82-2.59-7.64-3.9-11.45-.21-.6-.22-1.54-.99-1.55-.78-.02-.82,.91-1.03,1.51-1.33,3.86-2.64,7.73-3.96,11.6-.77,2.25-2.08,3.21-4.44,3.24-4.16,.05-8.32,.08-12.48,.13-.58,0-1.36-.2-1.56,.56-.15,.61,.52,.91,.95,1.23,3.33,2.48,6.67,4.96,10,7.45,1.98,1.48,2.47,3.08,1.66,5.36-1.51,4.27-3.04,8.53-4.59,12.78-.33,.89-.81,1.71-1.88,1.92Z"/>
          <path class="cls-7" d="M2623.08,161.03c-2.36,.01-4.72,.02-7.08,.04-2.34-.59-3.28-1.73-3.28-4.1,0-19.45,0-38.91,0-58.36,0-2.67,1.42-4.15,4.06-4.22,1.83-.05,3.67-.06,5.49,.01,2.3,.09,3.66,1.48,3.83,3.78,.01,.17,.02,.33,.02,.5,0,19.34,0,38.69,0,58.03,0,2.49-.9,3.7-3.04,4.32Z"/>
          <path class="cls-4" d="M2619.5,51.49c-4.32-1.58-8.32-3.7-11.43-7.16-6.99-7.77-9.2-16.77-5.75-26.65,3.43-9.86,10.62-15.86,21.01-17.38,14.79-2.16,27.79,7.69,29.93,22.46,.75,5.21-.14,10.26-2.41,15.04-.1,.15-.24,.22-.42,.22-1.41-.41-2.73-1.08-4.17-1.43-.44-.11-.81-.33-.96-.8-.07-.7,.32-1.28,.56-1.89,4.95-12.9-3.17-26.26-16.89-27.8-10.25-1.15-20.29,6.86-21.82,17.06-1.43,9.59,4.37,19.05,13.25,22.11,.52,.18,1.07,.34,1.41,.82,.38,1.11-.54,1.83-.84,2.74-.29,.88-.56,1.78-1.04,2.59-.12,.16-.26,.19-.43,.09Z"/>
          <path class="cls-8" d="M2638.69,79.51c-2.5,7.12-7.29,11.76-14.78,13.35-10.93,2.31-21.56-5.35-22.9-16.45-1.34-11.1,7.02-21.25,17.77-21.57,.81,1.75,.32,3.59,.42,5.39-.31,.76-1.07,.7-1.68,.86-6.25,1.58-10.27,6.02-10.57,12.46-.32,6.86,4.85,13.08,12.1,13.49,6.09,.35,10.44-2.26,13.12-7.71,.22-.45,.44-.9,.87-1.2,1.92-.04,3.68,.69,5.49,1.18,.06,.07,.11,.13,.17,.2Z"/>
          <path class="cls-10" d="M2650.84,37.8c6.05,3.42,10.12,8.33,11.6,15.22,2.92,13.61-7.5,26.51-21.42,26.51-.78,0-1.55-.02-2.33-.02,0,0-.02-.08-.02-.08-.44-1.87,.32-3.63,.52-5.44,.57-.73,1.39-.57,2.15-.58,7.98-.14,14.5-6.09,15.31-14.03,.71-6.94-2.2-12.08-8.02-15.72-.28-.18-.59-.31-.84-.54-.13-.12-.2-.27-.22-.44,.83-1.72,1.82-3.34,3.1-4.77,.05-.05,.11-.08,.17-.1Z"/>
          <path class="cls-9" d="M2618.94,60.48c-.39-1.87-.15-3.76-.16-5.64,.04-.07,.1-.09,.18-.06,1.84-.67,3.68-.58,5.5,.08,.17,.1,.3,.25,.39,.43-.2,1.95,.46,3.9,0,5.85-1.84,.3-3.64-.3-5.46-.31-.18-.07-.33-.18-.44-.34Z"/>
          <path class="cls-11" d="M2624.61,55.18c-1.86-.53-3.77-.21-5.65-.4,.18-1.1,.36-2.19,.54-3.29,.08-.02,.15-.04,.22-.07,1.91-.09,3.75,.11,5.45,1.07,.31,1,.24,1.92-.56,2.69Z"/>
          <path class="cls-5" d="M2621.77,46.22c.09-.03,.17-.05,.26-.07,2.04-.34,4.01,.34,6.02,.46,.67,.37,.36,.86,.07,1.25-1.06,1.44-1.75,3.07-2.57,4.63-.13,.13-.29,.16-.46,.08-1.78-.42-3.64-.45-5.36-1.14,.26-1.9,1.31-3.49,2.05-5.2Z"/>
          <path class="cls-5" d="M2650.67,37.9c-.72,1.73-1.66,3.3-2.99,4.63-.46,.4-.96,.2-1.41,.04-1.51-.55-3.12-.7-4.66-1.11-.38-.21-.41-.58-.17-.83,1.43-1.44,2.35-3.31,3.87-4.67,.04-.05,.09-.08,.14-.09,1.74,.67,3.64,.94,5.22,2.03Z"/>
          <path class="cls-9" d="M2639.41,73.87c.11,1.9-.3,3.73-.74,5.56-1.95,.03-3.75-.66-5.58-1.19,0,0-.05-.08-.05-.08-.16-1.88,.18-3.72,.5-5.56,.39-.46,.89-.36,1.34-.2,1.43,.51,2.94,.71,4.35,1.26,.06,.07,.12,.14,.17,.21Z"/>
          <path class="cls-4" d="M2647.73,42.75c-3.72,4.16-8.06,7.34-13.55,8.8-2.91,.78-5.84,1.16-8.85,.88,.43-2.13,1.76-3.79,2.93-5.53,.09-.14,.22-.25,.38-.31,3.6-.68,7.13-1.55,10.16-3.81,.75-.56,1.38-1.28,2.21-1.74,.17-.06,.33-.04,.49,.05,2.14,.13,4.16,.77,6.18,1.43,.03,.07,.05,.14,.05,.22Z"/>
          <path class="cls-8" d="M2624.69,55.25c9.05,2.66,14.67,9.76,14.69,18.56-2.01,.09-3.78-.82-5.64-1.35-.32-.14-.49-.42-.61-.73-.99-4.74-3.61-8.14-8.16-9.98-.21-.15-.38-.31-.27-.6-.04-1.97-.76-3.93-.01-5.9Z"/>
          <path class="cls-10" d="M2624.71,61.14c.06,.12,.12,.23,.18,.35,.39,.17,.58,.5,.71,.88,1.38,4.19,4.08,7.29,7.89,9.45,.09,.21,.18,.43,.26,.64-.03,1.92,.09,3.87-.71,5.69-7.98-3.25-12.7-9.08-14.02-17.61,1.93-.1,3.85-.15,5.69,.61Z"/>
          <path class="cls-10" d="M2641.5,41.1c-.11,.04-.21,.09-.32,.13-1.76,.69-3.69,.57-5.5,1.15-2.77,.9-4.85,2.82-7.16,4.41-.09,.04-.18,.08-.26,.12-2.11,0-4.21-.13-6.24-.75,4.44-7.19,10.97-10.59,19.34-10.63,1.33,0,2.65,.15,3.94,.44-.9,1.99-2.41,3.52-3.81,5.14Z"/>
        </g>
        <g>
          <g>
            <path class="cls-7" d="M186.7,70.36h-24.85v.64c0,2.84-.93,5.56-2.07,8.54,0,0-22.1,56.41-22.94,58.59-.91-2.14-25.99-60.99-25.99-60.99l-.42-.94c-.76-1.68-1.52-3.41-1.52-5.19v-.51l-.49-.13h-26.98v1.24l.32,.15c5.13,1.87,5.88,8.69,5.88,12.61v59c-.01,6.84-.75,14.49-6.28,19.34l-.16,.17v1.12h23.93v-1.23l-.3-.15c-5.24-2.33-5.67-8.25-5.67-13.89v-3.39s.05-53.6,.05-58.1c1.75,4.18,25.79,61.27,25.79,61.27,3.5,8.11,5.6,11.94,12.56,17.23l.52,.4s29.03-74.25,30.82-78.86c0,4.84-.02,65.25-.02,65.25,0,4.36-.66,8.6-5.41,10.1l-.36,.1v1.28h26.91v-1.18l-.21-.15c-4.82-3.36-6.97-7.66-6.97-13.94V79.57c0-1.55,.3-6.73,4.03-7.81l.35-.12v-1.28h-.5Z"/>
            <g>
              <path class="cls-6" d="M206.16,120.9c0-25.83,20.95-46.79,46.83-46.79,13.33,0,25.34,5.59,33.86,14.56-9.36-14.28-25.5-23.7-43.89-23.7-29,0-52.49,23.48-52.49,52.49s23.49,52.49,52.49,52.49c5.88,0,11.53-1.03,16.8-2.79-2.23,.33-4.46,.55-6.77,.55-25.88,0-46.83-20.95-46.83-46.81Z"/>
              <path class="cls-6" d="M256.2,79.83c-16.17-1.49-30.98,6.71-38.82,19.75,7.28-8.39,18.33-13.34,30.25-12.24,19.63,1.78,34.1,19.16,32.3,38.76-1.79,19.64-19.15,34.1-38.81,32.31-2.69-.24-5.33-.82-7.82-1.64,4.65,2.47,9.87,4.08,15.45,4.61,22.52,2.03,42.45-14.54,44.5-37.07,2.08-22.5-14.52-42.43-37.05-44.48Z"/>
            </g>
            <path class="cls-7" d="M344.16,109.46c8.84-4.21,13.2-10.17,13.2-18.21,0-13.07-11.19-20.9-29.91-20.9h-33.86v1.24l.31,.15c6.12,2.26,5.98,10.62,5.9,16.75l-.02,2.07v53.06l.02,1.93c.07,6.24,.16,14.76-5.91,17.06l-.3,.12v1.27h26.07c9.93,.04,20.18,.05,29.4-4.41,10.45-5,17.16-14.84,17.16-25.1,0-12.24-8.43-21.68-22.05-25.03Zm-29.05-28.45c.81-.08,9-.95,9-.95,4.77-.48,9.53,1,12.78,3.91,2.69,2.44,4.12,5.77,4.12,9.57,0,13.45-18.12,14.12-21.75,14.12h-4.15v-26.65Zm29.46,67.01c-4.16,3.78-10.59,5.54-17.62,4.86,0,0-9.75-.9-11.83-1.08v-33.88c.86-.04,9.38-.53,9.38-.53,7.99-.44,15.46,1.85,20.01,6.15,3.4,3.2,5.11,7.32,5.11,12.22s-1.7,9.24-5.05,12.25Z"/>
            <path class="cls-7" d="M396.53,70.36h-27.26v1.24l.33,.15c6.1,2.26,5.98,10.68,5.9,16.83l-.02,2.13v53.09l.02,1.86c.06,6.23,.17,14.78-5.9,16.95l-.33,.12v1.27h27.76v-1.27l-.34-.12c-6.06-2.3-5.95-10.76-5.89-16.95l.02-1.86v-53.09l-.02-1.87c-.06-6.25-.17-14.79,5.89-17.11l.34-.13v-1.24h-.49Z"/>
            <path class="cls-7" d="M402.73,93.12c0,16.37,14.49,22.84,27.29,28.59,10.87,4.84,21.14,9.46,21.14,19.28,0,9.22-11.4,14.15-19.63,14.15-10.75,0-22.14-4.34-30.53-11.57l-1.14-.99,4.47,19.33,.26,.09c7.67,2.83,16.19,4.27,25.37,4.27,21.09,0,38.23-13.31,38.23-29.64,0-14.33-14.47-20.94-27.24-26.77-10.9-4.97-21.21-9.68-21.21-18.29,0-9.1,9.51-12.32,17.67-12.32s16.58,3.41,21.76,8.71l.83,.88v-17.51l-.33-.1c-6.62-2.07-13.74-3.13-21.12-3.13-16.56,0-35.85,6.54-35.85,25.02Z"/>
          </g>
          <g>
            <polygon class="cls-3" points="28.24 24.69 9.02 24.69 9.02 8.62 0 8.62 0 49.79 9.02 49.79 9.02 32.73 28.24 32.73 28.24 49.79 37.26 49.79 37.26 8.62 28.24 8.62 28.24 24.69"/>
            <path class="cls-3" d="M224.17,10.97c-1.89,1.92-1.96,4.76-2.02,6.41V49.79h9.02v-13.14h19.14v13.14h9.04V8.62h-28.12c-2.66,.03-5.18,.41-7.06,2.35Zm9.29,5.69h16.85v11.95h-19.14v-9.6c.04-.47-.06-1.33,.34-1.84,.43-.54,1.1-.48,1.95-.52Z"/>
            <path class="cls-3" d="M160.35,8.62h-28.17V49.79h9.03V16.66h16.92c.84,.03,1.53-.02,1.94,.52,.41,.51,.34,1.37,.35,1.84v30.77h9.02V17.38c-.05-1.65-.11-4.48-2.01-6.41-1.89-1.94-4.39-2.32-7.08-2.35Z"/>
            <path class="cls-3" d="M115.18,39.39c-.02,.48,.06,1.32-.35,1.82-.42,.55-1.11,.5-1.95,.52h-16.91V8.62h-9.02V49.79h28.17c2.68-.03,5.18-.43,7.06-2.36,1.89-1.93,1.96-4.75,2.02-6.4V8.62h-9.02v30.77Z"/>
            <path class="cls-3" d="M214.67,17.38c-.04-1.65-.11-4.48-2-6.41-1.88-1.94-4.39-2.32-7.06-2.35h-28.18V49.79h28.18c2.67-.03,5.18-.43,7.06-2.36,1.89-1.93,1.96-4.75,2-6.4V17.38Zm-8.98,22.01c-.04,.48,.05,1.32-.35,1.82-.43,.55-1.11,.5-1.96,.52h-16.93V16.66h16.93c.85,.03,1.53-.02,1.96,.52,.4,.51,.31,1.37,.35,1.84v20.37Z"/>
            <polygon class="cls-3" points="62.1 26.63 51.17 8.62 40.46 8.62 57.28 34.58 57.28 49.79 66.92 49.79 66.92 34.58 83.77 8.62 73.04 8.62 62.1 26.63"/>
            <rect class="cls-3" x="268.4" y="8.62" width="9.62" height="41.17"/>
          </g>
        </g>
        <g>
          <path id="Symbol" class="cls-7" d="M1202.59,116.78l-47.74,22.91v35.21h-6.67s-16.1-51.69-16.1-51.69l26.28-12.48h-50.8l-7.74-24.94,95.49-45.34,7.7,24.74-53.26,25.42,45.49,2.54,7.35,23.63Z"/>
          <path id="Wordmark" class="cls-7" d="M684.83,79.94h47.62v15.55h-29.15v15.33h27.02v15.16h-27.02v21.99h-18.47V79.94Zm95.58,45.97c0,5.15-1.56,7-7.48,7h-3.21c-5.93,0-7.48-1.85-7.48-7v-45.97h-18.46v46.74c0,15.94,9.04,22.25,24,22.25h7.09c14.97,0,24-6.32,24-22.25v-46.74h-18.47v45.97Zm95.97,22.06h18.47V79.94h-18.47v68.03Zm85.4-45.77v23.52c0,16.91-9.04,23.23-24.98,23.23h-6.03c-15.94,0-24.98-6.32-24.98-23.23v-23.52c0-16.91,9.04-23.23,24.98-23.23h6.03c15.94,0,24.98,6.32,24.98,23.23Zm-18.46-.68c0-5.15-1.56-7-7.48-7h-4.08c-5.93,0-7.48,1.85-7.48,7v24.88c0,5.15,1.56,7,7.48,7h4.08c5.93,0,7.48-1.85,7.48-7v-24.88Zm48.22-6.03h24.36l4.08-15.55h-28.44c-1.64,0-3.18,.1-4.64,.26-11.91,1.32-17.72,7.92-17.72,18.4v2.72c0,9.04,3.21,14.97,12.93,18.17l15.35,5.05c2.23,.78,3.01,1.56,3.01,3.69v.87c0,1.85-1.17,3.3-3.89,3.3h-23.34l-4.12,15.55h27.46c14.77,0,22.35-7.29,22.35-19.14v-2.53c0-6.2-2.11-10.83-6.39-14.08-1.75-1.33-3.86-2.44-6.34-3.31l-10.3-3.61-4.96-1.74c-2.33-.78-3.3-1.65-3.3-3.89v-.87c0-1.85,1.17-3.3,3.89-3.3Zm-139.24,28.23l15.39,24.25h-20.94l-12.27-21.13h-5.94v21.13h-18.5V79.94h30.29c15.87,0,24.74,5.8,24.74,20.5v5.75c0,9.06-4.38,14.8-12.76,17.53Zm-5.75-23.28c0-3.21-1.56-5.06-6.53-5.06h-11.49v15.87h11.49c4.97,0,6.53-1.85,6.53-5.06v-5.75Zm203.23,19.15l6.78-24.56,4.41,15.69h18.14l-5.03-16.21h-17.38l4.02-14.58h-16.57l-21.19,68.03h19.05l3.65-13.32h21.86l3.65,13.32h19.43l-8.84-28.38h-31.98Z"/>
        </g>
        <g class="cls-2">
          <g>
            <path class="cls-7" d="M1628.76,59.67c7.41,0,13.36,5.89,13.36,13.22s-5.95,13.22-13.36,13.22-13.36-5.89-13.36-13.22,6.07-13.22,13.36-13.22Zm0-11.29c-13.6,0-24.65,10.93-24.65,24.39s11.05,24.39,24.65,24.39,24.65-10.93,24.65-24.39-10.93-24.39-24.65-24.39Z"/>
            <path class="cls-7" d="M1856.84,59.67c7.41,0,13.36,5.89,13.36,13.22s-5.95,13.22-13.36,13.22-13.36-5.89-13.36-13.22,5.95-13.22,13.36-13.22Zm0-11.29c-13.6,0-24.65,10.93-24.65,24.39s11.05,24.39,24.65,24.39,24.65-10.93,24.65-24.39-11.05-24.39-24.65-24.39Z"/>
            <path class="cls-7" d="M1628.76,125.75c7.41,0,13.36,5.89,13.36,13.22s-5.95,13.22-13.36,13.22-13.36-5.89-13.36-13.22,6.07-13.22,13.36-13.22Zm0-11.29c-13.6,0-24.65,10.93-24.65,24.39s11.05,24.39,24.65,24.39,24.65-10.93,24.65-24.39-10.93-24.39-24.65-24.39Z"/>
            <path class="cls-7" d="M1513.51,73.37l-52.22-29.8c-1.09-.6-2.55-.6-3.64,0l-52.22,29.8c-1.09,.72-1.82,1.92-1.82,3.12v59.71c0,1.32,.73,2.52,1.82,3.12l52.22,29.8c.61,.36,1.21,.48,1.82,.48s1.21-.12,1.82-.48l52.22-29.8c1.09-.6,1.82-1.8,1.82-3.12v-59.71c0-1.2-.73-2.4-1.82-3.12Zm-55.14,50.7l-6.92-3.96v-9.01l-24.78-14.18v27.27l24.65,14.18v-8.41l1.21,.72,5.83,3.36v10.33c0,.24,0,.6-.12,.84q0,.12-.12,.24c-.12,.24-.12,.36-.24,.6,0,.12-.12,.12-.12,.24-.12,.24-.24,.48-.49,.6-.24,.24-.36,.36-.61,.48-.12,0-.12,.12-.24,.12s-.36,.12-.61,.12q-.12,0-.24,.12c-.24,.12-.49,.12-.85,.12-.24,0-.61,0-.85-.12q-.12,0-.24-.12c-.24-.12-.36-.12-.61-.24h-.12l-31.58-18.26c-1.09-.6-1.7-1.8-1.7-3v-35.2c0-1.2,.61-2.4,1.7-3,1.09-.6,2.43-.6,3.52,0l31.58,18.26c1.09,.6,1.7,1.8,1.7,3v14.9h.24Z"/>
            <path class="cls-7" d="M1732.48,55.11c3.28,3.24,4.86,8.05,4.86,14.54v25.95h-12.87v-24.03c0-3.48-.73-6.01-2.18-7.81-1.46-1.68-3.52-2.52-6.2-2.52-3.04,0-5.34,.96-7.16,2.88-1.7,1.92-2.67,4.81-2.67,8.53v22.83h-12.87v-24.03c0-6.85-2.79-10.33-8.38-10.33-2.91,0-5.34,.96-7.04,2.88-1.7,1.92-2.67,4.81-2.67,8.53v22.83h-12.87V50.9h12.27v5.05c1.7-1.8,3.64-3.24,6.07-4.21,2.43-.96,4.98-1.44,7.89-1.44,3.16,0,5.95,.6,8.5,1.8,2.55,1.2,4.5,3,6.07,5.29,1.82-2.28,4.13-4.09,6.92-5.29,2.79-1.2,5.83-1.92,9.11-1.92,5.59,0,9.96,1.68,13.24,4.93Z"/>
            <path class="cls-7" d="M1791.99,72.65v22.83h-12.87v-24.03c0-6.85-2.79-10.33-8.38-10.33-2.91,0-5.34,.96-7.04,2.88-1.7,1.92-2.67,4.81-2.67,8.53v22.83h-12.87V50.9h12.27v5.05c1.7-1.8,3.64-3.24,6.07-4.21,2.43-.96,4.98-1.44,7.89-1.44,3.16,0,5.95,.6,8.5,1.8,2.55,1.2,4.49,3,6.07,5.29,1.82-2.28,4.13-4.09,6.92-5.29,2.79-1.2,5.83-1.92,9.11-1.92,5.59,0,9.96,1.56,13.24,4.81,3.28,3.24,4.86,8.05,4.86,14.54v25.95h-12.87v-24.03c0-3.48-.73-6.01-2.19-7.81-1.46-1.68-3.52-2.52-6.19-2.52-3.04,0-5.34,.96-7.16,2.88-1.82,2.04-2.67,4.93-2.67,8.65Z"/>
            <path class="cls-7" d="M1931.16,55.23c3.4,3.36,5.1,8.29,5.1,14.78v25.59h-13.12v-23.67c0-3.48-.73-6.13-2.31-7.93-1.58-1.68-3.88-2.64-6.8-2.64-3.28,0-5.95,.96-7.89,3-1.94,2.04-2.92,5.05-2.92,9.01v22.11h-13.12V50.9h12.63v5.17c1.7-1.92,3.88-3.36,6.44-4.33,2.55-1.08,5.34-1.56,8.5-1.56,5.59,0,10.08,1.68,13.48,5.05Z"/>
            <path class="cls-7" d="M1811.54,157.83c-3.4-3.36-5.1-8.29-5.1-14.78v-26.31h13.12v24.27c0,3.48,.73,6.13,2.31,7.93,1.58,1.68,3.89,2.64,6.8,2.64,3.28,0,5.95-.96,7.89-3,1.94-2.04,2.91-5.05,2.91-9.01v-22.83h13.12v45.3h-12.51v-5.17c-1.7,1.92-3.88,3.36-6.44,4.33-2.55,1.08-5.34,1.56-8.5,1.56-5.59,0-10.08-1.56-13.6-4.93Z"/>
            <path class="cls-7" d="M1575.57,86.1c-7.41,0-13.36-5.89-13.36-13.22s5.95-13.22,13.36-13.22c4.98,0,9.35,2.76,11.66,6.85l9.96-5.41c-4.13-7.57-12.27-12.62-21.62-12.62-13.6,0-24.65,10.93-24.65,24.39s11.05,24.39,24.65,24.39c9.35,0,17.49-5.17,21.62-12.62l-9.96-5.41c-2.19,4.09-6.56,6.85-11.66,6.85Z"/>
            <path class="cls-7" d="M1732.48,120.59c3.28,3.24,4.86,8.05,4.86,14.54v25.95h-12.87v-24.03c0-3.48-.73-6.01-2.18-7.81-1.46-1.68-3.52-2.52-6.2-2.52-3.04,0-5.34,.96-7.16,2.88-1.7,1.92-2.67,4.81-2.67,8.53v22.83h-12.87v-24.03c0-6.85-2.79-10.33-8.38-10.33-2.91,0-5.34,.96-7.04,2.88-1.7,1.92-2.67,4.81-2.67,8.53v22.83h-12.87v-44.45h12.27v5.05c1.7-1.8,3.64-3.24,6.07-4.21,2.43-.96,4.98-1.44,7.89-1.44,3.16,0,5.95,.6,8.5,1.8,2.55,1.2,4.5,3,6.07,5.29,1.82-2.28,4.13-4.08,6.92-5.29,2.79-1.2,5.83-1.92,9.11-1.92,5.59,0,9.96,1.68,13.24,4.93Z"/>
            <path class="cls-7" d="M1575.57,151.58c-7.41,0-13.36-5.89-13.36-13.22s5.95-13.22,13.36-13.22c4.98,0,9.35,2.76,11.66,6.85l9.96-5.41c-4.13-7.57-12.27-12.62-21.62-12.62-13.6,0-24.65,10.93-24.65,24.39s11.05,24.39,24.65,24.39c9.35,0,17.49-5.17,21.62-12.62l-9.96-5.41c-2.19,4.09-6.56,6.85-11.66,6.85Z"/>
            <path class="cls-7" d="M1773.04,113.86c-4.98,0-9.59,1.44-13.36,3.96v-2.16h-11.29v61.88h11.29v-18.62c3.89,2.52,8.5,3.96,13.36,3.96,13.6,0,24.65-10.93,24.65-24.39s-11.05-24.63-24.65-24.63Zm0,37.73c-7.41,0-13.36-5.89-13.36-13.22s5.95-13.22,13.36-13.22,13.36,5.89,13.36,13.22c-.12,7.21-6.07,13.22-13.36,13.22Z"/>
            <path class="cls-7" d="M1890.48,117.82h-10.2v-9.97h-11.9v9.97h-7.53v10.81h7.53v34.12h11.9v-34.12h10.2v-10.81Z"/>
            <path class="cls-7" d="M1944.52,133.2c-2.43-10.93-12.14-19.1-23.93-19.1-13.48,0-24.53,10.81-24.53,24.27s10.93,24.27,24.53,24.27c9.48,0,17.98-5.05,22.23-12.14l-10.32-4.81c-2.43,3.36-6.92,5.77-11.78,5.77-5.95,0-11.05-3.96-12.63-9.37h36.92c.12-1.2,.24-2.4,.24-3.6-.12-1.92-.36-3.6-.73-5.29Zm-35.95,0c2.06-4.57,6.68-7.81,12.02-7.81s10.08,3.24,12.02,7.81h-24.05Z"/>
            <path class="cls-7" d="M1971.73,118.42c2.55-1.08,5.59-1.56,8.86-1.56v11.53c-1.46-.12-2.31-.12-2.79-.12-3.64,0-6.44,1.2-8.5,3.24-2.06,2.04-3.04,5.05-3.04,9.01v20.06h-12.63v-43.13h12.14v5.77c1.34-2.16,3.4-3.72,5.95-4.81Z"/>
          </g>
        </g>
      </g>
    </g>
  </g>
</svg>