<?xml version="1.0" encoding="UTF-8"?>
<svg id="Layer_2" data-name="Layer 2" xmlns="http://www.w3.org/2000/svg" viewBox="0 0 468.2 161.33">
  <defs>
    <style>
      .cls-1 {
        fill: #00448d;
      }

      .cls-2 {
        fill: #e60013;
      }

      .cls-3 {
        fill: #fff;
      }
    </style>
  </defs>
  <g id="_레이어_1" data-name="레이어 1">
    <g id="_후원" data-name="후원">
      <g>
        <g>
          <path class="cls-3" d="M186.7,61.74h-24.85v.64c0,2.84-.93,5.56-2.07,8.54,0,0-22.1,56.41-22.94,58.59-.91-2.14-25.99-60.99-25.99-60.99l-.42-.94c-.76-1.68-1.52-3.41-1.52-5.19v-.51l-.49-.13h-26.98v1.24l.32,.15c5.13,1.87,5.88,8.69,5.88,12.61v59c-.01,6.84-.75,14.49-6.28,19.34l-.16,.17v1.12h23.93v-1.23l-.3-.15c-5.24-2.33-5.67-8.25-5.67-13.89v-3.39s.05-53.6,.05-58.1c1.75,4.18,25.79,61.27,25.79,61.27,3.5,8.11,5.6,11.94,12.56,17.23l.52,.4s29.03-74.25,30.82-78.86c0,4.84-.02,65.25-.02,65.25,0,4.36-.66,8.6-5.41,10.1l-.36,.1v1.28h26.91v-1.18l-.21-.15c-4.82-3.36-6.97-7.66-6.97-13.94V70.95c0-1.55,.3-6.73,4.03-7.81l.35-.12v-1.28h-.5Z"/>
          <g>
            <path class="cls-2" d="M206.16,112.28c0-25.83,20.95-46.79,46.83-46.79,13.33,0,25.34,5.59,33.86,14.56-9.36-14.28-25.5-23.7-43.89-23.7-29,0-52.49,23.48-52.49,52.49s23.49,52.49,52.49,52.49c5.88,0,11.53-1.03,16.8-2.79-2.23,.33-4.46,.55-6.77,.55-25.88,0-46.83-20.95-46.83-46.81Z"/>
            <path class="cls-2" d="M256.2,71.21c-16.17-1.49-30.98,6.71-38.82,19.75,7.28-8.39,18.33-13.34,30.25-12.24,19.63,1.78,34.1,19.16,32.3,38.76-1.79,19.64-19.15,34.1-38.81,32.31-2.69-.24-5.33-.82-7.82-1.64,4.65,2.47,9.87,4.08,15.45,4.61,22.52,2.03,42.45-14.54,44.5-37.07,2.08-22.5-14.52-42.43-37.05-44.48Z"/>
          </g>
          <path class="cls-3" d="M344.16,100.84c8.84-4.21,13.2-10.17,13.2-18.21,0-13.07-11.19-20.9-29.91-20.9h-33.86v1.24l.31,.15c6.12,2.26,5.98,10.62,5.9,16.75l-.02,2.07v53.06l.02,1.93c.07,6.24,.16,14.76-5.91,17.06l-.3,.12v1.27h26.07c9.93,.04,20.18,.05,29.4-4.41,10.45-5,17.16-14.84,17.16-25.1,0-12.24-8.43-21.68-22.05-25.03Zm-29.05-28.45c.81-.08,9-.95,9-.95,4.77-.48,9.53,1,12.78,3.91,2.69,2.44,4.12,5.77,4.12,9.57,0,13.45-18.12,14.12-21.75,14.12h-4.15v-26.65Zm29.46,67.01c-4.16,3.78-10.59,5.54-17.62,4.86,0,0-9.75-.9-11.83-1.08v-33.88c.86-.04,9.38-.53,9.38-.53,7.99-.44,15.46,1.85,20.01,6.15,3.4,3.2,5.11,7.32,5.11,12.22s-1.7,9.24-5.05,12.25Z"/>
          <path class="cls-3" d="M396.53,61.74h-27.26v1.24l.33,.15c6.1,2.26,5.98,10.68,5.9,16.83l-.02,2.13v53.09l.02,1.86c.06,6.23,.17,14.78-5.9,16.95l-.33,.12v1.27h27.76v-1.27l-.34-.12c-6.06-2.3-5.95-10.76-5.89-16.95l.02-1.86v-53.09l-.02-1.87c-.06-6.25-.17-14.79,5.89-17.11l.34-.13v-1.24h-.49Z"/>
          <path class="cls-3" d="M402.73,84.5c0,16.37,14.49,22.84,27.29,28.59,10.87,4.84,21.14,9.46,21.14,19.28,0,9.22-11.4,14.15-19.63,14.15-10.75,0-22.14-4.34-30.53-11.57l-1.14-.99,4.47,19.33,.26,.09c7.67,2.83,16.19,4.27,25.37,4.27,21.09,0,38.23-13.31,38.23-29.64,0-14.33-14.47-20.94-27.24-26.77-10.9-4.97-21.21-9.68-21.21-18.29,0-9.1,9.51-12.32,17.67-12.32s16.58,3.41,21.76,8.71l.83,.88v-17.51l-.33-.1c-6.62-2.07-13.74-3.13-21.12-3.13-16.56,0-35.85,6.54-35.85,25.02Z"/>
        </g>
        <g>
          <polygon class="cls-1" points="28.24 16.07 9.02 16.07 9.02 0 0 0 0 41.17 9.02 41.17 9.02 24.11 28.24 24.11 28.24 41.17 37.26 41.17 37.26 0 28.24 0 28.24 16.07"/>
          <path class="cls-1" d="M224.17,2.35c-1.89,1.92-1.96,4.76-2.02,6.41V41.17h9.02v-13.14h19.14v13.14h9.04V0h-28.12c-2.66,.03-5.18,.41-7.06,2.35Zm9.29,5.69h16.85v11.95h-19.14V10.39c.04-.47-.06-1.33,.34-1.84,.43-.54,1.1-.48,1.95-.52Z"/>
          <path class="cls-1" d="M160.35,0h-28.17V41.17h9.03V8.04h16.92c.84,.03,1.53-.02,1.94,.52,.41,.51,.34,1.37,.35,1.84v30.77h9.02V8.76c-.05-1.65-.11-4.48-2.01-6.41-1.89-1.94-4.39-2.32-7.08-2.35Z"/>
          <path class="cls-1" d="M115.18,30.77c-.02,.48,.06,1.32-.35,1.82-.42,.55-1.11,.5-1.95,.52h-16.91V0h-9.02V41.17h28.17c2.68-.03,5.18-.43,7.06-2.36,1.89-1.93,1.96-4.75,2.02-6.4V0h-9.02V30.77Z"/>
          <path class="cls-1" d="M214.67,8.76c-.04-1.65-.11-4.48-2-6.41-1.88-1.94-4.39-2.32-7.06-2.35h-28.18V41.17h28.18c2.67-.03,5.18-.43,7.06-2.36,1.89-1.93,1.96-4.75,2-6.4V8.76Zm-8.98,22.01c-.04,.48,.05,1.32-.35,1.82-.43,.55-1.11,.5-1.96,.52h-16.93V8.04h16.93c.85,.03,1.53-.02,1.96,.52,.4,.51,.31,1.37,.35,1.84V30.77Z"/>
          <polygon class="cls-1" points="62.1 18.01 51.17 0 40.46 0 57.28 25.95 57.28 41.17 66.92 41.17 66.92 25.95 83.77 0 73.04 0 62.1 18.01"/>
          <rect class="cls-1" x="268.4" width="9.62" height="41.17"/>
        </g>
      </g>
    </g>
  </g>
</svg>