<svg xmlns="http://www.w3.org/2000/svg" viewBox="0 0 291.19 291.19"><g data-name="레이어 2"><g data-name="레이어 1"><path d="M232.31 93.25C232.31 35.46 189.62 0 145.59 0S58.88 35.46 58.88 93.25c0 50.65 47.92 101.29 74.69 115.59l-4.29 4.3a9.47 9.47 0 0 0 6.7 16.17h2.09c.86 14.38 10.73 49.2 32.69 61a7.5 7.5 0 0 0 7.09-13.22c-15.32-8.22-23.78-36.61-24.76-47.77h2a9.47 9.47 0 0 0 6.7-16.17l-4.25-4.25c26.74-14.25 74.77-64.9 74.77-115.65zm-61.18-60.34a7.5 7.5 0 0 1 6.47-13.53c11.52 5.51 28.65 21.45 33.46 33.74a7.5 7.5 0 0 1-14 5.47c-3.01-7.78-16.6-21.22-25.93-25.68z" fill="#9b0005"/><path fill="none" d="M0 0h291.19v291.19H0z"/></g></g></svg>