<?xml version="1.0" standalone="no"?>
<!DOCTYPE svg PUBLIC "-//W3C//DTD SVG 1.1//EN" "http://www.w3.org/Graphics/SVG/1.1/DTD/svg11.dtd" >
<svg xmlns="http://www.w3.org/2000/svg" xmlns:xlink="http://www.w3.org/1999/xlink" version="1.1">
<metadata>
Created by FontForge 20170731 at Sun Mar 12 20:15:03 2017
 By Aleksey,,,
Copyright (c) 2016 by Chris Simpson.
</metadata>
<defs>
<font id="Metropolis-SemiBoldItalic" horiz-adv-x="606" >
  <font-face 
    font-family="Metropolis Semi Bold"
    font-weight="600"
    font-style="italic"
    font-stretch="normal"
    units-per-em="1000"
    panose-1="0 0 7 0 0 0 0 0 0 0"
    ascent="795"
    descent="-205"
    x-height="517"
    cap-height="687"
    bbox="-298 -289 1150 974"
    underline-thickness="20"
    underline-position="-173"
    slope="-11.75"
    unicode-range="U+0020-2212"
  />
<missing-glyph horiz-adv-x="500" 
d="M410 795v-1000h-317v1000h317zM333 728h-165v-33h65v-37h-66v-33h166v33h-66v37h66v33zM267 599h-100v-104h166v34h-66v70zM233 565v-36h-33v36h33zM333 468h-166v-33h66v-37h-66v-33h100v70h66v33zM333 408h-33v-66h-133v-34h166v100zM333 286h-100v-56h34v23h33v-47
h-100v80h-33v-113h166v113zM333 113h-166v-113h166v113zM300 80v-47h-100v47h100zM333 -23h-166v-33h70l-70 -47v-33h166v33h-102l70 47h32v33z" />
    <glyph glyph-name=".notdef" horiz-adv-x="500" 
d="M410 795v-1000h-317v1000h317zM333 728h-165v-33h65v-37h-66v-33h166v33h-66v37h66v33zM267 599h-100v-104h166v34h-66v70zM233 565v-36h-33v36h33zM333 468h-166v-33h66v-37h-66v-33h100v70h66v33zM333 408h-33v-66h-133v-34h166v100zM333 286h-100v-56h34v23h33v-47
h-100v80h-33v-113h166v113zM333 113h-166v-113h166v113zM300 80v-47h-100v47h100zM333 -23h-166v-33h70l-70 -47v-33h166v33h-102l70 47h32v33z" />
    <glyph glyph-name=".null" horiz-adv-x="0" 
 />
    <glyph glyph-name="nonmarkingreturn" horiz-adv-x="333" 
 />
    <glyph glyph-name="space" unicode=" " horiz-adv-x="283" 
 />
    <glyph glyph-name="exclam" unicode="!" horiz-adv-x="294" 
d="M96 225l67 462h141l-124 -462h-84zM101 -12q-32 0 -51.5 20t-19.5 51q0 36 26.5 61t60.5 25q30 0 49.5 -20t19.5 -49q0 -35 -26 -61.5t-59 -26.5z" />
    <glyph glyph-name="quotedbl" unicode="&#x22;" horiz-adv-x="482" 
d="M134 405q-5 101 -3 139q5 143 89 143q23 0 38 -15.5t15 -38.5q0 -38 -85 -228h-54zM355 405q-5 101 -3 139q6 143 89 143q23 0 38 -15.5t15 -38.5q0 -38 -85 -228h-54z" />
    <glyph glyph-name="numbersign" unicode="#" horiz-adv-x="677" 
d="M655 429h-104l-79 -173h104l-42 -90h-104l-76 -166h-95l76 166h-125l-76 -166h-96l76 166h-100l42 90h100l79 173h-102l41 90h103l77 168h96l-77 -168h125l77 168h95l-77 -168h104zM377 256l79 173h-125l-79 -173h125z" />
    <glyph glyph-name="dollar" unicode="$" horiz-adv-x="627" 
d="M384 396q102 -26 145.5 -63.5t43.5 -103.5q0 -101 -77 -166.5t-197 -72.5l-13 -64h-91l14 68q-135 24 -210 110l85 81q59 -65 147 -83l42 199q-88 25 -129 60t-41 98q0 96 69.5 162.5t182.5 76.5l13 61h91l-13 -64q113 -19 187 -95l-81 -85q-51 54 -129 73zM230 480
q0 -19 16 -33t52 -27l35 168q-48 -10 -75.5 -39.5t-27.5 -68.5zM322 99q56 8 89.5 39t33.5 73q0 23 -19.5 38t-66.5 29z" />
    <glyph glyph-name="percent" unicode="%" horiz-adv-x="823" 
d="M234 345q-66 0 -104 39t-38 101q0 84 58 146t140 62q67 0 104.5 -39.5t37.5 -101.5q0 -84 -58 -145.5t-140 -61.5zM73 0l618 687h95l-617 -687h-96zM233 420q46 0 80 41.5t34 91.5q0 30 -15 47.5t-42 17.5q-47 0 -80.5 -43t-33.5 -91q0 -29 15.5 -46.5t41.5 -17.5z
M567 -10q-66 0 -104.5 39t-38.5 102q0 83 58.5 145.5t140.5 62.5q66 0 103.5 -40t37.5 -102q0 -83 -58 -145t-139 -62zM566 65q47 0 81 42.5t34 91.5q0 30 -16 47t-42 17q-47 0 -80.5 -41.5t-33.5 -92.5q0 -30 15 -47t42 -17z" />
    <glyph glyph-name="ampersand" unicode="&#x26;" horiz-adv-x="674" 
d="M642 308q-67 -98 -132 -166q67 -88 85 -112l-107 -40q-28 37 -58 79q-104 -81 -219 -81q-88 0 -142 43.5t-54 118.5q0 86 52 142.5t148 96.5q-30 57 -30 100q0 89 65 147.5t154 58.5q71 0 114 -40t43 -103q0 -74 -49.5 -117.5t-152.5 -86.5q30 -44 93 -129q60 67 104 141
zM403 604q-44 0 -77 -32t-33 -76q0 -35 19 -73q71 25 107 53t36 76q0 23 -14 37.5t-38 14.5zM227 85q69 0 148 61q-72 100 -112 164q-127 -58 -127 -149q0 -36 25.5 -56t65.5 -20z" />
    <glyph glyph-name="quotesingle" unicode="'" horiz-adv-x="261" 
d="M134 405q-5 101 -3 139q5 143 89 143q23 0 38 -15.5t15 -38.5q0 -38 -85 -228h-54z" />
    <glyph glyph-name="parenleft" unicode="(" horiz-adv-x="378" 
d="M189 -167q-143 129 -143 327q0 159 85.5 303t229.5 240l56 -72q-251 -212 -251 -483q0 -136 94 -254z" />
    <glyph glyph-name="parenright" unicode=")" horiz-adv-x="377" 
d="M19 -173l-55 73q250 212 250 483q0 134 -93 254l71 60q142 -128 142 -326q0 -159 -85.5 -303.5t-229.5 -240.5z" />
    <glyph glyph-name="asterisk" unicode="*" horiz-adv-x="401" 
d="M221 356q-14 0 -22 9t-6 21q4 21 21.5 62.5t22.5 55.5q-13 -8 -50 -36t-58 -39q-12 -7 -24 -3t-16 17q-4 12 1.5 25t17.5 19q21 11 64 24t56 18q-9 4 -47.5 18t-55.5 25q-9 6 -9.5 18.5t8.5 25.5q10 12 24 16t23 -2q17 -11 43 -40t33 -36q1 13 1 59t5 59q2 12 14 21t25 9
q14 0 22 -9t6 -21q-5 -22 -24 -67t-21 -51q12 8 50 36t59 39q11 7 23.5 3t16.5 -17q4 -12 -1.5 -25t-17.5 -19q-21 -11 -64 -24t-56 -18q10 -5 48 -18.5t55 -24.5q9 -6 9.5 -18.5t-8.5 -25.5q-10 -12 -24 -16t-23 2q-17 11 -42.5 39.5t-34.5 36.5q0 -7 0.5 -59t-4.5 -59
q-2 -12 -14 -21t-26 -9z" />
    <glyph glyph-name="plus" unicode="+" horiz-adv-x="600" 
d="M564 386l-22 -104h-182l-39 -185h-109l39 185h-184l22 104h183l39 186h109l-39 -186h183z" />
    <glyph glyph-name="comma" unicode="," horiz-adv-x="289" 
d="M50 -145l-46 42q51 43 83 96q-27 0 -44.5 18t-17.5 47q0 36 26 61.5t60 25.5q33 0 52 -23t19 -62q0 -53 -35 -102t-97 -103z" />
    <glyph glyph-name="hyphen" unicode="-" horiz-adv-x="368" 
d="M41 221l23 107h269l-23 -107h-269z" />
    <glyph glyph-name="period" unicode="." horiz-adv-x="276" 
d="M92 -12q-32 0 -51.5 20t-19.5 51q0 36 26.5 61t60.5 25q30 0 49.5 -20t19.5 -49q0 -35 -26 -61.5t-59 -26.5z" />
    <glyph glyph-name="slash" unicode="/" horiz-adv-x="449" 
d="M-90 -74l516 817h134l-516 -817h-134z" />
    <glyph glyph-name="zero" unicode="0" horiz-adv-x="702" 
d="M302 -12q-112 0 -177.5 72.5t-65.5 194.5q0 112 48 213.5t135.5 166t191.5 64.5q112 0 178 -72.5t66 -193.5q0 -113 -47.5 -214.5t-135.5 -166t-193 -64.5zM310 102q67 0 124 50.5t87.5 125.5t30.5 150q0 73 -33 115t-92 42q-67 0 -124 -50.5t-87.5 -125t-30.5 -149.5
q0 -73 33 -115.5t92 -42.5z" />
    <glyph glyph-name="one" unicode="1" horiz-adv-x="393" 
d="M132 0l114 543l-132 -75l-34 88l219 131h100l-143 -687h-124z" />
    <glyph glyph-name="two" unicode="2" 
d="M-5 0l19 102l293 205q162 112 162 204q0 36 -25.5 56t-65.5 20q-97 0 -199 -100l-70 83q126 129 279 129q93 0 150.5 -49t57.5 -128q0 -87 -55.5 -156.5t-157.5 -138.5l-170 -113h309l-24 -114h-503z" />
    <glyph glyph-name="three" unicode="3" horiz-adv-x="598" 
d="M248 -12q-88 0 -151 32.5t-98 86.5l87 76q58 -84 164 -84q68 0 117.5 37t49.5 91q0 66 -129 66l-81 -1l22 108h73q66 -1 112.5 31t48.5 83q1 34 -26.5 53.5t-76.5 19.5q-93 0 -190 -88l-63 82q118 118 270 118q99 0 157 -44t58 -116q0 -70 -45.5 -119t-120.5 -70
q48 -11 81 -45.5t33 -88.5q0 -100 -86.5 -164t-205.5 -64z" />
    <glyph glyph-name="four" unicode="4" horiz-adv-x="640" 
d="M327 0l31 149h-337l6 97l417 441h150l-89 -431h95l-22 -107h-95l-32 -149h-124zM165 256h216l63 295z" />
    <glyph glyph-name="five" unicode="5" horiz-adv-x="611" 
d="M251 -12q-157 0 -242 109l88 83q66 -84 162 -84q70 0 122.5 46t52.5 107q0 39 -29 62t-80 23q-76 0 -155 -51l-80 39l85 365h439l-23 -114h-323l-45 -175q64 40 142 40q86 0 140 -46t54 -127q0 -120 -89.5 -198.5t-218.5 -78.5z" />
    <glyph glyph-name="six" unicode="6" horiz-adv-x="637" 
d="M385 439q87 0 142.5 -47t55.5 -128q0 -116 -89 -196t-211 -80q-116 0 -173 63.5t-57 174.5q0 119 49 227.5t138 177t196 68.5q117 0 195 -80l-74 -89q-56 59 -128 59q-75 0 -135.5 -62.5t-91.5 -157.5q79 70 183 70zM283 94q68 0 120.5 48t52.5 109q0 40 -30.5 63
t-78.5 23q-53 0 -99 -29t-71 -76v-12q0 -126 106 -126z" />
    <glyph glyph-name="seven" unicode="7" horiz-adv-x="604" 
d="M67 0l399 573h-349l23 114h496l-18 -94l-407 -593h-144z" />
    <glyph glyph-name="eight" unicode="8" horiz-adv-x="619" 
d="M261 -12q-105 0 -171 45t-66 122q0 72 49.5 124.5t129.5 79.5q-92 41 -92 129q0 96 85.5 153.5t195.5 57.5q96 0 159.5 -43.5t63.5 -116.5q0 -128 -159 -188q49 -20 78 -57t29 -86q0 -100 -90 -160t-212 -60zM330 400q59 3 109.5 38.5t50.5 83.5q0 32 -28.5 51.5
t-74.5 19.5q-61 0 -109 -35.5t-48 -84.5q0 -33 30 -51.5t70 -21.5zM267 95q67 0 120.5 36t53.5 88q0 35 -35.5 57t-79.5 24q-63 -2 -119 -40.5t-56 -90.5q0 -34 32 -54t84 -20z" />
    <glyph glyph-name="nine" unicode="9" horiz-adv-x="638" 
d="M390 699q116 0 173 -63.5t57 -174.5q0 -119 -49 -227.5t-138 -177t-196 -68.5q-117 0 -195 80l74 89q56 -59 128 -59q75 0 135.5 62.5t91.5 157.5q-79 -70 -183 -70q-87 0 -142.5 47t-55.5 128q0 116 89 196t211 80zM326 350q53 0 99 29t71 76v12q0 126 -106 126
q-68 0 -120.5 -48t-52.5 -109q0 -40 30.5 -63t78.5 -23z" />
    <glyph glyph-name="colon" unicode=":" horiz-adv-x="277" 
d="M171 367q-32 0 -51.5 20t-19.5 51q0 36 26.5 61t60.5 25q30 0 49.5 -20t19.5 -50q0 -34 -26 -60.5t-59 -26.5zM92 -12q-32 0 -51.5 20t-19.5 51q0 36 26.5 61t61.5 25q30 0 49 -20t19 -49q0 -35 -26 -61.5t-59 -26.5z" />
    <glyph glyph-name="semicolon" unicode=";" horiz-adv-x="291" 
d="M182 403q-32 0 -51.5 20t-19.5 51q0 36 26.5 61t60.5 25q30 0 49.5 -20t19.5 -49q0 -35 -26 -61.5t-59 -26.5zM52 -145l-46 42q51 43 83 96q-27 0 -44.5 18t-17.5 47q0 36 26 61.5t60 25.5q33 0 52 -23t19 -62q0 -53 -35 -102t-97 -103z" />
    <glyph glyph-name="less" unicode="&#x3c;" horiz-adv-x="592" 
d="M483 84l-419 211l19 97l507 211l-20 -102l-395 -157l328 -157z" />
    <glyph glyph-name="equal" unicode="=" horiz-adv-x="600" 
d="M91 397l22 104h475l-22 -104h-475zM44 171l22 104h475l-22 -104h-475z" />
    <glyph glyph-name="greater" unicode="&#x3e;" horiz-adv-x="591" 
d="M37 84l21 103l394 157l-328 157l20 102l419 -211l-19 -97z" />
    <glyph glyph-name="question" unicode="?" horiz-adv-x="508" 
d="M166 221l34 173q77 4 139 38.5t62 84.5q0 32 -23 51t-65 19q-83 0 -161 -76l-63 81q114 107 248 107q88 0 139.5 -44.5t51.5 -116.5q0 -83 -65.5 -145t-157.5 -82l-19 -90h-120zM196 -12q-32 0 -51.5 20t-19.5 51q0 36 26.5 61t60.5 25q30 0 49.5 -20t19.5 -49
q0 -35 -26 -61.5t-59 -26.5z" />
    <glyph glyph-name="at" unicode="@" horiz-adv-x="881" 
d="M347 -116q-137 0 -224 85t-87 215q0 122 74.5 237t193.5 184.5t245 69.5q137 0 223 -81.5t86 -202.5q0 -119 -75.5 -217.5t-178.5 -98.5q-97 0 -104 82q-79 -81 -169 -81q-63 0 -99.5 36t-36.5 97q0 107 90.5 201t193.5 94q92 0 118 -74l25 60l101 -8
q-14 -35 -35.5 -86.5t-32.5 -78t-23 -58t-17 -49t-5 -27.5q0 -43 48 -43q66 0 112.5 80t46.5 166q0 109 -77 180t-201 71q-115 0 -222.5 -64t-173.5 -168t-66 -215q0 -116 78 -192.5t203 -76.5q112 0 227 61l14 -29q-125 -69 -252 -69zM383 163q66 0 118.5 60.5t52.5 127.5
q0 66 -72 66q-66 0 -120.5 -57.5t-54.5 -124.5q0 -34 20 -53t56 -19z" />
    <glyph glyph-name="A" unicode="A" horiz-adv-x="763" 
d="M554 0l-28 130h-328l-81 -130h-141l430 687h141l-1 -2l143 -685h-135zM262 232h243l-62 289z" />
    <glyph glyph-name="B" unicode="B" horiz-adv-x="694" 
d="M26 0l143 687h334q76 0 124 -40.5t48 -104.5q0 -57 -35 -105.5t-96 -77.5q41 -22 66.5 -61t25.5 -82q0 -92 -75 -154t-180 -62h-355zM235 406h178q55 0 93.5 32.5t38.5 78.5q-1 29 -24 45.5t-63 16.5h-187zM173 108h197q60 0 102.5 36.5t42.5 88.5q0 32 -26 51.5
t-70 19.5h-205z" />
    <glyph glyph-name="C" unicode="C" horiz-adv-x="694" 
d="M356 -12q-122 0 -209.5 88t-87.5 211q0 108 59.5 203.5t160 152t213.5 56.5q70 0 135.5 -32t105.5 -83l-101 -75q-23 34 -65 55t-88 21q-118 0 -206.5 -89t-88.5 -207q0 -78 55.5 -132.5t130.5 -54.5q44 0 97 23t92 60l76 -89q-56 -47 -134 -77.5t-145 -30.5z" />
    <glyph glyph-name="D" unicode="D" horiz-adv-x="762" 
d="M26 0l143 687h238q144 0 235 -78t91 -201q0 -109 -62.5 -203t-168.5 -149.5t-229 -55.5h-247zM175 113h125q125 0 216 86t91 204q0 75 -56.5 123t-145.5 48h-134z" />
    <glyph glyph-name="E" unicode="E" horiz-adv-x="637" 
d="M654 573h-393l-32 -166h353l-23 -114h-356l-35 -179h390l-24 -114h-517l143 687h517z" />
    <glyph glyph-name="F" unicode="F" horiz-adv-x="626" 
d="M654 573h-393l-34 -174h353l-23 -114h-356l-59 -285h-125l143 687h517z" />
    <glyph glyph-name="G" unicode="G" horiz-adv-x="741" 
d="M388 273l21 101h294l-58 -278q-59 -50 -137 -79t-149 -29q-126 0 -213.5 86.5t-87.5 209.5q0 82 36.5 159t96.5 133t141 89.5t165 33.5q72 0 139 -31.5t107 -83.5l-101 -75q-24 35 -67.5 55.5t-91.5 20.5q-119 0 -209 -90.5t-90 -208.5q0 -76 55 -130t133 -54
q80 0 164 57l23 114h-171z" />
    <glyph glyph-name="H" unicode="H" horiz-adv-x="735" 
d="M628 687h125l-143 -687h-124l59 293h-343l-60 -293h-125l143 687h125l-57 -280h344z" />
    <glyph glyph-name="I" unicode="I" horiz-adv-x="270" 
d="M19 0l143 687h124l-143 -687h-124z" />
    <glyph glyph-name="J" unicode="J" horiz-adv-x="542" 
d="M188 -12q-65 0 -121.5 33.5t-81.5 84.5l97 74q10 -35 40.5 -57t68.5 -22q53 0 95.5 39t54.5 97l93 450h124l-97 -468q-22 -103 -98 -167t-175 -64z" />
    <glyph glyph-name="K" unicode="K" horiz-adv-x="682" 
d="M25 0l143 687h125l-69 -325l363 325h162l-341 -305l212 -382h-147l-165 296l-116 -100l-42 -196h-125z" />
    <glyph glyph-name="L" unicode="L" horiz-adv-x="572" 
d="M161 114h351l-24 -114h-477l143 687h124z" />
    <glyph glyph-name="M" unicode="M" horiz-adv-x="863" 
d="M26 0l143 687h123l139 -419l315 419h125l-143 -687h-124l97 459l-312 -419l-141 419l-97 -459h-125z" />
    <glyph glyph-name="N" unicode="N" horiz-adv-x="772" 
d="M26 0l143 687h123l263 -483l102 483h124l-143 -687h-122l-263 483l-102 -483h-125z" />
    <glyph glyph-name="O" unicode="O" horiz-adv-x="810" 
d="M355 -12q-125 0 -211.5 86t-86.5 208q0 168 131.5 292.5t303.5 124.5q129 0 213 -84t84 -209q0 -110 -61 -207t-161 -154t-212 -57zM368 102q118 0 207 92t89 207q0 79 -52 131.5t-133 52.5q-117 0 -206.5 -90t-89.5 -207q0 -77 54 -131.5t131 -54.5z" />
    <glyph glyph-name="P" unicode="P" horiz-adv-x="654" 
d="M17 0l143 687h295q96 0 156.5 -53.5t60.5 -138.5q0 -110 -90 -187t-217 -77h-174l-49 -231h-125zM214 346h163q67 0 118 43t51 99q0 38 -32.5 61t-84.5 23h-168z" />
    <glyph glyph-name="Q" unicode="Q" horiz-adv-x="812" 
d="M789 406q0 -157 -116 -278l52 -55l-76 -73l-58 60q-110 -72 -236 -72q-125 0 -211.5 86t-86.5 208q0 168 131.5 292.5t303.5 124.5q129 0 213 -84t84 -209zM368 102q75 0 144 42l-79 82l76 73l83 -86q72 87 72 188q0 79 -52 131.5t-133 52.5q-117 0 -206.5 -90
t-89.5 -207q0 -77 54 -131.5t131 -54.5z" />
    <glyph glyph-name="R" unicode="R" horiz-adv-x="678" 
d="M672 495q0 -89 -60 -158t-155 -94l147 -243h-138l-141 231h-134l-49 -231h-125l143 687h295q96 0 156.5 -53.5t60.5 -138.5zM261 572l-47 -226h163q67 0 118 43t51 99q0 38 -32.5 61t-84.5 23h-168z" />
    <glyph glyph-name="S" unicode="S" horiz-adv-x="627" 
d="M274 -11q-80 0 -155 31.5t-120 83.5l85 81q37 -41 91.5 -65t107.5 -24q73 0 117.5 33t44.5 82q0 27 -29 44t-103 36q-111 27 -160.5 63t-49.5 105q0 104 80.5 172.5t207.5 68.5q67 0 132 -27t110 -73l-81 -85q-34 36 -82.5 57t-90.5 21q-67 0 -108 -32.5t-41 -80.5
q0 -26 30 -43.5t104 -35.5q113 -27 161 -65t48 -107q0 -106 -84.5 -173t-214.5 -67z" />
    <glyph glyph-name="T" unicode="T" horiz-adv-x="636" 
d="M202 0l120 573h-220l23 114h564l-23 -114h-220l-120 -573h-124z" />
    <glyph glyph-name="U" unicode="U" horiz-adv-x="752" 
d="M325 -12q-135 0 -203.5 87.5t-40.5 222.5l81 389h124l-82 -395q-17 -85 20 -138t114 -53q81 0 144.5 57t81.5 144l79 385h125l-83 -399q-28 -133 -128 -216.5t-232 -83.5z" />
    <glyph glyph-name="V" unicode="V" horiz-adv-x="753" 
d="M681 687h141l-430 -687h-141l1 2l-143 685h135l111 -521z" />
    <glyph glyph-name="W" unicode="W" horiz-adv-x="1079" 
d="M189 0l-75 687h135l44 -492l266 492h136l58 -492l251 492h139l-360 -687h-125l-64 510l-281 -510h-124z" />
    <glyph glyph-name="X" unicode="X" horiz-adv-x="715" 
d="M780 687l-331 -348l181 -339h-143l-130 243l-232 -243h-155l331 348l-181 339h143l130 -243l232 243h155z" />
    <glyph glyph-name="Y" unicode="Y" horiz-adv-x="686" 
d="M224 0l56 258l-183 429h120l139 -321l266 321h145l-360 -429l-56 -258h-127z" />
    <glyph glyph-name="Z" unicode="Z" horiz-adv-x="651" 
d="M0 0l17 95l478 478h-370l24 114h542l-19 -95l-477 -478h381l-24 -114h-552z" />
    <glyph glyph-name="bracketleft" unicode="[" horiz-adv-x="380" 
d="M-7 -133l177 849h259l-17 -83h-161l-143 -683h161l-16 -83h-260z" />
    <glyph glyph-name="backslash" unicode="\" horiz-adv-x="443" 
d="M267 -74l-176 817h128l177 -817h-129z" />
    <glyph glyph-name="bracketright" unicode="]" horiz-adv-x="379" 
d="M-36 -133l17 83h161l142 683h-161l17 83h260l-176 -849h-260z" />
    <glyph glyph-name="asciicircum" unicode="^" horiz-adv-x="488" 
d="M79 413l211 274h87l97 -274h-88l-65 195l-149 -195h-93z" />
    <glyph glyph-name="underscore" unicode="_" horiz-adv-x="592" 
d="M-87 -149l17 80h596l-17 -80h-596z" />
    <glyph glyph-name="grave" unicode="`" horiz-adv-x="354" 
d="M275 575l-119 130l115 22l86 -152h-82z" />
    <glyph glyph-name="a" unicode="a" horiz-adv-x="654" 
d="M516 517h122l-108 -517h-122l16 77q-81 -89 -190 -89q-84 0 -140 60t-56 148q0 134 87.5 233.5t210.5 99.5q53 0 95.5 -28.5t64.5 -77.5zM270 92q80 0 138.5 65.5t58.5 152.5q0 48 -34.5 81.5t-83.5 33.5q-77 0 -134 -65t-57 -152q0 -49 32 -82.5t80 -33.5z" />
    <glyph glyph-name="b" unicode="b" horiz-adv-x="655" 
d="M421 529q84 0 140 -59.5t56 -147.5q0 -135 -87.5 -234.5t-210.5 -99.5q-53 0 -95.5 29t-64.5 78l-20 -95h-122l145 699h122l-54 -260q82 90 191 90zM306 92q77 0 134 65t57 152q0 49 -32 82.5t-80 33.5q-80 0 -138.5 -65.5t-58.5 -152.5q0 -48 34 -81.5t84 -33.5z" />
    <glyph glyph-name="c" unicode="c" horiz-adv-x="549" 
d="M265 -12q-96 0 -162.5 66.5t-66.5 159.5q0 128 100.5 221.5t231.5 93.5q55 0 103.5 -24t79.5 -64l-92 -65q-15 22 -44 35.5t-59 13.5q-80 0 -140 -63t-60 -144q0 -52 35.5 -89t85.5 -37q71 0 132 58l72 -79q-95 -83 -216 -83z" />
    <glyph glyph-name="d" unicode="d" horiz-adv-x="655" 
d="M553 699h122l-145 -699h-122l16 77q-81 -89 -190 -89q-84 0 -140 60t-56 148q0 134 87.5 233.5t210.5 99.5q52 0 94.5 -28.5t65.5 -76.5zM270 92q80 0 138.5 65.5t58.5 152.5q0 48 -34.5 81.5t-83.5 33.5q-77 0 -134 -65t-57 -152q0 -49 32 -82.5t80 -33.5z" />
    <glyph glyph-name="e" unicode="e" horiz-adv-x="565" 
d="M295 217h-144v-10q0 -54 29 -82.5t83 -28.5q86 0 152 56l66 -87q-40 -36 -101.5 -56.5t-122.5 -20.5q-99 0 -160 60t-61 157q0 131 95 227.5t222 96.5q83 0 137.5 -39.5t54.5 -102.5q0 -81 -66.5 -126t-183.5 -44zM347 421q-58 0 -103 -30t-70 -81h139q53 0 82.5 15
t29.5 43q0 24 -22 38.5t-56 14.5z" />
    <glyph glyph-name="f" unicode="f" horiz-adv-x="368" 
d="M336 720q64 0 110 -44l-46 -72q-13 16 -39 16q-29 0 -50 -19.5t-27 -45.5l-8 -38h118l-22 -101h-117l-86 -416h-119l87 416h-75l21 101h75l12 59q13 65 59.5 104.5t106.5 39.5z" />
    <glyph glyph-name="g" unicode="g" horiz-adv-x="635" 
d="M496 517h123l-98 -467q-21 -101 -107 -161.5t-201 -60.5q-67 0 -122.5 20t-89.5 52l57 82q45 -50 144 -50q77 0 132.5 36.5t67.5 95.5l11 55q-79 -81 -187 -81q-87 0 -139.5 54t-52.5 144q0 115 81.5 204t196.5 89q60 0 103.5 -26.5t63.5 -68.5zM268 142q61 0 111 39
t67 95l6 29q1 6 1 17q0 48 -29 75.5t-79 27.5q-74 0 -129.5 -54t-55.5 -125q0 -48 29 -76t79 -28z" />
    <glyph glyph-name="h" unicode="h" 
d="M396 529q74 0 118.5 -43.5t44.5 -113.5q0 -7 -0.5 -12.5t-1.5 -14.5t-2.5 -17.5t-4.5 -25t-6.5 -32.5t-9.5 -45t-12.5 -57.5t-16 -75t-19.5 -92.5h-118q18 86 41 196q27 130 27 147q0 38 -21.5 60t-58.5 22q-55 0 -101.5 -35t-55.5 -82v4l-65 -312h-122l145 699h122
l-51 -247q66 77 168 77z" />
    <glyph glyph-name="i" unicode="i" horiz-adv-x="257" 
d="M203 596q-27 0 -45 18t-18 45q0 30 23 52.5t53 22.5q27 0 44.5 -18t17.5 -45q0 -30 -23 -52.5t-52 -22.5zM13 0l108 517h122l-108 -517h-122z" />
    <glyph glyph-name="j" unicode="j" horiz-adv-x="257" 
d="M208 595q-28 0 -46 19t-18 46q0 28 23 51t53 23q27 0 44.5 -18.5t17.5 -45.5q0 -29 -22.5 -52t-51.5 -23zM-42 -178q-55 0 -97 21l26 89q22 -8 51 -8q26 0 47 19t26 46l110 528h122l-114 -547q-13 -67 -60.5 -107.5t-110.5 -40.5z" />
    <glyph glyph-name="k" unicode="k" horiz-adv-x="562" 
d="M611 517l-262 -231l145 -286h-139l-102 206l-93 -79l-26 -127h-122l145 699h122l-89 -427l274 245h147z" />
    <glyph glyph-name="l" unicode="l" horiz-adv-x="257" 
d="M14 0l145 699h122l-145 -699h-122z" />
    <glyph glyph-name="m" unicode="m" horiz-adv-x="918" 
d="M711 529q73 0 117 -43.5t44 -113.5q0 -26 -44 -232q-5 -27 -8.5 -43t-9.5 -44t-11 -53h-119q70 332 70 344q-2 81 -76 81q-50 0 -92 -33t-50 -80q-3 -16 -65 -312h-119q70 335 69 344q0 81 -75 81q-48 0 -88.5 -30t-52.5 -76l-67 -319h-122l108 517h122l-14 -65
q55 77 153 77q54 0 93.5 -26.5t55.5 -72.5q27 46 76 72.5t105 26.5z" />
    <glyph glyph-name="n" unicode="n" 
d="M396 529q74 0 118.5 -43.5t44.5 -113.5q0 -7 -0.5 -12.5t-1.5 -14.5t-2.5 -17.5t-4.5 -25t-6.5 -32.5t-9.5 -45t-12.5 -57.5t-16 -75t-19.5 -92.5h-118q18 86 41 196q27 130 27 147q0 38 -21.5 60t-58.5 22q-52 0 -97 -31.5t-58 -75.5l-66 -318h-122l108 517h122l-13 -62
q66 74 166 74z" />
    <glyph glyph-name="o" unicode="o" horiz-adv-x="634" 
d="M265 -12q-96 0 -162.5 66.5t-66.5 159.5q0 128 100 221.5t231 93.5q96 0 163.5 -66t67.5 -159q0 -128 -100.5 -222t-232.5 -94zM277 92q80 0 141.5 63t61.5 144q0 52 -36 89t-88 37q-80 0 -141 -63t-61 -144q0 -52 36 -89t87 -37z" />
    <glyph glyph-name="p" unicode="p" horiz-adv-x="655" 
d="M421 529q84 0 140 -59.5t56 -147.5q0 -135 -87.5 -234.5t-210.5 -99.5q-53 0 -95.5 29t-65.5 78l-55 -267h-122l143 689h122l-16 -78q82 90 191 90zM306 92q77 0 134 65t57 152q0 49 -32 82.5t-80 33.5q-80 0 -138.5 -65.5t-58.5 -152.5q0 -48 34 -81.5t84 -33.5z" />
    <glyph glyph-name="q" unicode="q" horiz-adv-x="655" 
d="M516 517h122l-143 -689h-122l52 250q-82 -90 -191 -90q-84 0 -140 60t-56 148q0 134 87.5 233.5t210.5 99.5q53 0 95.5 -28.5t64.5 -77.5zM270 92q80 0 138.5 65.5t58.5 152.5q0 48 -34.5 81.5t-83.5 33.5q-77 0 -134 -65t-57 -152q0 -49 32 -82.5t80 -33.5z" />
    <glyph glyph-name="r" unicode="r" horiz-adv-x="419" 
d="M226 422q35 51 88 79t116 28l-14 -104q-83 0 -145.5 -47t-78.5 -121v1l-54 -258h-122l108 517h122z" />
    <glyph glyph-name="s" unicode="s" horiz-adv-x="500" 
d="M209 -12q-130 0 -217 80l67 79q65 -56 154 -56q46 0 77.5 19t31.5 48q0 16 -18 29t-67 28q-88 25 -126 51.5t-38 80.5q0 79 63.5 130.5t159.5 51.5q103 0 191 -65l-64 -84q-59 45 -130 45q-43 0 -72 -17t-29 -44q0 -14 19.5 -26.5t69.5 -28.5q84 -26 121.5 -53.5
t37.5 -82.5q0 -79 -66 -132t-165 -53z" />
    <glyph glyph-name="t" unicode="t" horiz-adv-x="392" 
d="M372 416h-116q-58 -277 -58 -286q0 -38 33 -38q36 0 60 22l24 -88q-52 -38 -115 -38q-56 0 -89.5 33.5t-33.5 86.5q0 21 60 308h-75l21 101h75l30 142h119l-30 -142h117z" />
    <glyph glyph-name="u" unicode="u" 
d="M471 517h122l-108 -517h-122l13 62q-66 -74 -166 -74q-74 0 -118.5 43.5t-44.5 113.5q0 7 0.5 12.5t1.5 14.5t2.5 17.5t4.5 25t6.5 32.5t9.5 45t12.5 57.5t16 75t19.5 92.5h118q-18 -86 -41 -196q-27 -130 -27 -147q0 -38 21.5 -60t58.5 -22q52 0 97 31.5t58 75.5z" />
    <glyph glyph-name="v" unicode="v" horiz-adv-x="592" 
d="M187 0l-115 517h127l70 -376l227 376h132l-327 -517h-114z" />
    <glyph glyph-name="w" unicode="w" horiz-adv-x="839" 
d="M145 0l-67 517h119l34 -353l190 353h102l41 -353l182 353h124l-282 -517h-111l-36 354l-185 -354h-111z" />
    <glyph glyph-name="x" unicode="x" horiz-adv-x="561" 
d="M589 517l-239 -254l137 -263h-131l-90 173l-163 -173h-137l251 266l-131 251h131l84 -161l152 161h136z" />
    <glyph glyph-name="y" unicode="y" horiz-adv-x="599" 
d="M86 -180q-58 0 -111 29l37 84q28 -17 60 -17q50 0 77 38l34 42l-109 521h126l70 -386l223 386h129l-335 -558q-84 -139 -201 -139z" />
    <glyph glyph-name="z" unicode="z" horiz-adv-x="527" 
d="M-6 0l17 89l341 321h-267l22 107h429l-17 -89l-342 -321h276l-23 -107h-436z" />
    <glyph glyph-name="braceleft" unicode="{" horiz-adv-x="411" 
d="M274 -166q-102 9 -148 41.5t-46 93.5q0 26 18 106t18 101q0 28 -18 39.5t-60 11.5l8 77q100 0 120 95l25 126q17 84 73 122.5t180 49.5l3 -77q-86 -12 -118.5 -35t-43.5 -78l-26 -133q-10 -45 -33 -71t-67 -40q56 -21 56 -83q0 -23 -18.5 -102t-18.5 -101q0 -31 23.5 -44
t89.5 -22z" />
    <glyph glyph-name="bar" unicode="|" horiz-adv-x="292" 
d="M33 -74l170 817h88l-170 -817h-88z" />
    <glyph glyph-name="braceright" unicode="}" horiz-adv-x="411" 
d="M-31 -166l-2 77q84 12 117 35t45 79l26 132q10 46 33 72t67 40q-56 21 -56 83q0 22 18.5 104.5t18.5 98.5q0 30 -23.5 43t-90.5 22l18 77q102 -9 148 -41.5t46 -93.5q0 -26 -18 -106.5t-18 -100.5q0 -28 18 -39.5t60 -11.5l-7 -77q-100 0 -121 -94l-26 -127
q-17 -84 -72.5 -122.5t-180.5 -49.5z" />
    <glyph glyph-name="asciitilde" unicode="~" horiz-adv-x="451" 
d="M308 296q-27 0 -49.5 14t-39.5 28t-30 14q-42 0 -65 -62l-61 19q40 123 124 123q26 0 49 -14t40 -28t30 -14q41 0 64 62l62 -19q-40 -123 -124 -123z" />
    <glyph glyph-name="exclamdown" unicode="&#xa1;" horiz-adv-x="294" 
d="M193 529q32 0 51.5 -20t19.5 -51q0 -36 -26.5 -61t-60.5 -25q-30 0 -49.5 20t-19.5 49q0 35 26 61.5t59 26.5zM198 292l-67 -462h-141l124 462h84z" />
    <glyph glyph-name="cent" unicode="&#xa2;" horiz-adv-x="549" 
d="M409 150l72 -79q-84 -73 -187 -82l-13 -63h-90l14 70q-74 19 -121.5 79.5t-47.5 138.5q0 114 82 202.5t198 108.5l13 64h90l-13 -63q90 -15 145 -85l-92 -65q-22 34 -75 46l-67 -325q52 14 92 53zM156 218q0 -38 19.5 -69t52.5 -46l64 310q-59 -22 -97.5 -76.5
t-38.5 -118.5z" />
    <glyph glyph-name="sterling" unicode="&#xa3;" horiz-adv-x="643" 
d="M253 257l-31 -155h351l-21 -102h-556l10 53l89 49l33 155h-67l16 75h66l29 136q22 103 96.5 167t172.5 64q72 0 129.5 -33.5t77.5 -84.5l-97 -74q-5 36 -34.5 57.5t-70.5 21.5q-54 0 -97.5 -39t-55.5 -97l-24 -118h176l-16 -75h-176z" />
    <glyph glyph-name="yen" unicode="&#xa5;" horiz-adv-x="686" 
d="M767 687l-305 -363h143l-15 -75h-185l-15 -69h185l-15 -75h-186l-23 -105h-127l23 105h-183l15 75h184l15 69h-184l15 75h143l-155 363h120l139 -321l266 321h145z" />
    <glyph glyph-name="dieresis" unicode="&#xa8;" horiz-adv-x="456" 
d="M203 588q-26 0 -42 16.5t-16 41.5q0 27 20 47t47 20q24 0 40.5 -17t16.5 -41q0 -27 -20.5 -47t-45.5 -20zM408 588q-26 0 -42 16.5t-16 41.5q0 27 20.5 47t46.5 20q25 0 41 -17t16 -41q0 -27 -20.5 -47t-45.5 -20z" />
    <glyph glyph-name="guillemotleft" unicode="&#xab;" horiz-adv-x="564" 
d="M160 50l-123 203l203 201l96 -22l-182 -178l105 -181zM381 50l-123 203l203 201l96 -22l-182 -178l105 -181z" />
    <glyph glyph-name="macron" unicode="&#xaf;" horiz-adv-x="460" 
d="M131 586l15 75h334l-15 -75h-334z" />
    <glyph glyph-name="acute" unicode="&#xb4;" horiz-adv-x="360" 
d="M129 575l149 152l112 -22l-173 -130h-88z" />
    <glyph glyph-name="paragraph" unicode="&#xb6;" horiz-adv-x="675" 
d="M206 -50l74 337q-93 0 -147 45t-54 119q0 102 76.5 168.5t186.5 66.5h320l-153 -736h-92l135 650h-119l-135 -650h-92z" />
    <glyph glyph-name="periodcentered" unicode="&#xb7;" horiz-adv-x="256" 
d="M125 203q-28 0 -46 18.5t-18 45.5q0 33 22.5 56.5t54.5 23.5q28 0 46.5 -18.5t18.5 -45.5q0 -33 -23 -56.5t-55 -23.5z" />
    <glyph glyph-name="cedilla" unicode="&#xb8;" horiz-adv-x="322" 
d="M120 -44q28 -1 45 -18t17 -42q0 -41 -33 -66t-81 -25q-55 0 -92 31l28 47q21 -20 53 -20q29 0 45.5 10.5t16.5 28.5q0 10 -6.5 16.5t-16.5 6.5q-19 0 -37 -13l-20 23l47 76h69z" />
    <glyph glyph-name="guillemotright" unicode="&#xbb;" horiz-adv-x="564" 
d="M101 50l-95 23l183 181l-106 178l98 22l124 -201zM320 50l-95 23l183 181l-106 178l98 22l124 -201z" />
    <glyph glyph-name="questiondown" unicode="&#xbf;" horiz-adv-x="508" 
d="M312 529q32 0 51.5 -20t19.5 -51q0 -36 -26.5 -61t-60.5 -25q-30 0 -49.5 20t-19.5 49q0 35 26 61.5t59 26.5zM342 296l-34 -173q-77 -4 -139 -38.5t-62 -84.5q0 -32 23 -51t65 -19q83 0 161 76l63 -81q-114 -107 -248 -107q-88 0 -139.5 44.5t-51.5 116.5q0 83 65.5 145
t157.5 82l19 90h120z" />
    <glyph glyph-name="Agrave" unicode="&#xc0;" horiz-adv-x="763" 
d="M522 745h-82l-119 130l115 22zM554 0l-28 130h-328l-81 -130h-141l430 687h141l-1 -2l143 -685h-135zM262 232h243l-62 289z" />
    <glyph glyph-name="Aacute" unicode="&#xc1;" horiz-adv-x="763" 
d="M701 875l-173 -130h-88l149 152zM547 687l-1 -2l143 -685h-135l-28 130h-328l-81 -130h-141l430 687h141zM505 232l-62 289l-181 -289h243z" />
    <glyph glyph-name="Acircumflex" unicode="&#xc2;" horiz-adv-x="763" 
d="M511 824l-94 -79h-82l133 144h104l75 -144h-77zM554 0l-28 130h-328l-81 -130h-141l430 687h141l-1 -2l143 -685h-135zM262 232h243l-62 289z" />
    <glyph glyph-name="Atilde" unicode="&#xc3;" horiz-adv-x="763" 
d="M447 799q-42 0 -65 -62l-61 19q40 123 124 123q26 0 49 -14t40 -28t30 -14q41 0 64 62l62 -19q-40 -123 -124 -123q-27 0 -49.5 14t-39.5 28t-30 14zM547 687l-1 -2l143 -685h-135l-28 130h-328l-81 -130h-141l430 687h141zM505 232l-62 289l-181 -289h243z" />
    <glyph glyph-name="Adieresis" unicode="&#xc4;" horiz-adv-x="763" 
d="M401 758q-26 0 -42 16.5t-16 41.5q0 27 20 47t47 20q24 0 40.5 -17t16.5 -41q0 -27 -20.5 -47t-45.5 -20zM606 758q-26 0 -42 16.5t-16 41.5q0 27 20.5 47t46.5 20q25 0 41 -17t16 -41q0 -27 -20.5 -47t-45.5 -20zM554 0l-28 130h-328l-81 -130h-141l430 687h141l-1 -2
l143 -685h-135zM262 232h243l-62 289z" />
    <glyph glyph-name="Aring" unicode="&#xc5;" horiz-adv-x="763" 
d="M494 753q-40 0 -65 25.5t-25 63.5q0 52 42 92t94 40q39 0 64 -25t25 -62q0 -53 -41.5 -93.5t-93.5 -40.5zM528 919q-25 0 -46 -20t-21 -46q0 -19 12.5 -31.5t31.5 -12.5q26 0 47 20t21 46q0 19 -13 31.5t-32 12.5zM554 0l-28 130h-328l-81 -130h-141l430 687h141l-1 -2
l143 -685h-135zM262 232h243l-62 289z" />
    <glyph glyph-name="AE" unicode="&#xc6;" horiz-adv-x="1060" 
d="M1077 573h-393l-32 -166h353l-23 -114h-356l-35 -179h390l-24 -114h-517l27 130h-252l-102 -130h-147l540 687h594zM295 232h193l70 335z" />
    <glyph glyph-name="Ccedilla" unicode="&#xc7;" horiz-adv-x="694" 
d="M635 96q-50 -43 -119 -72t-133 -35l-21 -33q28 -1 45 -18t17 -42q0 -41 -33 -66t-81 -25q-55 0 -92 31l28 47q21 -20 53 -20q29 0 45.5 10.5t16.5 28.5q0 10 -6.5 16.5t-16.5 6.5q-19 0 -37 -13l-20 23l35 56q-109 15 -183 99.5t-74 196.5q0 108 59.5 203.5t160 152
t213.5 56.5q70 0 135.5 -32t105.5 -83l-101 -75q-23 34 -65 55t-88 21q-118 0 -206.5 -89t-88.5 -207q0 -78 55.5 -132.5t130.5 -54.5q44 0 97 23t92 60z" />
    <glyph glyph-name="Egrave" unicode="&#xc8;" horiz-adv-x="637" 
d="M515 745h-82l-119 130l115 22zM654 573h-393l-32 -166h353l-23 -114h-356l-35 -179h390l-24 -114h-517l143 687h517z" />
    <glyph glyph-name="Eacute" unicode="&#xc9;" horiz-adv-x="637" 
d="M587 875l-173 -130h-88l149 152zM654 573h-393l-32 -166h353l-23 -114h-356l-35 -179h390l-24 -114h-517l143 687h517z" />
    <glyph glyph-name="Ecircumflex" unicode="&#xca;" horiz-adv-x="637" 
d="M450 824l-94 -79h-82l133 144h104l75 -144h-77zM654 573h-393l-32 -166h353l-23 -114h-356l-35 -179h390l-24 -114h-517l143 687h517z" />
    <glyph glyph-name="Edieresis" unicode="&#xcb;" horiz-adv-x="637" 
d="M340 758q-26 0 -42 16.5t-16 41.5q0 27 20 47t47 20q24 0 40.5 -17t16.5 -41q0 -27 -20.5 -47t-45.5 -20zM545 758q-26 0 -42 16.5t-16 41.5q0 27 20.5 47t46.5 20q25 0 41 -17t16 -41q0 -27 -20.5 -47t-45.5 -20zM654 573h-393l-32 -166h353l-23 -114h-356l-35 -179h390
l-24 -114h-517l143 687h517z" />
    <glyph glyph-name="Igrave" unicode="&#xcc;" horiz-adv-x="270" 
d="M199 745l-119 130l115 22l86 -152h-82zM19 0l143 687h124l-143 -687h-124z" />
    <glyph glyph-name="Iacute" unicode="&#xcd;" horiz-adv-x="270" 
d="M186 745l149 152l112 -22l-173 -130h-88zM19 0l143 687h124l-143 -687h-124z" />
    <glyph glyph-name="Icircumflex" unicode="&#xce;" horiz-adv-x="270" 
d="M79 745l133 144h104l75 -144h-77l-59 79l-94 -79h-82zM19 0l143 687h124l-143 -687h-124z" />
    <glyph glyph-name="Idieresis" unicode="&#xcf;" horiz-adv-x="270" 
d="M145 758q-26 0 -42 16.5t-16 41.5q0 27 20 47t47 20q24 0 40.5 -17t16.5 -41q0 -27 -20.5 -47t-45.5 -20zM350 758q-26 0 -42 16.5t-16 41.5q0 27 20.5 47t46.5 20q25 0 41 -17t16 -41q0 -27 -20.5 -47t-45.5 -20zM19 0l143 687h124l-143 -687h-124z" />
    <glyph glyph-name="Eth" unicode="&#xd0;" horiz-adv-x="795" 
d="M440 687q144 0 235 -78t91 -201q0 -109 -62.5 -203t-168.5 -149.5t-229 -55.5h-247l61 291h-72l24 114h71l59 282h238zM333 113q125 0 216 86t91 204q0 75 -56.5 123t-145.5 48h-134l-35 -169h172l-25 -114h-171l-37 -178h125z" />
    <glyph glyph-name="Ntilde" unicode="&#xd1;" horiz-adv-x="772" 
d="M560 743q-27 0 -49.5 14t-39.5 28t-30 14q-42 0 -65 -62l-61 19q40 123 124 123q26 0 49 -14t40 -28t30 -14q41 0 64 62l62 -19q-40 -123 -124 -123zM26 0l143 687h123l263 -483l102 483h124l-143 -687h-122l-263 483l-102 -483h-125z" />
    <glyph glyph-name="Ograve" unicode="&#xd2;" horiz-adv-x="810" 
d="M465 745l-119 130l115 22l86 -152h-82zM355 -12q-125 0 -211.5 86t-86.5 208q0 168 131.5 292.5t303.5 124.5q129 0 213 -84t84 -209q0 -110 -61 -207t-161 -154t-212 -57zM368 102q118 0 207 92t89 207q0 79 -52 131.5t-133 52.5q-117 0 -206.5 -90t-89.5 -207
q0 -77 54 -131.5t131 -54.5z" />
    <glyph glyph-name="Oacute" unicode="&#xd3;" horiz-adv-x="810" 
d="M455 745l149 152l112 -22l-173 -130h-88zM355 -12q-125 0 -211.5 86t-86.5 208q0 168 131.5 292.5t303.5 124.5q129 0 213 -84t84 -209q0 -110 -61 -207t-161 -154t-212 -57zM368 102q118 0 207 92t89 207q0 79 -52 131.5t-133 52.5q-117 0 -206.5 -90t-89.5 -207
q0 -77 54 -131.5t131 -54.5z" />
    <glyph glyph-name="Ocircumflex" unicode="&#xd4;" horiz-adv-x="810" 
d="M344 745l133 144h104l75 -144h-77l-59 79l-94 -79h-82zM355 -12q-125 0 -211.5 86t-86.5 208q0 168 131.5 292.5t303.5 124.5q129 0 213 -84t84 -209q0 -110 -61 -207t-161 -154t-212 -57zM368 102q118 0 207 92t89 207q0 79 -52 131.5t-133 52.5q-117 0 -206.5 -90
t-89.5 -207q0 -77 54 -131.5t131 -54.5z" />
    <glyph glyph-name="Otilde" unicode="&#xd5;" horiz-adv-x="810" 
d="M575 743q-27 0 -49.5 14t-39.5 28t-30 14q-42 0 -65 -62l-61 19q40 123 124 123q26 0 49 -14t40 -28t30 -14q41 0 64 62l62 -19q-40 -123 -124 -123zM355 -12q-125 0 -211.5 86t-86.5 208q0 168 131.5 292.5t303.5 124.5q129 0 213 -84t84 -209q0 -110 -61 -207
t-161 -154t-212 -57zM368 102q118 0 207 92t89 207q0 79 -52 131.5t-133 52.5q-117 0 -206.5 -90t-89.5 -207q0 -77 54 -131.5t131 -54.5z" />
    <glyph glyph-name="Odieresis" unicode="&#xd6;" horiz-adv-x="810" 
d="M410 758q-26 0 -42 16.5t-16 41.5q0 27 20 47t47 20q24 0 40.5 -17t16.5 -41q0 -27 -20.5 -47t-45.5 -20zM615 758q-26 0 -42 16.5t-16 41.5q0 27 20.5 47t46.5 20q25 0 41 -17t16 -41q0 -27 -20.5 -47t-45.5 -20zM355 -12q-125 0 -211.5 86t-86.5 208q0 168 131.5 292.5
t303.5 124.5q129 0 213 -84t84 -209q0 -110 -61 -207t-161 -154t-212 -57zM368 102q118 0 207 92t89 207q0 79 -52 131.5t-133 52.5q-117 0 -206.5 -90t-89.5 -207q0 -77 54 -131.5t131 -54.5z" />
    <glyph glyph-name="multiply" unicode="&#xd7;" horiz-adv-x="554" 
d="M525 465l-156 -130l104 -130l-90 -77l-105 131l-155 -130l-62 74l157 131l-104 130l90 77l105 -131l155 129z" />
    <glyph glyph-name="Oslash" unicode="&#xd8;" horiz-adv-x="810" 
d="M851 687l-115 -108q53 -75 53 -173q0 -110 -61 -207t-161 -154t-212 -57q-103 0 -183 61l-53 -49h-118l114 107q-58 77 -58 175q0 168 131.5 292.5t303.5 124.5q109 0 188 -62l53 50h118zM183 288q0 -50 25 -94l381 358q-47 33 -110 33q-117 0 -206.5 -90t-89.5 -207z
M664 401q0 49 -22 90l-379 -356q47 -33 105 -33q118 0 207 92t89 207z" />
    <glyph glyph-name="Ugrave" unicode="&#xd9;" horiz-adv-x="752" 
d="M479 745l-119 130l115 22l86 -152h-82zM325 -12q-135 0 -203.5 87.5t-40.5 222.5l81 389h124l-82 -395q-17 -85 20 -138t114 -53q81 0 144.5 57t81.5 144l79 385h125l-83 -399q-28 -133 -128 -216.5t-232 -83.5z" />
    <glyph glyph-name="Uacute" unicode="&#xda;" horiz-adv-x="752" 
d="M372 745l149 152l112 -22l-173 -130h-88zM325 -12q-135 0 -203.5 87.5t-40.5 222.5l81 389h124l-82 -395q-17 -85 20 -138t114 -53q81 0 144.5 57t81.5 144l79 385h125l-83 -399q-28 -133 -128 -216.5t-232 -83.5z" />
    <glyph glyph-name="Ucircumflex" unicode="&#xdb;" horiz-adv-x="752" 
d="M320 745l133 144h104l75 -144h-77l-59 79l-94 -79h-82zM325 -12q-135 0 -203.5 87.5t-40.5 222.5l81 389h124l-82 -395q-17 -85 20 -138t114 -53q81 0 144.5 57t81.5 144l79 385h125l-83 -399q-28 -133 -128 -216.5t-232 -83.5z" />
    <glyph glyph-name="Udieresis" unicode="&#xdc;" horiz-adv-x="752" 
d="M386 758q-26 0 -42 16.5t-16 41.5q0 27 20 47t47 20q24 0 40.5 -17t16.5 -41q0 -27 -20.5 -47t-45.5 -20zM591 758q-26 0 -42 16.5t-16 41.5q0 27 20.5 47t46.5 20q25 0 41 -17t16 -41q0 -27 -20.5 -47t-45.5 -20zM325 -12q-135 0 -203.5 87.5t-40.5 222.5l81 389h124
l-82 -395q-17 -85 20 -138t114 -53q81 0 144.5 57t81.5 144l79 385h125l-83 -399q-28 -133 -128 -216.5t-232 -83.5z" />
    <glyph glyph-name="Yacute" unicode="&#xdd;" horiz-adv-x="686" 
d="M327 745l149 152l112 -22l-173 -130h-88zM224 0l56 258l-183 429h120l139 -321l266 321h145l-360 -429l-56 -258h-127z" />
    <glyph glyph-name="Thorn" unicode="&#xde;" horiz-adv-x="655" 
d="M17 0l143 687h124l-23 -113h171q96 0 156.5 -52.5t60.5 -136.5q0 -114 -89.5 -190.5t-214.5 -76.5h-178l-25 -118h-125zM191 232h155q72 0 124.5 42t52.5 102q0 40 -32 61.5t-89 21.5h-164z" />
    <glyph glyph-name="germandbls" unicode="&#xdf;" horiz-adv-x="601" 
d="M17 0l110 526q18 84 90.5 136t171.5 52q92 0 147 -44.5t55 -117.5q0 -63 -35.5 -113t-97.5 -80q92 -48 92 -143q0 -94 -75 -155t-180 -61h-82l23 108h48q55 0 98.5 36.5t46.5 86.5q2 33 -24 53t-72 20h-56l21 102h30q51 0 92 37t41 82q0 30 -22 48t-61 18
q-49 0 -87.5 -29.5t-47.5 -73.5l-102 -488h-124z" />
    <glyph glyph-name="agrave" unicode="&#xe0;" horiz-adv-x="654" 
d="M461 575h-82l-119 130l115 22zM516 517h122l-108 -517h-122l16 77q-81 -89 -190 -89q-84 0 -140 60t-56 148q0 134 87.5 233.5t210.5 99.5q53 0 95.5 -28.5t64.5 -77.5zM270 92q80 0 138.5 65.5t58.5 152.5q0 48 -34.5 81.5t-83.5 33.5q-77 0 -134 -65t-57 -152
q0 -49 32 -82.5t80 -33.5z" />
    <glyph glyph-name="aacute" unicode="&#xe1;" horiz-adv-x="654" 
d="M533 705l-173 -130h-88l149 152zM516 517h122l-108 -517h-122l16 77q-81 -89 -190 -89q-84 0 -140 60t-56 148q0 134 87.5 233.5t210.5 99.5q53 0 95.5 -28.5t64.5 -77.5zM270 92q80 0 138.5 65.5t58.5 152.5q0 48 -34.5 81.5t-83.5 33.5q-77 0 -134 -65t-57 -152
q0 -49 32 -82.5t80 -33.5z" />
    <glyph glyph-name="acircumflex" unicode="&#xe2;" horiz-adv-x="654" 
d="M396 654l-94 -79h-82l133 144h104l75 -144h-77zM516 517h122l-108 -517h-122l16 77q-81 -89 -190 -89q-84 0 -140 60t-56 148q0 134 87.5 233.5t210.5 99.5q53 0 95.5 -28.5t64.5 -77.5zM270 92q80 0 138.5 65.5t58.5 152.5q0 48 -34.5 81.5t-83.5 33.5q-77 0 -134 -65
t-57 -152q0 -49 32 -82.5t80 -33.5z" />
    <glyph glyph-name="atilde" unicode="&#xe3;" horiz-adv-x="654" 
d="M332 629q-42 0 -65 -62l-61 19q40 123 124 123q26 0 49 -14t40 -28t30 -14q41 0 64 62l62 -19q-40 -123 -124 -123q-27 0 -49.5 14t-39.5 28t-30 14zM516 517h122l-108 -517h-122l16 77q-81 -89 -190 -89q-84 0 -140 60t-56 148q0 134 87.5 233.5t210.5 99.5
q53 0 95.5 -28.5t64.5 -77.5zM270 92q80 0 138.5 65.5t58.5 152.5q0 48 -34.5 81.5t-83.5 33.5q-77 0 -134 -65t-57 -152q0 -49 32 -82.5t80 -33.5z" />
    <glyph glyph-name="adieresis" unicode="&#xe4;" horiz-adv-x="654" 
d="M286 588q-26 0 -42 16.5t-16 41.5q0 27 20 47t47 20q24 0 40.5 -17t16.5 -41q0 -27 -20.5 -47t-45.5 -20zM491 588q-26 0 -42 16.5t-16 41.5q0 27 20.5 47t46.5 20q25 0 41 -17t16 -41q0 -27 -20.5 -47t-45.5 -20zM516 517h122l-108 -517h-122l16 77q-81 -89 -190 -89
q-84 0 -140 60t-56 148q0 134 87.5 233.5t210.5 99.5q53 0 95.5 -28.5t64.5 -77.5zM270 92q80 0 138.5 65.5t58.5 152.5q0 48 -34.5 81.5t-83.5 33.5q-77 0 -134 -65t-57 -152q0 -49 32 -82.5t80 -33.5z" />
    <glyph glyph-name="aring" unicode="&#xe5;" horiz-adv-x="654" 
d="M379 583q-39 0 -64.5 25.5t-25.5 63.5q0 52 42 92t94 40q39 0 64 -25t25 -62q0 -53 -41.5 -93.5t-93.5 -40.5zM413 749q-25 0 -46 -20t-21 -46q0 -19 12.5 -31.5t31.5 -12.5q26 0 47 20t21 46q0 19 -13 31.5t-32 12.5zM516 517h122l-108 -517h-122l16 77
q-81 -89 -190 -89q-84 0 -140 60t-56 148q0 134 87.5 233.5t210.5 99.5q53 0 95.5 -28.5t64.5 -77.5zM270 92q80 0 138.5 65.5t58.5 152.5q0 48 -34.5 81.5t-83.5 33.5q-77 0 -134 -65t-57 -152q0 -49 32 -82.5t80 -33.5z" />
    <glyph glyph-name="ae" unicode="&#xe6;" horiz-adv-x="916" 
d="M650 217h-144v-10q0 -54 29 -82.5t83 -28.5q86 0 152 56l66 -87q-40 -36 -101.5 -56.5t-122.5 -20.5q-130 0 -189 96q-86 -96 -222 -96q-99 0 -148.5 48t-33.5 127q15 72 83 117t154 45q73 0 145 -31l5 22q24 113 -94 113q-62 0 -152 -42l-33 89q116 53 205 53
q124 0 165 -86q92 86 211 86q83 0 137.5 -39.5t54.5 -102.5q0 -81 -66.5 -126t-183.5 -44zM702 421q-58 0 -103 -30t-70 -81h139q53 0 82.5 15t29.5 43q0 24 -22 38.5t-56 14.5zM218 77q58 0 105.5 34t56.5 81l7 32q-51 16 -115 16q-49 0 -89.5 -26.5t-48.5 -66.5
q-7 -33 15.5 -51.5t68.5 -18.5z" />
    <glyph glyph-name="ccedilla" unicode="&#xe7;" horiz-adv-x="549" 
d="M481 71q-85 -75 -190 -82l-21 -33q28 -1 45 -18t17 -42q0 -41 -33 -66t-81 -25q-55 0 -92 31l28 47q21 -20 53 -20q29 0 45.5 10.5t16.5 28.5q0 10 -6.5 16.5t-16.5 6.5q-19 0 -37 -13l-20 23l35 57q-81 14 -134.5 77t-53.5 145q0 128 100.5 221.5t231.5 93.5
q55 0 103.5 -24t79.5 -64l-92 -65q-15 22 -44 35.5t-59 13.5q-80 0 -140 -63t-60 -144q0 -52 35.5 -89t85.5 -37q71 0 132 58z" />
    <glyph glyph-name="egrave" unicode="&#xe8;" horiz-adv-x="565" 
d="M449 575h-82l-119 130l115 22zM295 217h-144v-10q0 -54 29 -82.5t83 -28.5q86 0 152 56l66 -87q-40 -36 -101.5 -56.5t-122.5 -20.5q-99 0 -160 60t-61 157q0 131 95 227.5t222 96.5q83 0 137.5 -39.5t54.5 -102.5q0 -81 -66.5 -126t-183.5 -44zM347 421q-58 0 -103 -30
t-70 -81h139q53 0 82.5 15t29.5 43q0 24 -22 38.5t-56 14.5z" />
    <glyph glyph-name="eacute" unicode="&#xe9;" horiz-adv-x="565" 
d="M521 705l-173 -130h-88l149 152zM295 217h-144v-10q0 -54 29 -82.5t83 -28.5q86 0 152 56l66 -87q-40 -36 -101.5 -56.5t-122.5 -20.5q-99 0 -160 60t-61 157q0 131 95 227.5t222 96.5q83 0 137.5 -39.5t54.5 -102.5q0 -81 -66.5 -126t-183.5 -44zM347 421
q-58 0 -103 -30t-70 -81h139q53 0 82.5 15t29.5 43q0 24 -22 38.5t-56 14.5z" />
    <glyph glyph-name="ecircumflex" unicode="&#xea;" horiz-adv-x="565" 
d="M384 654l-94 -79h-82l133 144h104l75 -144h-77zM295 217h-144v-10q0 -54 29 -82.5t83 -28.5q86 0 152 56l66 -87q-40 -36 -101.5 -56.5t-122.5 -20.5q-99 0 -160 60t-61 157q0 131 95 227.5t222 96.5q83 0 137.5 -39.5t54.5 -102.5q0 -81 -66.5 -126t-183.5 -44zM347 421
q-58 0 -103 -30t-70 -81h139q53 0 82.5 15t29.5 43q0 24 -22 38.5t-56 14.5z" />
    <glyph glyph-name="edieresis" unicode="&#xeb;" horiz-adv-x="565" 
d="M274 588q-26 0 -42 16.5t-16 41.5q0 27 20 47t47 20q24 0 40.5 -17t16.5 -41q0 -27 -20.5 -47t-45.5 -20zM479 588q-26 0 -42 16.5t-16 41.5q0 27 20.5 47t46.5 20q25 0 41 -17t16 -41q0 -27 -20.5 -47t-45.5 -20zM353 529q83 0 137.5 -39.5t54.5 -102.5
q0 -81 -66.5 -126t-183.5 -44h-144v-10q0 -54 29 -82.5t83 -28.5q86 0 152 56l66 -87q-40 -36 -101.5 -56.5t-122.5 -20.5q-99 0 -160 60t-61 157q0 131 95 227.5t222 96.5zM313 310q53 0 82.5 15t29.5 43q0 24 -22 38.5t-56 14.5q-58 0 -103 -30t-70 -81h139z" />
    <glyph glyph-name="igrave" unicode="&#xec;" horiz-adv-x="257" 
d="M152 575l-119 130l115 22l86 -152h-82zM13 0l108 517h122l-108 -517h-122z" />
    <glyph glyph-name="iacute" unicode="&#xed;" horiz-adv-x="257" 
d="M148 575l149 152l112 -22l-173 -130h-88zM13 0l108 517h122l-108 -517h-122z" />
    <glyph glyph-name="icircumflex" unicode="&#xee;" horiz-adv-x="257" 
d="M38 575l133 144h104l75 -144h-77l-59 79l-94 -79h-82zM13 0l108 517h122l-108 -517h-122z" />
    <glyph glyph-name="idieresis" unicode="&#xef;" horiz-adv-x="257" 
d="M104 588q-26 0 -42 16.5t-16 41.5q0 27 20 47t47 20q24 0 40.5 -17t16.5 -41q0 -27 -20.5 -47t-45.5 -20zM309 588q-26 0 -42 16.5t-16 41.5q0 27 20.5 47t46.5 20q25 0 41 -17t16 -41q0 -27 -20.5 -47t-45.5 -20zM13 0l108 517h122l-108 -517h-122z" />
    <glyph glyph-name="eth" unicode="&#xf0;" horiz-adv-x="631" 
d="M478 611q115 -132 115 -263q0 -145 -93.5 -252.5t-230.5 -107.5q-103 0 -164 57.5t-61 151.5q0 119 80.5 209t195.5 90q90 0 149 -75q-19 74 -89 149l-123 -51l-19 73l83 34q-21 18 -65 52l115 41q11 -10 31.5 -29.5t21.5 -20.5l105 43l18 -73zM275 93q76 0 132.5 58.5
t56.5 135.5q0 48 -29.5 77.5t-82.5 29.5q-77 0 -133 -58.5t-56 -135.5q0 -49 30 -78t82 -29z" />
    <glyph glyph-name="ntilde" unicode="&#xf1;" 
d="M330 629q-42 0 -65 -62l-61 19q40 123 124 123q26 0 49 -14t40 -28t30 -14q41 0 64 62l62 -19q-40 -123 -124 -123q-27 0 -49.5 14t-39.5 28t-30 14zM396 529q74 0 118.5 -43.5t44.5 -113.5q0 -7 -0.5 -12.5t-1.5 -14.5t-2.5 -17.5t-4.5 -25t-6.5 -32.5t-9.5 -45
t-12.5 -57.5t-16 -75t-19.5 -92.5h-118q18 86 41 196q27 130 27 147q0 38 -21.5 60t-58.5 22q-52 0 -97 -31.5t-58 -75.5l-66 -318h-122l108 517h122l-13 -62q66 74 166 74z" />
    <glyph glyph-name="ograve" unicode="&#xf2;" horiz-adv-x="634" 
d="M379 575l-119 130l115 22l86 -152h-82zM265 -12q-96 0 -162.5 66.5t-66.5 159.5q0 128 100 221.5t231 93.5q96 0 163.5 -66t67.5 -159q0 -128 -100.5 -222t-232.5 -94zM277 92q80 0 141.5 63t61.5 144q0 52 -36 89t-88 37q-80 0 -141 -63t-61 -144q0 -52 36 -89t87 -37z
" />
    <glyph glyph-name="oacute" unicode="&#xf3;" horiz-adv-x="634" 
d="M272 575l149 152l112 -22l-173 -130h-88zM265 -12q-96 0 -162.5 66.5t-66.5 159.5q0 128 100 221.5t231 93.5q96 0 163.5 -66t67.5 -159q0 -128 -100.5 -222t-232.5 -94zM277 92q80 0 141.5 63t61.5 144q0 52 -36 89t-88 37q-80 0 -141 -63t-61 -144q0 -52 36 -89t87 -37
z" />
    <glyph glyph-name="ocircumflex" unicode="&#xf4;" horiz-adv-x="634" 
d="M220 575l133 144h104l75 -144h-77l-59 79l-94 -79h-82zM265 -12q-96 0 -162.5 66.5t-66.5 159.5q0 128 100 221.5t231 93.5q96 0 163.5 -66t67.5 -159q0 -128 -100.5 -222t-232.5 -94zM277 92q80 0 141.5 63t61.5 144q0 52 -36 89t-88 37q-80 0 -141 -63t-61 -144
q0 -52 36 -89t87 -37z" />
    <glyph glyph-name="otilde" unicode="&#xf5;" horiz-adv-x="634" 
d="M451 573q-27 0 -49.5 14t-39.5 28t-30 14q-42 0 -65 -62l-61 19q40 123 124 123q26 0 49 -14t40 -28t30 -14q41 0 64 62l62 -19q-40 -123 -124 -123zM265 -12q-96 0 -162.5 66.5t-66.5 159.5q0 128 100 221.5t231 93.5q96 0 163.5 -66t67.5 -159q0 -128 -100.5 -222
t-232.5 -94zM277 92q80 0 141.5 63t61.5 144q0 52 -36 89t-88 37q-80 0 -141 -63t-61 -144q0 -52 36 -89t87 -37z" />
    <glyph glyph-name="odieresis" unicode="&#xf6;" horiz-adv-x="634" 
d="M286 588q-26 0 -42 16.5t-16 41.5q0 27 20 47t47 20q24 0 40.5 -17t16.5 -41q0 -27 -20.5 -47t-45.5 -20zM491 588q-26 0 -42 16.5t-16 41.5q0 27 20.5 47t46.5 20q25 0 41 -17t16 -41q0 -27 -20.5 -47t-45.5 -20zM265 -12q-96 0 -162.5 66.5t-66.5 159.5
q0 128 100 221.5t231 93.5q96 0 163.5 -66t67.5 -159q0 -128 -100.5 -222t-232.5 -94zM277 92q80 0 141.5 63t61.5 144q0 52 -36 89t-88 37q-80 0 -141 -63t-61 -144q0 -52 36 -89t87 -37z" />
    <glyph glyph-name="divide" unicode="&#xf7;" horiz-adv-x="600" 
d="M348 442q-29 0 -47.5 19t-18.5 47q0 33 24 55t55 22q28 0 46 -19t18 -46q0 -31 -23.5 -54.5t-53.5 -23.5zM67 282l22 104h475l-22 -104h-475zM273 83q-29 0 -47 18.5t-18 46.5q0 34 23.5 56t54.5 22q28 0 46 -18.5t18 -45.5q0 -31 -23.5 -55t-53.5 -24z" />
    <glyph glyph-name="oslash" unicode="&#xf8;" horiz-adv-x="634" 
d="M644 517l-89 -83q43 -59 43 -130q0 -128 -100.5 -222t-232.5 -94q-77 0 -138 45l-35 -33h-102l88 83q-42 60 -42 131q0 128 100 221.5t231 93.5q78 0 139 -45l36 33h102zM154 218q0 -29 12 -53l257 240q-31 20 -67 20q-80 0 -141 -63t-61 -144zM480 299q0 29 -12 53
l-257 -240q29 -20 66 -20q80 0 141.5 63t61.5 144z" />
    <glyph glyph-name="ugrave" unicode="&#xf9;" 
d="M453 575h-82l-119 130l115 22zM471 517h122l-108 -517h-122l13 62q-66 -74 -166 -74q-74 0 -118.5 43.5t-44.5 113.5q0 7 0.5 12.5t1.5 14.5t2.5 17.5t4.5 25t6.5 32.5t9.5 45t12.5 57.5t16 75t19.5 92.5h118q-18 -86 -41 -196q-27 -130 -27 -147q0 -38 21.5 -60
t58.5 -22q52 0 97 31.5t58 75.5z" />
    <glyph glyph-name="uacute" unicode="&#xfa;" 
d="M525 705l-173 -130h-88l149 152zM471 517h122l-108 -517h-122l13 62q-66 -74 -166 -74q-74 0 -118.5 43.5t-44.5 113.5q0 7 0.5 12.5t1.5 14.5t2.5 17.5t4.5 25t6.5 32.5t9.5 45t12.5 57.5t16 75t19.5 92.5h118q-18 -86 -41 -196q-27 -130 -27 -147q0 -38 21.5 -60
t58.5 -22q52 0 97 31.5t58 75.5z" />
    <glyph glyph-name="ucircumflex" unicode="&#xfb;" 
d="M388 654l-94 -79h-82l133 144h104l75 -144h-77zM471 517h122l-108 -517h-122l13 62q-66 -74 -166 -74q-74 0 -118.5 43.5t-44.5 113.5q0 7 0.5 12.5t1.5 14.5t2.5 17.5t4.5 25t6.5 32.5t9.5 45t12.5 57.5t16 75t19.5 92.5h118q-18 -86 -41 -196q-27 -130 -27 -147
q0 -38 21.5 -60t58.5 -22q52 0 97 31.5t58 75.5z" />
    <glyph glyph-name="udieresis" unicode="&#xfc;" 
d="M278 588q-26 0 -42 16.5t-16 41.5q0 27 20 47t47 20q24 0 40.5 -17t16.5 -41q0 -27 -20.5 -47t-45.5 -20zM483 588q-26 0 -42 16.5t-16 41.5q0 27 20.5 47t46.5 20q25 0 41 -17t16 -41q0 -27 -20.5 -47t-45.5 -20zM471 517h122l-108 -517h-122l13 62q-66 -74 -166 -74
q-74 0 -118.5 43.5t-44.5 113.5q0 7 0.5 12.5t1.5 14.5t2.5 17.5t4.5 25t6.5 32.5t9.5 45t12.5 57.5t16 75t19.5 92.5h118q-18 -86 -41 -196q-27 -130 -27 -147q0 -38 21.5 -60t58.5 -22q52 0 97 31.5t58 75.5z" />
    <glyph glyph-name="yacute" unicode="&#xfd;" horiz-adv-x="599" 
d="M258 575l149 152l112 -22l-173 -130h-88zM86 -180q-58 0 -111 29l37 84q28 -17 60 -17q50 0 77 38l34 42l-109 521h126l70 -386l223 386h129l-335 -558q-84 -139 -201 -139z" />
    <glyph glyph-name="thorn" unicode="&#xfe;" horiz-adv-x="655" 
d="M421 529q84 0 140 -59.5t56 -147.5q0 -135 -87.5 -234.5t-210.5 -99.5q-53 0 -95.5 29t-65.5 78l-55 -267h-122l181 871h122l-54 -260q82 90 191 90zM306 92q77 0 134 65t57 152q0 49 -32 82.5t-80 33.5q-80 0 -138.5 -65.5t-58.5 -152.5q0 -48 34 -81.5t84 -33.5z" />
    <glyph glyph-name="ydieresis" unicode="&#xff;" horiz-adv-x="599" 
d="M272 588q-26 0 -42 16.5t-16 41.5q0 27 20 47t47 20q24 0 40.5 -17t16.5 -41q0 -27 -20.5 -47t-45.5 -20zM477 588q-26 0 -42 16.5t-16 41.5q0 27 20.5 47t46.5 20q25 0 41 -17t16 -41q0 -27 -20.5 -47t-45.5 -20zM86 -180q-58 0 -111 29l37 84q28 -17 60 -17q50 0 77 38
l34 42l-109 521h126l70 -386l223 386h129l-335 -558q-84 -139 -201 -139z" />
    <glyph glyph-name="Amacron" unicode="&#x100;" horiz-adv-x="763" 
d="M676 831l-15 -75h-334l15 75h334zM554 0l-28 130h-328l-81 -130h-141l430 687h141l-1 -2l143 -685h-135zM262 232h243l-62 289z" />
    <glyph glyph-name="amacron" unicode="&#x101;" horiz-adv-x="654" 
d="M561 661l-15 -75h-334l15 75h334zM516 517h122l-108 -517h-122l16 77q-81 -89 -190 -89q-84 0 -140 60t-56 148q0 134 87.5 233.5t210.5 99.5q53 0 95.5 -28.5t64.5 -77.5zM270 92q80 0 138.5 65.5t58.5 152.5q0 48 -34.5 81.5t-83.5 33.5q-77 0 -134 -65t-57 -152
q0 -49 32 -82.5t80 -33.5z" />
    <glyph glyph-name="Abreve" unicode="&#x102;" horiz-adv-x="763" 
d="M497 753q-90 0 -144 66l67 55q33 -41 87 -41q57 0 109 44l49 -60q-77 -64 -168 -64zM554 0l-28 130h-328l-81 -130h-141l430 687h141l-1 -2l143 -685h-135zM262 232h243l-62 289z" />
    <glyph glyph-name="abreve" unicode="&#x103;" horiz-adv-x="654" 
d="M382 583q-90 0 -144 66l67 55q33 -41 87 -41q57 0 109 44l49 -60q-77 -64 -168 -64zM516 517h122l-108 -517h-122l16 77q-81 -89 -190 -89q-84 0 -140 60t-56 148q0 134 87.5 233.5t210.5 99.5q53 0 95.5 -28.5t64.5 -77.5zM270 92q80 0 138.5 65.5t58.5 152.5
q0 48 -34.5 81.5t-83.5 33.5q-77 0 -134 -65t-57 -152q0 -49 32 -82.5t80 -33.5z" />
    <glyph glyph-name="Aogonek" unicode="&#x104;" horiz-adv-x="763" 
d="M710 -76l21 -69q-40 -28 -88 -28q-45 0 -71 24.5t-26 66.5q0 48 31 82h-23l-28 130h-328l-81 -130h-141l430 687h141l-1 -2l143 -683l5 -2q-29 0 -48.5 -18.5t-19.5 -45.5q0 -31 34 -31q31 0 50 19zM262 232h243l-62 289z" />
    <glyph glyph-name="aogonek" unicode="&#x105;" horiz-adv-x="654" 
d="M501 -95q31 0 50 19l21 -69q-40 -28 -88 -28q-45 0 -71 24.5t-26 66.5q0 48 31 82h-10l16 77q-81 -89 -190 -89q-84 0 -140 60t-56 148q0 134 87.5 233.5t210.5 99.5q53 0 95.5 -28.5t64.5 -77.5l20 94h122l-108 -515l5 -2q-29 0 -48.5 -18.5t-19.5 -45.5q0 -31 34 -31z
M270 92q80 0 138.5 65.5t58.5 152.5q0 48 -34.5 81.5t-83.5 33.5q-77 0 -134 -65t-57 -152q0 -49 32 -82.5t80 -33.5z" />
    <glyph glyph-name="Cacute" unicode="&#x106;" horiz-adv-x="694" 
d="M378 745l149 152l112 -22l-173 -130h-88zM356 -12q-122 0 -209.5 88t-87.5 211q0 108 59.5 203.5t160 152t213.5 56.5q70 0 135.5 -32t105.5 -83l-101 -75q-23 34 -65 55t-88 21q-118 0 -206.5 -89t-88.5 -207q0 -78 55.5 -132.5t130.5 -54.5q44 0 97 23t92 60l76 -89
q-56 -47 -134 -77.5t-145 -30.5z" />
    <glyph glyph-name="cacute" unicode="&#x107;" horiz-adv-x="549" 
d="M261 575l149 152l112 -22l-173 -130h-88zM265 -12q-96 0 -162.5 66.5t-66.5 159.5q0 128 100.5 221.5t231.5 93.5q55 0 103.5 -24t79.5 -64l-92 -65q-15 22 -44 35.5t-59 13.5q-80 0 -140 -63t-60 -144q0 -52 35.5 -89t85.5 -37q71 0 132 58l72 -79q-95 -83 -216 -83z
" />
    <glyph glyph-name="Ccaron" unicode="&#x10c;" horiz-adv-x="694" 
d="M432 745l-73 144h76l59 -78l94 78h83l-135 -144h-104zM356 -12q-122 0 -209.5 88t-87.5 211q0 108 59.5 203.5t160 152t213.5 56.5q70 0 135.5 -32t105.5 -83l-101 -75q-23 34 -65 55t-88 21q-118 0 -206.5 -89t-88.5 -207q0 -78 55.5 -132.5t130.5 -54.5q44 0 97 23
t92 60l76 -89q-56 -47 -134 -77.5t-145 -30.5z" />
    <glyph glyph-name="ccaron" unicode="&#x10d;" horiz-adv-x="549" 
d="M315 575l-73 144h76l59 -78l94 78h83l-135 -144h-104zM265 -12q-96 0 -162.5 66.5t-66.5 159.5q0 128 100.5 221.5t231.5 93.5q55 0 103.5 -24t79.5 -64l-92 -65q-15 22 -44 35.5t-59 13.5q-80 0 -140 -63t-60 -144q0 -52 35.5 -89t85.5 -37q71 0 132 58l72 -79
q-95 -83 -216 -83z" />
    <glyph glyph-name="Dcaron" unicode="&#x10e;" horiz-adv-x="762" 
d="M368 745l-73 144h76l59 -78l94 78h83l-135 -144h-104zM26 0l143 687h238q144 0 235 -78t91 -201q0 -109 -62.5 -203t-168.5 -149.5t-229 -55.5h-247zM175 113h125q125 0 216 86t91 204q0 75 -56.5 123t-145.5 48h-134z" />
    <glyph glyph-name="dcaron" unicode="&#x10f;" horiz-adv-x="653" 
d="M496 424l57 275h122l-145 -699h-122l16 77q-81 -89 -190 -89q-84 0 -140 60t-56 148q0 134 87.5 233.5t210.5 99.5q52 0 94.5 -28.5t65.5 -76.5zM797 699q26 0 41.5 -19t15.5 -50q0 -43 -26 -80t-77 -82l-37 35q42 35 68 77q-24 -1 -37 13.5t-13 38.5q0 26 20 46.5
t45 20.5zM270 92q80 0 138.5 65.5t58.5 152.5q0 48 -34.5 81.5t-83.5 33.5q-77 0 -134 -65t-57 -152q0 -49 32 -82.5t80 -33.5z" />
    <glyph glyph-name="Dcroat" unicode="&#x110;" horiz-adv-x="795" 
d="M440 687q144 0 235 -78t91 -201q0 -109 -62.5 -203t-168.5 -149.5t-229 -55.5h-247l61 291h-72l24 114h71l59 282h238zM333 113q125 0 216 86t91 204q0 75 -56.5 123t-145.5 48h-134l-35 -169h172l-25 -114h-171l-37 -178h125z" />
    <glyph glyph-name="dcroat" unicode="&#x111;" horiz-adv-x="677" 
d="M724 643l-14 -66h-60l-120 -577h-122l16 77q-81 -89 -190 -89q-84 0 -140 60t-56 148q0 134 87.5 233.5t210.5 99.5q52 0 94.5 -28.5t65.5 -76.5l32 153h-160l14 66h159l12 56h122l-12 -56h61zM270 92q80 0 138.5 65.5t58.5 152.5q0 48 -34.5 81.5t-83.5 33.5
q-77 0 -134 -65t-57 -152q0 -49 32 -82.5t80 -33.5z" />
    <glyph glyph-name="Emacron" unicode="&#x112;" horiz-adv-x="637" 
d="M615 831l-15 -75h-334l15 75h334zM654 573h-393l-32 -166h353l-23 -114h-356l-35 -179h390l-24 -114h-517l143 687h517z" />
    <glyph glyph-name="emacron" unicode="&#x113;" horiz-adv-x="565" 
d="M549 661l-15 -75h-334l15 75h334zM353 529q83 0 137.5 -39.5t54.5 -102.5q0 -81 -66.5 -126t-183.5 -44h-144v-10q0 -54 29 -82.5t83 -28.5q86 0 152 56l66 -87q-40 -36 -101.5 -56.5t-122.5 -20.5q-99 0 -160 60t-61 157q0 131 95 227.5t222 96.5zM313 310q53 0 82.5 15
t29.5 43q0 24 -22 38.5t-56 14.5q-58 0 -103 -30t-70 -81h139z" />
    <glyph glyph-name="Edotaccent" unicode="&#x116;" horiz-adv-x="637" 
d="M443 758q-26 0 -42 16.5t-16 41.5q0 27 20 47t47 20q24 0 40.5 -17t16.5 -41q0 -27 -20.5 -47t-45.5 -20zM654 573h-393l-32 -166h353l-23 -114h-356l-35 -179h390l-24 -114h-517l143 687h517z" />
    <glyph glyph-name="edotaccent" unicode="&#x117;" horiz-adv-x="565" 
d="M377 588q-26 0 -42 16.5t-16 41.5q0 27 20 47t47 20q24 0 40.5 -17t16.5 -41q0 -27 -20.5 -47t-45.5 -20zM295 217h-144v-10q0 -54 29 -82.5t83 -28.5q86 0 152 56l66 -87q-40 -36 -101.5 -56.5t-122.5 -20.5q-99 0 -160 60t-61 157q0 131 95 227.5t222 96.5
q83 0 137.5 -39.5t54.5 -102.5q0 -81 -66.5 -126t-183.5 -44zM347 421q-58 0 -103 -30t-70 -81h139q53 0 82.5 15t29.5 43q0 24 -22 38.5t-56 14.5z" />
    <glyph glyph-name="Eogonek" unicode="&#x118;" horiz-adv-x="637" 
d="M654 573h-393l-32 -166h353l-23 -114h-356l-35 -179h390l-24 -114h-207q-29 0 -48.5 -18.5t-19.5 -45.5q0 -31 34 -31q31 0 50 19l21 -69q-40 -28 -88 -28q-45 0 -71 24.5t-26 66.5q0 48 31 82h-193l143 687h517z" />
    <glyph glyph-name="eogonek" unicode="&#x119;" horiz-adv-x="565" 
d="M295 217h-144v-10q0 -54 29 -82.5t83 -28.5q86 0 152 56l66 -87q-40 -35 -99.5 -55.5t-119.5 -21.5q-29 0 -48.5 -18.5t-19.5 -45.5q0 -31 34 -31q31 0 50 19l21 -69q-40 -28 -88 -28q-45 0 -71 24.5t-26 66.5q0 61 49 99q-60 23 -93.5 75.5t-33.5 124.5q0 131 95 227.5
t222 96.5q83 0 137.5 -39.5t54.5 -102.5q0 -81 -66.5 -126t-183.5 -44zM347 421q-58 0 -103 -30t-70 -81h139q53 0 82.5 15t29.5 43q0 24 -22 38.5t-56 14.5z" />
    <glyph glyph-name="Ecaron" unicode="&#x11a;" horiz-adv-x="637" 
d="M484 745h-104l-73 144h76l59 -78l94 78h83zM654 573h-393l-32 -166h353l-23 -114h-356l-35 -179h390l-24 -114h-517l143 687h517z" />
    <glyph glyph-name="ecaron" unicode="&#x11b;" horiz-adv-x="565" 
d="M418 575h-104l-73 144h76l59 -78l94 78h83zM353 529q83 0 137.5 -39.5t54.5 -102.5q0 -81 -66.5 -126t-183.5 -44h-144v-10q0 -54 29 -82.5t83 -28.5q86 0 152 56l66 -87q-40 -36 -101.5 -56.5t-122.5 -20.5q-99 0 -160 60t-61 157q0 131 95 227.5t222 96.5zM313 310
q53 0 82.5 15t29.5 43q0 24 -22 38.5t-56 14.5q-58 0 -103 -30t-70 -81h139z" />
    <glyph glyph-name="Gbreve" unicode="&#x11e;" horiz-adv-x="741" 
d="M509 753q-90 0 -144 66l67 55q33 -41 87 -41q57 0 109 44l49 -60q-77 -64 -168 -64zM388 273l21 101h294l-58 -278q-59 -50 -137 -79t-149 -29q-126 0 -213.5 86.5t-87.5 209.5q0 82 36.5 159t96.5 133t141 89.5t165 33.5q72 0 139 -31.5t107 -83.5l-101 -75
q-24 35 -67.5 55.5t-91.5 20.5q-119 0 -209 -90.5t-90 -208.5q0 -76 55 -130t133 -54q80 0 164 57l23 114h-171z" />
    <glyph glyph-name="gbreve" unicode="&#x11f;" horiz-adv-x="635" 
d="M387 583q-90 0 -144 66l67 55q33 -41 87 -41q57 0 109 44l49 -60q-77 -64 -168 -64zM496 517h123l-98 -467q-21 -101 -107 -161.5t-201 -60.5q-67 0 -122.5 20t-89.5 52l57 82q45 -50 144 -50q77 0 132.5 36.5t67.5 95.5l11 55q-79 -81 -187 -81q-87 0 -139.5 54
t-52.5 144q0 115 81.5 204t196.5 89q60 0 103.5 -26.5t63.5 -68.5zM268 142q61 0 111 39t67 95l6 29q1 6 1 17q0 48 -29 75.5t-79 27.5q-74 0 -129.5 -54t-55.5 -125q0 -48 29 -76t79 -28z" />
    <glyph glyph-name="Gcommaaccent" unicode="&#x122;" horiz-adv-x="741" 
d="M388 273l21 101h294l-58 -278q-59 -50 -137 -79t-149 -29q-126 0 -213.5 86.5t-87.5 209.5q0 82 36.5 159t96.5 133t141 89.5t165 33.5q72 0 139 -31.5t107 -83.5l-101 -75q-24 35 -67.5 55.5t-91.5 20.5q-119 0 -209 -90.5t-90 -208.5q0 -76 55 -130t133 -54
q80 0 164 57l23 114h-171zM336 -58q26 0 41.5 -19t15.5 -50q0 -43 -26 -80t-77 -82l-37 35q42 35 68 77q-24 -1 -37 13.5t-13 38.5q0 26 20 46.5t45 20.5z" />
    <glyph glyph-name="gcommaaccent" unicode="&#x123;" horiz-adv-x="600" 
d="M402 588q-26 0 -41.5 19t-15.5 50q0 43 26 80t77 82l37 -35q-42 -35 -68 -77q24 1 37 -13.5t13 -38.5q0 -26 -20 -46.5t-45 -20.5zM496 517h123l-98 -467q-21 -101 -107 -161.5t-201 -60.5q-67 0 -122.5 20t-89.5 52l57 82q45 -50 144 -50q77 0 132.5 36.5t67.5 95.5
l11 55q-79 -81 -187 -81q-87 0 -139.5 54t-52.5 144q0 115 81.5 204t196.5 89q60 0 103.5 -26.5t63.5 -68.5zM268 142q61 0 111 39t67 95l6 29q1 6 1 17q0 48 -29 75.5t-79 27.5q-74 0 -129.5 -54t-55.5 -125q0 -48 29 -76t79 -28z" />
    <glyph glyph-name="Imacron" unicode="&#x12a;" horiz-adv-x="270" 
d="M71 756l15 75h334l-15 -75h-334zM19 0l143 687h124l-143 -687h-124z" />
    <glyph glyph-name="imacron" unicode="&#x12b;" horiz-adv-x="257" 
d="M30 586l15 75h334l-15 -75h-334zM13 0l108 517h122l-108 -517h-122z" />
    <glyph glyph-name="Iogonek" unicode="&#x12e;" horiz-adv-x="270" 
d="M114 -95q31 0 50 19l21 -69q-40 -28 -88 -28q-45 0 -71 24.5t-26 66.5q0 48 31 82h-12l143 687h124l-143 -685l5 -2q-29 0 -48.5 -18.5t-19.5 -45.5q0 -31 34 -31z" />
    <glyph glyph-name="iogonek" unicode="&#x12f;" horiz-adv-x="257" 
d="M216 713q24 0 40.5 -17t16.5 -41q0 -27 -20.5 -47t-45.5 -20q-26 0 -42 16.5t-16 41.5q0 27 20 47t47 20zM18 23l103 494h122l-108 -517h-55q-29 0 -48.5 -18.5t-19.5 -45.5q0 -31 34 -31q31 0 50 19l21 -69q-40 -28 -88 -28q-45 0 -71 24.5t-26 66.5q0 76 69 111z" />
    <glyph glyph-name="Idotaccent" unicode="&#x130;" horiz-adv-x="270" 
d="M248 758q-26 0 -42 16.5t-16 41.5q0 27 20 47t47 20q24 0 40.5 -17t16.5 -41q0 -27 -20.5 -47t-45.5 -20zM19 0l143 687h124l-143 -687h-124z" />
    <glyph glyph-name="dotlessi" unicode="&#x131;" horiz-adv-x="257" 
d="M13 0l108 517h122l-108 -517h-122z" />
    <glyph glyph-name="Kcommaaccent" unicode="&#x136;" horiz-adv-x="682" 
d="M25 0l143 687h125l-69 -325l363 325h162l-341 -305l212 -382h-147l-165 296l-116 -100l-42 -196h-125zM239 -289l-37 35q42 35 68 77q-24 -1 -37 13.5t-13 38.5q0 26 20 46.5t45 20.5q26 0 41.5 -19t15.5 -50q0 -43 -26 -80t-77 -82z" />
    <glyph glyph-name="kcommaaccent" unicode="&#x137;" horiz-adv-x="562" 
d="M611 517l-262 -231l145 -286h-139l-102 206l-93 -79l-26 -127h-122l145 699h122l-89 -427l274 245h147zM223 -58q26 0 41.5 -19t15.5 -50q0 -43 -26 -80t-77 -82l-37 35q42 35 68 77q-24 -1 -37 13.5t-13 38.5q0 26 20 46.5t45 20.5z" />
    <glyph glyph-name="Lacute" unicode="&#x139;" horiz-adv-x="572" 
d="M446 875l-173 -130h-88l149 152zM161 114h351l-24 -114h-477l143 687h124z" />
    <glyph glyph-name="lacute" unicode="&#x13a;" horiz-adv-x="257" 
d="M180 757l149 152l112 -22l-173 -130h-88zM14 0l145 699h122l-145 -699h-122z" />
    <glyph glyph-name="Lcaron" unicode="&#x13d;" horiz-adv-x="572" 
d="M319 503q42 35 68 77q-24 -1 -37 13.5t-13 38.5q0 26 20 46.5t45 20.5q26 0 41.5 -19t15.5 -50q0 -43 -26 -80t-77 -82zM161 114h351l-24 -114h-477l143 687h124z" />
    <glyph glyph-name="lcaron" unicode="&#x13e;" horiz-adv-x="257" 
d="M14 0l145 699h122l-145 -699h-122zM357 468l-37 35q42 35 68 77q-24 -1 -37 13.5t-13 38.5q0 26 20 46.5t45 20.5q26 0 41.5 -19t15.5 -50q0 -43 -26 -80t-77 -82z" />
    <glyph glyph-name="Lslash" unicode="&#x141;" horiz-adv-x="613" 
d="M203 114h351l-24 -114h-477l52 250l-83 -38l21 111l85 39l68 325h124l-54 -262l137 63l-21 -112l-139 -63z" />
    <glyph glyph-name="lslash" unicode="&#x142;" horiz-adv-x="340" 
d="M352 464l-22 -112l-84 -38l-65 -314h-122l52 253l-89 -41l21 111l92 42l69 334h122l-57 -273z" />
    <glyph glyph-name="Nacute" unicode="&#x143;" horiz-adv-x="772" 
d="M381 745l149 152l112 -22l-173 -130h-88zM26 0l143 687h123l263 -483l102 483h124l-143 -687h-122l-263 483l-102 -483h-125z" />
    <glyph glyph-name="nacute" unicode="&#x144;" 
d="M531 705l-173 -130h-88l149 152zM396 529q74 0 118.5 -43.5t44.5 -113.5q0 -7 -0.5 -12.5t-1.5 -14.5t-2.5 -17.5t-4.5 -25t-6.5 -32.5t-9.5 -45t-12.5 -57.5t-16 -75t-19.5 -92.5h-118q18 86 41 196q27 130 27 147q0 38 -21.5 60t-58.5 22q-52 0 -97 -31.5t-58 -75.5
l-66 -318h-122l108 517h122l-13 -62q66 74 166 74z" />
    <glyph glyph-name="Ncommaaccent" unicode="&#x145;" horiz-adv-x="772" 
d="M26 0l143 687h123l263 -483l102 483h124l-143 -687h-122l-263 483l-102 -483h-125zM267 -289l-37 35q42 35 68 77q-24 -1 -37 13.5t-13 38.5q0 26 20 46.5t45 20.5q26 0 41.5 -19t15.5 -50q0 -43 -26 -80t-77 -82z" />
    <glyph glyph-name="ncommaaccent" unicode="&#x146;" 
d="M396 529q74 0 118.5 -43.5t44.5 -113.5q0 -7 -0.5 -12.5t-1.5 -14.5t-2.5 -17.5t-4.5 -25t-6.5 -32.5t-9.5 -45t-12.5 -57.5t-16 -75t-19.5 -92.5h-118q18 86 41 196q27 130 27 147q0 38 -21.5 60t-58.5 22q-52 0 -97 -31.5t-58 -75.5l-66 -318h-122l108 517h122l-13 -62
q66 74 166 74zM235 -58q26 0 41.5 -19t15.5 -50q0 -43 -26 -80t-77 -82l-37 35q42 35 68 77q-24 -1 -37 13.5t-13 38.5q0 26 20 46.5t45 20.5z" />
    <glyph glyph-name="Ncaron" unicode="&#x147;" horiz-adv-x="772" 
d="M435 745l-73 144h76l59 -78l94 78h83l-135 -144h-104zM26 0l143 687h123l263 -483l102 483h124l-143 -687h-122l-263 483l-102 -483h-125z" />
    <glyph glyph-name="ncaron" unicode="&#x148;" 
d="M428 575h-104l-73 144h76l59 -78l94 78h83zM396 529q74 0 118.5 -43.5t44.5 -113.5q0 -7 -0.5 -12.5t-1.5 -14.5t-2.5 -17.5t-4.5 -25t-6.5 -32.5t-9.5 -45t-12.5 -57.5t-16 -75t-19.5 -92.5h-118q18 86 41 196q27 130 27 147q0 38 -21.5 60t-58.5 22q-52 0 -97 -31.5
t-58 -75.5l-66 -318h-122l108 517h122l-13 -62q66 74 166 74z" />
    <glyph glyph-name="Omacron" unicode="&#x14c;" horiz-adv-x="810" 
d="M336 756l15 75h334l-15 -75h-334zM355 -12q-125 0 -211.5 86t-86.5 208q0 168 131.5 292.5t303.5 124.5q129 0 213 -84t84 -209q0 -110 -61 -207t-161 -154t-212 -57zM368 102q118 0 207 92t89 207q0 79 -52 131.5t-133 52.5q-117 0 -206.5 -90t-89.5 -207
q0 -77 54 -131.5t131 -54.5z" />
    <glyph glyph-name="omacron" unicode="&#x14d;" horiz-adv-x="634" 
d="M212 586l15 75h334l-15 -75h-334zM265 -12q-96 0 -162.5 66.5t-66.5 159.5q0 128 100 221.5t231 93.5q96 0 163.5 -66t67.5 -159q0 -128 -100.5 -222t-232.5 -94zM277 92q80 0 141.5 63t61.5 144q0 52 -36 89t-88 37q-80 0 -141 -63t-61 -144q0 -52 36 -89t87 -37z" />
    <glyph glyph-name="Ohungarumlaut" unicode="&#x150;" horiz-adv-x="810" 
d="M380 745l149 152l112 -22l-173 -130h-88zM603 745l149 151l112 -22l-172 -129h-89zM355 -12q-125 0 -211.5 86t-86.5 208q0 168 131.5 292.5t303.5 124.5q129 0 213 -84t84 -209q0 -110 -61 -207t-161 -154t-212 -57zM368 102q118 0 207 92t89 207q0 79 -52 131.5
t-133 52.5q-117 0 -206.5 -90t-89.5 -207q0 -77 54 -131.5t131 -54.5z" />
    <glyph glyph-name="ohungarumlaut" unicode="&#x151;" horiz-adv-x="634" 
d="M223 575l149 152l112 -22l-173 -130h-88zM446 575l149 151l112 -22l-172 -129h-89zM265 -12q-96 0 -162.5 66.5t-66.5 159.5q0 128 100 221.5t231 93.5q96 0 163.5 -66t67.5 -159q0 -128 -100.5 -222t-232.5 -94zM277 92q80 0 141.5 63t61.5 144q0 52 -36 89t-88 37
q-80 0 -141 -63t-61 -144q0 -52 36 -89t87 -37z" />
    <glyph glyph-name="OE" unicode="&#x152;" horiz-adv-x="1035" 
d="M1053 573h-393l-32 -166h353l-23 -114h-356l-35 -179h390l-24 -114h-577q-130 0 -215 78.5t-85 200.5q0 106 63 201t163.5 151t208.5 56h585zM372 114h68l95 459h-60q-110 0 -201.5 -90.5t-91.5 -199.5q0 -76 53.5 -122.5t136.5 -46.5z" />
    <glyph glyph-name="oe" unicode="&#x153;" horiz-adv-x="1002" 
d="M736 217h-144v-10q0 -54 29 -82.5t83 -28.5q86 0 152 56l66 -87q-40 -36 -101.5 -56.5t-122.5 -20.5q-65 0 -115 27t-77 75q-104 -102 -241 -102q-96 0 -162.5 66.5t-66.5 159.5q0 128 100 221.5t231 93.5q61 0 112.5 -29t83.5 -77q96 106 231 106q83 0 137.5 -39.5
t54.5 -102.5q0 -81 -66.5 -126t-183.5 -44zM277 92q80 0 141.5 63t61.5 144q0 52 -36 89t-88 37q-80 0 -141 -63t-61 -144q0 -52 36 -89t87 -37zM788 421q-58 0 -103 -30t-70 -81h139q53 0 82.5 15t29.5 43q0 24 -22 38.5t-56 14.5z" />
    <glyph glyph-name="Racute" unicode="&#x154;" horiz-adv-x="678" 
d="M597 875l-173 -130h-88l149 152zM672 495q0 -89 -60 -158t-155 -94l147 -243h-138l-141 231h-134l-49 -231h-125l143 687h295q96 0 156.5 -53.5t60.5 -138.5zM261 572l-47 -226h163q67 0 118 43t51 99q0 38 -32.5 61t-84.5 23h-168z" />
    <glyph glyph-name="racute" unicode="&#x155;" horiz-adv-x="419" 
d="M449 705l-173 -130h-88l149 152zM226 422q35 51 88 79t116 28l-14 -104q-83 0 -145.5 -47t-78.5 -121v1l-54 -258h-122l108 517h122z" />
    <glyph glyph-name="Rcommaaccent" unicode="&#x156;" horiz-adv-x="678" 
d="M672 495q0 -89 -60 -158t-155 -94l147 -243h-138l-141 231h-134l-49 -231h-125l143 687h295q96 0 156.5 -53.5t60.5 -138.5zM261 572l-47 -226h163q67 0 118 43t51 99q0 38 -32.5 61t-84.5 23h-168zM260 -58q26 0 41.5 -19t15.5 -50q0 -43 -26 -80t-77 -82l-37 35
q42 35 68 77q-24 -1 -37 13.5t-13 38.5q0 26 20 46.5t45 20.5z" />
    <glyph glyph-name="rcommaaccent" unicode="&#x157;" horiz-adv-x="419" 
d="M226 422q35 51 88 79t116 28l-14 -104q-83 0 -145.5 -47t-78.5 -121v1l-54 -258h-122l108 517h122zM118 -58q26 0 41.5 -19t15.5 -50q0 -43 -26 -80t-77 -82l-37 35q42 35 68 77q-24 -1 -37 13.5t-13 38.5q0 26 20 46.5t45 20.5z" />
    <glyph glyph-name="Rcaron" unicode="&#x158;" horiz-adv-x="678" 
d="M494 745h-104l-73 144h76l59 -78l94 78h83zM672 495q0 -89 -60 -158t-155 -94l147 -243h-138l-141 231h-134l-49 -231h-125l143 687h295q96 0 156.5 -53.5t60.5 -138.5zM261 572l-47 -226h163q67 0 118 43t51 99q0 38 -32.5 61t-84.5 23h-168z" />
    <glyph glyph-name="rcaron" unicode="&#x159;" horiz-adv-x="419" 
d="M346 575h-104l-73 144h76l59 -78l94 78h83zM226 422q35 51 88 79t116 28l-14 -104q-83 0 -145.5 -47t-78.5 -121v1l-54 -258h-122l108 517h122z" />
    <glyph glyph-name="Sacute" unicode="&#x15a;" horiz-adv-x="627" 
d="M296 745l149 152l112 -22l-173 -130h-88zM274 -11q-80 0 -155 31.5t-120 83.5l85 81q37 -41 91.5 -65t107.5 -24q73 0 117.5 33t44.5 82q0 27 -29 44t-103 36q-111 27 -160.5 63t-49.5 105q0 104 80.5 172.5t207.5 68.5q67 0 132 -27t110 -73l-81 -85q-34 36 -82.5 57
t-90.5 21q-67 0 -108 -32.5t-41 -80.5q0 -26 30 -43.5t104 -35.5q113 -27 161 -65t48 -107q0 -106 -84.5 -173t-214.5 -67z" />
    <glyph glyph-name="sacute" unicode="&#x15b;" horiz-adv-x="500" 
d="M213 575l149 152l112 -22l-173 -130h-88zM209 -12q-130 0 -217 80l67 79q65 -56 154 -56q46 0 77.5 19t31.5 48q0 16 -18 29t-67 28q-88 25 -126 51.5t-38 80.5q0 79 63.5 130.5t159.5 51.5q103 0 191 -65l-64 -84q-59 45 -130 45q-43 0 -72 -17t-29 -44
q0 -14 19.5 -26.5t69.5 -28.5q84 -26 121.5 -53.5t37.5 -82.5q0 -79 -66 -132t-165 -53z" />
    <glyph glyph-name="Scedilla" unicode="&#x15e;" horiz-adv-x="627" 
d="M364 401q113 -27 161 -65t48 -107q0 -101 -77 -166.5t-197 -72.5l-22 -34q28 -1 45 -18t17 -42q0 -41 -33 -66t-81 -25q-55 0 -92 31l28 47q21 -20 53 -20q29 0 45.5 10.5t16.5 28.5q0 10 -6.5 16.5t-16.5 6.5q-19 0 -37 -13l-20 23l35 56q-69 8 -131 38t-101 75l85 81
q37 -41 91.5 -65t107.5 -24q73 0 117.5 33t44.5 82q0 27 -29 44t-103 36q-111 27 -160.5 63t-49.5 105q0 104 80.5 172.5t207.5 68.5q67 0 132 -27t110 -73l-81 -85q-34 36 -82.5 57t-90.5 21q-67 0 -108 -32.5t-41 -80.5q0 -26 30 -43.5t104 -35.5z" />
    <glyph glyph-name="scedilla" unicode="&#x15f;" horiz-adv-x="500" 
d="M281 309q84 -26 121.5 -53.5t37.5 -82.5q0 -74 -58.5 -125.5t-148.5 -58.5l-21 -33q28 -1 45 -18t17 -42q0 -41 -33 -66t-81 -25q-55 0 -92 31l28 47q21 -20 53 -20q29 0 45.5 10.5t16.5 28.5q0 10 -6.5 16.5t-16.5 6.5q-19 0 -37 -13l-20 23l35 56q-103 12 -174 77
l67 79q65 -56 154 -56q46 0 77.5 19t31.5 48q0 16 -18 29t-67 28q-88 25 -126 51.5t-38 80.5q0 79 63.5 130.5t159.5 51.5q103 0 191 -65l-64 -84q-59 45 -130 45q-43 0 -72 -17t-29 -44q0 -14 19.5 -26.5t69.5 -28.5z" />
    <glyph glyph-name="Scaron" unicode="&#x160;" horiz-adv-x="627" 
d="M350 745l-73 144h76l59 -78l94 78h83l-135 -144h-104zM274 -11q-80 0 -155 31.5t-120 83.5l85 81q37 -41 91.5 -65t107.5 -24q73 0 117.5 33t44.5 82q0 27 -29 44t-103 36q-111 27 -160.5 63t-49.5 105q0 104 80.5 172.5t207.5 68.5q67 0 132 -27t110 -73l-81 -85
q-34 36 -82.5 57t-90.5 21q-67 0 -108 -32.5t-41 -80.5q0 -26 30 -43.5t104 -35.5q113 -27 161 -65t48 -107q0 -106 -84.5 -173t-214.5 -67z" />
    <glyph glyph-name="scaron" unicode="&#x161;" horiz-adv-x="500" 
d="M267 575l-73 144h76l59 -78l94 78h83l-135 -144h-104zM209 -12q-130 0 -217 80l67 79q65 -56 154 -56q46 0 77.5 19t31.5 48q0 16 -18 29t-67 28q-88 25 -126 51.5t-38 80.5q0 79 63.5 130.5t159.5 51.5q103 0 191 -65l-64 -84q-59 45 -130 45q-43 0 -72 -17t-29 -44
q0 -14 19.5 -26.5t69.5 -28.5q84 -26 121.5 -53.5t37.5 -82.5q0 -79 -66 -132t-165 -53z" />
    <glyph glyph-name="uni0162" unicode="&#x162;" horiz-adv-x="636" 
d="M125 687h564l-23 -114h-220l-120 -573h-27l-28 -44q28 -1 45 -18t17 -42q0 -41 -33 -66t-81 -25q-55 0 -92 31l28 47q21 -20 53 -20q29 0 45.5 10.5t16.5 28.5q0 10 -6.5 16.5t-16.5 6.5q-19 0 -37 -13l-20 23l40 65h-28l120 573h-220z" />
    <glyph glyph-name="uni0163" unicode="&#x163;" horiz-adv-x="392" 
d="M372 416h-116q-58 -277 -58 -286q0 -38 33 -38q36 0 60 22l24 -88q-30 -22 -65 -31l-25 -39q28 -1 45 -18t17 -42q0 -41 -33 -66t-81 -25q-55 0 -92 31l28 47q21 -20 53 -20q29 0 45.5 10.5t16.5 28.5q0 10 -6.5 16.5t-16.5 6.5q-19 0 -37 -13l-20 23l34 55
q-46 6 -73.5 38t-27.5 80q0 21 60 308h-75l21 101h75l30 142h119l-30 -142h117z" />
    <glyph glyph-name="Tcaron" unicode="&#x164;" horiz-adv-x="636" 
d="M368 745l-73 144h76l59 -78l94 78h83l-135 -144h-104zM202 0l120 573h-220l23 114h564l-23 -114h-220l-120 -573h-124z" />
    <glyph glyph-name="tcaron" unicode="&#x165;" horiz-adv-x="392" 
d="M555 699q26 0 41.5 -19t15.5 -50q0 -43 -26 -80t-77 -82l-37 35q42 35 68 77q-24 -1 -37 13.5t-13 38.5q0 26 20 46.5t45 20.5zM307 659l-30 -142h117l-22 -101h-116q-58 -277 -58 -286q0 -38 33 -38q36 0 60 22l24 -88q-52 -38 -115 -38q-56 0 -89.5 33.5t-33.5 86.5
q0 21 60 308h-75l21 101h75l30 142h119z" />
    <glyph glyph-name="Umacron" unicode="&#x16a;" horiz-adv-x="752" 
d="M312 756l15 75h334l-15 -75h-334zM325 -12q-135 0 -203.5 87.5t-40.5 222.5l81 389h124l-82 -395q-17 -85 20 -138t114 -53q81 0 144.5 57t81.5 144l79 385h125l-83 -399q-28 -133 -128 -216.5t-232 -83.5z" />
    <glyph glyph-name="umacron" unicode="&#x16b;" 
d="M553 661l-15 -75h-334l15 75h334zM471 517h122l-108 -517h-122l13 62q-66 -74 -166 -74q-74 0 -118.5 43.5t-44.5 113.5q0 7 0.5 12.5t1.5 14.5t2.5 17.5t4.5 25t6.5 32.5t9.5 45t12.5 57.5t16 75t19.5 92.5h118q-18 -86 -41 -196q-27 -130 -27 -147q0 -38 21.5 -60
t58.5 -22q52 0 97 31.5t58 75.5z" />
    <glyph glyph-name="Uring" unicode="&#x16e;" horiz-adv-x="752" 
d="M479 753q-39 0 -64.5 25.5t-25.5 63.5q0 52 42 92t94 40q39 0 64 -25t25 -62q0 -53 -41.5 -93.5t-93.5 -40.5zM490 809q26 0 47 20t21 46q0 19 -13 31.5t-32 12.5q-25 0 -46 -20t-21 -46q0 -19 12.5 -31.5t31.5 -12.5zM325 -12q-135 0 -203.5 87.5t-40.5 222.5l81 389
h124l-82 -395q-17 -85 20 -138t114 -53q81 0 144.5 57t81.5 144l79 385h125l-83 -399q-28 -133 -128 -216.5t-232 -83.5z" />
    <glyph glyph-name="uring" unicode="&#x16f;" 
d="M371 583q-39 0 -64.5 25.5t-25.5 63.5q0 52 42 92t94 40q39 0 64 -25t25 -62q0 -53 -41.5 -93.5t-93.5 -40.5zM405 749q-25 0 -46 -20t-21 -46q0 -19 12.5 -31.5t31.5 -12.5q26 0 47 20t21 46q0 19 -13 31.5t-32 12.5zM471 517h122l-108 -517h-122l13 62
q-66 -74 -166 -74q-74 0 -118.5 43.5t-44.5 113.5q0 7 0.5 12.5t1.5 14.5t2.5 17.5t4.5 25t6.5 32.5t9.5 45t12.5 57.5t16 75t19.5 92.5h118q-18 -86 -41 -196q-27 -130 -27 -147q0 -38 21.5 -60t58.5 -22q52 0 97 31.5t58 75.5z" />
    <glyph glyph-name="Uhungarumlaut" unicode="&#x170;" horiz-adv-x="752" 
d="M248 745l149 152l112 -22l-173 -130h-88zM471 745l149 151l112 -22l-172 -129h-89zM325 -12q-135 0 -203.5 87.5t-40.5 222.5l81 389h124l-82 -395q-17 -85 20 -138t114 -53q81 0 144.5 57t81.5 144l79 385h125l-83 -399q-28 -133 -128 -216.5t-232 -83.5z" />
    <glyph glyph-name="uhungarumlaut" unicode="&#x171;" 
d="M401 705l-173 -130h-88l149 152zM452 575h-89l149 151l112 -22zM405 199l66 318h122l-108 -517h-122l13 62q-66 -74 -166 -74q-74 0 -118.5 43.5t-44.5 113.5q0 7 0.5 12.5t1.5 14.5t2.5 17.5t4.5 25t6.5 32.5t9.5 45t12.5 57.5t16 75t19.5 92.5h118q-18 -86 -41 -196
q-27 -130 -27 -147q0 -38 21.5 -60t58.5 -22q52 0 97 31.5t58 75.5z" />
    <glyph glyph-name="Uogonek" unicode="&#x172;" horiz-adv-x="752" 
d="M643 687h125l-83 -399q-28 -133 -128 -216.5t-232 -83.5q-14 0 -21 1q-28 -20 -28 -53q0 -31 34 -31q31 0 50 19l21 -69q-40 -28 -88 -28q-45 0 -71 24.5t-26 66.5q0 49 33 84q-89 30 -129.5 109t-18.5 187l81 389h124l-82 -395q-17 -85 20 -138t114 -53q81 0 144.5 57
t81.5 144z" />
    <glyph glyph-name="uogonek" unicode="&#x173;" 
d="M452 -95q31 0 50 19l21 -69q-40 -28 -88 -28q-45 0 -71 24.5t-26 66.5q0 48 31 82h-6l13 62q-66 -74 -166 -74q-74 0 -118.5 43.5t-44.5 113.5q0 7 0.5 12.5t1.5 14.5t2.5 17.5t4.5 25t6.5 32.5t9.5 45t12.5 57.5t16 75t19.5 92.5h118q-18 -86 -41 -196
q-27 -130 -27 -147q0 -38 21.5 -60t58.5 -22q52 0 97 31.5t58 75.5l66 318h122l-108 -517h1q-29 0 -48.5 -18.5t-19.5 -45.5q0 -31 34 -31z" />
    <glyph glyph-name="Wcircumflex" unicode="&#x174;" horiz-adv-x="1079" 
d="M482 745l133 144h104l75 -144h-77l-59 79l-94 -79h-82zM189 0l-75 687h135l44 -492l266 492h136l58 -492l251 492h139l-360 -687h-125l-64 510l-281 -510h-124z" />
    <glyph glyph-name="wcircumflex" unicode="&#x175;" horiz-adv-x="839" 
d="M327 575l133 144h104l75 -144h-77l-59 79l-94 -79h-82zM145 0l-67 517h119l34 -353l190 353h102l41 -353l182 353h124l-282 -517h-111l-36 354l-185 -354h-111z" />
    <glyph glyph-name="Ycircumflex" unicode="&#x176;" horiz-adv-x="686" 
d="M275 745l133 144h104l75 -144h-77l-59 79l-94 -79h-82zM224 0l56 258l-183 429h120l139 -321l266 321h145l-360 -429l-56 -258h-127z" />
    <glyph glyph-name="ycircumflex" unicode="&#x177;" horiz-adv-x="599" 
d="M206 575l133 144h104l75 -144h-77l-59 79l-94 -79h-82zM86 -180q-58 0 -111 29l37 84q28 -17 60 -17q50 0 77 38l34 42l-109 521h126l70 -386l223 386h129l-335 -558q-84 -139 -201 -139z" />
    <glyph glyph-name="Ydieresis" unicode="&#x178;" horiz-adv-x="686" 
d="M341 758q-26 0 -42 16.5t-16 41.5q0 27 20 47t47 20q24 0 40.5 -17t16.5 -41q0 -27 -20.5 -47t-45.5 -20zM546 758q-26 0 -42 16.5t-16 41.5q0 27 20.5 47t46.5 20q25 0 41 -17t16 -41q0 -27 -20.5 -47t-45.5 -20zM224 0l56 258l-183 429h120l139 -321l266 321h145
l-360 -429l-56 -258h-127z" />
    <glyph glyph-name="Zacute" unicode="&#x179;" horiz-adv-x="651" 
d="M326 745l149 152l112 -22l-173 -130h-88zM0 0l17 95l478 478h-370l24 114h542l-19 -95l-477 -478h381l-24 -114h-552z" />
    <glyph glyph-name="zacute" unicode="&#x17a;" horiz-adv-x="527" 
d="M232 575l149 152l112 -22l-173 -130h-88zM-6 0l17 89l341 321h-267l22 107h429l-17 -89l-342 -321h276l-23 -107h-436z" />
    <glyph glyph-name="Zdotaccent" unicode="&#x17b;" horiz-adv-x="651" 
d="M443 758q-26 0 -42 16.5t-16 41.5q0 27 20 47t47 20q24 0 40.5 -17t16.5 -41q0 -27 -20.5 -47t-45.5 -20zM0 0l17 95l478 478h-370l24 114h542l-19 -95l-477 -478h381l-24 -114h-552z" />
    <glyph glyph-name="zdotaccent" unicode="&#x17c;" horiz-adv-x="527" 
d="M349 588q-26 0 -42 16.5t-16 41.5q0 27 20 47t47 20q24 0 40.5 -17t16.5 -41q0 -27 -20.5 -47t-45.5 -20zM-6 0l17 89l341 321h-267l22 107h429l-17 -89l-342 -321h276l-23 -107h-436z" />
    <glyph glyph-name="Zcaron" unicode="&#x17d;" horiz-adv-x="651" 
d="M380 745l-73 144h76l59 -78l94 78h83l-135 -144h-104zM0 0l17 95l478 478h-370l24 114h542l-19 -95l-477 -478h381l-24 -114h-552z" />
    <glyph glyph-name="zcaron" unicode="&#x17e;" horiz-adv-x="527" 
d="M286 575l-73 144h76l59 -78l94 78h83l-135 -144h-104zM-6 0l17 89l341 321h-267l22 107h429l-17 -89l-342 -321h276l-23 -107h-436z" />
    <glyph glyph-name="uni0237" unicode="&#x237;" horiz-adv-x="257" 
d="M-42 -178q-55 0 -97 21l26 89q22 -8 51 -8q26 0 47 19t26 46l110 528h122l-114 -547q-13 -67 -60.5 -107.5t-110.5 -40.5z" />
    <glyph glyph-name="circumflex" unicode="&#x2c6;" horiz-adv-x="438" 
d="M129 575l133 144h104l75 -144h-77l-59 79l-94 -79h-82z" />
    <glyph glyph-name="caron" unicode="&#x2c7;" horiz-adv-x="438" 
d="M232 575l-73 144h76l59 -78l94 78h83l-135 -144h-104z" />
    <glyph glyph-name="breve" unicode="&#x2d8;" horiz-adv-x="439" 
d="M289 583q-90 0 -144 66l67 55q33 -41 87 -41q57 0 109 44l49 -60q-77 -64 -168 -64z" />
    <glyph glyph-name="dotaccent" unicode="&#x2d9;" horiz-adv-x="250" 
d="M203 588q-26 0 -42 16.5t-16 41.5q0 27 20 47t47 20q24 0 40.5 -17t16.5 -41q0 -27 -20.5 -47t-45.5 -20z" />
    <glyph glyph-name="ring" unicode="&#x2da;" horiz-adv-x="346" 
d="M241 583q-39 0 -64.5 25.5t-25.5 63.5q0 52 42 92t94 40q39 0 64 -25t25 -62q0 -53 -41.5 -93.5t-93.5 -40.5zM252 639q26 0 47 20t21 46q0 19 -13 31.5t-32 12.5q-25 0 -46 -20t-21 -46q0 -19 12.5 -31.5t31.5 -12.5z" />
    <glyph glyph-name="ogonek" unicode="&#x2db;" horiz-adv-x="327" 
d="M92 -173q-45 0 -71 24.5t-26 66.5q0 76 69 111l79 -29q-29 0 -48.5 -18.5t-19.5 -45.5q0 -31 34 -31q31 0 50 19l21 -69q-40 -28 -88 -28z" />
    <glyph glyph-name="tilde" unicode="&#x2dc;" horiz-adv-x="404" 
d="M342 573q-27 0 -49.5 14t-39.5 28t-30 14q-42 0 -65 -62l-61 19q40 123 124 123q26 0 49 -14t40 -28t30 -14q41 0 64 62l62 -19q-40 -123 -124 -123z" />
    <glyph glyph-name="hungarumlaut" unicode="&#x2dd;" horiz-adv-x="584" 
d="M129 575l149 152l112 -22l-173 -130h-88zM352 575l149 151l112 -22l-172 -129h-89z" />
    <glyph glyph-name="uni0326" unicode="&#x326;" horiz-adv-x="0" 
d="M-261 -289l-37 35q42 35 68 77q-24 -1 -37 13.5t-13 38.5q0 26 20 46.5t45 20.5q26 0 41.5 -19t15.5 -50q0 -43 -26 -80t-77 -82z" />
    <glyph glyph-name="Wgrave" unicode="&#x1e80;" horiz-adv-x="1079" 
d="M596 745l-119 130l115 22l86 -152h-82zM189 0l-75 687h135l44 -492l266 492h136l58 -492l251 492h139l-360 -687h-125l-64 510l-281 -510h-124z" />
    <glyph glyph-name="wgrave" unicode="&#x1e81;" horiz-adv-x="839" 
d="M437 575l-119 130l115 22l86 -152h-82zM145 0l-67 517h119l34 -353l190 353h102l41 -353l182 353h124l-282 -517h-111l-36 354l-185 -354h-111z" />
    <glyph glyph-name="Wacute" unicode="&#x1e82;" horiz-adv-x="1079" 
d="M599 745l149 152l112 -22l-173 -130h-88zM189 0l-75 687h135l44 -492l266 492h136l58 -492l251 492h139l-360 -687h-125l-64 510l-281 -510h-124z" />
    <glyph glyph-name="wacute" unicode="&#x1e83;" horiz-adv-x="839" 
d="M441 575l149 152l112 -22l-173 -130h-88zM145 0l-67 517h119l34 -353l190 353h102l41 -353l182 353h124l-282 -517h-111l-36 354l-185 -354h-111z" />
    <glyph glyph-name="Wdieresis" unicode="&#x1e84;" horiz-adv-x="1079" 
d="M548 758q-26 0 -42 16.5t-16 41.5q0 27 20 47t47 20q24 0 40.5 -17t16.5 -41q0 -27 -20.5 -47t-45.5 -20zM753 758q-26 0 -42 16.5t-16 41.5q0 27 20.5 47t46.5 20q25 0 41 -17t16 -41q0 -27 -20.5 -47t-45.5 -20zM189 0l-75 687h135l44 -492l266 492h136l58 -492
l251 492h139l-360 -687h-125l-64 510l-281 -510h-124z" />
    <glyph glyph-name="wdieresis" unicode="&#x1e85;" horiz-adv-x="839" 
d="M393 588q-26 0 -42 16.5t-16 41.5q0 27 20 47t47 20q24 0 40.5 -17t16.5 -41q0 -27 -20.5 -47t-45.5 -20zM598 588q-26 0 -42 16.5t-16 41.5q0 27 20.5 47t46.5 20q25 0 41 -17t16 -41q0 -27 -20.5 -47t-45.5 -20zM145 0l-67 517h119l34 -353l190 353h102l41 -353
l182 353h124l-282 -517h-111l-36 354l-185 -354h-111z" />
    <glyph glyph-name="uni1EB8" unicode="&#x1eb8;" horiz-adv-x="637" 
d="M654 573h-393l-32 -166h353l-23 -114h-356l-35 -179h390l-24 -114h-517l143 687h517zM257 -56q24 0 40.5 -17t16.5 -41q0 -27 -20.5 -47t-45.5 -20q-26 0 -42 16.5t-16 41.5q0 27 20 47t47 20z" />
    <glyph glyph-name="uni1EB9" unicode="&#x1eb9;" horiz-adv-x="600" 
d="M295 217h-144v-10q0 -54 29 -82.5t83 -28.5q86 0 152 56l66 -87q-40 -36 -101.5 -56.5t-122.5 -20.5q-99 0 -160 60t-61 157q0 131 95 227.5t222 96.5q83 0 137.5 -39.5t54.5 -102.5q0 -81 -66.5 -126t-183.5 -44zM347 421q-58 0 -103 -30t-70 -81h139q53 0 82.5 15
t29.5 43q0 24 -22 38.5t-56 14.5zM210 -74q24 0 40.5 -17t16.5 -41q0 -27 -20.5 -47t-45.5 -20q-26 0 -42 16.5t-16 41.5q0 27 20 47t47 20z" />
    <glyph glyph-name="uni1EBC" unicode="&#x1ebc;" horiz-adv-x="637" 
d="M386 799q-42 0 -65 -62l-61 19q40 123 124 123q26 0 49 -14t40 -28t30 -14q41 0 64 62l62 -19q-40 -123 -124 -123q-27 0 -49.5 14t-39.5 28t-30 14zM654 573h-393l-32 -166h353l-23 -114h-356l-35 -179h390l-24 -114h-517l143 687h517z" />
    <glyph glyph-name="uni1EBD" unicode="&#x1ebd;" horiz-adv-x="565" 
d="M320 629q-42 0 -65 -62l-61 19q40 123 124 123q26 0 49 -14t40 -28t30 -14q41 0 64 62l62 -19q-40 -123 -124 -123q-27 0 -49.5 14t-39.5 28t-30 14zM353 529q83 0 137.5 -39.5t54.5 -102.5q0 -81 -66.5 -126t-183.5 -44h-144v-10q0 -54 29 -82.5t83 -28.5q86 0 152 56
l66 -87q-40 -36 -101.5 -56.5t-122.5 -20.5q-99 0 -160 60t-61 157q0 131 95 227.5t222 96.5zM313 310q53 0 82.5 15t29.5 43q0 24 -22 38.5t-56 14.5q-58 0 -103 -30t-70 -81h139z" />
    <glyph glyph-name="Ygrave" unicode="&#x1ef2;" horiz-adv-x="686" 
d="M434 745l-119 130l115 22l86 -152h-82zM224 0l56 258l-183 429h120l139 -321l266 321h145l-360 -429l-56 -258h-127z" />
    <glyph glyph-name="ygrave" unicode="&#x1ef3;" horiz-adv-x="599" 
d="M365 575l-119 130l115 22l86 -152h-82zM86 -180q-58 0 -111 29l37 84q28 -17 60 -17q50 0 77 38l34 42l-109 521h126l70 -386l223 386h129l-335 -558q-84 -139 -201 -139z" />
    <glyph glyph-name="uni2002" unicode="&#x2002;" horiz-adv-x="500" 
 />
    <glyph glyph-name="uni2003" unicode="&#x2003;" horiz-adv-x="1000" 
 />
    <glyph glyph-name="uni2004" unicode="&#x2004;" horiz-adv-x="333" 
 />
    <glyph glyph-name="uni2005" unicode="&#x2005;" horiz-adv-x="250" 
 />
    <glyph glyph-name="uni2006" unicode="&#x2006;" horiz-adv-x="166" 
 />
    <glyph glyph-name="endash" unicode="&#x2013;" horiz-adv-x="574" 
d="M42 222l21 105h476l-22 -105h-475z" />
    <glyph glyph-name="emdash" unicode="&#x2014;" horiz-adv-x="879" 
d="M42 222l21 105h781l-22 -105h-780z" />
    <glyph glyph-name="quoteleft" unicode="&#x2018;" horiz-adv-x="283" 
d="M240 689l46 -42q-51 -43 -83 -96q27 0 44.5 -18t17.5 -47q0 -36 -26 -61.5t-60 -25.5q-33 0 -52 23t-19 62q0 53 35 102t97 103z" />
    <glyph glyph-name="quoteright" unicode="&#x2019;" horiz-adv-x="283" 
d="M162 397l-46 42q51 43 83 96q-27 0 -44.5 18t-17.5 47q0 36 26 61.5t60 25.5q33 0 52 -23t19 -62q0 -53 -35 -102t-97 -103z" />
    <glyph glyph-name="quotedblleft" unicode="&#x201c;" horiz-adv-x="523" 
d="M240 685l46 -42q-51 -43 -83 -96q27 0 44.5 -18t17.5 -47q0 -36 -26 -61.5t-60 -25.5q-33 0 -52 23t-19 62q0 53 35 102t97 103zM479 685l46 -42q-51 -43 -83 -96q27 0 44.5 -18t17.5 -47q0 -36 -26 -61.5t-60 -25.5q-33 0 -52 23t-19 62q0 53 35 102t97 103z" />
    <glyph glyph-name="quotedblright" unicode="&#x201d;" horiz-adv-x="523" 
d="M162 397l-46 42q51 43 83 96q-27 0 -44.5 18t-17.5 47q0 36 26 61.5t60 25.5q33 0 52 -23t19 -62q0 -53 -35 -102t-97 -103zM402 397l-46 42q51 43 83 96q-27 0 -44.5 18t-17.5 47q0 36 26 61.5t60 25.5q33 0 52 -23t19 -62q0 -53 -35 -102t-97 -103z" />
    <glyph glyph-name="bullet" unicode="&#x2022;" horiz-adv-x="422" 
d="M202 166q-50 0 -82 32t-32 80q0 60 46 105.5t106 45.5q49 0 81 -32t32 -80q0 -60 -46 -105.5t-105 -45.5z" />
    <glyph glyph-name="ellipsis" unicode="&#x2026;" horiz-adv-x="758" 
d="M92 -12q-32 0 -51.5 20t-19.5 51q0 36 26.5 61t60.5 25q30 0 49.5 -20t19.5 -49q0 -35 -26 -61.5t-59 -26.5zM332 -12q-32 0 -51.5 20t-19.5 51q0 36 26.5 61t60.5 25q30 0 49.5 -20t19.5 -49q0 -35 -26 -61.5t-59 -26.5zM572 -12q-32 0 -51.5 20t-19.5 51q0 36 26.5 61
t60.5 25q30 0 49.5 -20t19.5 -49q0 -35 -26 -61.5t-59 -26.5z" />
    <glyph glyph-name="uni202F" unicode="&#x202f;" horiz-adv-x="283" 
 />
    <glyph glyph-name="perthousand" unicode="&#x2030;" horiz-adv-x="1209" 
d="M234 345q-66 0 -104 39t-38 101q0 84 58 146t140 62q67 0 104.5 -39.5t37.5 -101.5q0 -84 -58 -145.5t-140 -61.5zM73 0l618 687h95l-617 -687h-96zM233 420q46 0 80 41.5t34 91.5q0 30 -15 47.5t-42 17.5q-47 0 -80.5 -43t-33.5 -91q0 -29 15.5 -46.5t41.5 -17.5z
M567 -10q-66 0 -104.5 39t-38.5 102q0 83 58.5 145.5t140.5 62.5q66 0 103.5 -40t37.5 -102q0 -83 -58 -145t-139 -62zM952 -10q-65 0 -104 39.5t-39 101.5q0 83 58.5 145.5t140.5 62.5q66 0 104 -40t38 -102q0 -83 -58 -145t-140 -62zM566 65q47 0 81 42.5t34 91.5
q0 30 -16 47t-42 17q-47 0 -80.5 -41.5t-33.5 -92.5q0 -30 15 -47t42 -17zM952 65q47 0 80.5 42.5t33.5 91.5q0 30 -15.5 47t-41.5 17q-47 0 -80.5 -41.5t-33.5 -92.5q0 -30 15 -47t42 -17z" />
    <glyph glyph-name="guilsinglleft" unicode="&#x2039;" horiz-adv-x="335" 
d="M156 50l-123 203l203 201l96 -22l-182 -178l105 -181z" />
    <glyph glyph-name="guilsinglright" unicode="&#x203a;" horiz-adv-x="337" 
d="M96 50l-95 23l183 181l-106 178l98 22l124 -201z" />
    <glyph glyph-name="Euro" unicode="&#x20ac;" horiz-adv-x="694" 
d="M370 102q44 0 97 23t92 60l76 -89q-56 -47 -134 -77.5t-145 -30.5q-109 0 -192.5 72t-100.5 180h-85l14 71h68q3 39 14 80h-65l15 71h79q55 105 161 171t228 66q70 0 135.5 -32t105.5 -83l-101 -75q-23 34 -65 55t-88 21q-69 0 -131.5 -33.5t-104.5 -89.5h265l-15 -71
h-289q-16 -40 -19 -80h291l-14 -71h-272q16 -61 67 -99.5t113 -38.5z" />
    <glyph glyph-name="minus" unicode="&#x2212;" horiz-adv-x="600" 
d="M67 282l22 104h475l-22 -104h-475z" />
    <glyph glyph-name="a.alt" horiz-adv-x="578" 
d="M340 529q89 0 139 -45.5t50 -122.5q0 -8 -0.5 -14.5t-1.5 -14.5t-3.5 -22.5t-5.5 -29l-9 -43.5t-12 -57.5t-17 -79t-21 -100.5h-119q9 43 11 54q-69 -66 -168 -66q-75 0 -121.5 38t-46.5 101q0 87 72.5 142.5t168.5 55.5q72 0 145 -30q9 43 9 56q0 78 -98 78
q-62 0 -152 -42l-33 89q116 53 213 53zM373 167l1 -3q2 8 4.5 21t4.5 22t4 17q-51 16 -115 16q-54 0 -96.5 -32t-42.5 -75q0 -27 21.5 -41.5t57.5 -14.5q50 0 97 25t64 65z" />
    <glyph glyph-name="aacute.alt" horiz-adv-x="578" 
d="M519 705l-173 -130h-88l149 152zM340 529q89 0 139 -45.5t50 -122.5q0 -8 -0.5 -14.5t-1.5 -14.5t-3.5 -22.5t-5.5 -29l-9 -43.5t-12 -57.5t-17 -79t-21 -100.5h-119q9 43 11 54q-69 -66 -168 -66q-75 0 -121.5 38t-46.5 101q0 87 72.5 142.5t168.5 55.5q72 0 145 -30
q9 43 9 56q0 78 -98 78q-62 0 -152 -42l-33 89q116 53 213 53zM373 167l1 -3q2 8 4.5 21t4.5 22t4 17q-51 16 -115 16q-54 0 -96.5 -32t-42.5 -75q0 -27 21.5 -41.5t57.5 -14.5q50 0 97 25t64 65z" />
    <glyph glyph-name="abreve.alt" horiz-adv-x="578" 
d="M368 583q-90 0 -144 66l67 55q33 -41 87 -41q57 0 109 44l49 -60q-77 -64 -168 -64zM340 529q89 0 139 -45.5t50 -122.5q0 -8 -0.5 -14.5t-1.5 -14.5t-3.5 -22.5t-5.5 -29l-9 -43.5t-12 -57.5t-17 -79t-21 -100.5h-119q9 43 11 54q-69 -66 -168 -66q-75 0 -121.5 38
t-46.5 101q0 87 72.5 142.5t168.5 55.5q72 0 145 -30q9 43 9 56q0 78 -98 78q-62 0 -152 -42l-33 89q116 53 213 53zM373 167l1 -3q2 8 4.5 21t4.5 22t4 17q-51 16 -115 16q-54 0 -96.5 -32t-42.5 -75q0 -27 21.5 -41.5t57.5 -14.5q50 0 97 25t64 65z" />
    <glyph glyph-name="acircumflex.alt" horiz-adv-x="578" 
d="M382 654l-94 -79h-82l133 144h104l75 -144h-77zM340 529q89 0 139 -45.5t50 -122.5q0 -8 -0.5 -14.5t-1.5 -14.5t-3.5 -22.5t-5.5 -29l-9 -43.5t-12 -57.5t-17 -79t-21 -100.5h-119q9 43 11 54q-69 -66 -168 -66q-75 0 -121.5 38t-46.5 101q0 87 72.5 142.5t168.5 55.5
q72 0 145 -30q9 43 9 56q0 78 -98 78q-62 0 -152 -42l-33 89q116 53 213 53zM373 167l1 -3q2 8 4.5 21t4.5 22t4 17q-51 16 -115 16q-54 0 -96.5 -32t-42.5 -75q0 -27 21.5 -41.5t57.5 -14.5q50 0 97 25t64 65z" />
    <glyph glyph-name="adieresis.alt" horiz-adv-x="578" 
d="M272 588q-26 0 -42 16.5t-16 41.5q0 27 20 47t47 20q24 0 40.5 -17t16.5 -41q0 -27 -20.5 -47t-45.5 -20zM477 588q-26 0 -42 16.5t-16 41.5q0 27 20.5 47t46.5 20q25 0 41 -17t16 -41q0 -27 -20.5 -47t-45.5 -20zM340 529q89 0 139 -45.5t50 -122.5q0 -8 -0.5 -14.5
t-1.5 -14.5t-3.5 -22.5t-5.5 -29l-9 -43.5t-12 -57.5t-17 -79t-21 -100.5h-119q9 43 11 54q-69 -66 -168 -66q-75 0 -121.5 38t-46.5 101q0 87 72.5 142.5t168.5 55.5q72 0 145 -30q9 43 9 56q0 78 -98 78q-62 0 -152 -42l-33 89q116 53 213 53zM373 167l1 -3q2 8 4.5 21
t4.5 22t4 17q-51 16 -115 16q-54 0 -96.5 -32t-42.5 -75q0 -27 21.5 -41.5t57.5 -14.5q50 0 97 25t64 65z" />
    <glyph glyph-name="agrave.alt" horiz-adv-x="578" 
d="M447 575h-82l-119 130l115 22zM340 529q89 0 139 -45.5t50 -122.5q0 -8 -0.5 -14.5t-1.5 -14.5t-3.5 -22.5t-5.5 -29l-9 -43.5t-12 -57.5t-17 -79t-21 -100.5h-119q9 43 11 54q-69 -66 -168 -66q-75 0 -121.5 38t-46.5 101q0 87 72.5 142.5t168.5 55.5q72 0 145 -30
q9 43 9 56q0 78 -98 78q-62 0 -152 -42l-33 89q116 53 213 53zM373 167l1 -3q2 8 4.5 21t4.5 22t4 17q-51 16 -115 16q-54 0 -96.5 -32t-42.5 -75q0 -27 21.5 -41.5t57.5 -14.5q50 0 97 25t64 65z" />
    <glyph glyph-name="amacron.alt" horiz-adv-x="578" 
d="M213 661h334l-15 -75h-334zM340 529q89 0 139 -45.5t50 -122.5q0 -8 -0.5 -14.5t-1.5 -14.5t-3.5 -22.5t-5.5 -29l-9 -43.5t-12 -57.5t-17 -79t-21 -100.5h-119q9 43 11 54q-69 -66 -168 -66q-75 0 -121.5 38t-46.5 101q0 87 72.5 142.5t168.5 55.5q72 0 145 -30
q9 43 9 56q0 78 -98 78q-62 0 -152 -42l-33 89q116 53 213 53zM373 167l1 -3q2 8 4.5 21t4.5 22t4 17q-51 16 -115 16q-54 0 -96.5 -32t-42.5 -75q0 -27 21.5 -41.5t57.5 -14.5q50 0 97 25t64 65z" />
    <glyph glyph-name="aogonek.alt" horiz-adv-x="578" 
d="M430 -95q31 0 50 19l21 -69q-40 -28 -88 -28q-45 0 -71 24.5t-26 66.5q0 48 31 82h-7q9 43 11 54q-69 -66 -168 -66q-75 0 -121.5 38t-46.5 101q0 87 72.5 142.5t168.5 55.5q72 0 145 -30q9 43 9 56q0 78 -98 78q-62 0 -152 -42l-33 89q116 53 213 53q89 0 139 -45.5
t50 -122.5q0 -8 -0.5 -14.5t-1.5 -14.5t-3.5 -22.5t-5.5 -29t-9 -43l-12 -57t-17 -78.5t-21 -100l5 -2q-29 0 -48.5 -18.5t-19.5 -45.5q0 -31 34 -31zM373 167l1 -3q2 8 4.5 21t4.5 22t4 17q-51 16 -115 16q-54 0 -96.5 -32t-42.5 -75q0 -27 21.5 -41.5t57.5 -14.5
q50 0 97 25t64 65z" />
    <glyph glyph-name="aring.alt" horiz-adv-x="578" 
d="M365 583q-39 0 -64.5 25.5t-25.5 63.5q0 52 42 92t94 40q39 0 64 -25t25 -62q0 -53 -41.5 -93.5t-93.5 -40.5zM399 749q-25 0 -46 -20t-21 -46q0 -19 12.5 -31.5t31.5 -12.5q26 0 47 20t21 46q0 19 -13 31.5t-32 12.5zM340 529q89 0 139 -45.5t50 -122.5q0 -8 -0.5 -14.5
t-1.5 -14.5t-3.5 -22.5t-5.5 -29l-9 -43.5t-12 -57.5t-17 -79t-21 -100.5h-119q9 43 11 54q-69 -66 -168 -66q-75 0 -121.5 38t-46.5 101q0 87 72.5 142.5t168.5 55.5q72 0 145 -30q9 43 9 56q0 78 -98 78q-62 0 -152 -42l-33 89q116 53 213 53zM373 167l1 -3q2 8 4.5 21
t4.5 22t4 17q-51 16 -115 16q-54 0 -96.5 -32t-42.5 -75q0 -27 21.5 -41.5t57.5 -14.5q50 0 97 25t64 65z" />
    <glyph glyph-name="atilde.alt" horiz-adv-x="578" 
d="M318 629q-42 0 -65 -62l-61 19q40 123 124 123q26 0 49 -14t40 -28t30 -14q41 0 64 62l62 -19q-40 -123 -124 -123q-27 0 -49.5 14t-39.5 28t-30 14zM340 529q89 0 139 -45.5t50 -122.5q0 -8 -0.5 -14.5t-1.5 -14.5t-3.5 -22.5t-5.5 -29l-9 -43.5t-12 -57.5t-17 -79
t-21 -100.5h-119q9 43 11 54q-69 -66 -168 -66q-75 0 -121.5 38t-46.5 101q0 87 72.5 142.5t168.5 55.5q72 0 145 -30q9 43 9 56q0 78 -98 78q-62 0 -152 -42l-33 89q116 53 213 53zM373 167l1 -3q2 8 4.5 21t4.5 22t4 17q-51 16 -115 16q-54 0 -96.5 -32t-42.5 -75
q0 -27 21.5 -41.5t57.5 -14.5q50 0 97 25t64 65z" />
    <glyph glyph-name="ascender" horiz-adv-x="655" 
d="M17 0l145 699h122l-145 -699h-122z" />
    <glyph glyph-name="descender" horiz-adv-x="655" 
d="M-19 -172l143 689h122l-143 -689h-122z" />
    </font>
</defs>
</svg>
